<svg xmlns="http://www.w3.org/2000/svg" viewBox="0 0 60 60"><title>Asparagus</title><path d="M23.79,23.55l.27.34c-.07-.07-.13-.15-.19-.22A.83.83,0,0,1,23.79,23.55Z" style="fill:#1d9a46"/><path d="M26.81,26.08l.23.11-.23-.1L26.72,26Z" style="fill:#1d9a46"/><path d="M26.11,20.3a4.59,4.59,0,0,0-.15.44,3.89,3.89,0,0,0-.11.43c0,.13-.05.25-.07.37a3.22,3.22,0,0,0,0,.43,6.13,6.13,0,0,0,.05.74,2.05,2.05,0,0,1-.2-.23l-.08-.1a.6.6,0,0,1-.09-.13l-.05-.06a4.53,4.53,0,0,1-.3-.46q-.15-.24-.27-.48a2.16,2.16,0,0,1-.17-.34c0-.09-.08-.17-.11-.26a2.74,2.74,0,0,1-.15-.4.75.75,0,0,1-.05-.16,2.64,2.64,0,0,1-.12-.4,2.71,2.71,0,0,1-.09-.41,1.6,1.6,0,0,1-.05-.21c0-.12,0-.24-.05-.36s0-.26,0-.38,0-.43,0-.65a3.46,3.46,0,0,1,0-.43,6.4,6.4,0,0,1,.18-.95c0-.09.05-.18.08-.28a3.79,3.79,0,0,1,.12-.36c.06-.19.14-.4.23-.63.15-.4.35-.84.59-1.34a5.4,5.4,0,0,1,.26-.55l2.46,3.79a.61.61,0,0,1-.07.1c-.31.49-.59.95-.84,1.39A13.26,13.26,0,0,0,26.11,20.3Z" style="fill:#acf252"/><path d="M27.08,34.68l1.27,1.41h-.22a2.37,2.37,0,0,1-1.68-.4,2.49,2.49,0,0,1-.35-2.1Z" style="fill:#acf252"/><path d="M31.7,26.8h.07V42.24l-2.29,2.54a1.05,1.05,0,0,0-.24.95,1.07,1.07,0,0,0,.66.73l.05,0,.13,0,.07,0,.32.09.33.08.34.07.63.1v7.91H28.9V38.13l.42-.06.47-.1.44-.12.28-.08.16-.05a.87.87,0,0,0,.31-.18.45.45,0,0,0,.13-.11,1,1,0,0,0,.23-.43,1,1,0,0,0,0-.48.19.19,0,0,0,0-.07.86.86,0,0,0-.07-.21.7.7,0,0,0-.14-.21L28.9,33.58V26.79H29l.19,0,.18,0a4,4,0,0,0,.48.09,4.19,4.19,0,0,0,.5,0h0a4.07,4.07,0,0,0,1-.12l.18,0Z" style="fill:#1d9a46"/><path d="M32.34,23.66a2.18,2.18,0,0,1-.22.31l0,0a3,3,0,0,1-.58.49h0a1.22,1.22,0,0,1-.36.18l-.07,0a.67.67,0,0,0-.14.09h0a1.37,1.37,0,0,1-.29,0h0a1.37,1.37,0,0,1-.29,0,1.46,1.46,0,0,1-.29,0h-.29a.83.83,0,0,0-.16-.09l-.06,0a1.41,1.41,0,0,1-.37-.18s0,0,0,0l-.29-.21a2.9,2.9,0,0,1-.59-.71,3,3,0,0,1-.16-.31,3.29,3.29,0,0,1-.16-.44,2.2,2.2,0,0,1-.07-.37.13.13,0,0,1,0-.06,3,3,0,0,1,0-.42,1.16,1.16,0,0,1,0-.17,4.37,4.37,0,0,1,.22-.8,13.06,13.06,0,0,1,1-2.05c.16-.26.33-.55.52-.85l.39-.57,0,0c.09-.14.19-.29.3-.44l.33.47a20.81,20.81,0,0,1,1.72,2.94l.12.28.1.25a4.37,4.37,0,0,1,.22.8,1.16,1.16,0,0,1,0,.17,3,3,0,0,1,0,.42.13.13,0,0,1,0,.06,2.2,2.2,0,0,1-.07.37,3.29,3.29,0,0,1-.16.44,1.82,1.82,0,0,1-.16.31A.24.24,0,0,1,32.34,23.66Z" style="fill:#acf252"/><path d="M34,26l-.14.08-.23.1.23-.11Z" style="fill:#1d9a46"/><path d="M29.18,15.08l-2.6-4A59.48,59.48,0,0,1,30,5.87a.42.42,0,0,1,.33-.17.35.35,0,0,1,.24.08.28.28,0,0,1,.1.09c1.34,1.86,2.5,3.61,3.43,5.19l-2.62,4,0,0a1.53,1.53,0,0,0-.28-.29,1.43,1.43,0,0,0-2,.29Z" style="fill:#acf252"/><path d="M34.49,42.34a2.49,2.49,0,0,1-.35,2.1,2,2,0,0,1-1.31.42h0l-.55,0,1.35-1.5Z" style="fill:#acf252"/><path d="M36.6,19.07a1.6,1.6,0,0,1-.05.21,2.71,2.71,0,0,1-.09.41,2.64,2.64,0,0,1-.12.4.75.75,0,0,1-.05.16,2.67,2.67,0,0,1-.14.36,5,5,0,0,1-.21.48,7,7,0,0,1-.69,1.14.65.65,0,0,1-.1.15l-.08.09a2.05,2.05,0,0,1-.2.23,6,6,0,0,0,.05-.73,3.4,3.4,0,0,0,0-.53c0-.09,0-.2-.06-.3a4.61,4.61,0,0,0-.13-.46c0-.11-.07-.23-.11-.34a4.6,4.6,0,0,0-.22-.53c-.07-.18-.16-.37-.25-.57l-.06-.12c-.1-.21-.22-.42-.34-.64s-.12-.23-.19-.34l-.22-.37c-.14-.24-.3-.49-.46-.74a.61.61,0,0,1-.07-.1l2.46-3.79c.08.15.15.3.22.44s.13.28.19.41l.18.39c.1.23.19.44.26.64l0,.08a5.34,5.34,0,0,1,.2.55,7.69,7.69,0,0,1,.32,1.19,3.39,3.39,0,0,1,.06.41,3.46,3.46,0,0,1,0,.43c0,.22,0,.43,0,.65s0,.25,0,.38S36.62,19,36.6,19.07Z" style="fill:#acf252"/><path d="M36.6,23.89l.27-.34a.83.83,0,0,1-.08.12C36.73,23.74,36.67,23.82,36.6,23.89Z" style="fill:#1d9a46"/><path d="M38.65,16.28c-.09-.38-.2-.79-.34-1.22A9.89,9.89,0,0,1,38.65,16.28Z" style="fill:#1d9a46"/><path d="M31.34,26.8a4.07,4.07,0,0,1-1,.12l.57,0,.28,0a1.77,1.77,0,0,0,.32-.05Zm-2.19,0a1.27,1.27,0,0,0,.34.05l.25,0h.07a4,4,0,0,1-.48-.09Zm5.92-4.35.08-.09a.65.65,0,0,0,.1-.15Zm3.24-7.41c.14.43.25.84.34,1.22A9.89,9.89,0,0,0,38.31,15.06Z" style="fill:#05350f"/><path d="M29.59,24.71a.83.83,0,0,1,.16.09H30A2.18,2.18,0,0,1,29.59,24.71Zm1,.11a1.37,1.37,0,0,0,.29,0h0a.67.67,0,0,1,.14-.09A2.18,2.18,0,0,1,30.63,24.82Zm-.88,0H30a2.18,2.18,0,0,1-.44-.11A.83.83,0,0,1,29.75,24.8Zm-.16-.09a.83.83,0,0,1,.16.09H30A2.18,2.18,0,0,1,29.59,24.71Z" style="fill:#05350f"/><path d="M26.81,26.08l-.09,0,.09.05.23.1Zm-3-2.53a.83.83,0,0,0,.08.12c.06.07.12.15.19.22Z" style="fill:#05350f"/><path d="M33.86,26.08l-.23.11.23-.1L34,26Zm2.74-2.19c.07-.07.13-.15.19-.22a.83.83,0,0,0,.08-.12Z" style="fill:#05350f"/><path d="M31.34,36.52a1,1,0,0,1,0,.48h0A.83.83,0,0,0,31.34,36.52Z" style="fill:#05350f"/><path d="M31.34,26.8a4.07,4.07,0,0,1-1,.12l.57,0,.28,0a1.77,1.77,0,0,0,.32-.05Zm-2.19,0a1.27,1.27,0,0,0,.34.05l.25,0h.07a4,4,0,0,1-.48-.09Zm4.48-.63.23-.1h0Zm-6.82-.11h0l.23.1Z" style="fill:#05350f"/><path d="M38.77,17h0q0-.27-.09-.57l0-.16c-.09-.38-.2-.79-.34-1.22l-.15-.44c-.22-.59-.49-1.23-.81-1.9-.14-.28-.28-.57-.44-.87s-.24-.47-.38-.71l-.31-.56a64.76,64.76,0,0,0-3.86-5.94,3,3,0,0,0-.56-.56,2.52,2.52,0,0,0-3.49.56,65.29,65.29,0,0,0-3.87,5.94c-.43.76-.81,1.48-1.13,2.16l-.23.5A14.25,14.25,0,0,0,22,16.44q-.06.3-.09.57h0a5.07,5.07,0,0,0,0,.66c0,.25,0,.49,0,.74s.06.62.11.93a6.69,6.69,0,0,0,.16.75c.06.26.14.52.22.77s.15.42.24.63a6.14,6.14,0,0,0,.32.69l.15.28a2,2,0,0,0,.22.37c.06.11.13.21.2.32a4.73,4.73,0,0,0,.28.39l.27.34c.19.22.38.43.58.63A7.4,7.4,0,0,0,26,25.64a2.26,2.26,0,0,0,.26.16,2.86,2.86,0,0,0,.42.24l.09,0,.23.11-.23-.1v5.18l-.47-.52a1,1,0,0,0-1.76.37c-.94,2.84-.8,4.88.42,6.07a3.51,3.51,0,0,0,1.81.91V55.83a1,1,0,0,0,1,1h5a1,1,0,0,0,1-1v-9a3.46,3.46,0,0,0,1.73-.89c1.22-1.19,1.36-3.23.42-6.07a1,1,0,0,0-1.76-.37l-.39.43V26.09l-.23.1.23-.11L34,26a2.71,2.71,0,0,0,.37-.21c.12-.07.24-.14.35-.22a8,8,0,0,0,1.4-1.15,6.17,6.17,0,0,0,.48-.54l.27-.34a9.1,9.1,0,0,0,1.18-2.05,5.27,5.27,0,0,0,.19-.51,1.59,1.59,0,0,0,.07-.2,6,6,0,0,0,.2-.69,6.69,6.69,0,0,0,.16-.75c0-.31.09-.62.11-.93s0-.49,0-.74A5.07,5.07,0,0,0,38.77,17ZM30,5.87a.42.42,0,0,1,.33-.17.35.35,0,0,1,.24.08.28.28,0,0,1,.1.09c1.34,1.86,2.5,3.61,3.43,5.19l-2.62,4,0,0a1.53,1.53,0,0,0-.28-.29,1.43,1.43,0,0,0-2,.29l0,0-2.6-4A59.48,59.48,0,0,1,30,5.87ZM27,18.42a13.26,13.26,0,0,0-.88,1.88,4.59,4.59,0,0,0-.15.44,3.89,3.89,0,0,0-.11.43c0,.13-.05.25-.07.37a3.22,3.22,0,0,0,0,.43,6.13,6.13,0,0,0,.05.74,2.05,2.05,0,0,1-.2-.23l-.08-.1a.6.6,0,0,1-.09-.13l-.05-.06a4.53,4.53,0,0,1-.3-.46q-.15-.24-.27-.48a2.16,2.16,0,0,1-.17-.34c0-.09-.08-.17-.11-.26a2.74,2.74,0,0,1-.15-.4.75.75,0,0,1-.05-.16,2.64,2.64,0,0,1-.12-.4,2.71,2.71,0,0,1-.09-.41,1.6,1.6,0,0,1-.05-.21c0-.12,0-.24-.05-.36s0-.26,0-.38,0-.43,0-.65a3.46,3.46,0,0,1,0-.43,6.4,6.4,0,0,1,.18-.95c0-.09.05-.18.08-.28a3.79,3.79,0,0,1,.12-.36c.06-.19.14-.4.23-.63.15-.4.35-.84.59-1.34a5.4,5.4,0,0,1,.26-.55l2.46,3.79a.61.61,0,0,1-.07.1C27.52,17.52,27.24,18,27,18.42ZM28.13,36.1a2.37,2.37,0,0,1-1.68-.4,2.49,2.49,0,0,1-.35-2.1l1,1.08,1.27,1.41Zm3.64,6.14-2.29,2.54a1.05,1.05,0,0,0-.24.95,1.07,1.07,0,0,0,.66.73l.05,0,.13,0,.07,0,.32.09.33.08.34.07.63.1v7.91H28.9V38.13l.42-.06.47-.1.44-.12.28-.08.16-.05a.87.87,0,0,0,.31-.18.45.45,0,0,0,.13-.11,1,1,0,0,0,.23-.43,1,1,0,0,0,0-.48.19.19,0,0,0,0-.07.86.86,0,0,0-.07-.21.7.7,0,0,0-.14-.21L28.9,33.58V26.79H29l.19,0,.18,0a4,4,0,0,0,.48.09,4.19,4.19,0,0,0,.5,0h0a4.07,4.07,0,0,0,1-.12l.18,0,.18,0h.07ZM32.1,24a3,3,0,0,1-.58.49h0a1.22,1.22,0,0,1-.36.18l-.07,0a.67.67,0,0,0-.14.09h0a1.37,1.37,0,0,1-.29,0h0a1.37,1.37,0,0,1-.29,0,1.46,1.46,0,0,1-.29,0h-.29a.83.83,0,0,0-.16-.09l-.06,0a1.41,1.41,0,0,1-.37-.18s0,0,0,0l-.29-.21a2.9,2.9,0,0,1-.59-.71,3,3,0,0,1-.16-.31,3.29,3.29,0,0,1-.16-.44,2.2,2.2,0,0,1-.07-.37.13.13,0,0,1,0-.06,3,3,0,0,1,0-.42,1.16,1.16,0,0,1,0-.17,4.37,4.37,0,0,1,.22-.8,13.06,13.06,0,0,1,1-2.05c.16-.26.33-.55.52-.85l.39-.57,0,0c.09-.14.19-.29.3-.44l.33.47a20.81,20.81,0,0,1,1.72,2.94l.12.28.1.25a4.37,4.37,0,0,1,.22.8,1.16,1.16,0,0,1,0,.17,3,3,0,0,1,0,.42.13.13,0,0,1,0,.06,2.2,2.2,0,0,1-.07.37,3.29,3.29,0,0,1-.16.44,1.82,1.82,0,0,1-.16.31.24.24,0,0,1-.06.09,2.18,2.18,0,0,1-.22.31Zm2.39,18.34a2.49,2.49,0,0,1-.35,2.1,2,2,0,0,1-1.31.42h0l-.55,0,1.35-1.5Zm2.2-24c0,.12,0,.25,0,.38s0,.24,0,.36a1.6,1.6,0,0,1-.05.21,2.71,2.71,0,0,1-.09.41,2.64,2.64,0,0,1-.12.4.75.75,0,0,1-.05.16,2.67,2.67,0,0,1-.14.36,5,5,0,0,1-.21.48,7,7,0,0,1-.69,1.14.65.65,0,0,1-.1.15l-.08.09a2.05,2.05,0,0,1-.2.23,6,6,0,0,0,.05-.73,3.4,3.4,0,0,0,0-.53c0-.09,0-.2-.06-.3a4.61,4.61,0,0,0-.13-.46c0-.11-.07-.23-.11-.34a4.6,4.6,0,0,0-.22-.53c-.07-.18-.16-.37-.25-.57l-.06-.12c-.1-.21-.22-.42-.34-.64s-.12-.23-.19-.34l-.22-.37c-.14-.24-.3-.49-.46-.74a.61.61,0,0,1-.07-.1l2.46-3.79c.08.15.15.3.22.44s.13.28.19.41l.18.39c.1.23.19.44.26.64l0,.08a5.34,5.34,0,0,1,.2.55,7.69,7.69,0,0,1,.32,1.19,3.39,3.39,0,0,1,.06.41,3.46,3.46,0,0,1,0,.43C36.72,17.9,36.71,18.11,36.69,18.33Z" style="fill:#05350f"/><path d="M6.9,20.3a4.59,4.59,0,0,0-.15.44,3.89,3.89,0,0,0-.11.43c0,.13,0,.25-.07.37a3.22,3.22,0,0,0,0,.43,6.13,6.13,0,0,0,0,.74,2.05,2.05,0,0,1-.2-.23l-.08-.1a.6.6,0,0,1-.09-.13l0-.06a4.53,4.53,0,0,1-.3-.46q-.15-.24-.27-.48a2.16,2.16,0,0,1-.17-.34c0-.09-.08-.17-.11-.26a2.74,2.74,0,0,1-.15-.4.75.75,0,0,1,0-.16,2.64,2.64,0,0,1-.12-.4,2.71,2.71,0,0,1-.09-.41,1.6,1.6,0,0,1,0-.21c0-.12,0-.24-.05-.36s0-.26,0-.38,0-.43,0-.65a3.46,3.46,0,0,1,0-.43A6.4,6.4,0,0,1,5,16.3c0-.09,0-.18.08-.28a3.79,3.79,0,0,1,.12-.36c.06-.19.14-.4.23-.63.15-.4.35-.84.59-1.34a5.4,5.4,0,0,1,.26-.55l2.46,3.79a.61.61,0,0,1-.07.1c-.31.49-.59.95-.84,1.39A13.26,13.26,0,0,0,6.9,20.3Z" style="fill:#acf252"/><path d="M7.87,34.68l1.27,1.41H8.92a2.37,2.37,0,0,1-1.68-.4,2.49,2.49,0,0,1-.35-2.1Z" style="fill:#acf252"/><path d="M12.49,26.8h.07V42.24l-2.29,2.54a1.05,1.05,0,0,0-.24.95,1.07,1.07,0,0,0,.66.73l.05,0,.13,0,.07,0,.32.09.33.08.34.07.63.1v7.91H9.69V38.13l.42-.06.47-.1.44-.12.28-.08.16-.05a.87.87,0,0,0,.31-.18.45.45,0,0,0,.13-.11,1,1,0,0,0,.23-.43,1,1,0,0,0,0-.48.19.19,0,0,0,0-.07.86.86,0,0,0-.07-.21A.7.7,0,0,0,11.9,36L9.69,33.58V26.79h.06l.19,0,.18,0a4,4,0,0,0,.48.09,4.19,4.19,0,0,0,.5,0h0a4.07,4.07,0,0,0,1-.12l.18,0Z" style="fill:#1d9a46"/><path d="M13.13,23.66a2.18,2.18,0,0,1-.22.31l0,0a1.66,1.66,0,0,1-.27.26,1.66,1.66,0,0,1-.31.23h0a1.22,1.22,0,0,1-.36.18l-.07,0a.67.67,0,0,0-.14.09h0a1.37,1.37,0,0,1-.29,0h0a1.37,1.37,0,0,1-.29,0,1.46,1.46,0,0,1-.29,0h-.29a.83.83,0,0,0-.16-.09l-.06,0A1.41,1.41,0,0,1,10,24.5s0,0,0,0l-.29-.21a2.9,2.9,0,0,1-.59-.71,3,3,0,0,1-.16-.31,3.29,3.29,0,0,1-.16-.44,2.2,2.2,0,0,1-.07-.37.13.13,0,0,1,0-.06,3,3,0,0,1,0-.42,1.16,1.16,0,0,1,0-.17,4.37,4.37,0,0,1,.22-.8,13.06,13.06,0,0,1,1-2.05c.16-.26.33-.55.52-.85l.39-.57,0,0c.09-.14.19-.29.3-.44l.33.47a20.81,20.81,0,0,1,1.72,2.94l.12.28c0,.09.07.17.1.25a4.37,4.37,0,0,1,.22.8,1.16,1.16,0,0,1,0,.17,3,3,0,0,1,0,.42.13.13,0,0,1,0,.06,2.2,2.2,0,0,1-.07.37,3.29,3.29,0,0,1-.16.44,1.82,1.82,0,0,1-.16.31A.24.24,0,0,1,13.13,23.66Z" style="fill:#acf252"/><path d="M14.79,26l-.14.08-.23.1.23-.11Z" style="fill:#1d9a46"/><path d="M10,15.08l-2.6-4a59.48,59.48,0,0,1,3.42-5.19.42.42,0,0,1,.33-.17.35.35,0,0,1,.24.08.28.28,0,0,1,.1.09c1.34,1.86,2.5,3.61,3.43,5.19l-2.62,4,0,0a1.53,1.53,0,0,0-.28-.29,1.43,1.43,0,0,0-2,.29Z" style="fill:#acf252"/><path d="M15.28,42.34a2.49,2.49,0,0,1-.35,2.1,2,2,0,0,1-1.31.42h0l-.55,0,1.35-1.5Z" style="fill:#acf252"/><path d="M17.39,19.07a1.6,1.6,0,0,1-.05.21,2.71,2.71,0,0,1-.09.41,2.64,2.64,0,0,1-.12.4.75.75,0,0,1-.05.16,2.67,2.67,0,0,1-.14.36,5,5,0,0,1-.21.48A7,7,0,0,1,16,22.23a.65.65,0,0,1-.1.15l-.08.09a2.05,2.05,0,0,1-.2.23,6,6,0,0,0,.05-.73,3.4,3.4,0,0,0,0-.53l-.06-.3a4.61,4.61,0,0,0-.13-.46c0-.11-.07-.23-.11-.34a4.6,4.6,0,0,0-.22-.53c-.07-.18-.16-.37-.25-.57l-.06-.12c-.1-.21-.22-.42-.34-.64s-.12-.23-.19-.34l-.22-.37c-.14-.24-.3-.49-.46-.74a.61.61,0,0,1-.07-.1L16,13.14c.08.15.15.3.22.44s.13.28.19.41l.18.39c.1.23.19.44.26.64l0,.08a5.34,5.34,0,0,1,.2.55,7.69,7.69,0,0,1,.32,1.19,3.39,3.39,0,0,1,.06.41,3.46,3.46,0,0,1,0,.43c0,.22,0,.43,0,.65s0,.25,0,.38S17.41,19,17.39,19.07Z" style="fill:#acf252"/><path d="M12.13,26.8a4.07,4.07,0,0,1-1,.12l.57,0,.28,0a1.77,1.77,0,0,0,.32-.05Zm-2.19,0a1.27,1.27,0,0,0,.34.05l.25,0h.07a4,4,0,0,1-.48-.09Zm5.92-4.35.08-.09a.65.65,0,0,0,.1-.15Zm3.24-7.41c.14.43.25.84.34,1.22A9.89,9.89,0,0,0,19.1,15.06Z" style="fill:#05350f"/><path d="M10.38,24.71a.83.83,0,0,1,.16.09h.28A2.18,2.18,0,0,1,10.38,24.71Zm1,.11a1.37,1.37,0,0,0,.29,0h0a.67.67,0,0,1,.14-.09A2.18,2.18,0,0,1,11.42,24.82Zm-.88,0h.28a2.18,2.18,0,0,1-.44-.11A.83.83,0,0,1,10.54,24.8Zm-.16-.09a.83.83,0,0,1,.16.09h.28A2.18,2.18,0,0,1,10.38,24.71Z" style="fill:#05350f"/><path d="M14.65,26.08l-.23.11.23-.1.14-.08Zm2.74-2.19c.07-.07.13-.15.19-.22a.83.83,0,0,0,.08-.12Z" style="fill:#05350f"/><path d="M12.13,36.52a1,1,0,0,1,0,.48h0A.83.83,0,0,0,12.13,36.52Z" style="fill:#05350f"/><path d="M12.13,26.8a4.07,4.07,0,0,1-1,.12l.57,0,.28,0a1.77,1.77,0,0,0,.32-.05Zm-2.19,0a1.27,1.27,0,0,0,.34.05l.25,0h.07a4,4,0,0,1-.48-.09Zm4.48-.63.23-.1h0ZM7.6,26.08h0l.23.1Z" style="fill:#05350f"/><path d="M19.56,17h0q0-.27-.09-.57l0-.16c-.09-.38-.2-.79-.34-1.22L19,14.62c-.22-.59-.49-1.23-.81-1.9-.14-.28-.28-.57-.44-.87s-.24-.47-.38-.71L17,10.58a64.76,64.76,0,0,0-3.86-5.94,3,3,0,0,0-.56-.56,2.52,2.52,0,0,0-3.49.56,65.29,65.29,0,0,0-3.87,5.94c-.43.76-.81,1.48-1.13,2.16l-.23.5a14.25,14.25,0,0,0-1.09,3.2q-.06.3-.09.57h0a5.07,5.07,0,0,0,0,.66c0,.25,0,.49,0,.74s.06.62.11.93A6.69,6.69,0,0,0,3,20.1c.06.26.14.52.22.77s.15.42.24.63a6.14,6.14,0,0,0,.32.69l.15.28a2,2,0,0,0,.22.37c.06.11.13.21.2.32a4.73,4.73,0,0,0,.28.39l.27.34c.19.22.38.43.58.63a7.4,7.4,0,0,0,1.4,1.12,2.26,2.26,0,0,0,.26.16,2.86,2.86,0,0,0,.42.24l.09,0,.23.11-.23-.1v5.18l-.47-.52a1,1,0,0,0-1.76.37c-.94,2.84-.8,4.88.42,6.07a3.51,3.51,0,0,0,1.81.91V55.83a1,1,0,0,0,1,1h5a1,1,0,0,0,1.05-1v-9a3.46,3.46,0,0,0,1.73-.89c1.22-1.19,1.36-3.23.42-6.07A1,1,0,0,0,15,39.49l-.39.43V26.09l-.23.1.23-.11.14-.07a2.71,2.71,0,0,0,.37-.21c.12-.07.24-.14.35-.22a8,8,0,0,0,1.4-1.15,6.17,6.17,0,0,0,.48-.54l.27-.34a9.1,9.1,0,0,0,1.18-2.05A5.27,5.27,0,0,0,19,21a1.59,1.59,0,0,0,.07-.2,6,6,0,0,0,.2-.69,6.69,6.69,0,0,0,.16-.75c.05-.31.09-.62.11-.93s0-.49,0-.74A5.07,5.07,0,0,0,19.56,17ZM10.79,5.87a.42.42,0,0,1,.33-.17.35.35,0,0,1,.24.08.28.28,0,0,1,.1.09c1.34,1.86,2.5,3.61,3.43,5.19l-2.62,4,0,0a1.53,1.53,0,0,0-.28-.29,1.43,1.43,0,0,0-2,.29l0,0-2.6-4A59.48,59.48,0,0,1,10.79,5.87Zm-3,12.55A13.26,13.26,0,0,0,6.9,20.3a4.59,4.59,0,0,0-.15.44,3.89,3.89,0,0,0-.11.43c0,.13,0,.25-.07.37a3.22,3.22,0,0,0,0,.43,6.13,6.13,0,0,0,0,.74,2.05,2.05,0,0,1-.2-.23l-.08-.1a.6.6,0,0,1-.09-.13l0-.06a4.53,4.53,0,0,1-.3-.46q-.15-.24-.27-.48a2.16,2.16,0,0,1-.17-.34c0-.09-.08-.17-.11-.26a2.74,2.74,0,0,1-.15-.4.75.75,0,0,1,0-.16,2.64,2.64,0,0,1-.12-.4,2.71,2.71,0,0,1-.09-.41,1.6,1.6,0,0,1,0-.21c0-.12,0-.24-.05-.36s0-.26,0-.38,0-.43,0-.65a3.46,3.46,0,0,1,0-.43A6.4,6.4,0,0,1,5,16.3c0-.09,0-.18.08-.28a3.79,3.79,0,0,1,.12-.36c.06-.19.14-.4.23-.63.15-.4.35-.84.59-1.34a5.4,5.4,0,0,1,.26-.55l2.46,3.79a.61.61,0,0,1-.07.1C8.31,17.52,8,18,7.78,18.42ZM8.92,36.1a2.37,2.37,0,0,1-1.68-.4,2.49,2.49,0,0,1-.35-2.1l1,1.08,1.27,1.41Zm3.64,6.14-2.29,2.54a1.05,1.05,0,0,0-.24.95,1.07,1.07,0,0,0,.66.73l.05,0,.13,0,.07,0,.32.09.33.08.34.07.63.1v7.91H9.69V38.13l.42-.06.47-.1.44-.12.28-.08.16-.05a.87.87,0,0,0,.31-.18.45.45,0,0,0,.13-.11,1,1,0,0,0,.23-.43,1,1,0,0,0,0-.48.19.19,0,0,0,0-.07.86.86,0,0,0-.07-.21A.7.7,0,0,0,11.9,36L9.69,33.58V26.79h.06l.19,0,.18,0a4,4,0,0,0,.48.09,4.19,4.19,0,0,0,.5,0h0a4.07,4.07,0,0,0,1-.12l.18,0,.18,0h.07ZM12.89,24a1.66,1.66,0,0,1-.27.26,1.66,1.66,0,0,1-.31.23h0a1.22,1.22,0,0,1-.36.18l-.07,0a.67.67,0,0,0-.14.09h0a1.37,1.37,0,0,1-.29,0h0a1.37,1.37,0,0,1-.29,0,1.46,1.46,0,0,1-.29,0h-.29a.83.83,0,0,0-.16-.09l-.06,0A1.41,1.41,0,0,1,10,24.5s0,0,0,0l-.29-.21a2.9,2.9,0,0,1-.59-.71,3,3,0,0,1-.16-.31,3.29,3.29,0,0,1-.16-.44,2.2,2.2,0,0,1-.07-.37.13.13,0,0,1,0-.06,3,3,0,0,1,0-.42,1.16,1.16,0,0,1,0-.17,4.37,4.37,0,0,1,.22-.8,13.06,13.06,0,0,1,1-2.05c.16-.26.33-.55.52-.85l.39-.57,0,0c.09-.14.19-.29.3-.44l.33.47a20.81,20.81,0,0,1,1.72,2.94l.12.28c0,.09.07.17.1.25a4.37,4.37,0,0,1,.22.8,1.16,1.16,0,0,1,0,.17,3,3,0,0,1,0,.42.13.13,0,0,1,0,.06,2.2,2.2,0,0,1-.07.37,3.29,3.29,0,0,1-.16.44,1.82,1.82,0,0,1-.16.31.24.24,0,0,1-.06.09,2.18,2.18,0,0,1-.22.31Zm2.39,18.34a2.49,2.49,0,0,1-.35,2.1,2,2,0,0,1-1.31.42h0l-.55,0,1.35-1.5Zm2.2-24c0,.12,0,.25,0,.38s0,.24-.05.36a1.6,1.6,0,0,1-.05.21,2.71,2.71,0,0,1-.09.41,2.64,2.64,0,0,1-.12.4.75.75,0,0,1-.05.16,2.67,2.67,0,0,1-.14.36,5,5,0,0,1-.21.48A7,7,0,0,1,16,22.23a.65.65,0,0,1-.1.15l-.08.09a2.05,2.05,0,0,1-.2.23,6,6,0,0,0,.05-.73,3.4,3.4,0,0,0,0-.53l-.06-.3a4.61,4.61,0,0,0-.13-.46c0-.11-.07-.23-.11-.34a4.6,4.6,0,0,0-.22-.53c-.07-.18-.16-.37-.25-.57l-.06-.12c-.1-.21-.22-.42-.34-.64s-.12-.23-.19-.34l-.22-.37c-.14-.24-.3-.49-.46-.74a.61.61,0,0,1-.07-.1L16,13.14c.08.15.15.3.22.44s.13.28.19.41l.18.39c.1.23.19.44.26.64l0,.08a5.34,5.34,0,0,1,.2.55,7.69,7.69,0,0,1,.32,1.19,3.39,3.39,0,0,1,.06.41,3.46,3.46,0,0,1,0,.43C17.51,17.9,17.5,18.11,17.48,18.33Z" style="fill:#05350f"/><path d="M41.79,23.55l.27.34c-.07-.07-.13-.15-.19-.22Z" style="fill:#1d9a46"/><path d="M44.81,26.08l.23.11-.23-.1L44.72,26Z" style="fill:#1d9a46"/><path d="M44.11,20.3a4.59,4.59,0,0,0-.15.44,3.89,3.89,0,0,0-.11.43c0,.13-.05.25-.07.37a3.22,3.22,0,0,0,0,.43,6.13,6.13,0,0,0,0,.74,2.05,2.05,0,0,1-.2-.23l-.08-.1a.6.6,0,0,1-.09-.13l0-.06a4.53,4.53,0,0,1-.3-.46q-.15-.24-.27-.48a2.16,2.16,0,0,1-.17-.34c0-.09-.08-.17-.11-.26a2.74,2.74,0,0,1-.15-.4.75.75,0,0,1-.05-.16,2.64,2.64,0,0,1-.12-.4,2.71,2.71,0,0,1-.09-.41,1.6,1.6,0,0,1,0-.21c0-.12,0-.24,0-.36s0-.26,0-.38,0-.43,0-.65a3.46,3.46,0,0,1,0-.43,6.4,6.4,0,0,1,.18-.95c0-.09.05-.18.08-.28a3.79,3.79,0,0,1,.12-.36c.06-.19.14-.4.23-.63.15-.4.35-.84.59-1.34a5.4,5.4,0,0,1,.26-.55l2.46,3.79a.61.61,0,0,1-.07.1c-.31.49-.59.95-.84,1.39A13.26,13.26,0,0,0,44.11,20.3Z" style="fill:#acf252"/><path d="M45.08,34.68l1.27,1.41h-.22a2.37,2.37,0,0,1-1.68-.4,2.49,2.49,0,0,1-.35-2.1Z" style="fill:#acf252"/><path d="M49.7,26.8h.07V42.24l-2.29,2.54a1.05,1.05,0,0,0-.24.95,1.07,1.07,0,0,0,.66.73l.05,0,.13,0,.07,0,.32.09.33.08.34.07.63.1v7.91H46.9V38.13l.42-.06.47-.1.44-.12.28-.08.16-.05a.87.87,0,0,0,.31-.18.45.45,0,0,0,.13-.11,1,1,0,0,0,.23-.43,1,1,0,0,0,0-.48.19.19,0,0,0,0-.07.86.86,0,0,0-.07-.21.7.7,0,0,0-.14-.21L46.9,33.58V26.79H47l.19,0,.18,0a4,4,0,0,0,.48.09,4.19,4.19,0,0,0,.5,0h0a4.07,4.07,0,0,0,1-.12l.18,0Z" style="fill:#1d9a46"/><path d="M50.34,23.66a2.18,2.18,0,0,1-.22.31l0,0a3,3,0,0,1-.58.49h0a1.22,1.22,0,0,1-.36.18l-.07,0a.67.67,0,0,0-.14.09h0a1.37,1.37,0,0,1-.29,0h0a1.37,1.37,0,0,1-.29,0,1.46,1.46,0,0,1-.29,0h-.29a.83.83,0,0,0-.16-.09l-.06,0a1.41,1.41,0,0,1-.37-.18s0,0,0,0l-.29-.21a2.9,2.9,0,0,1-.59-.71,3,3,0,0,1-.16-.31,3.29,3.29,0,0,1-.16-.44,2.2,2.2,0,0,1-.07-.37.13.13,0,0,1,0-.06,3,3,0,0,1,0-.42,1.16,1.16,0,0,1,0-.17,4.37,4.37,0,0,1,.22-.8,13.06,13.06,0,0,1,1-2.05c.16-.26.33-.55.52-.85s.26-.37.39-.57l0,0c.09-.14.19-.29.3-.44l.33.47a20.81,20.81,0,0,1,1.72,2.94l.12.28.1.25a4.37,4.37,0,0,1,.22.8,1.16,1.16,0,0,1,0,.17,3,3,0,0,1,0,.42.13.13,0,0,1,0,.06,2.2,2.2,0,0,1-.07.37,3.29,3.29,0,0,1-.16.44,1.82,1.82,0,0,1-.16.31A.24.24,0,0,1,50.34,23.66Z" style="fill:#acf252"/><path d="M52,26l-.14.08-.23.1.23-.11Z" style="fill:#1d9a46"/><path d="M47.18,15.08l-2.6-4A59.48,59.48,0,0,1,48,5.87a.42.42,0,0,1,.33-.17.35.35,0,0,1,.24.08.28.28,0,0,1,.1.09c1.34,1.86,2.5,3.61,3.43,5.19l-2.62,4,0,0a1.53,1.53,0,0,0-.28-.29,1.43,1.43,0,0,0-2,.29Z" style="fill:#acf252"/><path d="M52.49,42.34a2.49,2.49,0,0,1-.35,2.1,2,2,0,0,1-1.31.42h0l-.55,0,1.35-1.5Z" style="fill:#acf252"/><path d="M54.6,19.07a1.6,1.6,0,0,1-.05.21,2.71,2.71,0,0,1-.09.41,2.64,2.64,0,0,1-.12.4.75.75,0,0,1-.05.16,2.67,2.67,0,0,1-.14.36,5,5,0,0,1-.21.48,7,7,0,0,1-.69,1.14.65.65,0,0,1-.1.15l-.08.09a2.05,2.05,0,0,1-.2.23,6,6,0,0,0,.05-.73,3.4,3.4,0,0,0,0-.53c0-.09,0-.2-.06-.3a4.61,4.61,0,0,0-.13-.46c0-.11-.07-.23-.11-.34a4.6,4.6,0,0,0-.22-.53c-.07-.18-.16-.37-.25-.57l-.06-.12c-.1-.21-.22-.42-.34-.64s-.12-.23-.19-.34l-.22-.37c-.14-.24-.3-.49-.46-.74a.61.61,0,0,1-.07-.1l2.46-3.79c.08.15.15.3.22.44s.13.28.19.41l.18.39c.1.23.19.44.26.64l0,.08a5.34,5.34,0,0,1,.2.55,7.69,7.69,0,0,1,.32,1.19,3.39,3.39,0,0,1,.06.41,3.46,3.46,0,0,1,0,.43c0,.22,0,.43,0,.65s0,.25,0,.38S54.62,19,54.6,19.07Z" style="fill:#acf252"/><path d="M54.6,23.89l.27-.34a.83.83,0,0,1-.08.12C54.73,23.74,54.67,23.82,54.6,23.89Z" style="fill:#1d9a46"/><path d="M56.65,16.28c-.09-.38-.2-.79-.34-1.22A9.89,9.89,0,0,1,56.65,16.28Z" style="fill:#1d9a46"/><path d="M49.34,26.8a4.07,4.07,0,0,1-1,.12l.57,0,.28,0a1.77,1.77,0,0,0,.32-.05Zm-2.19,0a1.27,1.27,0,0,0,.34.05l.25,0h.07a4,4,0,0,1-.48-.09Zm5.92-4.35.08-.09a.65.65,0,0,0,.1-.15Zm3.24-7.41c.14.43.25.84.34,1.22A9.89,9.89,0,0,0,56.31,15.06Z" style="fill:#05350f"/><path d="M47.59,24.71a.83.83,0,0,1,.16.09H48A2.18,2.18,0,0,1,47.59,24.71Zm1,.11a1.37,1.37,0,0,0,.29,0h0a.67.67,0,0,1,.14-.09A2.18,2.18,0,0,1,48.63,24.82Zm-.88,0H48a2.18,2.18,0,0,1-.44-.11A.83.83,0,0,1,47.75,24.8Zm-.16-.09a.83.83,0,0,1,.16.09H48A2.18,2.18,0,0,1,47.59,24.71Z" style="fill:#05350f"/><path d="M44.81,26.08l-.09,0,.09.05.23.1Zm-3-2.53.08.12c.06.07.12.15.19.22Z" style="fill:#05350f"/><path d="M51.86,26.08l-.23.11.23-.1L52,26Zm2.74-2.19c.07-.07.13-.15.19-.22a.83.83,0,0,0,.08-.12Z" style="fill:#05350f"/><path d="M49.34,36.52a1,1,0,0,1,0,.48h0A.83.83,0,0,0,49.34,36.52Z" style="fill:#05350f"/><path d="M49.34,26.8a4.07,4.07,0,0,1-1,.12l.57,0,.28,0a1.77,1.77,0,0,0,.32-.05Zm-2.19,0a1.27,1.27,0,0,0,.34.05l.25,0h.07a4,4,0,0,1-.48-.09Zm4.48-.63.23-.1h0Zm-6.82-.11h0l.23.1Z" style="fill:#05350f"/><path d="M56.77,17h0q0-.27-.09-.57l0-.16c-.09-.38-.2-.79-.34-1.22l-.15-.44c-.22-.59-.49-1.23-.81-1.9-.14-.28-.28-.57-.44-.87s-.24-.47-.38-.71l-.31-.56a64.76,64.76,0,0,0-3.86-5.94,3,3,0,0,0-.56-.56,2.52,2.52,0,0,0-3.49.56,65.29,65.29,0,0,0-3.87,5.94c-.43.76-.81,1.48-1.13,2.16l-.23.5A14.25,14.25,0,0,0,40,16.44q-.06.3-.09.57h0a5.07,5.07,0,0,0,0,.66c0,.25,0,.49,0,.74s.06.62.11.93a6.69,6.69,0,0,0,.16.75c.06.26.14.52.22.77s.15.42.24.63a6.14,6.14,0,0,0,.32.69l.15.28a2,2,0,0,0,.22.37c.06.11.13.21.2.32a4.73,4.73,0,0,0,.28.39l.27.34c.19.22.38.43.58.63A7.4,7.4,0,0,0,44,25.64a2.26,2.26,0,0,0,.26.16,2.86,2.86,0,0,0,.42.24l.09,0,.23.11-.23-.1v5.18l-.47-.52a1,1,0,0,0-1.76.37c-.94,2.84-.8,4.88.42,6.07a3.51,3.51,0,0,0,1.81.91V55.83a1,1,0,0,0,1,1h5a1,1,0,0,0,1-1v-9a3.46,3.46,0,0,0,1.73-.89c1.22-1.19,1.36-3.23.42-6.07a1,1,0,0,0-1.76-.37l-.39.43V26.09l-.23.1.23-.11L52,26a2.71,2.71,0,0,0,.37-.21c.12-.07.24-.14.35-.22a8,8,0,0,0,1.4-1.15,6.17,6.17,0,0,0,.48-.54l.27-.34a9.1,9.1,0,0,0,1.18-2.05,5.27,5.27,0,0,0,.19-.51,1.59,1.59,0,0,0,.07-.2,6,6,0,0,0,.2-.69,6.69,6.69,0,0,0,.16-.75c0-.31.09-.62.11-.93s0-.49,0-.74A5.07,5.07,0,0,0,56.77,17ZM48,5.87a.42.42,0,0,1,.33-.17.35.35,0,0,1,.24.08.28.28,0,0,1,.1.09c1.34,1.86,2.5,3.61,3.43,5.19l-2.62,4,0,0a1.53,1.53,0,0,0-.28-.29,1.43,1.43,0,0,0-2,.29l0,0-2.6-4A59.48,59.48,0,0,1,48,5.87ZM45,18.42a13.26,13.26,0,0,0-.88,1.88,4.59,4.59,0,0,0-.15.44,3.89,3.89,0,0,0-.11.43c0,.13-.05.25-.07.37a3.22,3.22,0,0,0,0,.43,6.13,6.13,0,0,0,0,.74,2.05,2.05,0,0,1-.2-.23l-.08-.1a.6.6,0,0,1-.09-.13l0-.06a4.53,4.53,0,0,1-.3-.46q-.15-.24-.27-.48a2.16,2.16,0,0,1-.17-.34c0-.09-.08-.17-.11-.26a2.74,2.74,0,0,1-.15-.4.75.75,0,0,1-.05-.16,2.64,2.64,0,0,1-.12-.4,2.71,2.71,0,0,1-.09-.41,1.6,1.6,0,0,1,0-.21c0-.12,0-.24,0-.36s0-.26,0-.38,0-.43,0-.65a3.46,3.46,0,0,1,0-.43,6.4,6.4,0,0,1,.18-.95c0-.09.05-.18.08-.28a3.79,3.79,0,0,1,.12-.36c.06-.19.14-.4.23-.63.15-.4.35-.84.59-1.34a5.4,5.4,0,0,1,.26-.55l2.46,3.79a.61.61,0,0,1-.07.1C45.52,17.52,45.24,18,45,18.42ZM46.13,36.1a2.37,2.37,0,0,1-1.68-.4,2.49,2.49,0,0,1-.35-2.1l1,1.08,1.27,1.41Zm3.64,6.14-2.29,2.54a1.05,1.05,0,0,0-.24.95,1.07,1.07,0,0,0,.66.73l.05,0,.13,0,.07,0,.32.09.33.08.34.07.63.1v7.91H46.9V38.13l.42-.06.47-.1.44-.12.28-.08.16-.05a.87.87,0,0,0,.31-.18.45.45,0,0,0,.13-.11,1,1,0,0,0,.23-.43,1,1,0,0,0,0-.48.19.19,0,0,0,0-.07.86.86,0,0,0-.07-.21.7.7,0,0,0-.14-.21L46.9,33.58V26.79H47l.19,0,.18,0a4,4,0,0,0,.48.09,4.19,4.19,0,0,0,.5,0h0a4.07,4.07,0,0,0,1-.12l.18,0,.18,0h.07ZM50.1,24a3,3,0,0,1-.58.49h0a1.22,1.22,0,0,1-.36.18l-.07,0a.67.67,0,0,0-.14.09h0a1.37,1.37,0,0,1-.29,0h0a1.37,1.37,0,0,1-.29,0,1.46,1.46,0,0,1-.29,0h-.29a.83.83,0,0,0-.16-.09l-.06,0a1.41,1.41,0,0,1-.37-.18s0,0,0,0l-.29-.21a2.9,2.9,0,0,1-.59-.71,3,3,0,0,1-.16-.31,3.29,3.29,0,0,1-.16-.44,2.2,2.2,0,0,1-.07-.37.13.13,0,0,1,0-.06,3,3,0,0,1,0-.42,1.16,1.16,0,0,1,0-.17,4.37,4.37,0,0,1,.22-.8,13.06,13.06,0,0,1,1-2.05c.16-.26.33-.55.52-.85s.26-.37.39-.57l0,0c.09-.14.19-.29.3-.44l.33.47a20.81,20.81,0,0,1,1.72,2.94l.12.28.1.25a4.37,4.37,0,0,1,.22.8,1.16,1.16,0,0,1,0,.17,3,3,0,0,1,0,.42.13.13,0,0,1,0,.06,2.2,2.2,0,0,1-.07.37,3.29,3.29,0,0,1-.16.44,1.82,1.82,0,0,1-.16.31.24.24,0,0,1-.06.09,2.18,2.18,0,0,1-.22.31Zm2.39,18.34a2.49,2.49,0,0,1-.35,2.1,2,2,0,0,1-1.31.42h0l-.55,0,1.35-1.5Zm2.2-24c0,.12,0,.25,0,.38s0,.24,0,.36a1.6,1.6,0,0,1-.05.21,2.71,2.71,0,0,1-.09.41,2.64,2.64,0,0,1-.12.4.75.75,0,0,1-.05.16,2.67,2.67,0,0,1-.14.36,5,5,0,0,1-.21.48,7,7,0,0,1-.69,1.14.65.65,0,0,1-.1.15l-.08.09a2.05,2.05,0,0,1-.2.23,6,6,0,0,0,.05-.73,3.4,3.4,0,0,0,0-.53c0-.09,0-.2-.06-.3a4.61,4.61,0,0,0-.13-.46c0-.11-.07-.23-.11-.34a4.6,4.6,0,0,0-.22-.53c-.07-.18-.16-.37-.25-.57l-.06-.12c-.1-.21-.22-.42-.34-.64s-.12-.23-.19-.34l-.22-.37c-.14-.24-.3-.49-.46-.74a.61.61,0,0,1-.07-.1l2.46-3.79c.08.15.15.3.22.44s.13.28.19.41l.18.39c.1.23.19.44.26.64l0,.08a5.34,5.34,0,0,1,.2.55,7.69,7.69,0,0,1,.32,1.19,3.39,3.39,0,0,1,.06.41,3.46,3.46,0,0,1,0,.43C54.72,17.9,54.71,18.11,54.69,18.33Z" style="fill:#05350f"/><path d="M17.82,23.89l.27-.34-.08.12C18,23.74,17.89,23.82,17.82,23.89Z" style="fill:#1d9a46"/><path d="M19.87,16.28c-.09-.38-.2-.79-.34-1.22A9.89,9.89,0,0,1,19.87,16.28Z" style="fill:#1d9a46"/></svg>