<svg xmlns="http://www.w3.org/2000/svg" viewBox="0 0 60 60"><title>Beans</title><path d="M55.59,18.74a1.07,1.07,0,0,0-1.46.34A30.49,30.49,0,0,1,52,21.89h-.1c-4.09.43-6.56.69-10.06,3.53l-2.12,1.72,1.4-2.34,2.69-1.59c3.87-2.29,5-4.52,6.79-8.2l.16-.33a34.19,34.19,0,0,0,2.84-2.82A1.06,1.06,0,1,0,52,10.5,31.5,31.5,0,0,1,49.52,13h-.1c-1,0-2-.08-2.87-.08a39.58,39.58,0,0,0,0-4.06V8.48a35.2,35.2,0,0,0,1.15-3.83,1.06,1.06,0,0,0-2.08-.43,33,33,0,0,1-1,3.36l-.07,0c-3.7,1.82-5.94,2.91-8.25,6.77L34.2,17.82l-3.15,1.86.24-.4c2.31-3.86,2.22-6.34,2.07-10.45l0-.35A33.93,33.93,0,0,0,34.5,4.64a1.06,1.06,0,0,0-.82-1.26,1.08,1.08,0,0,0-1.26.83,32.53,32.53,0,0,1-1,3.35l-.09.05c-3.69,1.81-5.92,2.9-8.23,6.77L13.8,29.91,9.13,32.68C5.56,34.8,4.68,37,3.22,40.56l-.11.26A1.07,1.07,0,0,0,4,42.28l.26,0c.72.08,1.39.16,2,.21l-1,1.62C3.16,47.7,3.43,50,3.86,53.9l0,.26a1,1,0,0,0,.51.8,1,1,0,0,0,.54.15,1.1,1.1,0,0,0,.4-.08l.24-.1c2.53-1,4.36-1.75,6-3.33A28.44,28.44,0,0,0,10.24,56l-.06.26a1.06,1.06,0,0,0,.21.92,1,1,0,0,0,.82.39h.31c3.88-.12,6.22-.19,9.45-2.81L47.9,32.85c3.5-2.84,4.26-5.2,5.53-9.12l.1-.32a34.28,34.28,0,0,0,2.41-3.21A1.06,1.06,0,0,0,55.59,18.74ZM20.76,36.91l3.13-1.86-5.44,9.09c-.11.18-.21.36-.31.55L15,47.28c-.3.24-.56.47-.82.71Z" style="fill:#05350f"/><path d="M42.42,13.45c.17,0,.35-.12.52-.16l.64-.13.66-.12.18,0a29.22,29.22,0,0,0,0-3c-3,1.49-4.57,2.45-6.37,5.46l0,.07L39,15A14.8,14.8,0,0,1,42.42,13.45Z" style="fill:#24601f"/><path d="M8.37,40.49h.24c.24,0,.46,0,.69-.06l.24,0,.52-.1.25-.06L11,40l.39-.15.37-.16.43-.21c.11,0,.22-.12.33-.18l.44-.24h0l6.53-3.87h0l6.93-4.11h0l13.43-8h0l2.88-1.71c3-1.79,4-3.33,5.5-6.34a28,28,0,0,0-3.07,0l-.3,0-.75.11-.28.06c-.19,0-.38.08-.57.13l-.28.08c-.25.07-.5.16-.76.26l-.35.15-.56.25L41,16.3c-.3.16-.62.32-1,.52L10.21,34.51c-2.65,1.57-3.44,3-4.6,5.82A21.81,21.81,0,0,0,8.37,40.49Z" style="fill:#619d34"/><polygon points="22.91 40.81 23.37 40.44 34.95 31.05 37.32 27.08 27.72 32.78 22.91 40.81" style="fill:#24601f"/><path d="M29.47,18.19c1.8-3,1.91-4.83,1.8-8.19-3,1.49-4.56,2.45-6.36,5.47L17.63,27.64,27.22,22Z" style="fill:#acf252"/><path d="M16.93,39.18,14,40.9a14.34,14.34,0,0,1-1.27.67l-.16.08c-.39.17-.76.32-1.14.45l-.21.06a10,10,0,0,1-1.14.29l-.15,0a10.05,10.05,0,0,1-1.23.13h0L7.12,45.23c-1.58,2.64-1.59,4.29-1.28,7.31C8.65,51.39,10.1,50.6,11.68,48Z" style="fill:#acf252"/><path d="M36.43,32.58h0L28.5,39l-12.22,9.9c-2.39,1.94-3,3.49-3.7,6.43,3-.11,4.66-.36,7-2.3L46.56,31.2C49.29,29,50,27.32,51.07,24.13c-3.35.37-5.13.73-7.86,2.95Z" style="fill:#1d9a46"/></svg>