<svg xmlns="http://www.w3.org/2000/svg" viewBox="0 0 60 60"><title>Beets</title><path d="M27.79,27.46a1.08,1.08,0,0,1-.69.26,1.06,1.06,0,0,1-.82-.38l-1.23-1.46-.65-.75-.61-.73A1.06,1.06,0,0,1,23.86,23l.05-.06.08-.05a1.06,1.06,0,0,1,1.43.18l.6.7,1.61,1.9.28.33A1.07,1.07,0,0,1,27.79,27.46Z" style="fill:#05350f"/><path d="M35.28,24.4l-.61.72-.65.76-1.23,1.46a1.06,1.06,0,0,1-.82.38A1.08,1.08,0,0,1,31.16,26l.28-.33,1.62-1.9.59-.7a1.07,1.07,0,0,1,1.48-.15l0,0s0,0,0,0l0,0A1.07,1.07,0,0,1,35.28,24.4Z" style="fill:#05350f"/><path d="M27.54,19.84a1.09,1.09,0,0,1,.92.27V19.4A2.24,2.24,0,0,1,27.54,19.84Zm-3.68-3.36A2.11,2.11,0,0,1,22.47,16a2.07,2.07,0,0,0,1.39.54,1.14,1.14,0,0,1,.6.18A1,1,0,0,0,23.86,16.48Zm3.68,3.36a1.09,1.09,0,0,1,.92.27V19.4A2.24,2.24,0,0,1,27.54,19.84ZM22.47,16a2.07,2.07,0,0,0,1.39.54,1.14,1.14,0,0,1,.6.18,1,1,0,0,0-.6-.19A2.11,2.11,0,0,1,22.47,16Zm15.66-5.08a1.54,1.54,0,0,0-.19-.17l-.21-.16h0s0,0,0-.08a3.85,3.85,0,0,0,.08-.47,1,1,0,0,0,0-.16c0-.09,0-.19,0-.28s0-.11,0-.16,0-.3,0-.44,0-.26-.05-.39a4.43,4.43,0,0,0-1-2.13,4.27,4.27,0,0,0-3-1.5,4.4,4.4,0,0,0-1.19-2.13,4.25,4.25,0,0,0-3-1.26,4.36,4.36,0,0,0-4.2,3.39,4.27,4.27,0,0,0-3,1.5,4.46,4.46,0,0,0-1,2.14c0,.13,0,.25-.05.38a4.55,4.55,0,0,0,.13,1.6,4.51,4.51,0,0,0,1.55,8,4.2,4.2,0,0,0,.43,1.17,4.72,4.72,0,0,0,.33.53,4.27,4.27,0,0,0,.67.74l.31.25a4.27,4.27,0,0,0,2.5.82,3.77,3.77,0,0,0,1.06-.15l.27-.07a4.27,4.27,0,0,0,1.07-.53,4.17,4.17,0,0,0,1.08.53,2.59,2.59,0,0,0,.37.11h0a4.33,4.33,0,0,0,1,.11,4.22,4.22,0,0,0,2.51-.83A4.75,4.75,0,0,0,35.56,20c.07-.11.13-.23.19-.34a3.26,3.26,0,0,0,.18-.38c0-.12.1-.25.14-.38s.08-.27.11-.41a4.51,4.51,0,0,0,2-7.64Zm-.73,3.29A2.37,2.37,0,0,1,36.6,16a2.09,2.09,0,0,1-1.39.54,1.11,1.11,0,0,0-.6.18.65.65,0,0,0-.16.13,1.08,1.08,0,0,0-.31.75,2.28,2.28,0,0,1-2.2,2.33,2.85,2.85,0,0,1-.4,0h-.05a2.13,2.13,0,0,1-.88-.43,2.23,2.23,0,0,1-.27-.26,1.06,1.06,0,0,0-.8-.37h0a1.06,1.06,0,0,0-.8.37,2.19,2.19,0,0,1-1.19.7,1.75,1.75,0,0,1-.4,0h0a2.26,2.26,0,0,1-2.19-2.32,1.07,1.07,0,0,0-.31-.76l-.16-.13a1,1,0,0,0-.6-.19A2.11,2.11,0,0,1,22.47,16a2.36,2.36,0,0,1-.8-1.8A2.33,2.33,0,0,1,23.08,12a1,1,0,0,0,.59-.62,1.08,1.08,0,0,0-.06-.86,1.79,1.79,0,0,1-.13-.32,1.46,1.46,0,0,1-.12-.51,1.51,1.51,0,0,1,0-.3,2.83,2.83,0,0,1,0-.29,1.89,1.89,0,0,1,.08-.4,2.34,2.34,0,0,1,.09-.24,1.92,1.92,0,0,1,.14-.29,2.15,2.15,0,0,1,1.86-1.1,2.05,2.05,0,0,1,.49.06,1,1,0,0,0,.91-.2,1.06,1.06,0,0,0,.41-.84V6a2.26,2.26,0,0,1,2.19-2.32A2.11,2.11,0,0,1,31,4.3,2.38,2.38,0,0,1,31.72,6v.09a1.08,1.08,0,0,0,1.33,1,2,2,0,0,1,.49-.06A2.19,2.19,0,0,1,35.4,8.15l.09.17a1.11,1.11,0,0,1,.07.16,1.84,1.84,0,0,1,.13.44l0,.18a1.28,1.28,0,0,1,0,.19,1.21,1.21,0,0,1,0,.19,1.49,1.49,0,0,1,0,.21,2.7,2.7,0,0,1,0,.28,2.76,2.76,0,0,1-.08.27,1.59,1.59,0,0,1-.12.27.71.71,0,0,0-.09.28.74.74,0,0,0,0,.39,1.21,1.21,0,0,0,0,.18,1.14,1.14,0,0,0,.23.38A.94.94,0,0,0,36,12h0a2.33,2.33,0,0,1,.82.59,2.94,2.94,0,0,1,.37.55,2.37,2.37,0,0,1,.22,1ZM23.86,16.48A2.11,2.11,0,0,1,22.47,16a2.07,2.07,0,0,0,1.39.54,1.14,1.14,0,0,1,.6.18A1,1,0,0,0,23.86,16.48Zm3.68,3.36a1.09,1.09,0,0,1,.92.27V19.4A2.24,2.24,0,0,1,27.54,19.84Z" style="fill:#05350f"/><path d="M37.73,10.53h0l.21.16Zm0,0h0l.21.16Zm8.65,2.31a4.39,4.39,0,0,0-.92-5.33,4.2,4.2,0,0,0-3.1-1,4.45,4.45,0,0,0-2.31.82A4.44,4.44,0,0,0,36,6.6a1.08,1.08,0,0,0-.58,1.55l.09.17a1.11,1.11,0,0,1,.07.16,1.84,1.84,0,0,1,.13.44l0,.18a1.28,1.28,0,0,1,0,.19,2,2,0,0,1-.07.68,2.76,2.76,0,0,1-.08.27,1.59,1.59,0,0,1-.12.27.71.71,0,0,0-.09.28.86.86,0,0,0,0,.39,1.21,1.21,0,0,0,0,.18,1.14,1.14,0,0,0,.23.38A1.12,1.12,0,0,0,36,12h0a2.33,2.33,0,0,1,.82.59,2.21,2.21,0,0,1,.37.55,2.37,2.37,0,0,1,.22,1h0A2.37,2.37,0,0,1,36.6,16a2.13,2.13,0,0,1-1.39.53,1,1,0,0,0-.6.19.65.65,0,0,0-.16.13,1.08,1.08,0,0,0-.31.75,2.28,2.28,0,0,1-2.2,2.33,2.85,2.85,0,0,1-.4,0h-.05a1.09,1.09,0,0,0-.88.27,1.07,1.07,0,0,0-.28.41,1.09,1.09,0,0,0,.28,1.16.9.9,0,0,0,.19.15l.18.09h0a4.44,4.44,0,0,0,1.45.45,4.18,4.18,0,0,0,.62,1.36,4,4,0,0,0,.7.79,3.82,3.82,0,0,0,.91.61,4.23,4.23,0,0,0,1.9.44,4.49,4.49,0,0,0,2.68-.89,4.33,4.33,0,0,0,2.39.48,4.56,4.56,0,0,0,4-5.47,3.93,3.93,0,0,0,.86-.77,4.44,4.44,0,0,0,1.13-3.27A4.26,4.26,0,0,0,46.38,12.84ZM44.93,17.5a2.29,2.29,0,0,1-1,.67,1.08,1.08,0,0,0-.61.61,1.12,1.12,0,0,0,0,.86A2.31,2.31,0,0,1,43,22.2a2.37,2.37,0,0,1-1.59.81,2.13,2.13,0,0,1-1.59-.51,1.07,1.07,0,0,0-1.51.1,2.27,2.27,0,0,1-3.15.33l0,0,0,0a2.15,2.15,0,0,1-.68-1.58v-.1A4.75,4.75,0,0,0,35.56,20c.07-.11.13-.23.19-.34a3.26,3.26,0,0,0,.18-.38c0-.12.1-.25.14-.38s.08-.27.11-.41a4.51,4.51,0,0,0,2-7.64,1.54,1.54,0,0,0-.19-.17l-.21-.17s0,0,0-.08a3.85,3.85,0,0,0,.08-.47,1,1,0,0,0,0-.16c0-.09,0-.19,0-.28s0-.11,0-.16,0-.3,0-.44,0-.26-.05-.39a2.22,2.22,0,0,1,1,.48,2.91,2.91,0,0,1,.33.37,1,1,0,0,0,.82.45,1.08,1.08,0,0,0,.87-.37l0,0h0a2.36,2.36,0,0,1,1.63-.81A2.08,2.08,0,0,1,44,9.12a2.26,2.26,0,0,1,.13,3.18l-.05,0a1,1,0,0,0-.27.91,1.07,1.07,0,0,0,.55.77,2.36,2.36,0,0,1,.42.28h0a2.13,2.13,0,0,1,.71,1.46A2.34,2.34,0,0,1,44.93,17.5Zm-7.2-7h0l.21.16Z" style="fill:#05350f"/><path d="M28.74,20.53a1,1,0,0,0-.28-.42,1.09,1.09,0,0,0-.92-.27,1.75,1.75,0,0,1-.4,0h0a2.26,2.26,0,0,1-2.19-2.32,1.07,1.07,0,0,0-.31-.76l-.16-.13a1.14,1.14,0,0,0-.6-.18A2.07,2.07,0,0,1,22.47,16a2.36,2.36,0,0,1-.8-1.8A2.33,2.33,0,0,1,23.08,12a1,1,0,0,0,.59-.62,1.08,1.08,0,0,0-.06-.86,1.79,1.79,0,0,1-.13-.32,2.11,2.11,0,0,1-.12-.51,1.51,1.51,0,0,1,0-.3,2.83,2.83,0,0,1,0-.29,1.89,1.89,0,0,1,.08-.4,2.34,2.34,0,0,1,.09-.24,1.92,1.92,0,0,1,.14-.29,1,1,0,0,0,.07-.91,1.06,1.06,0,0,0-.65-.64,3.72,3.72,0,0,0-.8-.19A4.34,4.34,0,0,0,19,7.3a4.37,4.37,0,0,0-5.4.21,4.22,4.22,0,0,0-1.44,2.94,4.42,4.42,0,0,0,.51,2.4,4.26,4.26,0,0,0-1.29,2.89,4.51,4.51,0,0,0,1.13,3.18,4.62,4.62,0,0,0,.87.78,4.41,4.41,0,0,0,1,3.92,4.51,4.51,0,0,0,3,1.54,4.31,4.31,0,0,0,2.38-.48,4.52,4.52,0,0,0,2.69.89,4.19,4.19,0,0,0,1.89-.44A4.08,4.08,0,0,0,26,23.72a4.22,4.22,0,0,0,.61-1.35,4.26,4.26,0,0,0,1.56-.5l.08,0a.9.9,0,0,0,.19-.15A1.05,1.05,0,0,0,28.74,20.53Zm-8,2.08a1.09,1.09,0,0,0-.81-.36,1.13,1.13,0,0,0-.71.26,2.1,2.1,0,0,1-1.59.51A2.36,2.36,0,0,1,16,22.2a2.3,2.3,0,0,1-.36-2.55,1.08,1.08,0,0,0-.58-1.47,2.43,2.43,0,0,1-.95-.67,2.39,2.39,0,0,1-.6-1.68,2.11,2.11,0,0,1,.72-1.51,2,2,0,0,1,.41-.29A1.06,1.06,0,0,0,15,12.36l0-.06a2.36,2.36,0,0,1-.59-1.71A2.14,2.14,0,0,1,15,9.13a2.25,2.25,0,0,1,3.18.3h0l0,.05a1,1,0,0,0,.86.37A1.07,1.07,0,0,0,20,9.4,2.17,2.17,0,0,1,20.27,9a2.09,2.09,0,0,1,1-.48h0l-.06.38a4.55,4.55,0,0,0,.13,1.6,4.51,4.51,0,0,0,1.55,8,4.2,4.2,0,0,0,.43,1.17,4.72,4.72,0,0,0,.33.53,4.27,4.27,0,0,0,.67.74l.31.25a.41.41,0,0,0,0,.11A2.14,2.14,0,0,1,24,22.84l-.08.07-.05,0A2.25,2.25,0,0,1,20.73,22.61Z" style="fill:#05350f"/><path d="M19.2,30a7.57,7.57,0,0,0-4,6.83A8.3,8.3,0,0,0,15.48,39c1.55.17,5.27.55,7.72.55a1.07,1.07,0,0,1,0,2.14c-2,0-4.79-.23-6.66-.42a8.61,8.61,0,0,0,.55.68,13.11,13.11,0,0,0,5.21,3.3l0,0c2.49,1.07,3.6,1.68,4.24,2.36a3.23,3.23,0,0,1,.74,2.79c0,.29,0,.63,0,1,0,.9.73,1.62,2.16,2.13l.28.09a3.23,3.23,0,0,1-.29-1.38,2.09,2.09,0,0,1,.7-1.52,6.23,6.23,0,0,1,1.92-1c1.44-.58,1.88-.87,1.86-1.6a2.58,2.58,0,0,1,1.9-2.52,13.89,13.89,0,0,0,5.89-3.32l.1-.11c-1.22.07-2.76.15-4.18.15H37a1.07,1.07,0,0,1,0-2.14c2.21,0,5-.18,6.27-.28a7.89,7.89,0,0,0,.57-3,8.32,8.32,0,0,0-.35-2.44c-.91.08-2.43.19-3.93.19H39a1.09,1.09,0,0,1-1.05-1.1,1.07,1.07,0,0,1,1.1-1,34.46,34.46,0,0,0,3.47-.12A8.77,8.77,0,0,0,39.87,30c-2.51-1.5-6.09-2.29-10.34-2.29S21.71,28.51,19.2,30Z" style="fill:#712135"/><path d="M23.91,22.89l.08-.05a2.14,2.14,0,0,0,.63-1.53.41.41,0,0,1,0-.11L24.32,21a4.27,4.27,0,0,1-.67-.74,4.72,4.72,0,0,1-.33-.53,4.2,4.2,0,0,1-.43-1.17,4.51,4.51,0,0,1-1.55-8,4.55,4.55,0,0,1-.13-1.6c0-.13,0-.25.05-.38a2.09,2.09,0,0,0-1,.48A2.17,2.17,0,0,0,20,9.4a1.07,1.07,0,0,1-.83.46,1,1,0,0,1-.86-.37l0-.05h0A2.25,2.25,0,0,0,15,9.13a2.14,2.14,0,0,0-.72,1.46,2.36,2.36,0,0,0,.59,1.71l0,.06A1.06,1.06,0,0,1,14.67,14a2,2,0,0,0-.41.29,2.11,2.11,0,0,0-.72,1.51,2.39,2.39,0,0,0,.6,1.68,2.43,2.43,0,0,0,.95.67,1.08,1.08,0,0,1,.58,1.47A2.3,2.3,0,0,0,16,22.2a2.36,2.36,0,0,0,1.59.82,2.1,2.1,0,0,0,1.59-.51,1.13,1.13,0,0,1,.71-.26,1.09,1.09,0,0,1,.81.36,2.25,2.25,0,0,0,3.13.34Z" style="fill:#006837"/><path d="M22.47,16a2.11,2.11,0,0,0,1.39.53,1,1,0,0,1,.6.19l.16.13a1.07,1.07,0,0,1,.31.76,2.26,2.26,0,0,0,2.19,2.32h0a1.75,1.75,0,0,0,.4,0,2.24,2.24,0,0,0,.92-.44V11.25a1.08,1.08,0,0,1,2.15,0V19.4a2.13,2.13,0,0,0,.88.43h.05a2.85,2.85,0,0,0,.4,0,2.28,2.28,0,0,0,2.2-2.33,1.08,1.08,0,0,1,.31-.75.65.65,0,0,1,.16-.13,1,1,0,0,1,.6-.19A2.13,2.13,0,0,0,36.6,16a2.37,2.37,0,0,0,.8-1.79h0a2.37,2.37,0,0,0-.22-1,2.94,2.94,0,0,0-.37-.55A2.33,2.33,0,0,0,36,12h0a.94.94,0,0,1-.35-.25,1.14,1.14,0,0,1-.23-.38,1.21,1.21,0,0,1,0-.18.74.74,0,0,1,0-.39.71.71,0,0,1,.09-.28,1.59,1.59,0,0,0,.12-.27,2.76,2.76,0,0,0,.08-.27,2.7,2.7,0,0,0,0-.28,1.49,1.49,0,0,0,0-.21,1.21,1.21,0,0,0,0-.19,1.28,1.28,0,0,0,0-.19l0-.18a1.84,1.84,0,0,0-.13-.44,1.11,1.11,0,0,0-.07-.16l-.09-.17a2.19,2.19,0,0,0-1.86-1.09,2,2,0,0,0-.49.06,1.08,1.08,0,0,1-1.33-1V6A2.38,2.38,0,0,0,31,4.3a2.11,2.11,0,0,0-1.51-.63A2.26,2.26,0,0,0,27.34,6v.09a1.06,1.06,0,0,1-.41.84,1,1,0,0,1-.91.2,2.05,2.05,0,0,0-.49-.06,2.15,2.15,0,0,0-1.86,1.1,1.92,1.92,0,0,0-.14.29,2.34,2.34,0,0,0-.09.24,1.89,1.89,0,0,0-.08.4,2.83,2.83,0,0,0,0,.29,1.51,1.51,0,0,0,0,.3,1.46,1.46,0,0,0,.12.51,1.79,1.79,0,0,0,.13.32,1.08,1.08,0,0,1,.06.86,1,1,0,0,1-.59.62,2.33,2.33,0,0,0-1.41,2.16A2.36,2.36,0,0,0,22.47,16Z" style="fill:#006837"/><path d="M44.82,14.31A2.36,2.36,0,0,0,44.4,14a1.07,1.07,0,0,1-.55-.77,1,1,0,0,1,.27-.91l.05,0A2.26,2.26,0,0,0,44,9.12a2.08,2.08,0,0,0-1.54-.51,2.36,2.36,0,0,0-1.63.81h0l0,0a1.08,1.08,0,0,1-.87.37,1,1,0,0,1-.82-.45A2.91,2.91,0,0,0,38.8,9a2.22,2.22,0,0,0-1-.48c0,.13,0,.26.05.39s0,.29,0,.44,0,.11,0,.16,0,.19,0,.28a1,1,0,0,1,0,.16,3.85,3.85,0,0,1-.08.47s0,.05,0,.08l.21.17a1.54,1.54,0,0,1,.19.17,4.51,4.51,0,0,1-2,7.64c0,.14-.07.27-.11.41s-.09.26-.14.38a3.26,3.26,0,0,1-.18.38c-.06.11-.12.23-.19.34a4.75,4.75,0,0,1-1.11,1.17v.1a2.15,2.15,0,0,0,.68,1.58l0,0s0,0,0,0l0,0a2.27,2.27,0,0,0,3.15-.33,1.07,1.07,0,0,1,1.51-.1,2.13,2.13,0,0,0,1.59.51A2.37,2.37,0,0,0,43,22.2a2.31,2.31,0,0,0,.37-2.56,1.12,1.12,0,0,1,0-.86,1.08,1.08,0,0,1,.61-.61,2.29,2.29,0,0,0,1-.67,2.34,2.34,0,0,0,.6-1.72,2.13,2.13,0,0,0-.71-1.46Z" style="fill:#006837"/><path d="M45,41.26a1.86,1.86,0,0,1-.1.2l0,0a1.1,1.1,0,0,1-.79.48c-.08,0-1,.1-2.3.19s-2.76.15-4.18.15H37a1.07,1.07,0,0,1,0-2.14c2.21,0,5.05-.18,6.27-.28l.61,0a1.07,1.07,0,0,1,1.17,1A1,1,0,0,1,45,41.26Z" style="fill:#350715"/><path d="M45.28,33.13a1.08,1.08,0,0,1-.94,1.19l-.84.08c-.91.08-2.43.19-3.93.19h-.63a1.09,1.09,0,0,1-1-1.1,1.07,1.07,0,0,1,1.1-1,34.46,34.46,0,0,0,3.47-.12c.95-.06,1.62-.14,1.63-.14a1.07,1.07,0,0,1,1.07.56,1.42,1.42,0,0,1,.08.18A1.18,1.18,0,0,1,45.28,33.13Z" style="fill:#350715"/><path d="M24.26,40.62a1.07,1.07,0,0,1-1.07,1.07c-2,0-4.79-.23-6.66-.42l-2-.22a1.06,1.06,0,0,1-.73-.41.94.94,0,0,1-.21-.59.54.54,0,0,1,0-.18,1.07,1.07,0,0,1,1.19-.94l.72.07c1.55.17,5.27.55,7.72.55A1.07,1.07,0,0,1,24.26,40.62Z" style="fill:#350715"/><path d="M45.24,32.93a1.42,1.42,0,0,0-.08-.18A10.13,10.13,0,0,0,41,28.17a19,19,0,0,0-7-2.29c-.83-.12-1.69-.21-2.58-.26l-.83,0-1.08,0-1.07,0-.83,0c-.89.05-1.75.14-2.58.26a18.72,18.72,0,0,0-6.95,2.3,9.69,9.69,0,0,0-5,8.66,9.86,9.86,0,0,0,.5,3.21,5.89,5.89,0,0,0,.21.59c1.16,2.86,3.75,5.07,7.73,6.6A14.48,14.48,0,0,1,25,49.1c.19.2.21.3.16,1.18,0,.33-.05.7,0,1.14,0,1.32.63,3.11,3.63,4.16a13.26,13.26,0,0,0,3.2.66H32a1.06,1.06,0,0,0,1-.62,1.07,1.07,0,0,0-.19-1.19,4.27,4.27,0,0,1-1.24-2.1,5.22,5.22,0,0,1,1.28-.64c1.31-.52,3.28-1.31,3.2-3.66,0-.16.16-.32.41-.4a16.07,16.07,0,0,0,6.78-3.87,9.4,9.4,0,0,0,1.65-2.27l0,0a1.86,1.86,0,0,0,.1-.2,10.51,10.51,0,0,0,.23-8.33ZM41.7,42.27a13.89,13.89,0,0,1-5.89,3.32,2.58,2.58,0,0,0-1.9,2.52c0,.73-.42,1-1.86,1.6a6.23,6.23,0,0,0-1.92,1,2.09,2.09,0,0,0-.7,1.52,3.23,3.23,0,0,0,.29,1.38l-.28-.09C28,53,27.28,52.32,27.28,51.42c0-.37,0-.71,0-1a3.23,3.23,0,0,0-.74-2.79c-.64-.68-1.75-1.29-4.24-2.36l0,0A13.11,13.11,0,0,1,17.08,42a8.61,8.61,0,0,1-.55-.68A7.14,7.14,0,0,1,15.47,39a8.3,8.3,0,0,1-.27-2.16,7.57,7.57,0,0,1,4-6.83c2.51-1.5,6.09-2.29,10.33-2.29s7.83.79,10.34,2.29a8.77,8.77,0,0,1,2.6,2.32,6.94,6.94,0,0,1,1,2.07,8.32,8.32,0,0,1,.35,2.44,7.89,7.89,0,0,1-.57,3,7,7,0,0,1-1.48,2.27Z" style="fill:#350715"/><path d="M30.61,11.25V26.64a1.08,1.08,0,1,1-2.15,0V11.25a1.08,1.08,0,0,1,2.15,0Z" style="fill:#05350f"/></svg>