<svg xmlns="http://www.w3.org/2000/svg" viewBox="0 0 60 60"><title>Broccoli</title><path d="M55.28,30.5a12,12,0,0,1-3.72,8.62c-.19.17-.38.34-.58.5l-.14.13A12,12,0,0,1,46.57,42a11.94,11.94,0,0,1-5.73,5.35l-.05,0-.56.23-.16.06-.48.16-.25.08-.41.11-.34.08-.36.07-.34.06L37.46,53c0,.64-.57,4.09-8,4.09s-7.94-3.45-8-4.14l-.43-4.73-.34-.06-.36-.07L20,48l-.41-.11-.25-.08-.49-.16-.15-.06-.56-.23-.06,0A11.92,11.92,0,0,1,12.4,42a11.86,11.86,0,0,1-2.69-1.13,12,12,0,0,1-6-10.34,11.88,11.88,0,0,1,3.69-8.61,11.68,11.68,0,0,1-.09-1.43A11.92,11.92,0,0,1,19.2,8.55h.18A11.93,11.93,0,0,1,29.45,3h.06A11.9,11.9,0,0,1,39.58,8.55h.19A11.93,11.93,0,0,1,51.68,20.46a10,10,0,0,1-.1,1.43A11.89,11.89,0,0,1,55.28,30.5Z" style="fill:#05350f"/><path d="M49.37,23.37a1.29,1.29,0,0,1-.44-1.22,9.3,9.3,0,0,0-9.16-11h-.24l-.42,0h-.17a1.29,1.29,0,0,1-1.22-.67,9.31,9.31,0,0,0-8.18-4.91h-.12a9.32,9.32,0,0,0-8.18,4.91,1.28,1.28,0,0,1-1.21.67h-.17l-.46,0h-.23a9.33,9.33,0,0,0-9.3,9.33A9.22,9.22,0,0,0,10,22.15a1.31,1.31,0,0,1-.44,1.22,9.31,9.31,0,0,0,4,16.23,1.22,1.22,0,0,1,.74.47,0,0,0,0,1,0,0,1.09,1.09,0,0,1,.14.23l.07.12a9.78,9.78,0,0,0,.52,1c.16.25.34.48.52.71a2.69,2.69,0,0,0,.2.27,7.83,7.83,0,0,0,.68.73l.14.14c.24.22.49.42.75.62l.19.15c.23.17.48.31.73.46l.3.18c.22.12.45.21.68.31a3.57,3.57,0,0,0,.45.19,6,6,0,0,0,.6.19l.54.16-.46-5.12a4.23,4.23,0,0,1-.41.23,1.19,1.19,0,0,1-.6.15,1.28,1.28,0,0,1-1.14-.68,1.29,1.29,0,0,1,.53-1.75,6.58,6.58,0,0,0,.67-.4l0,0a7.12,7.12,0,0,0,2-1.95,9.42,9.42,0,0,1-1.25-1.43,1.29,1.29,0,1,1,2.14-1.45,8.56,8.56,0,0,0,7.12,3.32h.09a8.51,8.51,0,0,0,7.07-3.32,1.29,1.29,0,1,1,2.14,1.45A8.44,8.44,0,0,1,37.51,36a7.16,7.16,0,0,0,2,1.95l0,0,.05,0c.16.11.39.24.61.36A1.29,1.29,0,0,1,39,40.62c-.14-.07-.27-.16-.4-.24l-.47,5.13.55-.16.6-.18.45-.2c.23-.1.45-.19.67-.31l.31-.19c.25-.14.49-.29.73-.45l.19-.16a7.27,7.27,0,0,0,.74-.61c.05,0,.1-.1.15-.15a7.72,7.72,0,0,0,.68-.72l.2-.28a6,6,0,0,0,.51-.7,8,8,0,0,0,.59-1.08,1.37,1.37,0,0,1,.36-.46,1.25,1.25,0,0,1,.53-.26,9.32,9.32,0,0,0,4-16.23Z" style="fill:#24601f"/><path d="M29.51,39a11.9,11.9,0,0,1-1.34-.08L28.63,45a1,1,0,0,1-.94,1.1h-.08a1,1,0,0,1-1-1l-.51-6.64a11.77,11.77,0,0,1-2.53-1,7.9,7.9,0,0,1-.77,1l1.3,14.3c0,.39,1,1.73,5.4,1.73s5.38-1.34,5.4-1.67l1.3-14.36a8.9,8.9,0,0,1-.76-1A12.15,12.15,0,0,1,29.51,39Z" style="fill:#619d34"/></svg>