<svg xmlns="http://www.w3.org/2000/svg" viewBox="0 0 60 60"><title>Brussel Sprouts</title><path d="M3.08,40.55C3,40,3,39.41,3,38.83s0-1.17.09-1.74c0-.06,0-.12,0-.17a16.4,16.4,0,0,1,2-6.48.6.6,0,0,0,.09-.13,16.64,16.64,0,0,1,1-1.49c.15-.21.33-.4.49-.6s.49-.59.75-.87.39-.38.59-.57.37-.38.57-.55A3.15,3.15,0,0,1,8.89,26c.18-.16.38-.31.57-.46s.68-.49,1-.73l.33-.23.1,0A20.83,20.83,0,0,1,21.1,21.62c-.06-.6-.1-1.2-.1-1.8,0,0,0,0,0-.05,0-.53,0-1,.07-1.56a1.64,1.64,0,0,0,0-.23A15.39,15.39,0,0,1,23,11.89c0-.05.06-.08.08-.13A13.2,13.2,0,0,1,24,10.35c.14-.19.29-.36.44-.53s.48-.59.74-.87l.53-.51c.19-.18.36-.37.56-.54l.28-.22.52-.41c.33-.25.66-.48,1-.71.1-.07.2-.15.3-.21s.06,0,.08,0a20,20,0,0,1,10.43-2.8,20.13,20.13,0,0,1,9.68,2.37s0,0,.07,0L48.8,6l.26.15c.35.21.69.42,1,.65l.28.19q.59.42,1.11.87l.08.06.13.13q.51.45,1,.93l.16.16a14.58,14.58,0,0,1,.94,1.14l.15.2a15.32,15.32,0,0,1,1.56,2.69l0,.09c.21.49.4,1,.57,1.51v0A16.24,16.24,0,0,1,56.75,18c0,.05,0,.11,0,.17a14.93,14.93,0,0,1,.09,1.65,17.33,17.33,0,0,1-5,12.25,18,18,0,0,1-11,5.22c0,.5.07,1,.07,1.53h0a18.34,18.34,0,0,1-5.56,13.24A19.09,19.09,0,0,1,22,57.43c-.59,0-1.17,0-1.75-.08l-.43-.05c-.4,0-.81-.1-1.21-.17L17.94,57c-.34-.07-.68-.15-1-.24l-.65-.17h-.05l-.18-.06a20.91,20.91,0,0,1-2-.78c-.25-.11-.51-.22-.75-.35s-.46-.24-.69-.37-.55-.31-.82-.48l-.59-.37c-.31-.21-.61-.43-.9-.65l-.44-.34c-.43-.35-.86-.72-1.26-1.11l0,0c-.38-.37-.74-.76-1.09-1.16-.15-.17-.29-.36-.43-.54s-.38-.49-.56-.74-.32-.45-.47-.68l-.41-.66c-.15-.26-.3-.51-.44-.78s-.19-.38-.28-.57c-.25-.52-.47-1-.67-1.58-.09-.24-.18-.48-.26-.72s-.16-.53-.23-.79-.16-.58-.22-.87-.11-.48-.15-.73-.12-.72-.16-1.08A5.54,5.54,0,0,1,3.08,40.55Z" style="fill:#05350f"/><path d="M14.35,53.44,14,52.59c0-.12-.08-.24-.13-.36-.13-.35-.26-.73-.38-1.12,0-.1-.07-.19-.1-.29-.13-.43-.26-.89-.38-1.35L13,49.22c-.12-.5-.23-1-.33-1.55a.3.3,0,0,1,0-.1s0-.06,0-.09c-.11-.65-.19-1.3-.25-1.94l0-.27q-.08-.95-.06-1.86v-.34c0-.59.06-1.17.13-1.75,0-.11,0-.23,0-.35.08-.57.18-1.12.31-1.67,0-.11,0-.22.08-.33a14.32,14.32,0,0,1,.5-1.61c0-.1.07-.19.1-.28.21-.54.44-1.06.7-1.58l.1-.17c.26-.5.55-1,.86-1.46a1.4,1.4,0,0,0,.1-.16c.33-.48.69-.94,1.06-1.39a1.83,1.83,0,0,0,.13-.16,25.62,25.62,0,0,1-5.22-5.25l-.24.19c-.35.26-.69.53-1,.81s-.38.36-.56.54-.41.4-.6.61-.34.4-.5.6-.36.45-.53.68-.27.4-.4.61-.32.52-.47.79l-.3.6c-.14.3-.27.6-.39.91s-.16.39-.23.58-.2.67-.29,1-.11.39-.15.59c-.08.36-.14.74-.2,1.12,0,.19-.06.36-.08.55-.05.51-.08,1-.08,1.56,0,.06,0,.11,0,.17,0,.5,0,1,.07,1.48,0,.15,0,.29,0,.43q.06.52.15,1l.09.47c.09.42.19.84.31,1.25.07.22.14.43.22.64s.15.44.23.65.19.47.29.71l.27.55c.19.39.39.77.61,1.14.11.18.22.37.34.55l.41.6c.16.22.32.43.49.64s.23.3.35.44c.29.34.59.67.91,1l.35.34c.26.24.53.48.8.7l.32.27c.36.28.74.55,1.12.8l.42.26c.26.16.53.32.8.46s.36.2.55.29l.17.08Z" style="fill:#24601f"/><path d="M38.73,37.38l0-.34c0-.29-.08-.57-.13-.85s-.15-.8-.24-1.19c0,0,0-.11,0-.16-.05-.2-.11-.4-.17-.6s-.17-.52-.27-.78-.2-.53-.32-.79-.17-.34-.25-.51a13.78,13.78,0,0,0-.9-1.54c-.13-.2-.27-.4-.41-.59s-.34-.44-.53-.66l0-.06c-.14-.17-.29-.33-.44-.48l-.36-.37-.26-.25L34.06,28l-.59-.5-.37-.29-.51-.36c-.24-.16-.47-.33-.72-.48l-.15-.09-.19-.1a23,23,0,0,0-12.75,6.5c-3.76,3.76-5.14,8.64-4.11,14.49.08.44.17.87.27,1.28l0,.09c.1.41.2.82.31,1.21h0a26.78,26.78,0,0,0,2,5c.41.12.83.22,1.25.3l.37.07c.4.07.8.13,1.2.17l.32,0c.36,0,.73,0,1.1,0a19.52,19.52,0,0,0,2.38-3.42l-3.72-4.34a1.05,1.05,0,0,1,1.6-1.37l3.12,3.65a33.78,33.78,0,0,0,1.73-5.14,31.45,31.45,0,0,1-4.08-5.35,1.05,1.05,0,0,1,1.78-1.12,42.47,42.47,0,0,0,2.85,4A45.2,45.2,0,0,0,28,34.69a1,1,0,0,1,1.05-1h0a1.05,1.05,0,0,1,1.06,1,46.21,46.21,0,0,1-.91,8.21c-.1.5-.21,1-.33,1.47,0,0,0,0,0,.06-.16.7-.34,1.38-.53,2a13,13,0,0,0,4.91-3.71,1,1,0,0,1,1.47-.19,1.05,1.05,0,0,1,.19,1.48,15.61,15.61,0,0,1-7.41,5,28.76,28.76,0,0,1-1.37,3.12.25.25,0,0,1,0,.07,23,23,0,0,1-1.77,2.91,16.89,16.89,0,0,0,9.59-4.59A16.25,16.25,0,0,0,38.8,38.83h0C38.8,38.33,38.77,37.86,38.73,37.38Z" style="fill:#1ea62e"/><path d="M17.87,30.62a24.77,24.77,0,0,1,10.5-5.91,16.33,16.33,0,0,0-1.73-.48l-.47-.1c-.48-.1-1-.18-1.45-.25l-.57-.06c-.49-.06-1-.08-1.49-.1-.24,0-.47,0-.71,0a19.24,19.24,0,0,0-9,2.13A21.41,21.41,0,0,0,17.87,30.62Z" style="fill:#acf252"/><path d="M23.21,21.62c.13,0,.25,0,.38,0l.62.05c.42,0,.83.09,1.24.15l.46.08c.51.08,1,.19,1.5.31l.16,0a18,18,0,0,1,2.12.66l.07,0a.22.22,0,0,1,0-.08c0-.12,0-.23,0-.34q.06-.6.15-1.2l.09-.49c.07-.35.15-.69.23-1,.05-.16.09-.32.13-.47q.18-.6.39-1.17a2.34,2.34,0,0,0,.09-.24c.18-.45.39-.89.61-1.32l.21-.38c.17-.31.35-.61.54-.91l.29-.43c.2-.29.41-.57.63-.85l.29-.37.12-.15a23.94,23.94,0,0,1-4.84-4.86l-.25.19c-.31.24-.62.48-.91.73s-.33.32-.49.48-.41.4-.59.6-.3.35-.44.53-.36.45-.52.68-.24.35-.35.53a9,9,0,0,0-.46.79l-.27.51c-.14.3-.27.6-.39.91-.06.16-.13.33-.18.49-.12.34-.21.68-.3,1,0,.15-.09.3-.12.46a11.62,11.62,0,0,0-.2,1.18c0,.13-.05.26-.06.39a14.62,14.62,0,0,0-.09,1.64A15.51,15.51,0,0,0,23.21,21.62Z" style="fill:#24601f"/><path d="M33.46,17.42c-.09.16-.16.34-.24.51s-.24.48-.34.73-.14.37-.21.56-.17.49-.25.74l-.15.61c-.06.25-.12.5-.17.75s-.07.43-.1.64-.08.52-.1.78,0,.45,0,.67,0,.32,0,.48h0l.38.21h0a.57.57,0,0,1,.13.08l.26.15c.21.12.42.24.62.37l.11.07.24.17.15.1.26.18.36.27.1.07.15.12.18.14L35,26l.21.18.06.05.12.11.06.06.26.23.46.45.24.25.05.05.11.11a.94.94,0,0,0,.1.1c.28.31.54.62.79.94l0,.06h0l.29.4.38.55.31.47a1,1,0,0,0,.1.17l.24.45c.16.28.3.55.43.84l.23.48.12.29c.08.19.14.37.21.56s.11.27.16.41c.23-.36.45-.72.66-1.1l-3.48-4a1.07,1.07,0,0,1,.12-1.49,1,1,0,0,1,1.48.12l2.89,3.36a32,32,0,0,0,1.57-4.7A17.23,17.23,0,0,1,41,22.7c-.87-1.22-1.57-2.33-1.6-2.38A1.05,1.05,0,1,1,41.2,19.2a40.19,40.19,0,0,0,2.6,3.67,42.62,42.62,0,0,0,.75-7,1,1,0,1,1,2.1,0,42.65,42.65,0,0,1-.75,7.22c-.24,1.32-.54,2.58-.88,3.77a12,12,0,0,0,4.47-3.42,1.06,1.06,0,1,1,1.67,1.29,14.84,14.84,0,0,1-7,4.73,28.84,28.84,0,0,1-1.27,2.92l0,0a23.22,23.22,0,0,1-1.59,2.63,15.79,15.79,0,0,0,9.08-4.52,15.25,15.25,0,0,0,4.39-10.78c0-.48,0-1-.07-1.43a1.1,1.1,0,0,0,0-.18,12.56,12.56,0,0,0-.2-1.37s0,0,0-.08c-.08-.4-.19-.78-.3-1.16l-.09-.3q-.2-.57-.42-1.11c0-.12-.11-.24-.17-.36s-.25-.5-.39-.75-.14-.27-.22-.39l-.16-.26c-.23-.35-.47-.7-.73-1-.11-.15-.23-.29-.35-.43s-.43-.49-.66-.72l-.49-.48c-.23-.21-.47-.41-.72-.61s-.32-.26-.49-.38q-.48-.35-1-.66L48,7.93A21.62,21.62,0,0,0,36,14c-.34.35-.67.7-1,1.07l-.26.34c-.2.26-.4.51-.58.78l-.27.45C33.75,16.92,33.6,17.17,33.46,17.42Z" style="fill:#1d9a46"/><path d="M35.08,12a23.37,23.37,0,0,1,9.67-5.5,19.06,19.06,0,0,0-5.82-.9,18.14,18.14,0,0,0-8.38,2A19.93,19.93,0,0,0,35.08,12Z" style="fill:#1ea62e"/></svg>