<svg xmlns="http://www.w3.org/2000/svg" viewBox="0 0 60 60"><title>Cabbage</title><path d="M54,37.62c-1.7,5.49-5,9.11-9.81,10.81a7.89,7.89,0,0,1-3.91,3.81A18.82,18.82,0,0,1,32,54.19c-9.31,0-16.55-6.93-17.81-8.21a15.4,15.4,0,0,1-8.4-8.83A20.59,20.59,0,0,1,4.5,26.92a13.29,13.29,0,0,1,3.44-7.47,6.71,6.71,0,0,1,5.77-2A8.74,8.74,0,0,1,13.92,15c.85-3.71,3.79-6.22,6.1-7.67,4.7-2.94,11.78-3.75,17.63-2,4.51,1.33,7.8,4,9.51,7.66a16.28,16.28,0,0,1,1.22,3.85A16.29,16.29,0,0,1,53,21.71C55.57,26,55.9,31.33,54,37.62Z" style="fill:#05350f"/><path d="M12.59,30.42c0,.2,0,.4,0,.59a2.91,2.91,0,0,0,0,.31,11.58,11.58,0,0,0,.18,1.18c0,.09,0,.18.05.28s.07.26.1.39c.07.33.15.66.25,1s.13.38.19.58.16.45.25.68a36.89,36.89,0,0,1,1.07-4.27c1.73-5.46,4.55-9.57,8.17-11.88s8.63-3.16,14.53-2.46a40.34,40.34,0,0,1,4.8.88c-.16-.18-.31-.37-.48-.54s-.3-.27-.45-.41c-.31-.28-.62-.56-.94-.82-.14-.12-.3-.22-.45-.34-.36-.27-.73-.53-1.12-.78l-.31-.19c-.48-.28-1-.55-1.47-.79l-.06,0a17.3,17.3,0,0,0-7.32-1.63,17.06,17.06,0,0,0-9.24,2.72,17.25,17.25,0,0,0-3.75,3.26h0c-.35.41-.68.84-1,1.28l0,0a17,17,0,0,0-2.67,6c-.1.44-.18.88-.25,1.32a.88.88,0,0,1,0,.16c-.05.38-.09.77-.12,1.15,0,.18,0,.35,0,.52,0,.32,0,.64,0,1S12.57,30.14,12.59,30.42Z" style="fill:#acf252"/><path d="M37.1,30c0-2.82-1-4.83-2.82-6A6.17,6.17,0,0,0,33,23.45s0,.05,0,.07c.08.27.16.56.22.87a.85.85,0,0,1,0,.17c.06.32.12.64.17,1,0,0,0,.06,0,.09,0,.34.08.7.1,1.08,0,.08,0,.16,0,.24q0,.57,0,1.2c0,.1,0,.21,0,.31,0,.43,0,.88-.05,1.36l0,.25c0,.47-.08,1-.15,1.48,0,.05,0,.1,0,.15-.07.55-.17,1.12-.28,1.72l-.06.32c-.11.59-.25,1.21-.4,1.84l0,.16a7.52,7.52,0,0,0,1.72-.62A5.27,5.27,0,0,0,37.1,30Z" style="fill:#acf252"/><path d="M28.36,32.54a18,18,0,0,0,2.28,2.58c.74-3.17,1.42-7.58.47-10.94-.08-.25-.16-.5-.26-.74a30.73,30.73,0,0,0-5.36,3.15A18,18,0,0,0,28.36,32.54Z" style="fill:#acf252"/><path d="M16.17,15.74a19,19,0,0,1,6-4.06l.26-.1c.43-.18.87-.34,1.31-.48l.57-.18c.36-.1.73-.2,1.09-.28l.66-.14.25-.06.73-.09c.29,0,.58-.09.88-.12s.87-.05,1.3-.06l.45,0h.09q.93,0,1.86.09h0a19,19,0,0,1,7.15,2.21l.09.06c.46.25.92.52,1.37.81h0l.28.07h.07a22.58,22.58,0,0,1,2.59.77h0l.79.3.12,0c.23.1.48.2.73.32l.24.11.65.31.23.11a14.49,14.49,0,0,0-.61-1.54,12.73,12.73,0,0,0-8.27-6.59,20.4,20.4,0,0,0-5.84-.82,23.54,23.54,0,0,0-2.65.15,18.56,18.56,0,0,0-7.51,2.47c-4,2.5-5.11,5.24-5.35,7.12.13-.14.28-.27.41-.41Z" style="fill:#acf252"/><path d="M44.65,21l-.27-.44c-.42,0-.83,0-1.24,0H43c-1.2.06-2.39.18-3.55.35l-.32.06c-.46.07-.92.15-1.37.24l-.39.08-1.34.32-.3.08L34.66,22c.19.1.39.19.58.31C37,23.36,39.09,25.55,39.09,30a7.18,7.18,0,0,1-4,6.9,10,10,0,0,1-1.37.55l.11.06c.61.37,1.24.72,1.9,1h0c.67.32,1.38.6,2.1.86l.23.08q1.05.36,2.16.63l.37.1c.61.14,1.25.25,1.89.36l.31-.35.18-.22c.28-.35.55-.7.8-1.07l.15-.22c.27-.41.53-.83.77-1.26,0,0,0,0,0-.08A16.88,16.88,0,0,0,46,34.49c0-.11.07-.23.1-.34.12-.4.22-.8.31-1.21,0-.12.06-.25.08-.37a15.08,15.08,0,0,0,.23-1.5.43.43,0,0,1,0-.05,16.06,16.06,0,0,0,.08-1.71v-.13c0-.51,0-1-.07-1.49l0-.28,0-.19c0-.41-.11-.82-.19-1.22,0-.05,0-.1,0-.15s-.08-.31-.12-.46c-.09-.39-.18-.78-.29-1.16,0-.09-.07-.18-.1-.26a13.26,13.26,0,0,0-.45-1.25l-.15-.33c-.16-.37-.34-.74-.53-1.11Z" style="fill:#acf252"/><path d="M40.49,42.27c-.58-.13-1.14-.27-1.69-.43l-.56-.17c-.52-.16-1-.33-1.53-.52L36.3,41c-.63-.24-1.23-.51-1.82-.8L34.2,40c-.48-.25-1-.51-1.4-.79l-.24-.14c-.09,0-.18-.12-.27-.18-.37-.24-.72-.49-1.07-.75l-.48-.35-.16-.12s0-.06-.08-.08a20.74,20.74,0,0,1-3.82-4,20.34,20.34,0,0,1-2.89-5.71l-.23.2-.74.64-.46.43-.49.47-.56.57-.23.24-.56.61-.21.23-.51.59-.2.24-.46.56-.21.27-.39.51-.22.3-.32.45a3.53,3.53,0,0,0-.24.34l-.26.38-.25.38c-.07.1-.13.2-.19.3l-.27.43-.13.22q-.15.23-.27.45l-.08.14-.27.47a.2.2,0,0,1,0,.08c-.09.17-.17.33-.25.47h0c-.17.32-.3.59-.39.79l0,.06.17.24c.26.38.54.75.83,1.11l.1.12a17.12,17.12,0,0,0,5,4.1l0,0c.26.14.54.27.81.4s.37.19.56.27l.06,0c.41.18.84.34,1.27.48l.21.08c.43.14.86.25,1.3.35L26,46c.38.08.77.14,1.16.2l.5.08c.33,0,.66.05,1,.08s.49,0,.74,0,.57,0,.86,0l.86,0,.81-.09.86-.13.79-.17.85-.22.75-.23L36,45.2l.71-.31c.28-.12.56-.25.82-.39l.67-.37c.31-.17.62-.36.92-.56l.25-.17a12.46,12.46,0,0,0,1.18-.88l0,0,.17-.15Z" style="fill:#acf252"/><path d="M15.79,44.52q.71.27,1.47.48l.23.06c.28.08.57.14.85.2l.41.08.49.09.21,0c-.15-.09-.28-.2-.43-.3l-.08,0-.67-.47-.53-.41q-.42-.33-.81-.69c-.11-.1-.23-.19-.33-.29-.38-.35-.74-.72-1.09-1.11l-.22-.26c-.3-.34-.59-.7-.87-1.06,0-.06-.09-.11-.13-.16a.61.61,0,0,0-.07-.1L13.83,40l0-.06-.23-.35-.16-.23s0,0,0-.05h0a1.24,1.24,0,0,1-.1-.2q-.18-.29-.33-.57l-.12-.2-.28-.56c-.06-.11-.11-.23-.17-.35-.2-.42-.38-.85-.55-1.29l-.14-.36c-.09-.24-.17-.49-.25-.75,0-.08,0-.16-.08-.24s-.07-.26-.11-.39a2.29,2.29,0,0,0-.08-.28c-.06-.26-.12-.51-.17-.77s-.07-.31-.1-.47c-.08-.43-.15-.87-.2-1.31l-.06-.49c0-.15,0-.31,0-.46v-.17c0-.38-.05-.77-.05-1.16,0-.18,0-.36,0-.54v0c0-.42,0-.83.07-1.24l0-.31a19.18,19.18,0,0,1,.73-3.54l0-.08a19.34,19.34,0,0,1,1.43-3.39h0c.15-.27.3-.55.47-.82l-.54,0a4.93,4.93,0,0,0-3.44,1.56,11.11,11.11,0,0,0-2.86,6.34A18.48,18.48,0,0,0,7.6,36.44a13.4,13.4,0,0,0,7.88,8Z" style="fill:#acf252"/><path d="M46.78,18.18l-.71-.45-.43-.25-.53-.28c-.21-.11-.41-.22-.63-.32l-.36-.17a19,19,0,0,1,3.74,6.6s0,0,0,.06,0,.11,0,.17,0,.1,0,.15c.1.32.19.65.27,1,0,.16.08.33.12.49l0,.15c0,.05,0,.11,0,.17s0,.12,0,.19a2.89,2.89,0,0,1,0,.29c.07.37.12.74.16,1.12,0,.1,0,.19,0,.29s0,.25,0,.37c0,.39,0,.78,0,1.17s0,.83,0,1.24,0,.63-.05.93-.09.69-.14,1-.06.43-.1.64-.14.67-.22,1-.11.43-.17.65-.18.63-.29,1-.17.49-.26.73-.22.56-.34.83-.3.65-.46,1-.18.38-.28.57c-.28.49-.57,1-.89,1.46l-.06.09c-.26.38-.53.75-.82,1.11l-.1.12c-.18.22-.36.45-.55.66a.88.88,0,0,1,.05.15c.07.19.13.37.19.56a7.76,7.76,0,0,1,.22.79l.09.38.09.54,0,.35c0,.18,0,.36.05.53s0,.18,0,.27a5.61,5.61,0,0,1,0,.58c3.5-1.64,6-4.67,7.3-9,1.76-5.72,1.5-10.53-.78-14.29A14.48,14.48,0,0,0,46.78,18.18Z" style="fill:#acf252"/><path d="M24,21c-4.44,2.84-6.67,8.18-7.76,12.29v0a35.1,35.1,0,0,1,2.87-3.58l.06-.07c.32-.35.65-.7,1-1.05l.06-.06.4-.39.63-.6c.31-.28.62-.56.94-.83l.23-.2c.42-.36.85-.7,1.29-1,0,0,0,0,0,0h0A33.05,33.05,0,0,1,30,21.63c.3-.14.6-.26.91-.39,0,0,0,0,.05,0l.33-.13.57-.22.37-.15.65-.23.62-.21,1-.31.6-.17,1.05-.27.2-.05.34-.07h0c.38-.09.75-.17,1.13-.24l.47-.08.1,0,.27,0a32.09,32.09,0,0,0-5.19-.44A17.64,17.64,0,0,0,24,21Z" style="fill:#acf252"/><path d="M42.62,46.79c.05-.21.09-.42.12-.64,0,0,0-.06,0-.09a6.91,6.91,0,0,0-.26-2.55v0l-.43.37-.37.31-.66.51-.3.22-.31.21-.11.07-.55.36,0,0c-.1.06-.2.1-.29.16-.25.15-.49.29-.75.42l-.51.26-.58.28-.41.18L37,47l-.51.2-.65.24-.3.09-.34.11-.53.15,0,0-.26.06-.79.19h-.15l-.48.09-.77.12-.36,0-.4,0-.48,0q-.49,0-1,0H29.6c-.33,0-.66,0-1,0h-.15l-.62,0-.33,0-.16,0h-.07c-.38,0-.77-.11-1.15-.18h0l-.09,0-.29,0c-.49-.1-1-.22-1.46-.36l-.63,0H22l-1.11-.06h0l-.53-.05-.27,0-.5-.06-.36-.06-.29,0c4.3,3.16,12.1,7.15,20.52,3.06a5.66,5.66,0,0,0,3.18-3.4A2,2,0,0,0,42.62,46.79Z" style="fill:#acf252"/></svg>