<svg xmlns="http://www.w3.org/2000/svg" viewBox="0 0 60 60"><title>Cauliflower</title><path d="M58.28,27.91h0a19.83,19.83,0,0,1-.47,3.69,24.46,24.46,0,0,1-3.1,7.74,22,22,0,0,1-8.38,7.86,29.25,29.25,0,0,1-9.65,3.07V52a2.83,2.83,0,0,1-2.92,2.73H27.54A2.83,2.83,0,0,1,24.61,52V50.35a29.69,29.69,0,0,1-10.25-3.14A22.15,22.15,0,0,1,6,39.35,23.92,23.92,0,0,1,2.42,27.92h0a6.53,6.53,0,0,1,3.63-5.74A6.15,6.15,0,0,1,6.22,21,24.92,24.92,0,0,1,12.75,7.16a1.12,1.12,0,0,1,.77-.34,1,1,0,0,1,.78.31l4.19,4a6.74,6.74,0,0,1,4.74-1.9,6,6,0,0,1,.74,0,8.21,8.21,0,0,1,12.76,0c.24,0,.49,0,.74,0a6.7,6.7,0,0,1,4.74,1.9l4.18-4a1.1,1.1,0,0,1,1.55,0A25,25,0,0,1,54.48,21a6.49,6.49,0,0,1,.17,1.16A6.57,6.57,0,0,1,58.28,27.91Z" style="fill:#05350f"/><path d="M9.84,17l.41-.15.23-.07.38-.11.3-.06c.12,0,.23-.05.35-.06l.44-.05.23,0a6.52,6.52,0,0,1,4.9-3.07c0-.14.1-.27.15-.4L13.6,9.48a22.16,22.16,0,0,0-4.3,7.75A4,4,0,0,1,9.81,17Z" style="fill:#acf252"/><path d="M17.39,43.22A64.93,64.93,0,0,1,11.71,38a1.09,1.09,0,0,1,1.59-1.5,62.88,62.88,0,0,0,5.49,5A43.09,43.09,0,0,0,29,48a24.6,24.6,0,0,0-1.4-4.35.61.61,0,0,0,0-.12,23.33,23.33,0,0,0-1.2-2.4c0-.09-.1-.18-.16-.27-.22-.37-.45-.75-.71-1.13l-.05-.09-.52-.72c-.09-.11-.17-.24-.26-.35s-.36-.45-.54-.67l-.28-.35c-.19-.22-.38-.42-.58-.63l-.3-.33c-.2-.2-.4-.4-.61-.59L22,35.63l-.61-.53L21,34.78c-.2-.17-.41-.32-.61-.47L19.94,34l-.62-.42-.47-.32-.63-.37-.52-.31-.35-.18c-.36-.19-.73-.39-1.11-.56l-.56-.25-1-.41c-.22-.09-.44-.16-.66-.24s-.63-.23-1-.33l-.72-.22-1-.27-.76-.18-1-.22-.8-.14-1-.17L7,29.28,6,29.17l-.86-.07-.43,0a22.55,22.55,0,0,0,3.2,9.21,20,20,0,0,0,7.57,7,27.46,27.46,0,0,0,9,2.81A52.72,52.72,0,0,1,17.39,43.22Z" style="fill:#acf252"/><path d="M44.11,13.47l.27,0c.15,0,.29.08.44.12l.3.09.41.17a2.52,2.52,0,0,1,.29.12l.33.18.33.18.21.16c.13.09.27.17.39.27l.24.22.31.27c.16.17.31.34.45.52l0,0c.15.2.28.4.41.61.24,0,.47,0,.7.07l.23,0,.44.09.27.08.37.12.29.11.31.14c.09,0,.18.07.27.12a22.32,22.32,0,0,0-4.3-7.75L43.46,13c0,.1.09.21.13.31l0,.09A3.85,3.85,0,0,1,44.11,13.47Z" style="fill:#acf252"/><path d="M53.21,23.9a6.05,6.05,0,0,0-4.46,1,1.08,1.08,0,0,1-.7.26,1.1,1.1,0,0,1-.7-1.93,7.65,7.65,0,0,1,5-1.6,3.72,3.72,0,0,0-.22-.64.69.69,0,0,1,0-.1,3.6,3.6,0,0,0-.39-.62l0-.05a5.11,5.11,0,0,0-.45-.48l-.12-.09a4.21,4.21,0,0,0-.48-.35l-.16-.09c-.16-.09-.34-.17-.51-.25l-.21-.08a4.94,4.94,0,0,0-.55-.15L49,18.7a5.31,5.31,0,0,0-.81-.07H48a1.06,1.06,0,0,1-.66-.15,1.14,1.14,0,0,1-.45-.52,3.82,3.82,0,0,0-1.56-1.77,4.72,4.72,0,0,0-2.45-.68h-.06a1,1,0,0,1-.38-.07.6.6,0,0,1-.11-.06,1.05,1.05,0,0,1-.21-.12l-.1-.12a.58.58,0,0,1-.14-.17,1,1,0,0,1-.06-.16.93.93,0,0,1-.08-.2,3.3,3.3,0,0,0-.49-1.25h0a4.41,4.41,0,0,0-3.72-1.91,5,5,0,0,0-1,.1,1.1,1.1,0,0,1-1.17-.5,6,6,0,0,0-9.86,0,1.11,1.11,0,0,1-1.17.51,4.37,4.37,0,0,0-1-.11A4.16,4.16,0,0,0,19,14.62a1.09,1.09,0,0,1-1.08.9h-.06a4.52,4.52,0,0,0-3.31,1.39A5.68,5.68,0,0,1,17.93,20a1.09,1.09,0,0,1-.57,1.43,1.11,1.11,0,0,1-.43.09,1.08,1.08,0,0,1-1-.67,3.52,3.52,0,0,0-2-1.84,5,5,0,0,0-1.45-.37,4.36,4.36,0,0,0-.81.07l-.14,0a4.64,4.64,0,0,0-.64.17l-.14.06a4.53,4.53,0,0,0-.59.28l-.09.05a5.89,5.89,0,0,0-.57.41l0,0a3.5,3.5,0,0,0-1.25,2.63c0,.12,0,.24,0,.36a1.08,1.08,0,0,1-.68,1.13,4.67,4.67,0,0,0-2.83,3l.52,0L6.2,27l1.12.12.91.12c.36.05.73.11,1.09.18l.86.16,1.07.23.82.2c.35.09.7.2,1,.3l.77.23,1,.37.69.26c.38.15.75.31,1.12.48l.54.24c.53.25,1.06.52,1.57.81h0l.2.13q.54.3,1.05.63h0a24.25,24.25,0,0,1,7.15,7l0,0c.32.48.61,1,.89,1.43l.21.38c.25.44.48.88.68,1.32.08.14.14.29.21.43l.41.94.21.51c.13.34.25.67.36,1l.1.25.09-.25.37-1L31,43c.13-.3.26-.62.41-.94.07-.14.13-.29.2-.44.21-.43.44-.87.69-1.31l.21-.38c.28-.47.57-1,.89-1.43l0,0a24.32,24.32,0,0,1,8.42-7.77c.51-.29,1-.56,1.57-.81l.52-.23c.38-.17.75-.34,1.14-.49l.67-.25,1.06-.38.76-.23,1.05-.3.82-.19c.35-.09.7-.17,1.07-.24l.86-.16c.36-.07.72-.13,1.09-.18l.9-.12c.38,0,.75-.09,1.13-.12l.94-.08.52,0A4.68,4.68,0,0,0,53.21,23.9ZM36,26.49a3.39,3.39,0,0,0-3.47-2.13,3.1,3.1,0,0,0-3.23,2.1,1.08,1.08,0,0,1-.86.81l-.19,0a1.1,1.1,0,0,1-.91-.5c-.27-.39-1.18-1.41-2.09-1.41s-1.64,1.27-1.65,1.28a1.08,1.08,0,0,1-1.45.51,1.1,1.1,0,0,1-.51-1.46A4.32,4.32,0,0,1,25.2,23.2a4.32,4.32,0,0,1,2.74,1.11,5.44,5.44,0,0,1,4.54-2.13A5.83,5.83,0,0,1,36.91,24,5.19,5.19,0,0,1,38,25.87Z" style="fill:#f6f2d6"/><path d="M55.58,29.1l-.86.07-1,.11-.84.11-1,.16L51,29.7l-1,.22-.77.18-.95.27-.73.22-.93.32-.67.25-.94.4-.59.26c-.36.17-.71.35-1.06.54l-.4.2-.44.27-.7.41-.42.28-.67.46-.4.3-.64.5-.37.31c-.21.18-.42.35-.62.54l-.33.31c-.2.2-.41.39-.61.6l-.3.33c-.2.21-.39.41-.58.63s-.19.23-.28.34l-.55.68-.25.35-.52.72-.06.09c-.25.38-.49.76-.71,1.14l-.15.26a24.68,24.68,0,0,0-1.21,2.41l0,.1A24.66,24.66,0,0,0,31.74,48a43.52,43.52,0,0,0,10.19-6.42,64.33,64.33,0,0,0,5.47-5A1.09,1.09,0,0,1,49,38a66.75,66.75,0,0,1-5.68,5.18,52.72,52.72,0,0,1-7,4.91,27.46,27.46,0,0,0,9-2.81,20,20,0,0,0,7.57-7A22.55,22.55,0,0,0,56,29.07Z" style="fill:#acf252"/><path d="M30.35,50.73h0c-.7,0-1.39,0-2.09,0l-.66,0-.81,0V52c0,.3.34.55.75.55h6.22c.4,0,.74-.25.74-.55V50.54l-.87.06-1.09.08C31.81,50.71,31.08,50.73,30.35,50.73Z" style="fill:#acf252"/></svg>