<svg xmlns="http://www.w3.org/2000/svg" viewBox="0 0 60 60"><title>Celery</title><path d="M3.47,51.37a1,1,0,0,1,.77-1.26l.85-.19a7.13,7.13,0,0,1-.91-3.17,6.4,6.4,0,0,1,2.35-5C9.72,38.79,22.69,27,27.11,23a5.88,5.88,0,0,1-3.55-2.72,6.17,6.17,0,0,1-.54-4,8.8,8.8,0,0,1,.6-2.1,1,1,0,0,1,1.58-.45,12,12,0,0,0,1.48.94A7.84,7.84,0,0,1,29.25,12a6,6,0,0,1-.2-2.74,8.36,8.36,0,0,1,.66-2.18c.1-.23.21-.45.32-.66a1.15,1.15,0,0,1,1-.74,1,1,0,0,1,.72.28,11.71,11.71,0,0,0,1.35,1.12A8,8,0,0,1,36.85,4.3,1,1,0,0,1,38,4.66a8.15,8.15,0,0,1,1.47,4.4,11.31,11.31,0,0,0,1.75-.15,1,1,0,0,1,.85.25,1.07,1.07,0,0,1,.35.82c0,.15-.19,3.67-2.7,5.42a3.91,3.91,0,0,1-.44.26c.13.3.24.54.34.73a8.11,8.11,0,0,1,4.58-.72,1,1,0,0,1,.86.86,8,8,0,0,1-.73,4.57,7.56,7.56,0,0,0,.73.34,3.91,3.91,0,0,1,.26-.44c1.75-2.5,5.27-2.68,5.42-2.69a1,1,0,0,1,1.08,1.2,11.29,11.29,0,0,0-.15,1.74,8,8,0,0,1,4.39,1.48,1,1,0,0,1,.37,1.16,8.1,8.1,0,0,1-2.77,3.72A12.88,12.88,0,0,0,54.79,29a1,1,0,0,1,.28.84,1,1,0,0,1-.48.75,8.43,8.43,0,0,1-4.11,1.21,5.52,5.52,0,0,1-1.72-.28A7.84,7.84,0,0,1,46,34.05,10.88,10.88,0,0,0,47,35.54a1,1,0,0,1-.07,1.3,1,1,0,0,1-.39.28,9.1,9.1,0,0,1-2.1.6,7.79,7.79,0,0,1-1.25.1,5.67,5.67,0,0,1-2.72-.65,5.86,5.86,0,0,1-2.73-3.54C33.69,38.05,21.94,51,19,54.2a6.47,6.47,0,0,1-4.84,2.36H14a7.36,7.36,0,0,1-3.16-.91l-.2.84a1,1,0,0,1-1,.81l-.24,0A1,1,0,0,1,8.6,56L9,54.39c-.23-.19-.44-.38-.62-.55l-2,2a1.05,1.05,0,0,1-1.47,0,1,1,0,0,1,0-1.47l2-2c-.17-.18-.36-.38-.55-.61l-1.62.38-.24,0A1,1,0,0,1,3.47,51.37Z" style="fill:#05350f"/><path d="M34.47,13.91h0c1.73.54,3.1.47,4.07-.21a4.51,4.51,0,0,0,1.59-2.58A5.44,5.44,0,0,1,38,10.94a1,1,0,0,1-.64-1.17,5.15,5.15,0,0,0-.58-3.16,5.11,5.11,0,0,0-2.28,2.27,1,1,0,0,1-1.2.59,5.54,5.54,0,0,1-1.87-1.09,3.58,3.58,0,0,0-.11.35,4.29,4.29,0,0,0-.05,2.69C31.66,12.53,32.74,13.36,34.47,13.91Z" style="fill:#caf46e"/><path d="M28.88,21.35a8,8,0,0,0,1.24.13h0a5.19,5.19,0,0,0,1-.07l.16,0a3.25,3.25,0,0,0,.8-.24l.14-.07a3.62,3.62,0,0,0,.56-.37l.13-.11a3,3,0,0,0,.44-.51l.15-.25a4.75,4.75,0,0,0,.42-1,5.44,5.44,0,0,1,.15-.61,2.41,2.41,0,0,0,.07-.37A5.33,5.33,0,0,1,32,18a1,1,0,0,1-.79-1.08,5.07,5.07,0,0,0-1-3.06,5.1,5.1,0,0,0-2,2.53,1,1,0,0,1-1.12.74,5.48,5.48,0,0,1-2-.84,4.52,4.52,0,0,0,.23,3.07,4.59,4.59,0,0,0,3.49,2Z" style="fill:#acf252"/><path d="M33.7,15.84l-.5-.18c0,.08,0,.16,0,.25Z" style="fill:#1d9a46"/><path d="M44.9,27a4.55,4.55,0,0,0-.07.45l.25.05A5,5,0,0,1,44.9,27Z" style="fill:#1d9a46"/><path d="M37.5,16.77a5,5,0,0,0-1.39,2c0,.21-.1.42-.16.64a3.07,3.07,0,0,0,0,.8,3.9,3.9,0,0,0,.13.57l.08.2a3.82,3.82,0,0,0,.21.46,2.25,2.25,0,0,0,.12.21c.08.14.18.27.27.41s.17.23.25.34l.06.07c.14.17.29.34.46.51l.11.12h0l.22.21.34.3.17.14.43.32a4.35,4.35,0,0,0,1.65.71h0a3.15,3.15,0,0,0,.43,0h.44a5.83,5.83,0,0,1,.63-.16,5,5,0,0,0,2-1.4,5.29,5.29,0,0,1-1.82-1.14,1.06,1.06,0,0,1,0-1.35,5,5,0,0,0,1-3.06,5.09,5.09,0,0,0-3.07.95,1,1,0,0,1-1.34,0A5.4,5.4,0,0,1,37.5,16.77Z" style="fill:#acf252"/><path d="M51,23.4a1,1,0,0,1-1.17-.65,5.51,5.51,0,0,1-.17-2.15A4.49,4.49,0,0,0,47,22.21c-.67,1-.74,2.33-.2,4.06h0c.54,1.73,1.38,2.81,2.49,3.22a4.56,4.56,0,0,0,3-.17,5.33,5.33,0,0,1-1.08-1.86,1,1,0,0,1,.59-1.2A5.09,5.09,0,0,0,54.12,24,5.08,5.08,0,0,0,51,23.4Z" style="fill:#acf252"/><path d="M37.17,30.36c0-.13,0-.26,0-.38s0-.26,0-.39l.06-.4c0-.1,0-.21,0-.31a5.61,5.61,0,0,1,.18-.62,0,0,0,0,1,0,0,4.85,4.85,0,0,1,.25-.61,1.09,1.09,0,0,0,.08-.15l.24-.41.12-.16c.09-.13.18-.24.28-.36l.08-.1,0-.05,0,0-.06,0C34.47,30.69,15,51.37,13,53.18a4.54,4.54,0,0,1-1,.74,5,5,0,0,0,2,.56,4.42,4.42,0,0,0,3.42-1.69c3.27-3.54,17.44-19.19,19.72-21.71,0-.09,0-.18,0-.27S37.17,30.51,37.17,30.36Z" style="fill:#caf46e"/><path d="M43.84,29.53a1,1,0,0,1-1.07-.79,5.27,5.27,0,0,1,.09-2.16l-.4.08a5.29,5.29,0,0,1-.54.13l-.28.09-.37.15-.36.19a1.78,1.78,0,0,0-.27.17,3.36,3.36,0,0,0-.41.34l-.16.15a3.54,3.54,0,0,0-.42.64l-.09.22a4,4,0,0,0-.2.64c0,.07,0,.13,0,.2a5.86,5.86,0,0,0-.07,1,1.64,1.64,0,0,0,0,.23,6.94,6.94,0,0,0,.11,1.08c.32,1.76,1,2.94,2,3.49a4.14,4.14,0,0,0,2.65.32l.42-.08a5.28,5.28,0,0,1-.84-2,1,1,0,0,1,.73-1.12,5.15,5.15,0,0,0,2.54-2A5.1,5.1,0,0,0,43.84,29.53Z" style="fill:#acf252"/><path d="M36.18,24.56c-.17-.17-.31-.33-.46-.49l0,0-.1-.12-8,7.57A1,1,0,1,1,26.14,30l8.28-7.81a.43.43,0,0,1,0-.07l-.05.05,0,0,0,0a5.53,5.53,0,0,1-.76.56l-.06,0a5.62,5.62,0,0,1-.89.42h0a6.14,6.14,0,0,1-.94.24l-.2,0a8,8,0,0,1-1,.08h-.73C27.13,25.82,11.48,40,7.94,43.26a4.4,4.4,0,0,0-1.68,3.43,4.89,4.89,0,0,0,.56,2,4.81,4.81,0,0,1,.74-1c.71-.75,4.2-4.1,10.67-10.24A1,1,0,0,1,19.66,39C13.31,45,9.75,48.4,9.08,49.12a1.82,1.82,0,0,0-.6,1.27,1.91,1.91,0,0,0,.6,1.19l0,0h0l.05.05a1.93,1.93,0,0,0,1.17.59,1.86,1.86,0,0,0,1.28-.6C13.41,50,31.39,30.92,36.82,25.15,36.61,25,36.39,24.77,36.18,24.56Zm-11.9,10-1.68,1.6a1,1,0,0,1-.72.28,1,1,0,0,1-.75-.32,1,1,0,0,1,0-1.47l1.68-1.59a1,1,0,1,1,1.43,1.5Z" style="fill:#acf252"/></svg>