<svg xmlns="http://www.w3.org/2000/svg" viewBox="0 0 60 60"><title>Chervil</title><path d="M47.81,30.51a10.26,10.26,0,0,1-3.44,1.42,32.67,32.67,0,0,0-4.26,1.72s1.15-.19,3.08-.3A5.34,5.34,0,0,1,47,35.07c.43.43-.62.37-2.18.7a67.63,67.63,0,0,1-8.85.48,7.25,7.25,0,0,0-4.8,1.8C29.61,39.2,30,41.72,30,43.41c-.08,2.45,0,11.42-.11,11.46s-.69-.5-.72-.56.13-9.13.16-10,.06-4.18-.32-4.88-3.06-2.07-4.08-2.47-5.34-.27-6.68-.19A25.62,25.62,0,0,1,13,36c-1-.24-.86-.38-.76-.56a4.51,4.51,0,0,1,1.48-1.34c.89-.54,1-.38,2.15-.51a12.74,12.74,0,0,1,3.65.63,3.31,3.31,0,0,0-1-.77,11,11,0,0,0-2.76-.37c-.92-.08-3.52-.68-4.19-.84s-.29-.4.11-.77A5.39,5.39,0,0,1,13.87,31a8.2,8.2,0,0,1-2.6-1.34,15,15,0,0,1-1.83-2.44c-.37-.51-.48-.65,0-.67a11.43,11.43,0,0,1,2.2-.25,4.39,4.39,0,0,1,2.36.65,16.74,16.74,0,0,1,2.44,1.61s-.51-.75-.78-1.13a3.08,3.08,0,0,1-.34-1.61c-.06-.78.24-.64.48-.54a4.73,4.73,0,0,1,1.07.67c.46.38,1.26,1.4,1.75,1.88s2.79,3.12,2.79,3.12-.43-.62-1.26-2a5.46,5.46,0,0,1-.38-3.86c.16-.7.32-.65.83-.33a15.93,15.93,0,0,1,3.09,3.55,15.78,15.78,0,0,1,1.9,5.17c.19,1.53,2.18,3.41,2.79,4.35s.59.56.59.19-.19-1.91-.37-3.11a36.8,36.8,0,0,0-1.24-4.43c-.35-1.07-3.51-4.59-4.42-6s-3.47-4.81-3.9-5.29.46-.51.84-.43a4.9,4.9,0,0,1,1,.4A8.18,8.18,0,0,1,20,17.44a5.41,5.41,0,0,1-.3-2.44c0-.81.11-.83.38-.65s.86.41,1.74,1a6.23,6.23,0,0,1,1.64,2s.13.16.13-.46.37-.37.49-.19,1.74,4.54,1.87,5.08,1.53,3.78,1.53,3.78-1-3.62-1.23-4.64-1.8-4.4-2-5A21.14,21.14,0,0,1,23,12.48c-.05-.86-.05-.89.4-.84a4.08,4.08,0,0,1,2.1,1.27,9.22,9.22,0,0,1,1.61,2.57,14.72,14.72,0,0,0-.59-2.92,15.52,15.52,0,0,1-.7-4.11c.05-.56.7-.19,1.18.14a2.68,2.68,0,0,1,.78,1s-.06-1.29,0-2.31,1.61-2.76,2-3.33.43-.45.57-.08a17,17,0,0,1,1.12,3.25,7.56,7.56,0,0,1-.36,2.32,6.85,6.85,0,0,1,1-1.09c.43-.29.57-.08.62.22a3,3,0,0,1,0,1.63c-.18,1-1.49,5.34-1.65,5.88a9.56,9.56,0,0,0,.92-1.85,5.66,5.66,0,0,1,2.74-2.74c1.1-.51.86.08.86.46a6.42,6.42,0,0,1-.46,2.28c-.51,1.8-2.22,4.32-2.89,5.85a25.35,25.35,0,0,0-1.2,4.31c.14-.25,2.47-4.2,2.86-4.93a13.25,13.25,0,0,1,1.66-2c.35-.43.43.53.43.53s.53-.44,1.05-.92a6.42,6.42,0,0,1,2.28-1.22c1.13-.38.72.1.67.64a21.39,21.39,0,0,1-1.64,4.35c-.8,1.63-4.83,5.63-5.9,7.13a11.82,11.82,0,0,0-1.77,4.11,26.49,26.49,0,0,0-1,5.74c0,1.21.21.27,1.34-1s2.14-3.94,2.81-5.45a26.49,26.49,0,0,1,2.34-4.72,6.65,6.65,0,0,1,1.67-1.93c.57-.46.72-.38.88-.08a3.84,3.84,0,0,1,.59,2,13.47,13.47,0,0,1-1.34,2.95s2.22-3,3.16-4.11a5.31,5.31,0,0,1,2-1.55c.56-.3.54.53.54,1A5.49,5.49,0,0,1,43,26.49a19,19,0,0,1,2.53-1.83A6.36,6.36,0,0,1,48,24.2c.59,0,1.14.13,1.12.4a7.83,7.83,0,0,1-1.18,2.71,9.76,9.76,0,0,1-3.14,2.49,10.08,10.08,0,0,1,2.17-.21C47.48,29.7,48.18,30.1,47.81,30.51Z" style="fill:#1d9a46"/><path d="M30,55.83l-.38-.09a3.06,3.06,0,0,1-1.27-1c-.26-.45.05-10.06.06-10.47a20.31,20.31,0,0,0-.21-4.43,14.79,14.79,0,0,0-3.61-2.05,30,30,0,0,0-6.3-.13,26.7,26.7,0,0,1-5.46-.77c-.63-.15-1.23-.33-1.46-.87a1.07,1.07,0,0,1,.11-1,5.27,5.27,0,0,1,1.56-1.53l-1.62-.37a1.21,1.21,0,0,1-1-.85A1.36,1.36,0,0,1,11,30.9l.12-.11.06-.05a4.7,4.7,0,0,1-.54-.44,10.46,10.46,0,0,1-1.6-2.05c-.13-.2-.24-.37-.34-.5-.33-.46-.68-.94-.4-1.51a1.19,1.19,0,0,1,1.09-.6l.36-.07a7.84,7.84,0,0,1,1.89-.18A4.63,4.63,0,0,1,14,26l.37.17.06,0c0-.09,0-.19,0-.28a1.49,1.49,0,0,1,.47-1.38,1.25,1.25,0,0,1,1.24-.06,5.83,5.83,0,0,1,1.31.81,13.14,13.14,0,0,1,1.11,1.17l.13.15a7.61,7.61,0,0,1,.21-1.67,1.52,1.52,0,0,1,.79-1.17,1.46,1.46,0,0,1,1.39.28,7.8,7.8,0,0,1,1.11,1c-.92-1.4-3.45-4.77-3.82-5.18a1.1,1.1,0,0,1-.19-1.35,1.25,1.25,0,0,1,1-.59s0-.08,0-.12a5.28,5.28,0,0,1-.36-2.36V15c0-.48,0-1.2.61-1.53a1.08,1.08,0,0,1,1.17.13,3.54,3.54,0,0,0,.4.21c.32.17.77.39,1.33.75a3.7,3.7,0,0,1,.72.6,9.58,9.58,0,0,1-.84-2.62c0-.7-.07-1.15.32-1.52a1.29,1.29,0,0,1,1.07-.28,4,4,0,0,1,1.82.83A15.19,15.19,0,0,1,25,8.37a1.17,1.17,0,0,1,.66-1,1.45,1.45,0,0,1,1.28.09c0-.08,0-.16,0-.24A6.88,6.88,0,0,1,28.67,4c.16-.22.3-.39.38-.51a1.35,1.35,0,0,1,1.24-.79,1.18,1.18,0,0,1,.93.88c0,.11.1.26.18.46a11.87,11.87,0,0,1,1,3,2.53,2.53,0,0,1,0,.28,1,1,0,0,1,.55.08,1.24,1.24,0,0,1,.72,1,3.93,3.93,0,0,1,0,1.94c0,.19-.11.49-.2.86a6.71,6.71,0,0,1,.94-.55,1.73,1.73,0,0,1,1.69-.08,1.29,1.29,0,0,1,.46,1.26v.1a7.5,7.5,0,0,1-.49,2.52,13.72,13.72,0,0,1-.94,2.25,1,1,0,0,1,1-.21l.21.1.19-.18A7.36,7.36,0,0,1,39.13,15a1.61,1.61,0,0,1,1.63.1A1.2,1.2,0,0,1,41,16.37c0,.07,0,.14,0,.21a21.16,21.16,0,0,1-1.73,4.67A29.87,29.87,0,0,1,35.47,26c-.93,1-1.8,2-2.19,2.55a8.73,8.73,0,0,0-1.42,3.13l-.23.73a24.33,24.33,0,0,0-.7,3.2,28.17,28.17,0,0,0,1.81-3.7c.13-.32.26-.61.37-.87s.32-.73.48-1.1a18.84,18.84,0,0,1,1.95-3.77,7.55,7.55,0,0,1,1.72-2l.12-.1a1.65,1.65,0,0,1,1.38-.5,1.28,1.28,0,0,1,.86.7,4.8,4.8,0,0,1,.52,1.15l.42-.5a6,6,0,0,1,2.1-1.69l.12-.06a1.19,1.19,0,0,1,1.2,0,1.4,1.4,0,0,1,.62,1.07,6.56,6.56,0,0,1,.57-.33,7.16,7.16,0,0,1,2.68-.54,2.46,2.46,0,0,1,1.8.5,1.1,1.1,0,0,1,.32.86,8.45,8.45,0,0,1-1.32,3.13,5.45,5.45,0,0,1-1,1.1,1.81,1.81,0,0,1,1.07,1,1.21,1.21,0,0,1-.28,1.22v0A9.81,9.81,0,0,1,45,32.7a7.22,7.22,0,0,1,2.69,1.73A1.07,1.07,0,0,1,48,35.55c-.22.66-.85.76-1.73.89-.34.05-.75.11-1.21.21a70.15,70.15,0,0,1-9.06.5,6.43,6.43,0,0,0-4.24,1.62c-.92.66-.88,2.22-.85,3.59q0,.57,0,1.08c0,1.22-.05,4.1-.05,6.65,0,5.28,0,5.28-.51,5.56ZM22,35.74a12.26,12.26,0,0,1,3.26.34s.39.16.93.42a6.51,6.51,0,0,1-1.48-2.91,14.67,14.67,0,0,0-1.78-4.82,16.81,16.81,0,0,0-2.38-2.88,4.18,4.18,0,0,0,.38,2.59c.8,1.33,1.23,1.94,1.23,1.95l-1.41,1.1c-.64-.72-2.38-2.69-2.76-3.08-.21-.21-.49-.52-.77-.85a11.53,11.53,0,0,0-.9-1,.71.71,0,0,0,.09.26L17.19,28l3.26,4.8-1.52-1.19-4.69.22c.71.15,1.34.26,1.67.29l.63.05a7.29,7.29,0,0,1,2.44.41,4,4,0,0,1,1.28,1ZM38.3,25.58A7.06,7.06,0,0,0,37,27.16a17.15,17.15,0,0,0-1.76,3.43c-.17.39-.33.77-.5,1.14l-.36.84A32.17,32.17,0,0,1,32.74,36a8,8,0,0,1,1.34-.49h0l5.67-2.72a33.21,33.21,0,0,1,4.45-1.79,13.83,13.83,0,0,0,1.61-.5l-.83.13-5.24.92L44.32,29a8.25,8.25,0,0,0,2.82-2.19A8.22,8.22,0,0,0,48,25.1h0a5.7,5.7,0,0,0-2.06.37,13.36,13.36,0,0,0-2.25,1.64l-3.72,3L42.29,26c.16-.28.28-.49.36-.65a6.35,6.35,0,0,0-.74.74c-.9,1-3.09,4-3.11,4.05l-1.5-1a12,12,0,0,0,1.22-2.61A2.07,2.07,0,0,0,38.3,25.58ZM13.71,35.21a23.09,23.09,0,0,0,4.48.62s1.61-.1,3.33-.09l-2.22-.68a11.91,11.91,0,0,0-3.28-.6l-.77.07a1.54,1.54,0,0,0-1,.32A4.68,4.68,0,0,0,13.71,35.21Zm32.69.49h0ZM24.63,28.14a16.66,16.66,0,0,1,1.86,5.23,5.77,5.77,0,0,0,1.31,2.28L27.71,35a36.22,36.22,0,0,0-1.2-4.28A16.25,16.25,0,0,0,24.63,28.14Zm18.78,6.1h-.17a27,27,0,0,0-3,.29l-5,.83a7.42,7.42,0,0,1,.82,0,69.15,69.15,0,0,0,8.64-.46l.55-.11A3.66,3.66,0,0,0,43.41,34.24ZM21,20.3c.94,1.25,2.1,2.85,2.67,3.7.33.51,1,1.36,1.74,2.26a18.79,18.79,0,0,1,2.78,3.94c.29.89.85,2.6,1.14,3.89a20.38,20.38,0,0,1,.56-2.27l.21-.71a10.75,10.75,0,0,1,1.68-3.65c.45-.64,1.32-1.6,2.32-2.72a31.15,31.15,0,0,0,3.51-4.29A27.66,27.66,0,0,0,39.05,17a4.75,4.75,0,0,0-1.3.77c-.54.51-1.09,1-1.09,1L35.33,19.8l0-.6a3.77,3.77,0,0,0-.49.67c-.27.49-1.28,2.24-2.3,4l-.57,1L29.55,29l.69-4.79a25.59,25.59,0,0,1,1.27-4.54c.27-.62.69-1.37,1.13-2.15A20.24,20.24,0,0,0,34.36,14c.2-.72.31-1.15.37-1.42a4.62,4.62,0,0,0-1.8,2,10.76,10.76,0,0,1-1,2l-3.24,4.74,1.72-5.81c.92-3.07,1.44-4.92,1.54-5.48l0-.2-.11.15L29.1,13.54l1.16-4.35a5.82,5.82,0,0,0,.34-2,9,9,0,0,0-.64-2,6.6,6.6,0,0,0-1.24,2.08c0,1,0,2.21,0,2.23l.22,4.74L27,10a2.36,2.36,0,0,0-.14-.26,14,14,0,0,0,.54,2.54,15.61,15.61,0,0,1,.65,3.16l.61,6.05-2.34-5.62a8,8,0,0,0-1.4-2.26,5.39,5.39,0,0,0-.89-.72c.15.51.46,1.23.66,1.71a9.54,9.54,0,0,1,.39,1c.06.18.36.87.62,1.47a27.35,27.35,0,0,1,1.39,3.62c.21,1,1.21,4.55,1.22,4.58l-1.69.6c-.34-.77-1.43-3.35-1.58-3.9-.08-.34-.84-2.42-1.35-3.77l-.52.19-.54-.66a5.13,5.13,0,0,0-1.33-1.62c-.28-.18-.53-.32-.75-.44a3.58,3.58,0,0,0,.25,1.48,7.29,7.29,0,0,0,.78,1.54l2.21,3.13Zm-10.47,7h0A9,9,0,0,0,11.89,29a7.22,7.22,0,0,0,2.25,1.14l4.72,1.47-3-2.34a15.26,15.26,0,0,0-2.26-1.5l-.39-.19a3,3,0,0,0-1.62-.38A6,6,0,0,0,10.56,27.26Zm31.9-1.47.56.7Zm1.16-1.09h0Z" style="fill:#05350f"/></svg>