<svg xmlns="http://www.w3.org/2000/svg" viewBox="0 0 60 60"><title>Chives</title><path d="M43.8,5.7c-.07.17-6.22,18-4.87,27.75a1,1,0,0,1,0,.45,4,4,0,0,0,0,.83h2a1.18,1.18,0,0,1,0,2.35H39.45c.08.27.18.56.29.87l0,.08c.06.23.31.81.57,1.42,1.39,3.29,2.71,6.69,2.27,9,0,0,0,0,0,.07a5.46,5.46,0,0,1-5.49,4,4.29,4.29,0,0,1-1.58,1.69,4.77,4.77,0,0,1-3.65.4,9,9,0,0,1-1.84.2,4.08,4.08,0,0,1-2.84-.91,5.72,5.72,0,0,1-1.31-1.69,5.77,5.77,0,0,1-3.3-.87,4.53,4.53,0,0,1-1.91-3c-.15-.54-.43-2.28.93-5.68l1.56-3.91s0,0,0,0a1.19,1.19,0,0,1,.37-.83l.32-.8h-.92a1.18,1.18,0,0,1,0-2.35h1.78C24.77,32,24.9,16.6,20.38,5.4a1.23,1.23,0,0,1,2.28-.92c4.72,11.71,4.58,27.21,4.5,30.25h2C28.87,28.38,28,10.58,27,4.79a1.21,1.21,0,0,1,1-1.41,1.23,1.23,0,0,1,1.42,1c1,6,1.92,24.05,2.21,30.35h.48c.56-6.4,2.17-24.21,3.34-30.2A1.23,1.23,0,1,1,37.86,5c-1.12,5.73-2.71,23.2-3.28,29.73h1.88a5.69,5.69,0,0,1,0-1.13c-.56-4.37.1-10.52,2-18.26,1.41-5.8,3-10.41,3-10.45A1.22,1.22,0,0,1,43,4.13,1.24,1.24,0,0,1,43.8,5.7Z" style="fill:#05350f"/><path d="M32.87,40l-2.23,0a108.91,108.91,0,0,0-2.6,11,2.76,2.76,0,0,0,.8,1.12l.06.06a4.27,4.27,0,0,0,2.71,0,1.13,1.13,0,0,1,.63,0,2.6,2.6,0,0,0,2-.07,2,2,0,0,0,.78-1A95.93,95.93,0,0,0,32.87,40Zm.27,9.89H30a.61.61,0,0,1,0-1.22h3.17a.61.61,0,0,1,0,1.22Z" style="fill:#1d9a46"/><path d="M25.36,39.91l-1.47,3.67c-1.05,2.63-.89,3.86-.85,4.06a.8.8,0,0,1,0,.18A2.12,2.12,0,0,0,24,49.28a3.33,3.33,0,0,0,1.82.45c.37-1.9,1.27-6.33,2.31-9.79Zm0,8.57a.52.52,0,0,1-.17,0L24,48.11a.61.61,0,1,1,.34-1.18l1.23.36a.61.61,0,0,1-.17,1.19Z" style="fill:#1d9a46"/><path d="M28.87,37.6c.07-.18.14-.35.22-.52h-2.6l-.19.49Z" style="fill:#1d9a46"/><path d="M32,37.64a1.2,1.2,0,0,1-.11-.56h-.2a1.27,1.27,0,0,1-.13.46.47.47,0,0,1,0,.1Z" style="fill:#1d9a46"/><path d="M38.08,40.41l-.15-.35-2.5,0a100.66,100.66,0,0,1,2,10A2.94,2.94,0,0,0,40.21,48C40.5,46.15,38.87,42.28,38.08,40.41Zm1.29,8.07L38,48.65h-.07a.61.61,0,0,1-.08-1.22l1.41-.17a.6.6,0,0,1,.68.53A.62.62,0,0,1,39.37,48.48Z" style="fill:#1d9a46"/><path d="M34.69,37.68l2.38,0c-.07-.22-.13-.42-.18-.62H34.46C34.54,37.27,34.62,37.47,34.69,37.68Z" style="fill:#1d9a46"/></svg>