<svg xmlns="http://www.w3.org/2000/svg" viewBox="0 0 60 60"><title>Coriander</title><path d="M54.08,39.33a2.34,2.34,0,0,1-1.49,1.51,2.37,2.37,0,0,1,.15.8A2.18,2.18,0,0,1,52,43.37c-.69.62-1.83.47-3.89.2-4.35-.58-11.6-1.52-15.66,4.54v7.27a1,1,0,0,1-2.09,0V48.1c-4.07-6-11.31-5.1-15.66-4.53-2.07.27-3.2.42-3.9-.2A2.24,2.24,0,0,1,10,41.64a2.64,2.64,0,0,1,.15-.8,2.3,2.3,0,0,1-1.48-1.51,2.49,2.49,0,0,1,.68-2.55,2.61,2.61,0,0,1,1.52-4.39,2.37,2.37,0,0,1,1.32-2.09c1.52-.79,3.34.11,5.1,1l.58.29c1.43.69,5.15,1.27,6.51.24.29-.22.59-.59.43-1.52C24.58,29.13,23.32,29,20.38,29c-2.37.05-5,.11-5.78-2.11a3.71,3.71,0,0,1,0-2.16,2.87,2.87,0,0,1-1.73-2.91,2.94,2.94,0,0,1,1.88-2.59,3.23,3.23,0,0,1,.43-1.77,2.87,2.87,0,0,1,4.16-.83,2.64,2.64,0,0,1,2.18-.86c1,0,1.89,1,3,2.23a13.58,13.58,0,0,0,1.57,1.56,4.75,4.75,0,0,0,.12-.63c.23-2-.67-2.64-1.92-3.53s-2.46-1.77-2.4-3.79A3.24,3.24,0,0,1,23.09,9a3.13,3.13,0,0,1,1.34-.55,3.2,3.2,0,0,1,.76-2.65,2.9,2.9,0,0,1,2-1,3.24,3.24,0,0,1,1.32.22,3.66,3.66,0,0,1,2.68-1.88h0a.82.82,0,0,1,.27,0A3.65,3.65,0,0,1,34.18,5a3.08,3.08,0,0,1,1.32-.23,2.92,2.92,0,0,1,2,1,3.17,3.17,0,0,1,.76,2.65A3,3,0,0,1,39.63,9a3.27,3.27,0,0,1,1.25,2.67c.06,2-1.3,3-2.4,3.8S36.32,17,36.56,19a5,5,0,0,0,.12.64A13.69,13.69,0,0,0,38.25,18c1.11-1.21,2-2.17,3-2.22a2.62,2.62,0,0,1,2.19.86,2.85,2.85,0,0,1,2.21-.51,2.9,2.9,0,0,1,2,1.34A3.23,3.23,0,0,1,48,19.28a2.91,2.91,0,0,1,1.87,2.59,2.87,2.87,0,0,1-1.72,2.91,3.71,3.71,0,0,1,0,2.16c-.73,2.22-3.41,2.16-5.78,2.1-2.94-.06-4.2.1-4.41,1.26-.17.93.14,1.29.42,1.51,1.36,1,5.09.46,6.52-.23l.58-.29c1.76-.87,3.58-1.77,5.1-1a2.37,2.37,0,0,1,1.32,2.09,2.59,2.59,0,0,1,2.24,2.36,2.54,2.54,0,0,1-.72,2A2.5,2.5,0,0,1,54.08,39.33Z" style="fill:#05350f"/><path d="M51,37.6a1,1,0,0,1-.61-1.11,1,1,0,0,1,.88-.87c.24,0,.79-.21.76-.74s-1.25-.5-1.29-.5h0a1,1,0,0,1-1-1.4c0-.07.2-.64-.13-.82-.58-.3-2.1.46-3.22,1l-.59.29a12.35,12.35,0,0,1-4.08,1,7.11,7.11,0,0,1-4.61-1,3.41,3.41,0,0,1-1.22-3.55,3.35,3.35,0,0,1,2.72-2.74A15.18,15.18,0,0,1,42.4,27c1.64,0,3.5.08,3.75-.67a2,2,0,0,0-.26-1.57,1.08,1.08,0,0,1-.08-1,1.06,1.06,0,0,1,.83-.6,2.19,2.19,0,0,0,.76-.26.7.7,0,0,0,.41-.77.82.82,0,0,0-.48-.79,1.52,1.52,0,0,0-.47-.13h0a1,1,0,0,1-1-1.33,1.65,1.65,0,0,0,0-1.22.8.8,0,0,0-.59-.36c-.44-.1-1,.51-1.23.8a1,1,0,0,1-1.13.44,1,1,0,0,1-.77-.91c-.06-.43-.29-.65-.66-.65h0a9.72,9.72,0,0,0-1.61,1.55c-1.28,1.41-2.49,2.74-3.83,2.31-1.1-.35-1.37-1.62-1.49-2.55-.38-3.21,1.45-4.52,2.78-5.47,1.05-.75,1.55-1.15,1.52-2a1.32,1.32,0,0,0-.38-1.07A2,2,0,0,0,37,10.52a1,1,0,0,1-1.15-.41,1.05,1.05,0,0,1,0-1.22A1.44,1.44,0,0,0,36,7.15a.81.81,0,0,0-.58-.34,1.74,1.74,0,0,0-1,.42,1,1,0,0,1-1,.23,1.05,1.05,0,0,1-.71-.75,2,2,0,0,0-1.28-1.55,1.91,1.91,0,0,0-1.29,1.55,1.05,1.05,0,0,1-.71.75,1,1,0,0,1-1-.23,1.73,1.73,0,0,0-1-.42.81.81,0,0,0-.57.34,1.46,1.46,0,0,0,.05,1.75,1,1,0,0,1,0,1.21,1,1,0,0,1-1.16.41,2,2,0,0,0-1.37.14,1.3,1.3,0,0,0-.39,1.05c0,.88.48,1.28,1.53,2,1.33.95,3.16,2.26,2.77,5.47-.11.93-.38,2.19-1.48,2.55-1.34.42-2.55-.91-3.83-2.31a9.32,9.32,0,0,0-1.61-1.55h0c-.37,0-.6.21-.66.64a1,1,0,0,1-.78.91A1.06,1.06,0,0,1,18.74,19c-.2-.28-.78-.88-1.22-.79a.8.8,0,0,0-.59.36,1.66,1.66,0,0,0,0,1.22,1.06,1.06,0,0,1-.17.94,1,1,0,0,1-.84.4.9.9,0,0,0-1,.91.72.72,0,0,0,.45.79,2.26,2.26,0,0,0,.71.24,1.07,1.07,0,0,1,.85.6,1,1,0,0,1-.1,1,2.16,2.16,0,0,0-.25,1.57c.25.75,2.11.71,3.75.68a14.73,14.73,0,0,1,3.8.23,3.35,3.35,0,0,1,2.72,2.74,3.39,3.39,0,0,1-1.22,3.55c-2.22,1.68-6.84.88-8.69,0l-.59-.29c-1.12-.55-2.64-1.3-3.22-1-.33.17-.16.74-.13.81a1.05,1.05,0,0,1-.13,1,1.06,1.06,0,0,1-.9.43h0s-1.25,0-1.28.5.67.73.75.75a1,1,0,0,1,.28,2c-.43.2-1.19.76-1.08,1.09s1.19.18,1.2.18a1,1,0,0,1,.92,1.82,2,2,0,0,0-.69,1,0,0,0,0,0,0,0,16.47,16.47,0,0,0,2.31-.22,41.14,41.14,0,0,1,5.38-.44c3.91,0,8.39.92,11.6,4.92a12.94,12.94,0,0,1,8.23-4.65,29.31,29.31,0,0,1,8.74.17,16.47,16.47,0,0,0,2.31.22v0a2,2,0,0,0-.69-1,1,1,0,0,1,.93-1.82s1.06.22,1.2-.19S51.45,37.8,51,37.6Z" style="fill:#1d9a46"/></svg>