<svg xmlns="http://www.w3.org/2000/svg" viewBox="0 0 60 60"><title>Cucumber</title><path d="M42.86,39.82c0,2.72,0,4.8-.08,6.73a.14.14,0,0,0,0,.07c-.09,5.91-5.72,10.7-12.63,10.7S17.63,52.57,17.5,46.69a.68.68,0,0,1,0-.14c-.06-1.95-.09-4-.09-6.73,0-14.9.64-28.6,8.08-32.55a4.83,4.83,0,0,1,9.31,0C42.23,11.22,42.86,24.92,42.86,39.82Z" style="fill:#05350f"/><path d="M33.23,9.21a1.19,1.19,0,0,1-.71-.94,2.41,2.41,0,0,0-4.78,0,1.22,1.22,0,0,1-.71.94c-6.65,3-7.21,17.35-7.21,30.61v.39a12.24,12.24,0,0,1,4.49-3.36,186.4,186.4,0,0,1,1.26-19,1,1,0,1,1,1.91.29c-.39,2.6-1,9.73-1.21,18a14.85,14.85,0,0,1,7.69,0,179.9,179.9,0,0,0-1.19-18,1,1,0,1,1,1.92-.29,187.73,187.73,0,0,1,1.22,19,12.29,12.29,0,0,1,4.52,3.37v-.38C40.43,26.56,39.87,12.16,33.23,9.21Z" style="fill:#619d34"/><path d="M34.51,38.88a12.22,12.22,0,0,0-8.8,0c-3.51,1.4-5.79,4.37-5.79,7.57,0,4.64,4.58,8.41,10.21,8.41s10.2-3.77,10.2-8.41C40.33,43.26,38.05,40.27,34.51,38.88ZM28,48.78l-1,.46a1,1,0,0,1-.4.09,1,1,0,0,1-.89-.57,1,1,0,0,1,.49-1.28l1-.47A1,1,0,1,1,28,48.78Zm.49-3.32a1,1,0,0,1-1.29.47l-1-.45a1,1,0,0,1-.47-1.28A1,1,0,0,1,27,43.72l1,.45A1,1,0,0,1,28.48,45.46ZM31.1,50a1,1,0,0,1-1.94,0V49a1,1,0,0,1,1.94,0Zm0-6a1,1,0,1,1-1.94,0V43a1,1,0,0,1,1.94,0Zm1.15.19,1-.45a1,1,0,0,1,1.29.48A1,1,0,0,1,34,45.48l-1,.45a1,1,0,0,1-.81-1.76Zm2.31,4.59a1,1,0,0,1-.88.57.93.93,0,0,1-.4-.09l-1-.46a1,1,0,0,1,.8-1.77l1,.46A1,1,0,0,1,34.56,48.76Z" style="fill:#acf252"/></svg>