<svg xmlns="http://www.w3.org/2000/svg" viewBox="0 0 60 60"><title>Lavender</title><path d="M36.74,35.69c-.05.21-.09.41-.14.62l.21-.14A6.81,6.81,0,0,1,38,35.55c.23-.1.84-.34,1.14.09a.6.6,0,0,1,.08.44c-.1.5-1,1.14-1.51,1.47a7,7,0,0,1-1.18.64,1.69,1.69,0,0,1-.34.11.56.56,0,0,1-.15.34l-.09.37L36,39a3.15,3.15,0,0,1,1.49-.63.54.54,0,0,1,.49.25c.1.17.4.65-1.16,1.65a4.9,4.9,0,0,1-1.17.58.55.55,0,0,1-.23.33h0l-.06,0q-.22.8-.45,1.56a1.37,1.37,0,0,1,.2-.13h0c1-.62,1.32-.54,1.43-.51a.52.52,0,0,1,.32.24c.25.41-.06.87-1,1.47a4.24,4.24,0,0,1-.95.48.54.54,0,0,1-.58.36c-.47,1.48-.94,2.88-1.42,4.16-.11.27-.21.53-.31.79,1.53,3.09,2.5,4.53,2.87,4.77h0a.48.48,0,0,1,.15.93.69.69,0,0,1-.56-.06,9.3,9.3,0,0,1-2.22-3.08c.42,2.55.75,3.14.86,3.27a.48.48,0,0,1,.37.46.47.47,0,0,1-.48.48c-.64,0-1.14-.67-1.7-4,0-.24-.08-.5-.12-.77q-.34.77-.66,1.35c-.67,1.23-1.13,1.67-1.63,1.56a.48.48,0,0,1-.37-.57.5.5,0,0,1,.43-.38c.23-.18.91-1.15,2-3.82,0,0,0-.08,0-.13-.77-1.58-1.48-3.15-1.93-4.19-.91-2.07-1.82-4.27-2.71-6.55h0a.61.61,0,0,1-.44,0,.53.53,0,0,1-.27-.36l-.31-.07a8.18,8.18,0,0,1-1.15-.48c-.51-.27-1.39-.79-1.54-1.26a.58.58,0,0,1,.62-.74,2,2,0,0,1,.52.09,6.84,6.84,0,0,1,1.14.49,6.35,6.35,0,0,1,.68.39c-.35-.91-.69-1.83-1-2.75l-.11,0,0,0a.54.54,0,0,1-.28-.44,5.56,5.56,0,0,1-1.8-.66C20.73,31.81,21,31.23,21.11,31h0c.1-.19.4-.75,2.56.36l.56.31c-.13-.36-.26-.72-.38-1.08a.68.68,0,0,1-.18-.28.64.64,0,0,1,0-.2,7.8,7.8,0,0,1-2.35-.84c-1.74-.91-2.47-1.67-2.17-2.24s1-.3,1.37-.2a10.11,10.11,0,0,1,1.71.71L23,28c-.17-.49-.33-1-.49-1.47a2.55,2.55,0,0,1-.92-.45,11.85,11.85,0,0,1-1.64-1.45,12.14,12.14,0,0,1-1.38-1.7c-.2-.32-.69-1.08-.23-1.52s1.19.08,1.5.3.46.34.71.55c0,0,0,0,0,0-.13-.42-.77-2.54-.39-3.27a.67.67,0,0,1,.38-.33c.6-.19,1,.6,1.21.93a12.14,12.14,0,0,1,.83,2l.09.29A10.38,10.38,0,0,1,23,20.72c.13-.36.44-1.2,1.07-1.1a.57.57,0,0,1,.41.26c.47.63.2,2.68.11,3.29A11.65,11.65,0,0,1,24,25.3a2.19,2.19,0,0,1-.61,1c.23.7.46,1.4.7,2.11.14-.34.29-.62.37-.78.31-.6,1.1-2,1.76-2.21a.59.59,0,0,1,.77.41c.22.67-.56,2.24-.8,2.71a7.14,7.14,0,0,1-1.38,2c.13.39.27.77.4,1.16a1.24,1.24,0,0,0,.1-.2c.2-.37.88-1.61,1.46-1.79a.56.56,0,0,1,.44,0h0c.18.11.73.43-.38,2.56a6.59,6.59,0,0,1-.91,1.4l.93,2.52a5.79,5.79,0,0,1,.48-.71c.15-.19.54-.68,1-.45h0c.45.25.27.86.2,1.09a7.71,7.71,0,0,1-.48,1.15,7,7,0,0,1-.49.82c.94,2.42,1.91,4.75,2.87,6.94.24.56.48,1.09.71,1.6-.12-1.27-.24-2.65-.35-4.14-.23-3.24-.43-6.87-.59-10.73a.51.51,0,0,1-.26-.14.6.6,0,0,1-.18-.43.57.57,0,0,1,0-.13,6.53,6.53,0,0,1-1.68-1.29c-1.23-1.23-1.64-2.07-1.21-2.5.64-.64,2,.75,2.49,1.21a10.53,10.53,0,0,1,.74.82c-.05-1.38-.09-2.78-.13-4.21h0a.67.67,0,0,1-.14-.67,6.25,6.25,0,0,1-2.08-1.56,10.53,10.53,0,0,1-1.24-1.47c-.19-.29-.65-1-.22-1.4a.64.64,0,0,1,.44-.17h0c.77,0,2.15,1.36,2.42,1.63s.54.56.76.83c0-.65,0-1.3,0-2a.88.88,0,0,1,0-.6v-.05a3.45,3.45,0,0,1-.8-.43,13.11,13.11,0,0,1-1.85-1.56,13.8,13.8,0,0,1-1.56-1.84c-.35-.53-.7-1.19-.29-1.6a.6.6,0,0,1,.46-.19,2.27,2.27,0,0,1,1.14.48A13.11,13.11,0,0,1,28.9,16.1c.37.38.72.76,1,1.13,0-.85,0-1.7,0-2.54-1-.4-2.23-2.87-2.48-3.37a16.41,16.41,0,0,1-1.05-2.65C26.18,8,26,7.14,26.6,6.86a.65.65,0,0,1,.53,0c.59.19,1.36,1.25,2,2.38,0-.2,0-.41,0-.61a15.56,15.56,0,0,1,.24-2.85c.14-.71.38-1.52,1-1.52s.88.81,1,1.52a15.64,15.64,0,0,1,.23,2.85c0,.35,0,.7,0,1,.51-.94,1.47-2.55,2.23-2.81a.73.73,0,0,1,.54,0,.69.69,0,0,1,.34.41c.27.76-.46,2.66-1.16,4.06a14.9,14.9,0,0,1-1.48,2.44c-.34.45-.76.92-1.2,1l0,3.48c.31-.38.67-.77,1.05-1.16s2.11-2,3-2a.69.69,0,0,1,.48.19c.4.41.05,1.07-.3,1.6a13.8,13.8,0,0,1-1.56,1.84,13.11,13.11,0,0,1-1.85,1.56,3.29,3.29,0,0,1-.76.41c0,.73,0,1.45,0,2.18q.24-.27.54-.57A10.79,10.79,0,0,1,33,21c.27-.17,1-.64,1.4-.21s0,1.43-1.46,2.87a10,10,0,0,1-1.47,1.24,2.9,2.9,0,0,1-.42.25q0,2.07.12,4.08l.07-.07c.42-.42,1.45-1.39,2.07-1.39h0a.64.64,0,0,1,.42.18.56.56,0,0,1,.17.42c0,.61-1,1.65-1.38,2.07a7.49,7.49,0,0,1-1.28,1.07c.15,3.61.33,7,.54,10.08.17,2.46.35,4.49.52,6.16.42-1.16.83-2.4,1.24-3.72-.1-.12-.2-.27-.31-.43a2.39,2.39,0,0,1-.52-1.41.55.55,0,0,1,.24-.34.52.52,0,0,1,.29-.09c.24,0,.5.18.81.56.14-.48.28-1,.41-1.45a5.75,5.75,0,0,1-.67-.86c-.89-1.39-.65-1.79-.39-2h0a.59.59,0,0,1,.43-.08c.37.08.8.6,1.12,1.08l.12-.45a6.39,6.39,0,0,1-1-1.26,7.72,7.72,0,0,1-.63-1.18c-.08-.21-.34-.85.11-1.15a.57.57,0,0,1,.43-.08c.5.1,1.14,1,1.48,1.51l.13.21c.09-.36.17-.72.25-1.09a4.91,4.91,0,0,1-1-2.14c-.43-1.65-.35-2.56.22-2.71l.14,0a.68.68,0,0,1,.32.09,2.34,2.34,0,0,1,.68,1.06,4,4,0,0,1,.9-2,.56.56,0,0,1,.45-.08.57.57,0,0,1,.38.26,3.65,3.65,0,0,1,0,2c.88-.8,1.22-.53,1.36-.42a.55.55,0,0,1,.21.4c.07.6-.76,1.71-1.12,2.17A4.63,4.63,0,0,1,36.74,35.69Z" style="fill:#05350f"/><path d="M27.22,8.09a12.51,12.51,0,0,0,1.07,2.8,12.43,12.43,0,0,0,1.59,2.56,12.72,12.72,0,0,0-1.07-2.81A13,13,0,0,0,27.22,8.09Z" style="fill:#9971e2"/><path d="M30.08,8.6a14.37,14.37,0,0,0,.21,2.59h.17a14.55,14.55,0,0,0,.2-2.59,12.39,12.39,0,0,0-.29-3A12.94,12.94,0,0,0,30.08,8.6Z" style="fill:#9971e2"/><path d="M27.89,21.51c.17.21.38.43.62.68s.47.45.67.62c-.17-.2-.38-.43-.62-.67S28.1,21.69,27.89,21.51Z" style="fill:#9971e2"/><path d="M34.25,16.34a13.68,13.68,0,0,0-1.63,1.4,12,12,0,0,0-1.39,1.63A12.93,12.93,0,0,0,32.86,18,11.92,11.92,0,0,0,34.25,16.34Z" style="fill:#9971e2"/><path d="M33.75,8.08a12.29,12.29,0,0,0-1.59,2.56h0a12.51,12.51,0,0,0-1.07,2.8,12.73,12.73,0,0,0,1.59-2.55A11.91,11.91,0,0,0,33.75,8.08Z" style="fill:#9971e2"/><path d="M32.87,22.28a9.06,9.06,0,0,0-.68.63,8.94,8.94,0,0,0-.62.67c.2-.17.43-.38.67-.62A9.06,9.06,0,0,0,32.87,22.28Z" style="fill:#9971e2"/><path d="M26.59,15.39A12.73,12.73,0,0,0,28,17a11.92,11.92,0,0,0,1.63,1.39,12.73,12.73,0,0,0-1.39-1.62A11.92,11.92,0,0,0,26.59,15.39Z" style="fill:#9971e2"/><path d="M25.63,27.55c-.09.16-.19.33-.29.52h0c-.09.18-.18.35-.25.51.09-.15.18-.32.27-.5S25.55,27.72,25.63,27.55Z" style="fill:#9971e2"/><path d="M21.27,28.18l.48.27.51.25-.5-.28Z" style="fill:#9971e2"/><path d="M23.75,21.39A10.71,10.71,0,0,0,23.39,23a12.73,12.73,0,0,0-.15,1.63A14,14,0,0,0,23.6,23,12.73,12.73,0,0,0,23.75,21.39Z" style="fill:#9971e2"/><path d="M21,20.34a10.87,10.87,0,0,0,.4,1.6A12.05,12.05,0,0,0,22,23.48a10.87,10.87,0,0,0-.4-1.6A12.05,12.05,0,0,0,21,20.34Z" style="fill:#9971e2"/><path d="M19.56,22.72A13.93,13.93,0,0,0,20.61,24a11.82,11.82,0,0,0,1.21,1.1,12.72,12.72,0,0,0-1.06-1.25A10.78,10.78,0,0,0,19.56,22.72Z" style="fill:#9971e2"/></svg>