<svg xmlns="http://www.w3.org/2000/svg" viewBox="0 0 111.24 16.51"><title>logo</title><path d="M6.54,14.62l-.4,1.84H.45L5.59,1.63h6l5.3,14.83H11.13l-.49-1.84Zm2.19-8H8.52a7.91,7.91,0,0,1-.24,1.67L7.55,11.1H9.7L9,8.26A15.73,15.73,0,0,1,8.73,6.59Z" transform="translate(-0.45 -0.25)"/><path d="M17.92.25H23V6.07a5.11,5.11,0,0,1-.24,1.45h.15A3.4,3.4,0,0,1,24,6.34a3.74,3.74,0,0,1,4.65.6,6.18,6.18,0,0,1,1.71,4.45,5.85,5.85,0,0,1-1.56,4.23,4,4,0,0,1-2.91,1.13,3.34,3.34,0,0,1-2.12-.66,3.57,3.57,0,0,1-1.06-1.23l-.16.07a2.37,2.37,0,0,1,.16.8v.73H17.92ZM25,10a1.42,1.42,0,0,0-.93-.4,1.25,1.25,0,0,0-.91.36,1.57,1.57,0,0,0-.42,1.16,2,2,0,0,0,.42,1.29,1.31,1.31,0,0,0,.89.35,1.21,1.21,0,0,0,1-.42,1.6,1.6,0,0,0,.45-1.16A1.64,1.64,0,0,0,25,10Z" transform="translate(-0.45 -0.25)"/><path d="M32.09,16.46V.25h5V16.46Z" transform="translate(-0.45 -0.25)"/><path d="M44.09,12.1a2.43,2.43,0,0,0,.37,1.52,1,1,0,0,0,.76.29,1.17,1.17,0,0,0,.76-.29,1.46,1.46,0,0,0,.33-.6h4.94a4.46,4.46,0,0,1-1,1.78,5.68,5.68,0,0,1-4.76,1.95A6.77,6.77,0,0,1,40.53,15a5,5,0,0,1-1.47-3.63A5.54,5.54,0,0,1,40.62,7.5a6.45,6.45,0,0,1,4.62-1.71,6.15,6.15,0,0,1,4.47,1.64,5.83,5.83,0,0,1,1.74,4.1v.57ZM46.51,10a1.69,1.69,0,0,0-.44-1,1.13,1.13,0,0,0-.8-.29,1.17,1.17,0,0,0-.74.27,1.64,1.64,0,0,0-.4,1.07Z" transform="translate(-0.45 -0.25)"/><path d="M58.75,16.46V1.63h9.9V5.85H64.14V7.37h4v3.91h-4v5.18Z" transform="translate(-0.45 -0.25)"/><path d="M77.2,7.25A2.35,2.35,0,0,1,77,6.36V6.07h5V16.46H77l0-.35a5.13,5.13,0,0,1,.21-1h-.16A3.83,3.83,0,0,1,74,16.75a3.91,3.91,0,0,1-2.94-1.22,5.86,5.86,0,0,1-1.56-4.2A6,6,0,0,1,71.12,7,4.14,4.14,0,0,1,74.2,5.79a3.44,3.44,0,0,1,2.89,1.53ZM75,12.35a1.28,1.28,0,0,0,1.74,0,1.63,1.63,0,0,0,.49-1.16,1.45,1.45,0,0,0-.45-1.09,1.25,1.25,0,0,0-.86-.33,1.27,1.27,0,0,0-.92.36,1.56,1.56,0,0,0-.44,1.11A1.49,1.49,0,0,0,75,12.35Z" transform="translate(-0.45 -0.25)"/><path d="M84.17,16.46V6.07h5.09v.65a1.77,1.77,0,0,1-.13.69h.09a3.33,3.33,0,0,1,1.26-1.27,5,5,0,0,1,2.32-.47V11a2.68,2.68,0,0,0-1.58-.58,2.06,2.06,0,0,0-1.38.49,1.85,1.85,0,0,0-.62,1.53v4.07Z" transform="translate(-0.45 -0.25)"/><path d="M94,16.46V6.07h4.77v.81a3.4,3.4,0,0,1-.18,1l.15,0a3.79,3.79,0,0,1,1-1.4,3.52,3.52,0,0,1,2.12-.69,3,3,0,0,1,1.84.57A3.34,3.34,0,0,1,104.81,8H105a3.37,3.37,0,0,1,1-1.56,3.24,3.24,0,0,1,2.07-.66,3.42,3.42,0,0,1,2.54,1,4.4,4.4,0,0,1,1.09,3v6.71h-4.9V10.75a1.05,1.05,0,0,0-.24-.78.63.63,0,0,0-.45-.18.73.73,0,0,0-.53.22,1,1,0,0,0-.27.74v5.71h-4.89V10.61a1,1,0,0,0-.18-.6.64.64,0,0,0-.51-.22.74.74,0,0,0-.58.24,1.53,1.53,0,0,0-.22.89v5.54Z" transform="translate(-0.45 -0.25)"/></svg>