<svg xmlns="http://www.w3.org/2000/svg" viewBox="0 0 60 60"><title>Mints</title><path d="M55.59,43.46v.44l-.37.12c-.63.19-2.81.94-3.81.69a1.17,1.17,0,0,1-.31.44.83.83,0,0,1-.75,0L50.16,45a2.3,2.3,0,0,0-1.24-.44,1.17,1.17,0,0,0-.57.44l-.12.31-.31.13h-.19a.52.52,0,0,1-.44-.13l-.18-.18c-.38-.32-.94-.82-1.38-.75a.81.81,0,0,0-.56.43.66.66,0,0,1-.56.44A.74.74,0,0,1,44,45l-.13-.19c-.18-.31-.56-.81-.75-.81s-.31.06-.5.31c-.06.06-.06.13-.12.19l-.19.25h-.68l-.19-.25c-.31-.44-.94-1-1.19-.94a.88.88,0,0,0-.81.5l-.12.25-.69.38-.25-.13A14.86,14.86,0,0,1,36.19,43a10.89,10.89,0,0,1-2.12,5.06.72.72,0,0,1-.69.25,1,1,0,0,1-.5-.38A10.78,10.78,0,0,0,31,50.82a1,1,0,0,1-.69.44.68.68,0,0,1-.62-.38c-.13-.18-.19-.18-.25-.18-.5,0-1.5.81-2.25,2.18-.12.25-.37.31-.68.31a.85.85,0,0,1-.63-.5.19.19,0,0,1-.06-.12,8.63,8.63,0,0,0-2.24,1.56c-.5.37-.94.81-1.44,1.12a.84.84,0,0,1-.69.06.71.71,0,0,1-.43-.49,1.42,1.42,0,0,0-.19-.38c-.19-.06-1.06.56-1.56.94-.31.25-.69.43-1,.68a.72.72,0,0,1-.62.07.76.76,0,0,1-.44-.44.66.66,0,0,0-.12-.25c-.25-.06-1,.37-1.5.62a6.92,6.92,0,0,1-1.93.94.76.76,0,0,1-.63-.06,1.51,1.51,0,0,1-.31-.5,7.19,7.19,0,0,0-1.81.31A13.64,13.64,0,0,1,9,57.06c-.13,0-.25-.06-.37-.06l-.57-.13v-.5a5.05,5.05,0,0,1,.25-1.24,3.42,3.42,0,0,0,0-2.5.68.68,0,0,1,0-.81c.32-.44,1.31-1.87.44-2.93a.7.7,0,0,1,.06-1,2.79,2.79,0,0,0,.94-3.24.71.71,0,0,1,.25-.94c1.31-.81,1.62-1.5,1.31-3.12a.8.8,0,0,1,.5-.81c1.68-.56,2-1.18,2.06-1.43a.56.56,0,0,0-.13-.5.71.71,0,0,1-.19-.69c.07-.31.25-1,4.87-2.93a.77.77,0,0,0-.19-.25.88.88,0,0,1-.12-.56.73.73,0,0,1,.37-.56,1.29,1.29,0,0,0,.69-.88h-.5c-1.06,0-2.75-.12-3.43-1.12l-.38-.5.44-.37.19-.19c-.06-.19-.88-.69-2.37-.81a.73.73,0,0,1-.44-1.19.74.74,0,0,0,.19-.37c-.06-.13-.5-.38-2.37-.63a.59.59,0,0,1-.56-.43.58.58,0,0,1,.12-.69c.19-.19.19-.31.19-.37s-.31-.44-2.12-.88a.67.67,0,0,1-.5-.49.73.73,0,0,1,.25-.69c.18-.13.18-.25.18-.25-.06-.19-.43-.56-2.24-1.25a.6.6,0,0,1-.44-.56c0-.44.38-.62.56-.75a1.19,1.19,0,0,0,.38-.25c-.13-.19-.38-.5-.56-.75A4.75,4.75,0,0,1,4.44,17v-.38l.31-.18a5,5,0,0,1,2-.44c1.19-.12,1.69-.25,1.75-.69L8.55,15l.56-.25.32.06a3.6,3.6,0,0,0,2.74.07c.13-.13.13-.19.13-.25V14.2l.31-.18a.69.69,0,0,1,.62.06,2.49,2.49,0,0,0,2.31.37,1.25,1.25,0,0,0,.62-.68l.07-.38.37-.12a.78.78,0,0,1,.62.12,3.62,3.62,0,0,0,2.37,1c.13,0,.25-.06.38-.31l.19-.31.37-.07a.6.6,0,0,1,.62.25c.63,1,1.19,1.31,1.5,1.31.06.07.19,0,.44-.31l.25-.56.5.19A8.7,8.7,0,0,1,26,15.89c-.06-.19-.13-.38-.19-.56a.77.77,0,0,1,.25-.81.65.65,0,0,1,.81,0,5.41,5.41,0,0,0-.19-1.5.72.72,0,0,1,.25-.75.65.65,0,0,1,.81,0c.13,0,.13.06.19.06a4.51,4.51,0,0,0,.25-1.93.78.78,0,0,1,.44-.69.75.75,0,0,1,.81.13l.06.06a3.4,3.4,0,0,0,.13-1.31A.75.75,0,0,1,30,7.84a.77.77,0,0,1,.88.19q.09.18.18.18A1.87,1.87,0,0,0,31.39,7a.74.74,0,0,1,.49-.69.85.85,0,0,1,.82.31.86.86,0,0,1,.12-.18,7.6,7.6,0,0,1,2.31-2.12L35.57,4l.37.44A7.66,7.66,0,0,1,37,6a4.23,4.23,0,0,1,.31.93A2,2,0,0,0,37.75,8a14.26,14.26,0,0,1,1.81-2,.84.84,0,0,1,1.06,0c.68.5,1.81.06,2.81-1a.86.86,0,0,1,1.06-.19,2.47,2.47,0,0,0,2.62,0,.88.88,0,0,1,.87.07,2.78,2.78,0,0,0,2.31-.13A.68.68,0,0,1,51,4.66c.44.19.44.62.5,1.12.07.75.19,1.5.69,1.69a.77.77,0,0,1,.44.93c-.38,1.12-.32,1.62-.19,1.81s.19.25.81.38a.8.8,0,0,1,.56.31.64.64,0,0,1,0,.68c-.56,1.19-.56,2.37-.06,2.69a1.37,1.37,0,0,1,.31.49,1,1,0,0,1-.19.57A2.79,2.79,0,0,0,53.1,17a.74.74,0,0,0,.31.37.7.7,0,0,1,.37.63.74.74,0,0,1-.31.62c-.94.63-1.44,1.13-1.5,1.56a1.2,1.2,0,0,0,.44.75.73.73,0,0,1,.25.62.93.93,0,0,1-.38.57c-.87.5-1.56,1.24-1.56,1.68a.33.33,0,0,0,.19.31.63.63,0,0,1,.31.5.62.62,0,0,1-.12.56,8.63,8.63,0,0,1-1.56,1.62.74.74,0,0,1,.06.5c-.06.25.19.88,1.75,1.31.25.13.43.25.5.5a.87.87,0,0,1-.13.69.88.88,0,0,0,0,.69,2,2,0,0,0,1.38,1.12.67.67,0,0,1,.49.5.68.68,0,0,1-.18.68c-.13.13-.13.19-.13.25,0,.38.63,1,1.06,1.25l.31.13.07.31a.92.92,0,0,1-.19.56c-.31.37-.62.93.25,1.93a.51.51,0,0,1,.19.56,1,1,0,0,1-.38.5c-.06.07-.12.13-.12.19a1.47,1.47,0,0,0,.43.94C55.78,40.53,55.65,43.27,55.59,43.46Z" style="fill:#05350f"/><path d="M33.63,30.17A1.48,1.48,0,0,1,35,30.11a1.17,1.17,0,0,1,.25-.25,1.46,1.46,0,0,1,1.44-.06c0-.06.06-.06.12-.13a1.31,1.31,0,0,1,.69-.18,2.39,2.39,0,0,1-.56-1.5,1.44,1.44,0,0,1-.63-1.43,2.46,2.46,0,0,1-.87-1.31,1.59,1.59,0,0,1-1-.63c-.87.44-.87,1.37-.75,2.37a2.15,2.15,0,0,1-.06.94,4.19,4.19,0,0,1-.75.68c-.43.25-1.62,1.25-1.56,1.69,0,.06.13.19.31.31.07-.06.13-.06.19-.12a1.39,1.39,0,0,1,.44-.13,1.23,1.23,0,0,1,.69.19.56.56,0,0,1,.43-.13C33.44,30.3,33.57,30.24,33.63,30.17Z" style="fill:#1d9a46"/><path d="M28.58,21.38a.85.85,0,0,1,1.06-.19,6.18,6.18,0,0,1,1.75,1.62,20.31,20.31,0,0,1,1.49-9.17.63.63,0,0,1,.81-.31.62.62,0,0,1,.32.81,19.11,19.11,0,0,0-1.25,10.11,2.93,2.93,0,0,1,1.62-1.06.66.66,0,0,1,.62.06.63.63,0,0,1,.32.5c.06.19.31.12.43.12a.84.84,0,0,1,.63.25.57.57,0,0,1,.18.63,10.21,10.21,0,0,0,1.56-1.25,12,12,0,0,0,2.31-4.06,1.24,1.24,0,0,1-.69-.5,2.24,2.24,0,0,1,.13-2.24,1.37,1.37,0,0,1-.56-.63,2.68,2.68,0,0,1,.06-2.18,1.46,1.46,0,0,1-.62-.75,2.24,2.24,0,0,1,0-1.81,2.15,2.15,0,0,1-1.5-2.12c-.81-.31-1.06-1.31-1.25-2a3.22,3.22,0,0,0-.19-.63,8.73,8.73,0,0,0-.56-.87,6.31,6.31,0,0,0-1.43,1.37c-.44.81-.94.94-1.25.94h-.12a1.9,1.9,0,0,1-1,1.43,1.21,1.21,0,0,1-.69.06,1.9,1.9,0,0,1-.87,1.69.66.66,0,0,1-.56.12c-.07,1.13-.25,1.94-.88,2.25a.89.89,0,0,1-.37.12c.12.82.06,1.69-.5,2.06a1.14,1.14,0,0,0-.31.13c.25,1.06.37,1.62-.19,2.12-.19.19-.44.12-.69.12a10.2,10.2,0,0,0,.82,2.25A4.44,4.44,0,0,0,28.58,21.38Z" style="fill:#3b8517"/><path d="M23.9,21.63A2.33,2.33,0,0,1,22,21.56l-.19-.06a4.29,4.29,0,0,0-1.87.19c.06.19.12.44.18.62a3.36,3.36,0,0,0,.44.5c.44.44.87.81.87,1.37v.13a2.26,2.26,0,0,1,1.19,1.25,2.39,2.39,0,0,1,.06.62,2.78,2.78,0,0,1,1.56,1.31,1,1,0,0,1,.19.56,3.34,3.34,0,0,1,2.37,1.19A8.72,8.72,0,0,0,31,28.18l.06-.07a.24.24,0,0,0,.19-.06,25.26,25.26,0,0,1-5.8-2.31.62.62,0,0,1-.25-.87.63.63,0,0,1,.87-.25,24.46,24.46,0,0,0,5.68,2.25,6.55,6.55,0,0,0-2.44-4.56.67.67,0,0,1-.49.19A2.82,2.82,0,0,1,27,21.81a.92.92,0,0,1-.44-.12.34.34,0,0,1-.19.12,3,3,0,0,1-2.18-.43A1.17,1.17,0,0,1,23.9,21.63Z" style="fill:#1d9a46"/><path d="M39.68,10.21a.65.65,0,0,1,.44.38.89.89,0,0,1,0,.56,1.9,1.9,0,0,0-.25,1.43c.06.13.12.25.44.38a.6.6,0,0,1,.43.43.57.57,0,0,1-.06.56,1.84,1.84,0,0,0-.25,1.5.32.32,0,0,0,.31.25.72.72,0,0,1,.56.37.66.66,0,0,1,0,.69c-.56,1-.49,1.44-.43,1.5s.06.06.25.06a.68.68,0,0,1,.56.25.75.75,0,0,1,.12.62A12.92,12.92,0,0,1,39,24.37a19,19,0,0,1-1.63,1.31.13.13,0,0,1,.13.13.89.89,0,0,1,0,.56c-.06.25-.13.25.44.62l.25.19v.06c.31-.19.68-.37,1-.56a17.16,17.16,0,0,1,6.93-1.75.7.7,0,0,1,.56.25,1.12,1.12,0,0,1,.19.63.22.22,0,0,0,.06.18,1.45,1.45,0,0,0,.62.32c.63.06,1.5-.69,2.19-1.5a1.73,1.73,0,0,1-.32-1,3.52,3.52,0,0,1,1.69-2.37,1.78,1.78,0,0,1-.44-1.31A3.16,3.16,0,0,1,52.16,18a1.56,1.56,0,0,1-.31-.75A3.35,3.35,0,0,1,52.6,15a3.33,3.33,0,0,1-.25-3.36,2,2,0,0,1-1.06-.82,3.09,3.09,0,0,1-.07-2.43A3.09,3.09,0,0,1,50.16,6,3.49,3.49,0,0,1,47.42,6,3.84,3.84,0,0,1,44.11,6c-1.31,1.37-2.87,1.75-4,1.12-.5.44-1.19,1.31-1.56,1.69C38.5,9.65,38.75,10,39.68,10.21Z" style="fill:#4ba329"/><path d="M20.78,40.59a14.53,14.53,0,0,0,2.62-1.37,3.6,3.6,0,0,1,1.44-.81h.06a2.14,2.14,0,0,1,.62,0s.06,0,.19.12a2.18,2.18,0,0,1,1.68-1.18,1.16,1.16,0,0,1,.56.12,2.52,2.52,0,0,1,1.75-1.31,1.83,1.83,0,0,1,.94.13,2.25,2.25,0,0,1,1.81-1,1.16,1.16,0,0,1,.43.12,5,5,0,0,0,.31-3.49,3,3,0,0,1-.49-.19l-.25.19a1,1,0,0,1-.38.13c-.06,0-.12-.07-.19-.07-.93-.31-1.49-.81-1.62-1.49H30.2A7.71,7.71,0,0,0,24,35.66a.74.74,0,0,1-.62.44h-.19a.63.63,0,0,1-.43-.75,9.08,9.08,0,0,1,3.86-4.93h-.18l-.19-.06-.12-.12L25.9,30a.56.56,0,0,1-.38.18,9.79,9.79,0,0,0-2.12.32,18.06,18.06,0,0,0-3,.93,2.75,2.75,0,0,1-.88,2.18,2,2,0,0,1,.25.88v.06a2.89,2.89,0,0,1-.25,1.19,1.92,1.92,0,0,1,.5.87,2.91,2.91,0,0,1-.19,1.93A7,7,0,0,1,20.78,40.59Z" style="fill:#3b8517"/><path d="M19.41,30.8A14.09,14.09,0,0,1,23,29.55a1.83,1.83,0,0,1,.44-.13l-.19-.18a.67.67,0,0,1-.12-.75c.06-.06.06-.13,0-.25a2.11,2.11,0,0,0-1.31-.87.76.76,0,0,1-.44-.44.75.75,0,0,1,.06-.62.47.47,0,0,0,.07-.19c0-.06-.19-.38-.94-.75a.8.8,0,0,1-.44-.56.64.64,0,0,1,.07-.5L20,24.12h-.69a11.53,11.53,0,0,1-7.17-2.56.62.62,0,1,1,.75-1,10.23,10.23,0,0,0,6.05,2.3,8,8,0,0,1-.38-1.31l-.06-.49.5-.19a6.68,6.68,0,0,1,3.18-.38l.19.07a5,5,0,0,0,.81.18v-.43l.31-.25a.59.59,0,0,1,.63-.07h.06a5.41,5.41,0,0,0,1.62.63.22.22,0,0,1,.06-.13c-.62-1.37-1.06-2.68-.56-3.24-.5-.37-1.12-.75-1.62-1.06a1.88,1.88,0,0,1-1.12.62,3.08,3.08,0,0,1-2.06-1.37c-.25.13-.44.06-.69.13A3.94,3.94,0,0,1,17,14.76a1.86,1.86,0,0,1-1,.82,3.57,3.57,0,0,1-2.87-.13,1.13,1.13,0,0,1-.38.38A4.22,4.22,0,0,1,9.49,16C9,17,7.74,17.07,6.81,17.14a5.62,5.62,0,0,0-1.06.12,6.25,6.25,0,0,0,.93,1.37c.63.75,1.06,1.31.81,1.94a1.15,1.15,0,0,1-.25.37c1.06.44,1.94,1,2.06,1.81a1,1,0,0,1-.06.69c1.06.31,2,.74,2.24,1.49a1.12,1.12,0,0,1,0,.81c1.25.19,2.25.57,2.56,1.31a1.62,1.62,0,0,1,0,.82c1.19.24,2.37.74,2.62,1.62a1.26,1.26,0,0,1-.12.93,15,15,0,0,0,2.62.63A.74.74,0,0,1,19.41,30.8Z" style="fill:#4ba329"/><path d="M53.41,38.35a1.1,1.1,0,0,1,.25-.63,2.35,2.35,0,0,1-.32-2.62,3.1,3.1,0,0,1-1.18-1.81,2,2,0,0,1,.06-.62,3,3,0,0,1-1.62-1.75,2.2,2.2,0,0,1-.13-1.25,2.86,2.86,0,0,1-2-2c-.25,0-.57-.19-.81-.19v.06a2.76,2.76,0,0,1-1.38-.62,1.51,1.51,0,0,1-.37-.56,14.75,14.75,0,0,0-5.93,1.56c-.43.25-.87.5-1.31.81a5.28,5.28,0,0,1,.63,1.12.71.71,0,0,1-.19.69c-.06,0-.06.06-.13.06,5.68,1.31,8.11,4.12,8.24,4.24a.61.61,0,0,1-.06.88,1.26,1.26,0,0,1-.44.12.69.69,0,0,1-.5-.19c0-.06-3.24-3.61-10.6-4.36a.92.92,0,0,1-.57,0l-.62-.13a.69.69,0,0,1-.12.5A6.2,6.2,0,0,1,34.19,35a9.75,9.75,0,0,0,1.87,5.43,3,3,0,0,0,.44.62,4.23,4.23,0,0,0,.25.37A7.85,7.85,0,0,0,38.68,43a2.15,2.15,0,0,1,1.5-.68,2.57,2.57,0,0,1,1.81.93,1.44,1.44,0,0,1,1.12-.43,1.86,1.86,0,0,1,1.5.93,1.85,1.85,0,0,1,1.06-.5,3.11,3.11,0,0,1,2,.81,2.29,2.29,0,0,1,1.18-.56,3,3,0,0,1,1.56.38l.06-.07a1.35,1.35,0,0,1,1.19-.12,16.08,16.08,0,0,0,2.87-.44,6.28,6.28,0,0,0-.5-2.93A2.59,2.59,0,0,1,53.41,38.35Z" style="fill:#4ba329"/><path d="M33.07,36.91,33,37l-.38-.06a.61.61,0,0,1-.5-.44,1.32,1.32,0,0,0-.93.88.76.76,0,0,1-.63.43.7.7,0,0,1-.68-.37.18.18,0,0,0-.19-.12c-.25,0-.75.43-1.06,1.24A.67.67,0,0,1,28,39a.64.64,0,0,1-.69-.37.7.7,0,0,0-.12-.19c-.19,0-.63.43-.94,1.06l-.12.37-.44.07a.62.62,0,0,1-.56-.25A60.31,60.31,0,0,1,19,46.39a.59.59,0,0,1-.87,0,.6.6,0,0,1,0-.87,49.36,49.36,0,0,0,4.24-4.37c-.69.38-1.44.69-1.81.88a.57.57,0,0,1-.31.06.82.82,0,0,1-.38-.13.59.59,0,0,1-.37-.56A5.06,5.06,0,0,0,18.41,39a.74.74,0,0,1,0-.87A1.59,1.59,0,0,0,18.6,37c-.07-.31-.19-.37-.25-.37a.61.61,0,0,1-.44-.44.77.77,0,0,1,.06-.5,23.85,23.85,0,0,0-3.24,1.69,1.64,1.64,0,0,1,.19,1.25c-.19.87-1,1.62-2.44,2.18a3.39,3.39,0,0,1-1.56,3.74,4,4,0,0,1-1.06,4,3.6,3.6,0,0,1-.43,3.81,4.48,4.48,0,0,1,.06,3.12c0,.12-.06.19-.06.31.37-.06.74-.19,1.06-.25,1.12-.31,2.18-.56,2.87-.12a1,1,0,0,1,.25.25c.43-.19.87-.44,1.31-.69.93-.5,1.74-.94,2.49-.69a1.47,1.47,0,0,1,.56.38c.19-.13.31-.25.5-.38,1-.74,1.94-1.43,2.75-1.12a1.51,1.51,0,0,1,.68.56l.88-.68c1.37-1.13,2.43-1.94,3.37-1.69.06,0,.12.06.24.13.82-1.13,1.88-2.19,3-2.19h.06a1.74,1.74,0,0,1,.75.19c1.12-2.06,2.12-3.06,2.93-3a.7.7,0,0,1,.44.12A8,8,0,0,0,35,41.22,12.69,12.69,0,0,1,33.07,36.91Z" style="fill:#4ba329"/></svg>