<svg xmlns="http://www.w3.org/2000/svg" viewBox="0 0 60 60"><title>Nasturtium</title><path d="M56.26,28.21A3.71,3.71,0,0,0,55.15,31a5.36,5.36,0,0,1-2,3.84A5.37,5.37,0,0,1,49,36.6a3.61,3.61,0,0,0-2.88.93,5.35,5.35,0,0,1-4.4,1c-2-.24-3.4-1-4.12-2.13a4.15,4.15,0,0,0-2.64-1.89l-.42-.12a3.66,3.66,0,0,1-1.91.54c-2,0-3.92-1.55-5.25-3.32a10.08,10.08,0,0,1,.73,4.78,3.66,3.66,0,0,1-1.16,2.24,4.31,4.31,0,0,1-1.66,2.94,3.09,3.09,0,0,0-1.33,2.18A4.71,4.71,0,0,1,21.55,47a4.6,4.6,0,0,1-4,.92,3.53,3.53,0,0,0-2.74.23,3.72,3.72,0,0,1-1.76.41,7,7,0,0,1-2-.35,5.79,5.79,0,0,1-2.51-1.41,3.31,3.31,0,0,0-.83-.64,6.42,6.42,0,0,1-1.82-1.44A4.64,4.64,0,0,1,4.31,41a3.3,3.3,0,0,0-.66-2.58,4.76,4.76,0,0,1-.73-3.84A4.68,4.68,0,0,1,4.79,31,3.06,3.06,0,0,0,6.1,29.1a4.85,4.85,0,0,1,2.52-2.85,5.7,5.7,0,0,1,2.83-.91,4.18,4.18,0,0,1,1-2.45,3.24,3.24,0,0,1,2.49-1,9.79,9.79,0,0,1,4.1,1.2,9.32,9.32,0,0,1-2.61-4.61c-.16-1.17.08-3.29,3.51-4.24A9,9,0,0,1,22,14c2.7,0,4.34,1.59,4.51,4.37a5.08,5.08,0,0,1,4.32-2.84A5.46,5.46,0,0,1,33,16a7.19,7.19,0,0,1,1.67-2,5.37,5.37,0,0,1,4.18-1.64,3.7,3.7,0,0,0,2.66-.7,5.52,5.52,0,0,1,4.26-.58,5.54,5.54,0,0,1,3.81,2.06,3.9,3.9,0,0,0,2.6,1.62c1.34.24,2.51,1.25,3.48,3a7.19,7.19,0,0,1,.89,2.34,4,4,0,0,0,.36,1.13,7.36,7.36,0,0,1,.61,2.59C57.64,25.82,57.23,27.29,56.26,28.21Z" style="fill:#05350f"/><path d="M16.49,31.5l0-.11a5.74,5.74,0,0,1-1.91.09h-.06a22.86,22.86,0,0,0,.7,3.15A12.47,12.47,0,0,0,16.49,31.5Z" style="fill:#ea8d00"/><polygon points="15.18 35.28 15.18 35.28 15.18 35.27 15.18 35.28" style="fill:#1d9a46"/><path d="M15.12,36.51l-.1-.13H15a.79.79,0,0,1-.24.21,1.75,1.75,0,0,1,.16.27l.1.08.08,0,0,0a.81.81,0,0,1,0-.22A.77.77,0,0,1,15.12,36.51Z" style="fill:#ea8d00"/><path d="M43.28,24.44a1.52,1.52,0,0,1-.06.42,1.84,1.84,0,0,1,.05.25,1.11,1.11,0,0,1,.3.08,1.16,1.16,0,0,1,.2-.24.39.39,0,0,1,.1-.08l.06-.05h0a1.34,1.34,0,0,1,0-.28l-.13-.14a2,2,0,0,1-.24,0h-.2s0,0,0,0l-.07,0Z" style="fill:#f13d43"/><path d="M41,24a7.64,7.64,0,0,0-3.38-1.23l-.43-.06A6.6,6.6,0,0,1,36,22.32l-.19-.07a6,6,0,0,1-1,1.12,10.28,10.28,0,0,1-2.19,1.38c-.24.12-.48.22-.7.32h.24a10,10,0,0,1,2.19.24l.14,0A9.06,9.06,0,0,0,37,24.49a3.23,3.23,0,0,1,.72-.36h0a4.28,4.28,0,0,1,.87-.2h0a5.88,5.88,0,0,1,1.06-.06h0A11.85,11.85,0,0,1,41,24Z" style="fill:#f13d43"/><path d="M53.81,31a5.08,5.08,0,0,1,1.52-3.76h0A4,4,0,0,0,56.15,24c0-.21,0-.41-.07-.61a2.21,2.21,0,0,0,0-.25c0-.1,0-.21-.06-.31a2.58,2.58,0,0,0-.12-.42.24.24,0,0,0,0-.08A2.88,2.88,0,0,0,55.7,22a.5.5,0,0,0-.05-.13.76.76,0,0,0,0-.11,5.56,5.56,0,0,1-.3-.87c0-.16-.09-.33-.12-.5A5.37,5.37,0,0,0,55,19.6a6.52,6.52,0,0,0-.45-1c0-.06,0-.11-.07-.16a4.08,4.08,0,0,0-2.55-2.33,5.47,5.47,0,0,1-2.82-1.4l0-.06a4.35,4.35,0,0,1-.62-.73,4.29,4.29,0,0,0-2.93-1.49,7.6,7.6,0,0,0-.9-.11h-.33a3.28,3.28,0,0,0-2,.48,5.05,5.05,0,0,1-3.63.93,2.55,2.55,0,0,0-.55,0,3.83,3.83,0,0,0-1.35.47,6.42,6.42,0,0,0-1.2.84,6,6,0,0,0-1.38,1.61,2.9,2.9,0,0,1,.29.19,7.52,7.52,0,0,1,1.14,1.23,3.63,3.63,0,0,1,.81,2.79l.12.05.39.13.12,0,.37.1h0l.33,0a9.23,9.23,0,0,1,4.39,1.69L42,22.69a9.7,9.7,0,0,1-.92-2.49,5.68,5.68,0,0,1,0-1.75,4,4,0,0,0,0-1,4.61,4.61,0,0,0-.44-1.35l-.16-.27s0,0,0,0a.62.62,0,0,1-.1-.22.65.65,0,0,1,0-.24v0h0a1,1,0,0,1,.1-.27l0,0a.93.93,0,0,1,.16-.18.76.76,0,0,1,1,.17.76.76,0,0,0,.08.13l0,0a1.17,1.17,0,0,1,.12.2,3.17,3.17,0,0,1,.16.32l0,0a5.54,5.54,0,0,1,.47,3,4,4,0,0,0,.1,1.75,13.66,13.66,0,0,0,.87,2l.2.41h0c1-2.48,4-7,4.8-7.42a.75.75,0,0,1,.57,0,.89.89,0,0,1,.25.16s0,.07.07.1a1.1,1.1,0,0,1,.09.14h0s0,.06,0,.09a.71.71,0,0,1,0,.2.78.78,0,0,1-.21.52s0,0,0,0a.62.62,0,0,1-.19.14,31.83,31.83,0,0,0-4,6.62,13.92,13.92,0,0,0,3.68-1.87,11.76,11.76,0,0,1,2.27-1.26.84.84,0,0,1,.27,0h.07a.71.71,0,0,1,.61.48h0a.75.75,0,0,1-.44,1,10.54,10.54,0,0,0-2,1.1c-.51.33-1.07.7-1.71,1.05a12.87,12.87,0,0,1-1.94.86l-.2.08A50.54,50.54,0,0,1,52,27.42a.84.84,0,0,1,.23.18.6.6,0,0,1,.08.16l.06.09h0a.89.89,0,0,1,0,.28c0,.05,0,.09,0,.14a.74.74,0,0,1,0,.14.76.76,0,0,1-1,.32A45.78,45.78,0,0,0,45,26.06h-.12a2,2,0,0,0,0,.44A4.89,4.89,0,0,0,45.53,28l.23.33a3.15,3.15,0,0,1,.19.27c.23.32.49.7.79,1.17.14.23.27.47.39.69l0,.08c.11.2.2.4.29.59a.61.61,0,0,1,0,.12c.08.17.15.34.22.5s0,.1.05.15.11.29.15.42,0,.1,0,.15.08.23.11.33a.66.66,0,0,0,0,.15l.06.23,0,.13c0,.05,0,.1,0,.14a.56.56,0,0,0,0,.07v.05h0a.71.71,0,0,1,0,.29,1,1,0,0,1-.11.27.76.76,0,0,1-.48.31h-.14a.74.74,0,0,1-.67-.44.76.76,0,0,1-.06-.16,11,11,0,0,0-1.34-3.29c-.36-.58-.66-1-.92-1.35A7,7,0,0,1,43.38,27c-.11-.12-.18-.21-.25-.27s0-.05-.06-.06l-.21.14c-1.39,1.16-2,1.76-2.1,2.93s-.71,3.81-1.17,4.28a.75.75,0,0,1-.53.22l-.07,0a.76.76,0,0,1-.21,0l-.12-.08a.32.32,0,0,1-.12-.08.72.72,0,0,1-.2-.65.68.68,0,0,1,.19-.4,20.18,20.18,0,0,0,.75-3.4c.18-1.7,1.09-2.62,2.46-3.78,0-.08,0-.15,0-.21-2-.33-3.27-.27-3.93.17a5.6,5.6,0,0,1-1.41.59,2.58,2.58,0,0,1,.52.58,2.5,2.5,0,0,1,.25.41,4.82,4.82,0,0,1-.15,3.85,8.92,8.92,0,0,1-1.32,2.17,5.38,5.38,0,0,1,2.4,1.58c.15.17.28.37.42.56s.11.14.16.22c.49.8,1.55,1.31,3.13,1.49a4.09,4.09,0,0,0,3.33-.64,5.07,5.07,0,0,1,1.2-.81l.13-.06.2-.08.3-.11.35-.1.16,0a4.79,4.79,0,0,1,1.6-.07A2.72,2.72,0,0,0,50.57,35l.18-.1a6.43,6.43,0,0,0,1.43-1A4.12,4.12,0,0,0,53.81,31Z" style="fill:#f13d43"/><path d="M22.38,39.25c.4.26.65.45.7.49a.74.74,0,0,1,.19.91.61.61,0,0,1-.07.14l-.12.1L23,41a.49.49,0,0,1-.16.05l-.11,0a.72.72,0,0,1-.55-.16,9.71,9.71,0,0,0-2.71-1.41c-.57-.18-1-.29-1.38-.39a6.16,6.16,0,0,1-2-.78l-.3,0,0,.13c-.27,1.64-.27,2.29.26,3.07a11.05,11.05,0,0,1,1.67,3.58h0s0,0,0,.07a.65.65,0,0,1-.05.2.76.76,0,0,1-.67.43l-.19,0a.68.68,0,0,1-.37-.21.59.59,0,0,1-.1-.17s0,0-.05-.08,0-.06,0-.1a1.13,1.13,0,0,1,0-.18,18.5,18.5,0,0,0-1.4-2.65c-.86-1.25-.78-2.43-.54-4l0,0a8.69,8.69,0,0,0-1.91,1.47,1.87,1.87,0,0,0-.45.76,9.83,9.83,0,0,1-1.6,2.6l-.46.56a.55.55,0,0,1-.18.13l0,0a.77.77,0,0,1-.82-.09.76.76,0,0,1-.08-1,11.44,11.44,0,0,0,1.76-2.6,2.45,2.45,0,0,1,.2-.48.61.61,0,0,1,.05-.12,5.64,5.64,0,0,1,1.75-1.81,6.35,6.35,0,0,0-2.5,1L9.6,39a3.84,3.84,0,0,1-.35.17h0l-.4.17h0l-.42.15h0c-.62.22-1.26.39-1.53.47l-.2,0a.75.75,0,0,1-.72-.55A.76.76,0,0,1,6,38.85H6a.74.74,0,0,1,.45-.34,14.37,14.37,0,0,0,2.4-.83l.27-.17a7.91,7.91,0,0,1,3.53-1.32,5.65,5.65,0,0,1-3-2.3A3.53,3.53,0,0,0,7.81,32.5a.75.75,0,0,1-.53-.91h0a.7.7,0,0,1,.34-.45.69.69,0,0,1,.56-.08,4.87,4.87,0,0,1,2.73,2c.65,1,1.22,1.26,2.74,1.93l.18.08A25.93,25.93,0,0,1,13,30.84,4.53,4.53,0,0,1,11.45,27a3,3,0,0,1,0-.31,4.47,4.47,0,0,0-2.13.73A4.44,4.44,0,0,0,7.63,28.9a2.14,2.14,0,0,0-.1.22,2,2,0,0,0-.12.31,4.46,4.46,0,0,1-1.9,2.73,2.18,2.18,0,0,0-.8,1,5.38,5.38,0,0,0-.46,1.62,3.56,3.56,0,0,0,.44,2.8,4.62,4.62,0,0,1,.95,3.61,3.4,3.4,0,0,0,1.21,2.63,5.28,5.28,0,0,0,1.43,1.16,4.29,4.29,0,0,1,1.2.9,4.53,4.53,0,0,0,1.94,1.06,3.61,3.61,0,0,0,2.77,0A4.81,4.81,0,0,1,18,46.61a3.43,3.43,0,0,0,2.83-.77,5.28,5.28,0,0,0,1.27-1.11,2.19,2.19,0,0,0,.51-1.14,4.41,4.41,0,0,1,.26-1,4.5,4.5,0,0,1,1.66-2.14h0A1.91,1.91,0,0,0,25,40c.05-.06.08-.16.13-.23a2.56,2.56,0,0,0,.22-.4A7.12,7.12,0,0,1,22.38,39.25Z" style="fill:#ea8d00"/><path d="M16.83,37.05a4.16,4.16,0,0,0,1.38.55,5.11,5.11,0,0,1-1.11-1l-.44.19h0l.16.21Z" style="fill:#ea8d00"/><path d="M24.42,29a4.74,4.74,0,0,0-.49.92,1.07,1.07,0,0,1,.06.47,1,1,0,0,1-.34.68,1.08,1.08,0,0,1-1.47-.1,1.41,1.41,0,0,1-.32-1.19c-2,1.13-3.93,2.94-4.17,4.51-.21,1.4,1.06,2.53,3.78,3.37,2,.62,3.48.67,4.35.13a2.1,2.1,0,0,0,.93-1.58C27.16,33.53,25.21,29.77,24.42,29Z" style="fill:#f1ca67"/><path d="M27.74,29.76c1,1.83,3,3.81,4.86,3.81,1.28,0,2.36-1,3.22-2.92a3.24,3.24,0,0,0,0-3c-.71-1-2.41-1.25-3.72-1.25h-.52l-.18-.36,0,.37h0l-.34,0-.61.07h-.18l-.21,0h0l-.49.09-.21-.34h0l.07.36-.36.08-.14,0-.1,0a1.11,1.11,0,0,1,.16.57,1,1,0,0,1-1.78.7.39.39,0,0,0-.1-.08l-.07,0,0,.16h0c0,.05,0,.08,0,.12h0l.08.32c0,.06,0,.13.07.2l.06.15.11.26h0l.06.14h0Z" style="fill:#f1ca67"/><path d="M13.4,23.8a4.19,4.19,0,0,0-.61,3.13c0,2.2.83,3.25,2.47,3.25,2.32,0,5.17-1.81,6.3-2.83a5.17,5.17,0,0,0-.92.08l-.33.09a1.06,1.06,0,0,1-1.24.33,1,1,0,0,1-.54-1.36,1.93,1.93,0,0,1,1.38-1l.35-.07a10.85,10.85,0,0,0-5.36-2.16A1.93,1.93,0,0,0,13.4,23.8Z" style="fill:#f1ca67"/><path d="M30.8,16.87c-2.11,0-3.53,2.21-4,4.4a7.1,7.1,0,0,0-.16,1.18A1.8,1.8,0,0,1,28,22.33a1,1,0,0,1-.53,2,2.11,2.11,0,0,0-.27.18l-.1.08a.38.38,0,0,0,.17.12.8.8,0,0,0,.36.06c1.69,0,6.45-1.49,7.3-3.74.36-1-.1-2-1.36-3.12A5.07,5.07,0,0,0,30.8,16.87Z" style="fill:#f1ca67"/><path d="M20.24,15.56c-1.87.52-2.7,1.43-2.51,2.76.27,2,2.58,4.43,4.09,5.53a1.76,1.76,0,0,1,0-.31,1,1,0,0,1,1.23-.78,1,1,0,0,1,.75.67,9.08,9.08,0,0,0,1.31-4.87C25,15.88,23.33,14.86,20.24,15.56Z" style="fill:#f1ca67"/></svg>