<svg xmlns="http://www.w3.org/2000/svg" viewBox="0 0 60 60"><title>Peas</title><path d="M42.76,42.31C34.25,50.82,24.89,55.5,16.41,55.5,12,55.5,8,54.18,5.48,51.89h0s0,0,0,0a1.23,1.23,0,0,1-.23-.28,0,0,0,0,1,0,0A1.13,1.13,0,0,1,5,51.17a.08.08,0,0,0,0,0c0-.15-.68-3.8,2.27-10.27,0-.2,0-.39,0-.59a9.79,9.79,0,0,1,5.91-9,83.13,83.13,0,0,1,5.42-6.39,9.83,9.83,0,0,1,7.29-7.12c1.95-1.74,3.86-3.35,5.7-4.76l.06,0A9.8,9.8,0,0,1,40.88,6.4a10.36,10.36,0,0,1,1.25.08l0,0c6.1-2.74,9.19-2,9.53-1.86l.15.06.07,0a1.2,1.2,0,0,1,.26.18s0,0,.05,0a1.63,1.63,0,0,1,.17.2l0,0C53.53,6.88,62.48,22.59,42.76,42.31Z" style="fill:#05350f"/><path d="M17,33.1a7.17,7.17,0,0,0-4.85,12.45c2.54-2,6-5,10.64-9.51A7.15,7.15,0,0,0,17,33.1ZM15,37.3a3,3,0,0,0-1.52,2.62,3.23,3.23,0,0,0,.13.88,1,1,0,0,1-.69,1.29,1,1,0,0,1-1.29-.69,5,5,0,0,1-.22-1.48,5.11,5.11,0,0,1,2.56-4.42,1,1,0,1,1,1,1.8Z" style="fill:#a2f748"/><path d="M40.88,9A7.17,7.17,0,0,0,36.6,21.93C41,17.21,44,13.71,46,11.17A7.11,7.11,0,0,0,40.88,9Zm-2.14,4.37A3,3,0,0,0,37.22,16a2.93,2.93,0,0,0,.13.88,1,1,0,0,1-.7,1.29,1,1,0,0,1-.3,0,1,1,0,0,1-1-.74A5.3,5.3,0,0,1,35.14,16a5.13,5.13,0,0,1,2.56-4.42,1,1,0,1,1,1,1.8Z" style="fill:#a2f748"/><path d="M28.06,20.14a7.18,7.18,0,0,0-3,13.7c1.31-1.3,2.7-2.7,4.19-4.22,1.92-2,3.65-3.77,5.24-5.46A7.2,7.2,0,0,0,28.06,20.14Zm-2,4.24A3,3,0,0,0,24.52,27a3,3,0,0,0,.13.88,1,1,0,0,1-2,.6A5,5,0,0,1,22.45,27,5.1,5.1,0,0,1,25,22.59a1,1,0,0,1,1,1.79Z" style="fill:#a2f748"/><path d="M8.48,45a19,19,0,0,0-.87,3.84c.61-.36,1.43-.9,2.48-1.66A9.76,9.76,0,0,1,8.48,45Z" style="fill:#619d34"/><path d="M18.42,29l-1.28,1.5a10.91,10.91,0,0,1,1.73.17A10.55,10.55,0,0,1,18.42,29Z" style="fill:#619d34"/><path d="M49.06,7.1a15.94,15.94,0,0,0-3.14.7,9.63,9.63,0,0,1,1.69,1.3C48.23,8.28,48.7,7.62,49.06,7.1Z" style="fill:#619d34"/><path d="M51.24,8.53C49.5,11.09,45.58,16.19,37,25.35l-.06.06c-1.73,1.84-3.65,3.85-5.78,6-12.71,13-19.25,17.87-22.31,19.67a15.49,15.49,0,0,0,7.59,1.79c4.5,0,13.68-1.62,24.5-12.44C55.93,25.45,53.22,13.26,51.24,8.53ZM28.51,45.59a1,1,0,0,1-1,.77,1.24,1.24,0,0,1-.27,0,1,1,0,0,1-.73-1.27,8.18,8.18,0,0,0-.11-5.27,1,1,0,0,1,1.87-.91A10.16,10.16,0,0,1,28.51,45.59ZM40.08,33.81a1,1,0,0,1-1,.76,1.24,1.24,0,0,1-.27,0,1,1,0,0,1-.73-1.27,9.25,9.25,0,0,0-.39-5.55,1,1,0,0,1,1.9-.84A11.28,11.28,0,0,1,40.08,33.81Z" style="fill:#1d9a46"/><path d="M31.13,16.72l-1.2,1a9.36,9.36,0,0,1,1.38.37A9,9,0,0,1,31.13,16.72Z" style="fill:#619d34"/></svg>