<svg xmlns="http://www.w3.org/2000/svg" viewBox="0 0 60 60"><title>Potato</title><path d="M42.71,49.65a26.68,26.68,0,0,1-6.41,5.13,19.85,19.85,0,0,1-9.71,2.52c-9.66,0-19.65-7.13-19.66-19.07a19.27,19.27,0,0,1,3.7-11.81c1.34-1.9,2.73-3.62,4.07-5.28,1-1.29,2.11-2.62,3.16-4,.79-1.06,1.51-2.19,2.28-3.38C23.26,8.87,26.81,3.36,35,3.36c9.93,0,17.45,6.41,18.29,15.6,0,.36.06.72.07,1.09C53.71,30.66,49.53,42.28,42.71,49.65Z" style="fill:#05350f"/><path d="M41.42,42.71a11.86,11.86,0,0,0,3.21.5A42.51,42.51,0,0,0,51.12,20c0-.32,0-.63,0-.94-.72-7.88-7.24-13.38-15.86-13.38a11.79,11.79,0,0,0-5.39,1.18,8.44,8.44,0,0,0,2.78,2A1,1,0,0,1,33,10.15a1,1,0,0,1-.87.53.87.87,0,0,1-.44-.11,10,10,0,0,1-3.56-2.73c-2.35,1.76-4,4.35-5.74,7-.76,1.18-1.54,2.39-2.38,3.52-1.08,1.45-2.17,2.8-3.22,4.1l-.25.32a23.45,23.45,0,0,0,5.78,3.82A1,1,0,0,1,22,28.49a.87.87,0,0,1-.38-.08,25,25,0,0,1-6.23-4.08c-.85,1.07-1.68,2.15-2.5,3.32a17,17,0,0,0-3.26,10.4c0,10.4,8.76,16.62,17.22,16.62a17.43,17.43,0,0,0,8.51-2.2,24.05,24.05,0,0,0,5.81-4.67,29.06,29.06,0,0,0,2.25-2.74,10.31,10.31,0,0,1-2.68-.55,1,1,0,1,1,.72-1.8Zm-20.3-1.66a.94.94,0,0,1-1.36,0,.94.94,0,0,1-.29-.69.92.92,0,0,1,.29-.68,1,1,0,0,1,1.36,0,.91.91,0,0,1,.29.68A.94.94,0,0,1,21.12,41.05Zm10.39,4.54a1,1,0,0,1-.94.74.9.9,0,0,1-.23,0,22.51,22.51,0,0,1-8.51-3.69,1,1,0,1,1,1.22-1.51,21.19,21.19,0,0,0,7.74,3.31A1,1,0,0,1,31.51,45.59Zm3.4-34.16a1,1,0,0,1-.69.28,1,1,0,0,1-.69-.28,1,1,0,0,1-.28-.69,1,1,0,0,1,.28-.69,1,1,0,0,1,1.38,0,1,1,0,0,1,.28.69A1,1,0,0,1,34.91,11.43Zm3.24,11.5a1,1,0,0,1-.27-1.35,1,1,0,0,1,1.34-.28,11.5,11.5,0,0,0,6.52,1.41,1,1,0,1,1,.14,1.94c-.35,0-.69,0-1,0A13.1,13.1,0,0,1,38.15,22.93Z" style="fill:#f6bb79"/></svg>