<svg xmlns="http://www.w3.org/2000/svg" viewBox="0 0 60 60"><title>Radish</title><path d="M56.31,24.23a6.11,6.11,0,0,1-4,4.73,5.29,5.29,0,0,1,.26,3.5C52.25,33.72,51.12,36,47.37,37a11.67,11.67,0,0,1-2.94.35c-5.44,0-11.94-3-14.45-4.8L25.13,37.4a12.34,12.34,0,0,1,3.18,7.2,10.21,10.21,0,0,1-3.16,8.14,13.19,13.19,0,0,1-2.59,2A11.56,11.56,0,0,1,11.63,55c-1-.49-1.5-.41-2.82.14-.4.16-1.94,1-2.82,1.44a1.05,1.05,0,0,1-1.44-1.37c.31-.67,1.16-2.51,1.35-3,.6-1.49.67-1.83.2-2.76a11.55,11.55,0,0,1,.27-10.94,13.35,13.35,0,0,1,2-2.59c4.3-4.29,10.47-4.25,15.3,0l4.82-4.81c-2.08-2.79-6.18-11.7-4.59-17.59,1-3.76,3.28-4.89,4.55-5.22a5.3,5.3,0,0,1,3.5.25,6.12,6.12,0,0,1,4.72-4,5.66,5.66,0,0,1,5.52,2.48,6.2,6.2,0,0,1,5-.25A4.61,4.61,0,0,1,50,10.88a4.58,4.58,0,0,1,4.07,2.84,6.22,6.22,0,0,1-.24,5A5.66,5.66,0,0,1,56.31,24.23Z" style="fill:#05350f"/><path d="M30.69,14.2a3.89,3.89,0,0,1,4.15-.49,4.54,4.54,0,0,1,2.23-2.6,4.38,4.38,0,0,1,4.72.6,7.42,7.42,0,0,1,4.36-2,4.42,4.42,0,0,1,1.5.2,2.38,2.38,0,0,0-1.26-1.22,4.34,4.34,0,0,0-4,.58,1,1,0,0,1-1.52-.38A3.76,3.76,0,0,0,37,6.64a4.29,4.29,0,0,0-3.39,3.75,1,1,0,0,1-.72.82A1,1,0,0,1,31.81,11,3,3,0,0,0,29,10.32c-1.44.38-2.53,1.71-3.07,3.74-.95,3.54.58,8.53,2.18,12.07C27.67,21.82,27.77,16.18,30.69,14.2Z" style="fill:#1d9a46"/><path d="M26.23,44.75A10.6,10.6,0,0,0,23,38.16l0,0a0,0,0,0,0,0,0c-4.06-4.06-9.44-4.34-13.1-.69a10.93,10.93,0,0,0-1.66,2.17,8.86,8.86,0,0,0-.79,1.78A10.41,10.41,0,0,1,10.07,43a.63.63,0,0,1,.06.87.61.61,0,0,1-.47.21.62.62,0,0,1-.4-.15,9.08,9.08,0,0,0-2.17-1.37,9.56,9.56,0,0,0,.88,6c.88,1.76.53,2.85-.13,4.48,0,.08-.08.2-.14.33L8,53.2a6.47,6.47,0,0,1,2.46-.62,4.62,4.62,0,0,1,2.09.55,9.44,9.44,0,0,0,8.93-.21,10.93,10.93,0,0,0,2.17-1.66A8.22,8.22,0,0,0,26.23,44.75ZM15.8,42.85a.62.62,0,0,1-.4.15.61.61,0,0,1-.47-.21,10.77,10.77,0,0,0-3.24-2.47.62.62,0,0,1,.51-1.12A11.55,11.55,0,0,1,15.86,42,.61.61,0,0,1,15.8,42.85Zm4.35,9.76a.69.69,0,0,1-.24,0,.62.62,0,0,1-.57-.38,9.37,9.37,0,0,0-1.77-2.69.62.62,0,0,1,.87-.87,10.59,10.59,0,0,1,2,3.08A.62.62,0,0,1,20.15,52.61Z" style="fill:#ff605f"/><path d="M45.16,29.18a1.13,1.13,0,0,1,.1-.13c.17-.2,1-1.38-.51-2.91a1.05,1.05,0,0,1-.2-1.21,1,1,0,0,1,1.09-.56,2.47,2.47,0,0,0,2.46-1.31c.47-.94.16-2-.89-3.08a1.09,1.09,0,0,1-.31-.77,1.1,1.1,0,0,1,.35-.75s1.91-1.75,2-3.62a2.76,2.76,0,0,0-.92-2.08,2.78,2.78,0,0,0-2.07-.91c-1.86.05-3.59,2-3.61,2a1.06,1.06,0,0,1-.75.35,1,1,0,0,1-.77-.31C40,12.82,39,12.5,38,13a2.45,2.45,0,0,0-1.3,2.45,1,1,0,0,1-.57,1.09,1.07,1.07,0,0,1-1.21-.19c-1.53-1.54-2.7-.69-2.92-.51l-.12.09c-2.57,1.68-2.07,9.44-1.1,14.37C35.73,31.25,43.49,31.75,45.16,29.18Z" style="fill:#acf252"/><path d="M52,20a1.05,1.05,0,0,1-.54-.68,1.07,1.07,0,0,1,.15-.85,4.31,4.31,0,0,0,.58-4,2.41,2.41,0,0,0-1.08-1.19,4.74,4.74,0,0,1,.24,1.6,7.41,7.41,0,0,1-1.94,4.37A4.39,4.39,0,0,1,50,24a4.59,4.59,0,0,1-2.6,2.24,3.89,3.89,0,0,1-.49,4.15c-1.48,2.17-5,2.78-8.45,2.78-1.09,0-2.17-.06-3.18-.15,3.49,1.52,8.21,2.88,11.58,2,2-.55,3.36-1.64,3.75-3.07a3,3,0,0,0-.64-2.84A1.09,1.09,0,0,1,49.67,28a1,1,0,0,1,.82-.71,4.31,4.31,0,0,0,3.75-3.39A3.76,3.76,0,0,0,52,20Z" style="fill:#1d9a46"/></svg>