<svg xmlns="http://www.w3.org/2000/svg" viewBox="0 0 60 60"><title>Rosemary</title><path d="M56.36,31.14A3.44,3.44,0,0,1,53,33.86a3.53,3.53,0,0,1-.72-.08l-2.47-.5a3.42,3.42,0,0,1-1.9,6h0c-.42,0-3,.31-6.48.81.49.33,1,.66,1.37,1l0,0a3.4,3.4,0,0,1,1.25,2.3,3.45,3.45,0,0,1-.75,2.51,3.41,3.41,0,0,1-2.31,1.25l-.36,0a3.41,3.41,0,0,1-2.15-.77,36.48,36.48,0,0,0-8.11-4.36c-1.66.39-3.06.76-4.23,1.11a45.71,45.71,0,0,1,5.19,1.14,3.42,3.42,0,0,1-1,6.71,3.28,3.28,0,0,1-1-.15c-3.37-1-9.95-2.07-13.53-.75l-5.61,5.62a3.4,3.4,0,0,1-2.42,1h0a3.42,3.42,0,0,1-2.42-5.84l5.65-5.66a3.23,3.23,0,0,1,.72-.71l.72-.72a11.17,11.17,0,0,0-2.66-4.45,3.42,3.42,0,0,1,4.68-5l0,0a16.82,16.82,0,0,1,1.58,1.8,26,26,0,0,0-4.71-11,3.42,3.42,0,1,1,5.21-4.44A32.08,32.08,0,0,1,22.46,33,34.58,34.58,0,0,0,23.54,28a51.11,51.11,0,0,0-7.37-10.11,3.42,3.42,0,0,1,0-4.84,3.39,3.39,0,0,1,2.41-1h0a3.42,3.42,0,0,1,2.42,1,47.17,47.17,0,0,1,3.18,3.65c0-2.27-.11-4.54-.29-6.79A3.43,3.43,0,0,1,27,6.25a3.43,3.43,0,0,1,3.72,3.1,96.92,96.92,0,0,1,0,16.23L32,24.3a24.34,24.34,0,0,0-.42-17.19,3.42,3.42,0,0,1,6.18-2.94A30.78,30.78,0,0,1,40.26,16l7.59-7.6a3.43,3.43,0,0,1,4.85,4.84L49.28,16.7a19.63,19.63,0,0,1,3.16,1.08,3.12,3.12,0,0,1,.59.34,3.43,3.43,0,0,1,.83,4.77,3.44,3.44,0,0,1-4.19,1.17,10.12,10.12,0,0,0-7.12-.61L40.91,25.1a100.81,100.81,0,0,1,12.81,2l.13,0a3.44,3.44,0,0,1,2.51,4Z" style="fill:#05350f"/><path d="M16.16,40.17a16.05,16.05,0,0,0-3.08-4.24,1.27,1.27,0,0,0-.91-.33,1.22,1.22,0,0,0-.89.41,1.28,1.28,0,0,0,.06,1.81l0,0a13.85,13.85,0,0,1,2.85,4.25Z" style="fill:#1d9a46"/><path d="M34,41.32a30.8,30.8,0,0,1,5.89,3.45,1.28,1.28,0,0,0,1.66-2l0,0a24.48,24.48,0,0,0-3.32-2.2c-1,.15-2,.33-3,.51Z" style="fill:#1d9a46"/><path d="M27.8,21.76c.32.5.63,1,.94,1.53l0,.05a95.27,95.27,0,0,0-.15-13.79,1.28,1.28,0,0,0-1.4-1.17,1.29,1.29,0,0,0-1.16,1.4v0c.26,3.24.35,6.53.29,9.78l.42.63c.16.23.32.46.47.7S27.62,21.47,27.8,21.76Z" style="fill:#1d9a46"/><path d="M25.6,27.33l.17.34.6,1.21.22.48.12.25,1.94-1.94-.21-.42c-.25-.51-.51-1-.78-1.52l-.07-.12c-.29-.54-.59-1.06-.9-1.58l-.09-.16c-.29-.48-.59-.95-.89-1.42l-.43-.64-.69-1a52.71,52.71,0,0,0-5.07-6.2,1.28,1.28,0,0,0-.91-.38h0a1.29,1.29,0,0,0-.92,2.19A52.81,52.81,0,0,1,25.57,27.3Z" style="fill:#1d9a46"/><path d="M34,32.06l-2.84,2.85c.92-.19,1.88-.38,2.88-.56,5-.92,9.68-1.5,11.91-1.75a57.39,57.39,0,0,0-8.72-.8A15.35,15.35,0,0,0,34,32.06Z" style="fill:#1d9a46"/><path d="M47.46,34.58c-.65.06-6.54.67-13.09,1.87-2.34.43-4.48.89-6.37,1.36A1.07,1.07,0,0,1,27,36l5.65-5.66h0l2.92-2.93.12-.11a1.54,1.54,0,0,0,.26-.25l.1-.12,1.65-1.66h0l3.48-3.49a1,1,0,0,1,.4-.25,12.12,12.12,0,0,1,8.92.58,1.3,1.3,0,0,0,1.58-.44,1.27,1.27,0,0,0,.22-1,1.29,1.29,0,0,0-.53-.83l-.22-.13h0A16.85,16.85,0,0,0,47,18.44a1.09,1.09,0,0,1-.88-.72,1.07,1.07,0,0,1,.26-1.1l4.84-4.85a1.27,1.27,0,0,0,0-1.82,1.29,1.29,0,0,0-1.82,0l-9.5,9.52a1.08,1.08,0,0,1-1.21.21A1.06,1.06,0,0,1,38,18.63a29,29,0,0,0-2.2-13.55,1.29,1.29,0,0,0-2.32,1.11,26.16,26.16,0,0,1,.41,19.09,1.18,1.18,0,0,1-.24.37l-3,3h0l-3.6,3.61-3.46,3.46h0l-.9.91a1.1,1.1,0,0,1-1.09.26,1.05,1.05,0,0,1-.72-.85A30.35,30.35,0,0,0,15,22.12a1.29,1.29,0,0,0-1-.45,1.32,1.32,0,0,0-.84.31,1.3,1.3,0,0,0-.45.88,1.27,1.27,0,0,0,.31.93,28.63,28.63,0,0,1,5.67,16.35,1.09,1.09,0,0,1-.32.8l-5.16,5.17a.79.79,0,0,1-.15.12,1.26,1.26,0,0,0-.32.33l-.12.14L7,52.42a1.3,1.3,0,0,0,0,1.82,1.31,1.31,0,0,0,.91.38h0a1.28,1.28,0,0,0,.91-.38l5.78-5.78a1,1,0,0,1,.35-.23c5.48-2.24,15.05.58,15.15.61a1.57,1.57,0,0,0,.37,0h0a1.27,1.27,0,0,0,.89-.36,1.24,1.24,0,0,0,.39-.9,1.28,1.28,0,0,0-.93-1.25,44.68,44.68,0,0,0-6.29-1.29c-1.05-.13-2.06-.22-3-.26a1.07,1.07,0,0,1-.41-2,45.24,45.24,0,0,1,9.14-2.87l0,0c1.41-.32,2.93-.63,4.54-.93,1.06-.19,2.17-.39,3.39-.58h0c4.91-.79,8.92-1.21,9.45-1.26h0a1.26,1.26,0,0,0,.86-.47,1.28,1.28,0,0,0-1.12-2.09Z" style="fill:#1d9a46"/><path d="M53.28,29.17l-.1,0a89,89,0,0,0-14.29-2L37.61,28.4A3.42,3.42,0,0,1,37,29l-.7.7h.84a77.32,77.32,0,0,1,15.56,2,1.29,1.29,0,0,0,1.53-1,1.28,1.28,0,0,0-.18-1A1.3,1.3,0,0,0,53.28,29.17Z" style="fill:#1d9a46"/></svg>