<svg xmlns="http://www.w3.org/2000/svg" viewBox="0 0 60 60"><title>Shallots</title><path d="M57.23,13.94a1.05,1.05,0,0,1-.39.76L27.23,38.29l-5.77,5.76a16.12,16.12,0,0,1-4,9.14,7,7,0,0,1-5,2.06,7.66,7.66,0,0,1-1.26-.11l-.45,1.15a1,1,0,0,1-1,.66,1,1,0,0,1-.38-.07,1,1,0,0,1-.59-1.36l.41-1.05a7.42,7.42,0,0,1-.94-.6L6.84,55.31a1.05,1.05,0,0,1-1.49-1.48l1.44-1.44a7.05,7.05,0,0,1-.59-.94l-1.06.42a1,1,0,0,1-.38.07,1,1,0,0,1-.39-2l1.15-.46a7.08,7.08,0,0,1,2-6.24,16.22,16.22,0,0,1,9.14-4l5.79-5.79L46,3.83a1,1,0,0,1,.76-.4,1.08,1.08,0,0,1,.8.31l2.34,2.34,1.52-1.52a1,1,0,0,1,1.48,0l3.28,3.29a1,1,0,0,1,.31.74,1,1,0,0,1-.31.74l-1.51,1.52,2.29,2.28A1.07,1.07,0,0,1,57.23,13.94Z" style="fill:#05350f"/><path d="M23.18,35.59,17.79,41a1,1,0,0,1-.76.3H17a13.85,13.85,0,0,0-8,3.42,4.95,4.95,0,0,0,7,7,13.86,13.86,0,0,0,3.41-8.08,1.07,1.07,0,0,1,.31-.76l5.39-5.39,0,0Z" style="fill:#f6f2d6"/><polygon points="25.68 35.12 32.01 27.18 44.66 11.3 44.66 11.29 47.97 7.15 46.88 6.05 24.59 34.03 25.68 35.12" style="fill:#acf252"/><polygon points="39.43 21.24 48.53 13.98 53.93 8.59 52.13 6.79 46.27 12.65 39.43 21.24" style="fill:#1d9a46"/><polygon points="49.89 15.59 49.88 15.59 35.1 27.37 33.57 28.58 29.29 33.96 54.61 13.79 53.52 12.69 49.89 15.59" style="fill:#acf252"/></svg>