<svg xmlns="http://www.w3.org/2000/svg" viewBox="0 0 60 60"><title>Spinach</title><path d="M53.94,18.64c0,8.2-2.29,12.75-4.93,18C48.32,38,47.61,39.44,46.9,41a33.42,33.42,0,0,0-2.62,15.13A1.07,1.07,0,0,1,44,57a1,1,0,0,1-.79.35H37.57a1,1,0,0,1-.79-.35,1.07,1.07,0,0,1-.27-.82,34.75,34.75,0,0,0-1.06-10.76l-.17.35a23,23,0,0,0-1.8,10.42,1.06,1.06,0,0,1-1.06,1.17h-4a1.06,1.06,0,0,1-1.06-1.17,23,23,0,0,0-1.8-10.42,2.75,2.75,0,0,0-.14-.3,31.29,31.29,0,0,0-1.24,10.71A1.07,1.07,0,0,1,24,57a1,1,0,0,1-.79.35H18a1,1,0,0,1-.79-.35,1.07,1.07,0,0,1-.27-.82,30.17,30.17,0,0,0-2.37-13.7c-.65-1.42-1.29-2.71-1.92-4-2.41-4.8-4.49-8.94-4.49-16.41A15.09,15.09,0,0,1,13,11c2.75-2.65,5.81-3.83,7.62-3.83s4.6,1.22,6.84,3.12c.36.3.73.66,1.11,1A17.46,17.46,0,0,1,33.82,5,12.3,12.3,0,0,1,40.4,2.3a9.49,9.49,0,0,1,3.91,1.08,17.5,17.5,0,0,1,4.4,3.1A16.54,16.54,0,0,1,53.94,18.64Z" style="fill:#05350f"/><path d="M21.67,37V55.17H22a32.4,32.4,0,0,1,2.11-12.44v0A37.12,37.12,0,0,1,21.67,37Z" style="fill:#1d9a46"/><path d="M34.71,42l.06-.13.08-.15c1.82-3.62,3.26-6.48,3.26-11.79A11,11,0,0,0,38,28.79c0-.1,0-.2,0-.3s-.08-.49-.13-.72-.07-.29-.1-.43-.1-.33-.16-.49a4.75,4.75,0,0,0-.17-.49,1.67,1.67,0,0,0-.08-.2,10,10,0,0,0-1.08-1.93l-.07-.1-.39-.5-.13-.15c-.12-.14-.25-.28-.38-.41l-.16-.18-.3-.28c-.13-.11-.25-.23-.38-.33l-.25-.21-.45-.34a1.77,1.77,0,0,1-.17-.12,9.68,9.68,0,0,0-1.25-.72l-.05,0-.51-.22-.1,0c-.14-.05-.27-.1-.39-.13l-.17,0-.27-.06a2.85,2.85,0,0,0-.41,0l-.19,0h-.16l-.24.06-.2,0-.31.1-.21.07-.39.17-.18.08c-.2.09-.4.2-.6.31l0,0a10.5,10.5,0,0,0-2,1.54,9.83,9.83,0,0,0-3.1,7.2c0,5.29,1.44,8.15,3.25,11.76.49,1,1,2,1.51,3.11a22.89,22.89,0,0,1,1.83,6.67V26a1.07,1.07,0,0,1,2.13,0V51.51a23,23,0,0,1,1.83-6.68c.47-1,.92-1.93,1.37-2.81Z" style="fill:#1d9a46"/><path d="M19.53,55.17V17a1.07,1.07,0,0,1,2.14,0V25.1A11.62,11.62,0,0,1,23,22.84l0-.05c.21-.29.43-.56.66-.82l.11-.11c.21-.23.42-.46.65-.67,0-.05.11-.09.16-.15.21-.18.41-.37.62-.53l.22-.17c.2-.15.39-.3.58-.43l.27-.18.54-.33.31-.16.48-.26.33-.14.44-.19.33-.11.39-.12a2.14,2.14,0,0,1,.32-.08l.35-.07.29,0,.24,0s0,0,0,0-.06-.15-.08-.23c-.13-.38-.27-.75-.43-1.11l-.18-.4c-.17-.35-.35-.7-.55-1l-.18-.29c-.23-.36-.48-.72-.74-1.06-2.45-3.16-5.89-4.79-7.54-4.79-1.8,0-4.51,1.67-6.15,3.24a13.05,13.05,0,0,0-4.13,9.58c0,7,1.89,10.71,4.27,15.45.63,1.26,1.29,2.57,1.95,4a31.77,31.77,0,0,1,2.62,13.63Z" style="fill:#1d9a46"/><path d="M39.33,55.17V36.68a35.72,35.72,0,0,1-2.51,5.89,36.12,36.12,0,0,1,1.88,12.6Z" style="fill:#1d9a46"/><path d="M47.23,8c-2.45-2.36-5.29-3.59-6.83-3.59a10.42,10.42,0,0,0-5.31,2.29,15.26,15.26,0,0,0-5,6.33l.18.28c.17.25.34.5.5.77s.2.33.3.5.29.54.43.82.17.35.25.53.22.54.32.83.17.44.24.67.13.46.19.69.12.37.16.56l.3.14.63.3.43.23A9.54,9.54,0,0,1,35,20l.31.22c.3.23.61.48.9.75l.12.1a14,14,0,0,1,1,1l0,0,.09.12c.2.24.39.48.57.73l0,0a12.44,12.44,0,0,1,1.3,2.36V13.05a1.07,1.07,0,1,1,2.13,0V55.17h.63A34.88,34.88,0,0,1,45,40.11c.73-1.59,1.45-3,2.14-4.41,2.63-5.23,4.71-9.37,4.71-17.06A14.44,14.44,0,0,0,47.23,8Z" style="fill:#1d9a46"/></svg>