<svg xmlns="http://www.w3.org/2000/svg" viewBox="0 0 60 60"><title>Squash</title><path d="M56.45,7.72a15.79,15.79,0,0,1-3.06,4.15,10.35,10.35,0,0,1-2,12.07L41,34.12a16.17,16.17,0,0,0-4.53,8.41c-.92,4.64-3.37,10.8-9.78,13.76a14.19,14.19,0,0,1-6,1.37,15.39,15.39,0,0,1-7.23-1.89,20.25,20.25,0,0,1-5.29-4.06A20.06,20.06,0,0,1,4,46.5a13.84,13.84,0,0,1-.53-13.1A15.81,15.81,0,0,1,10,26.49a23.54,23.54,0,0,1,7.48-2.71A16.59,16.59,0,0,0,26,19.31L36.38,9.13A10.76,10.76,0,0,1,48.67,7.21a9.24,9.24,0,0,0,1.85-2.5A3.38,3.38,0,0,1,55,3.27a3.94,3.94,0,0,1,.51.32A3.25,3.25,0,0,1,56.83,6.2,3.32,3.32,0,0,1,56.45,7.72Z" style="fill:#05350f"/><path d="M51.13,12.23a8.22,8.22,0,0,0-1.25-1.57,8.8,8.8,0,0,0-.73-.64L49,9.91a7,7,0,0,0-.63-.43,8.61,8.61,0,0,0-10.48,1.18L27.53,20.84a18.72,18.72,0,0,1-9.67,5c-7.65,1.47-11,5.4-12.44,8.44A11.63,11.63,0,0,0,5.9,45.47a17.55,17.55,0,0,0,3.69,4.65l.12.12a18.1,18.1,0,0,0,4.79,3.67,12.25,12.25,0,0,0,11.32.44c3.09-1.43,7.09-4.71,8.58-12.23a18.26,18.26,0,0,1,5.13-9.52L49.88,22.42a8.21,8.21,0,0,0,1.26-10.19Z" style="fill:#fdb729"/><path d="M54.05,5.19h0a1.24,1.24,0,0,0-1.63.52,11.8,11.8,0,0,1-1.88,2.69h0a10,10,0,0,1,.85.74l.17.17a7.7,7.7,0,0,1,.66.75,14.44,14.44,0,0,0,2.35-3.31,1.15,1.15,0,0,0-.33-1.44Z" style="fill:#e09851"/></svg>