<svg xmlns="http://www.w3.org/2000/svg" viewBox="0 0 60 60"><title>Sunflower</title><path d="M57.81,25.81l-.27.46a8.59,8.59,0,0,1-2.9,2.81,6.08,6.08,0,0,1,.86.9l.19.28-.13.32a7.17,7.17,0,0,1-3.51,3.35,8.18,8.18,0,0,1,2.7,3.49l.11.33-.22.27a7.21,7.21,0,0,1-4.29,2.16,6.7,6.7,0,0,1,1.77,4v.4l-.36.15a12.52,12.52,0,0,1-4.88,1,6.57,6.57,0,0,1,.48,4.31l-.12.37-.39,0a12.22,12.22,0,0,1-1.35.08,16.07,16.07,0,0,1-5.19-1,10.14,10.14,0,0,1-2.9,7l-.36.32-.41-.27a23.29,23.29,0,0,1-3.05-2.45,8.29,8.29,0,0,1-4,3.4l-.41.14-.28-.34a22.65,22.65,0,0,1-2.43-3.65A20.68,20.68,0,0,1,22,58l-.56.36-.33-.58a26.71,26.71,0,0,1-2.35-5.34,19.18,19.18,0,0,1-4.25,2l-.64.19L13.72,54A26.25,26.25,0,0,1,13,48a13.34,13.34,0,0,1-3.63.59H9.17l-.51,0L8.58,48a10.46,10.46,0,0,1,.65-5.81A12.41,12.41,0,0,1,5,41.62l-.47-.18.07-.5A11.21,11.21,0,0,1,5.77,37.3a6.56,6.56,0,0,1-2.54-1.19l-.39-.37.29-.44A15.38,15.38,0,0,1,7.32,31C4,29.64,3,28.08,3,28l-.27-.47.42-.34a15.52,15.52,0,0,1,4.73-2.7,9.88,9.88,0,0,1-2.55-3.61l-.18-.58.58-.2a18.44,18.44,0,0,1,5.6-1,10.53,10.53,0,0,1-1.87-5V13.4l.6,0a18.7,18.7,0,0,1,4.63.37,13.8,13.8,0,0,1,.1-5.06l.17-.63.63.19a20,20,0,0,1,4.82,2.31,13.75,13.75,0,0,1,1.66-5.42l.35-.55.54.36a20.27,20.27,0,0,1,4,3.74A17.08,17.08,0,0,1,30.55,3.9l.5-.43.41.51a18.4,18.4,0,0,1,2.61,4.38,16.78,16.78,0,0,1,4.47-3.18l.6-.26.24.61A18.59,18.59,0,0,1,40.54,10a8.71,8.71,0,0,1,4.26-1.3H45l.39,0,.15.36A8.44,8.44,0,0,1,45.81,14,8.42,8.42,0,0,1,51,14l.37.15,0,.39a7.72,7.72,0,0,1-.29,2.64,9.75,9.75,0,0,1,3.45.61L55,18l-.12.52a10.16,10.16,0,0,1-3.19,4.81,11.38,11.38,0,0,1,5.69,2.16Z" style="fill:#05350f"/><path d="M17.29,20A13.65,13.65,0,0,1,15,15.12a16.78,16.78,0,0,0-4.12-.5h-.05a12.39,12.39,0,0,0,2.06,4.43A16.4,16.4,0,0,1,17.29,20Z" style="fill:#ffd800"/><path d="M15.62,27.87A14.68,14.68,0,0,1,18.8,22a15.26,15.26,0,0,0-7-1.71,16.69,16.69,0,0,0-5,.78C7.45,22.3,9.64,25.36,15.62,27.87Z" style="fill:#fd0"/><path d="M13,37.65a27.64,27.64,0,0,1-2.93.16A17.75,17.75,0,0,1,7,37.57a9.71,9.71,0,0,0-1.09,3,13,13,0,0,0,4,.32A11.73,11.73,0,0,1,13,37.65Z" style="fill:#fd0"/><path d="M15.78,36a14.33,14.33,0,0,1-.65-4.31,14,14,0,0,1,.13-1.95A13.44,13.44,0,0,0,4.54,35.47a11.56,11.56,0,0,0,5.56,1.09A31.21,31.21,0,0,0,15.78,36Z" style="fill:#f6c400"/><path d="M25.34,15.16A14.5,14.5,0,0,1,26.4,10,19.07,19.07,0,0,0,22.79,6.4a12.69,12.69,0,0,0-1.23,5A17.83,17.83,0,0,1,25.34,15.16Z" style="fill:#f6c400"/><path d="M14,28.53a23.24,23.24,0,0,1-5.05-3.11,14.31,14.31,0,0,0-4.51,2.33,11,11,0,0,0,4.27,2.42A15.25,15.25,0,0,1,14,28.53Z" style="fill:#fd0"/><path d="M25.39,17.72c-1.85-3.88-5.95-6.76-9.53-8a12.63,12.63,0,0,0,4,11.25A14.57,14.57,0,0,1,25.39,17.72Z" style="fill:#fd0"/><path d="M35.57,18.32a14.7,14.7,0,0,1,4.62,3.23c1.24-1.4,5.76-7,4.33-11.61C43.09,10,38.56,10.92,35.57,18.32Z" style="fill:#f6c400"/><path d="M49.74,17.22a6.4,6.4,0,0,0,.39-2.17,7.9,7.9,0,0,0-4.75.45,19.38,19.38,0,0,1-1.86,3.73A15.06,15.06,0,0,1,49.74,17.22Z" style="fill:#fd0"/><path d="M43.57,27.22c.63-.3,8.38-4.1,9.94-8.46a10.47,10.47,0,0,0-2.66-.34c-2.33,0-5.9.73-9.8,4.12A14.52,14.52,0,0,1,43.57,27.22Z" style="fill:#ffd800"/><path d="M42.7,32.08a.42.42,0,0,1,.15-.58.33.33,0,0,1,.14,0c0-.15,0-.3,0-.45a.44.44,0,0,1-.35-.21.39.39,0,0,1,.3-.61c0-.15-.05-.3-.07-.44a.44.44,0,0,1-.3-.2.43.43,0,0,1,.16-.57h0c0-.19-.1-.38-.14-.57a.32.32,0,0,1-.11-.12.4.4,0,0,1,0-.37,12.53,12.53,0,0,0-.53-1.49l0,0a.42.42,0,0,1-.57-.15.42.42,0,0,1,.15-.58l.1,0a13.54,13.54,0,0,0-1.41-2.23.42.42,0,1,1-.49-.58c-.23-.26-.48-.51-.74-.76a.41.41,0,0,1,.12.29.42.42,0,0,1-.84,0,.42.42,0,0,1,.71-.3,12.24,12.24,0,0,0-1.21-1.06.44.44,0,0,1-.22.07.41.41,0,0,1-.41-.42.3.3,0,0,1,0-.1c-.13-.09-.27-.16-.4-.24a.41.41,0,0,1-.34.19.42.42,0,0,1-.42-.42.36.36,0,0,1,.06-.2l-.4-.19a.42.42,0,0,1-.8-.18.35.35,0,0,1,0-.18c-.13-.06-.28-.1-.41-.15a.42.42,0,0,1-.34.18.42.42,0,0,1-.42-.42s0,0,0,0a13.29,13.29,0,0,0-2.61-.54h0a.42.42,0,1,1-.84,0s0,0,0-.06c-.19,0-.38,0-.58,0a13.4,13.4,0,0,0-2,.17.4.4,0,0,1,0,.37.41.41,0,0,1-.57.15.4.4,0,0,1-.2-.38c-.27.05-.53.13-.78.2l.07,0a.41.41,0,0,1,.15.57.42.42,0,0,1-.57.16.41.41,0,0,1-.15-.57l0-.05a12.74,12.74,0,0,0-1.34.51.32.32,0,0,1,0,.09.41.41,0,0,1-.51.17,4.74,4.74,0,0,0-.5.26.44.44,0,0,1-.05.27.42.42,0,0,1-.57.15l0,0-.42.26a.4.4,0,0,1,0,.32.41.41,0,0,1-.57.15h0a13.84,13.84,0,0,0-2,1.9.38.38,0,0,1,.21,0,.42.42,0,0,1,.16.57.41.41,0,0,1-.57.15.39.39,0,0,1-.2-.27c-.1.13-.2.26-.29.4a.41.41,0,0,1-.43.63,12.71,12.71,0,0,0-1.16,2.3.36.36,0,0,1,.11.13.42.42,0,0,1-.15.57.4.4,0,0,1-.24,0l-.17.62a.42.42,0,0,1,.39.2.42.42,0,0,1-.16.57.4.4,0,0,1-.42,0,13.26,13.26,0,0,0-.27,2.54s0,0,0,0a.4.4,0,0,1,0,.41c0,.28,0,.55,0,.81l0,.05a.41.41,0,0,1,0,.4A12.06,12.06,0,0,0,16.83,35a.4.4,0,0,1,.2-.38.42.42,0,1,1-.15.57c.07.25.13.47.21.71h0a.41.41,0,0,1,.57.15.42.42,0,0,1-.15.57.49.49,0,0,1-.16,0l.21.48a.33.33,0,0,1,.19.16.38.38,0,0,1,0,.31l.26.51a.39.39,0,0,1,.2-.28.41.41,0,1,1,.41.72.43.43,0,0,1-.31.05c.28.45.58.88.9,1.3h0a.42.42,0,0,1,.42.42.29.29,0,0,1,0,.09l.45.5a.41.41,0,0,1,.31-.14.42.42,0,0,1,.3.71c.15.14.29.28.45.41a.37.37,0,0,1,0-.15.42.42,0,0,1,.42-.42.42.42,0,0,1,0,.84h-.06a13.62,13.62,0,0,0,2.39,1.48.41.41,0,0,1,.24.11A12.74,12.74,0,0,0,26,44.4a.41.41,0,0,1-.22-.36.42.42,0,0,1,.84,0,.43.43,0,0,1-.41.42c.23.06.47.13.71.18v0a.42.42,0,1,1,.83,0,.47.47,0,0,1,0,.17l.48.07a.44.44,0,0,1,.27-.11.42.42,0,0,1,.32.16c.2,0,.39,0,.59,0a.43.43,0,0,1-.19-.34.42.42,0,0,1,.84,0,.41.41,0,0,1-.21.35,14.55,14.55,0,0,0,1.63-.11.36.36,0,0,1,0-.11.43.43,0,0,1,.57-.16.4.4,0,0,1,.14.15l.63-.14a.42.42,0,0,1,0-.42.41.41,0,0,1,.57-.15.43.43,0,0,1,.21.38,14,14,0,0,0,2.29-1,.36.36,0,0,1,0-.11.4.4,0,0,1,.49-.18l.52-.32a.46.46,0,0,1,0-.2.41.41,0,0,1,.5-.18c.18-.13.35-.25.51-.38a.29.29,0,0,1,0-.13.39.39,0,0,1,.35-.2,12.92,12.92,0,0,0,1.18-1.16.35.35,0,0,1-.22,0,.42.42,0,0,1-.15-.58.41.41,0,0,1,.77.19l.32-.42a.42.42,0,0,1,0-.48.41.41,0,0,1,.53-.16A13.37,13.37,0,0,0,42,36.81a.41.41,0,1,1,.29-.77c.08-.24.17-.49.24-.74l0,0a.42.42,0,1,1,.16-.57.06.06,0,0,1,0,0,12.54,12.54,0,0,0,.26-1.36.53.53,0,0,1-.09-.11.43.43,0,0,1,.16-.57h0c0-.17,0-.33,0-.5A.4.4,0,0,1,42.7,32.08Zm-.35-2.19a.41.41,0,0,1-.41.41.41.41,0,0,1-.42-.41.42.42,0,0,1,.42-.42A.41.41,0,0,1,42.35,29.89ZM41.86,29a.41.41,0,0,1-.42-.41.42.42,0,0,1,.84,0A.41.41,0,0,1,41.86,29ZM33,38.15a.41.41,0,0,1-.42-.41.42.42,0,0,1,.42-.42.41.41,0,0,1,.41.42A.41.41,0,0,1,33,38.15Zm.32.85a.41.41,0,0,1-.42.41.41.41,0,0,1-.41-.41.41.41,0,0,1,.41-.42A.42.42,0,0,1,33.36,39ZM33,29.08a.42.42,0,0,1-.42-.42.42.42,0,0,1,.84,0A.42.42,0,0,1,33,29.08Zm.36,3.39a.41.41,0,0,1-.41.41.41.41,0,0,1-.42-.41.42.42,0,0,1,.42-.42A.41.41,0,0,1,33.33,32.47Zm-.51-.85a.42.42,0,0,1,0-.83.42.42,0,1,1,0,.83Zm0,1.61a.33.33,0,0,1,.16.05.42.42,0,0,1-.26.78.58.58,0,0,1-.17-.06.42.42,0,0,1,.27-.77Zm-.14,1.26a.41.41,0,0,1,.42.41.42.42,0,0,1-.84,0A.41.41,0,0,1,32.68,34.49Zm.51,2.26a.42.42,0,1,1,.41.42A.41.41,0,0,1,33.19,36.75Zm.48-.86a.42.42,0,0,1,0-.84.42.42,0,0,1,0,.84Zm1.12-6.24a.42.42,0,1,1-.41.42A.42.42,0,0,1,34.79,29.65Zm-.68-1.4a.42.42,0,1,1,.42-.42A.42.42,0,0,1,34.11,28.25Zm1.67.83a.42.42,0,1,1-.42.42A.42.42,0,0,1,35.78,29.08Zm-.53-1.42a.42.42,0,1,1,.42-.42A.42.42,0,0,1,35.25,27.66Zm1.61,2.95a.42.42,0,1,1,0-.84.42.42,0,0,1,0,.84Zm.47,2.85a.42.42,0,1,1-.42.42A.41.41,0,0,1,37.33,33.46Zm-.56-4.11a.42.42,0,1,1,.41-.42A.42.42,0,0,1,36.77,29.35Zm-.33,2a.42.42,0,1,1-.42.42A.42.42,0,0,1,36.44,31.33Zm-.1,2.7a.42.42,0,1,1-.42.42A.42.42,0,0,1,36.34,34Zm-.51-.84a.42.42,0,1,1,.42.42A.42.42,0,0,1,35.83,33.19Zm0-2a.42.42,0,1,1,.42-.42A.42.42,0,0,1,35.87,31.18Zm-.27,1.31a.41.41,0,0,1-.41.42.42.42,0,0,1,0-.84A.41.41,0,0,1,35.6,32.49Zm.08,1.27a.42.42,0,0,1-.42.42.42.42,0,0,1,0-.84A.42.42,0,0,1,35.68,33.76Zm-.79-2a.42.42,0,1,1,0-.84.42.42,0,0,1,0,.84Zm-.5,1.44a.42.42,0,1,1-.42-.42A.42.42,0,0,1,34.39,33.19Zm-.49-.87a.42.42,0,1,1,.42-.42A.42.42,0,0,1,33.9,32.32Zm0,2.44a.49.49,0,0,1-.16,0,.42.42,0,0,1,.26-.78.48.48,0,0,1,.17,0,.41.41,0,0,1,.15.57A.43.43,0,0,1,33.93,34.76Zm.72,1.7a.42.42,0,1,1,.42-.42A.42.42,0,0,1,34.65,36.46Zm.36.86a.42.42,0,1,1-.42-.42A.42.42,0,0,1,35,37.32Zm-.07-2a.49.49,0,0,1-.17-.06.41.41,0,0,1-.15-.57.4.4,0,0,1,.41-.2.34.34,0,0,1,.17.05.41.41,0,0,1,.15.57A.42.42,0,0,1,34.94,35.34Zm.7,1.69a.42.42,0,0,1,0-.84.42.42,0,0,1,0,.84Zm.35.86a.42.42,0,1,1-.41-.42A.41.41,0,0,1,36,37.89ZM36,36a.43.43,0,0,1-.16-.57.44.44,0,0,1,.42-.21.42.42,0,0,1,.32.62.44.44,0,0,1-.42.21A.49.49,0,0,1,36,36Zm.63.77a.42.42,0,1,1-.42.42A.42.42,0,0,1,36.62,36.76Zm.37-.2a.42.42,0,0,1-.16-.57.43.43,0,0,1,.42-.2.3.3,0,0,1,.16.05.43.43,0,0,1,.16.57.44.44,0,0,1-.42.21A.52.52,0,0,1,37,36.56Zm.42-1a.42.42,0,1,1,.42-.42A.42.42,0,0,1,37.41,35.55Zm.08-2.68a.42.42,0,1,1,0-.83.42.42,0,0,1,0,.83Zm.17-1.41a.42.42,0,0,1-.42-.42.41.41,0,0,1,.42-.41.41.41,0,0,1,.41.41A.41.41,0,0,1,37.66,31.46Zm.9,2.1a.41.41,0,0,1-.41-.41.41.41,0,0,1,.41-.42.42.42,0,0,1,.42.42A.41.41,0,0,1,38.56,33.56Zm.48.87a.42.42,0,0,1-.83,0,.42.42,0,1,1,.83,0ZM37.84,30a.42.42,0,1,1,.42-.42A.42.42,0,0,1,37.84,30Zm-.09-1.26a.42.42,0,1,1,.42-.42A.42.42,0,0,1,37.75,28.78Zm.3,7.92a.43.43,0,0,1,.42-.21.49.49,0,0,1,.16,0,.42.42,0,0,1-.26.78.55.55,0,0,1-.17,0A.42.42,0,0,1,38.05,36.7Zm.65-.59a.42.42,0,1,1,.42-.41A.41.41,0,0,1,38.7,36.11Zm0-4a.42.42,0,0,1-.42-.42.42.42,0,0,1,.84,0A.42.42,0,0,1,38.72,32.16Zm0-3.95a.42.42,0,0,1-.42-.42.42.42,0,0,1,.83,0A.41.41,0,0,1,38.74,28.21Zm.51.84a.42.42,0,0,1-.84,0,.42.42,0,0,1,.84,0Zm-.36,1.7a.42.42,0,1,1,.42-.42A.42.42,0,0,1,38.89,30.75Zm.58-1a.42.42,0,1,1,.42.42A.41.41,0,0,1,39.47,29.75ZM39.8,32a.41.41,0,0,1,.41.42.42.42,0,0,1-.83,0A.42.42,0,0,1,39.8,32Zm0-3.12a.42.42,0,1,1,.42-.42A.42.42,0,0,1,39.81,28.9Zm-.09-1.26a.42.42,0,0,1-.42-.42.42.42,0,0,1,.84,0A.42.42,0,0,1,39.72,27.64Zm0,7.07a.41.41,0,0,1,.41.42.42.42,0,0,1-.83,0A.42.42,0,0,1,39.69,34.71Zm.17-.58a.42.42,0,1,1,0-.83.42.42,0,0,1,0,.83Zm.1-2.69a.41.41,0,0,1-.41-.42.42.42,0,0,1,.83,0A.42.42,0,0,1,40,31.44Zm.8,4a.42.42,0,1,1-.42.42A.42.42,0,0,1,40.76,35.4Zm-.15-3.68a.41.41,0,0,1,.42-.41.42.42,0,0,1,0,.83A.42.42,0,0,1,40.61,31.72Zm.46.87a.42.42,0,1,1-.42.42A.42.42,0,0,1,41.07,32.59Zm.71-5.66a.42.42,0,0,1,.42.42.41.41,0,0,1-.42.41.41.41,0,0,1-.41-.41A.41.41,0,0,1,41.78,26.93Zm-.41,3.53A.42.42,0,1,1,41,30,.41.41,0,0,1,41.37,30.46Zm-.08-1.27a.41.41,0,0,1-.42.41.42.42,0,0,1,0-.83A.42.42,0,0,1,41.29,29.19Zm-.49-.86a.42.42,0,1,1,.42-.41A.41.41,0,0,1,40.8,28.33Zm-.09-1.26a.42.42,0,1,1,0-.83.42.42,0,0,1,0,.83ZM40.63,25a.41.41,0,0,1,.41.41.42.42,0,1,1-.83,0A.41.41,0,0,1,40.63,25Zm-.83-.72a.42.42,0,1,1-.42.42A.42.42,0,0,1,39.8,24.26Zm-.39,1.42a.42.42,0,1,1-.42.41A.41.41,0,0,1,39.41,25.68Zm-.77-2a.42.42,0,1,1,0,.83.42.42,0,0,1,0-.83Zm0,1.14a.41.41,0,0,1,.42.41.42.42,0,0,1-.42.42.41.41,0,0,1-.41-.42A.41.41,0,0,1,38.64,24.82Zm-.23,1.44a.41.41,0,0,1,.42.41.42.42,0,1,1-.84,0A.41.41,0,0,1,38.41,26.26Zm-.9-4.82a.42.42,0,1,1-.42.42A.41.41,0,0,1,37.51,21.44Zm0,1.14a.41.41,0,0,1,.41.41.42.42,0,1,1-.83,0A.41.41,0,0,1,37.51,22.58Zm0,1.68a.42.42,0,1,1-.42.42A.41.41,0,0,1,37.51,24.26Zm0,1.14a.42.42,0,1,1-.42.42A.41.41,0,0,1,37.51,25.4ZM37.19,27a.42.42,0,1,1-.42.42A.42.42,0,0,1,37.19,27Zm-.82-6.13a.42.42,0,1,1-.42.42A.42.42,0,0,1,36.37,20.83Zm0,1.18a.41.41,0,0,1,.42.41.42.42,0,0,1-.84,0A.41.41,0,0,1,36.37,22Zm0,1.4a.42.42,0,1,1-.42.42A.42.42,0,0,1,36.37,23.41Zm0,1.42a.42.42,0,1,1-.42.42A.42.42,0,0,1,36.37,24.83Zm0,1.41a.42.42,0,1,1-.42.41A.41.41,0,0,1,36.37,26.24Zm-.18,1.29a.42.42,0,1,1-.42.42A.42.42,0,0,1,36.19,27.53Zm-.94-1a.42.42,0,0,1-.42-.42.42.42,0,0,1,.84,0A.42.42,0,0,1,35.25,26.52Zm0-6.26a.42.42,0,1,1-.42.42A.42.42,0,0,1,35.23,20.26Zm0,1.14a.42.42,0,1,1-.42.42A.42.42,0,0,1,35.23,21.4Zm0,1.42a.42.42,0,1,1-.42.42A.42.42,0,0,1,35.23,22.82Zm0,1.43a.41.41,0,0,1,.42.41.42.42,0,0,1-.84,0A.41.41,0,0,1,35.23,24.25Zm-.25,4a.42.42,0,0,1,0,.83.42.42,0,1,1,0-.83Zm-.87-1.13a.42.42,0,1,1,.42-.42A.42.42,0,0,1,34.11,27.11Zm0-7.41a.41.41,0,0,1,.42.41.42.42,0,0,1-.84,0A.41.41,0,0,1,34.09,19.7Zm0,1.13a.42.42,0,1,1-.42.42A.42.42,0,0,1,34.09,20.83Zm0,1.14a.42.42,0,1,1-.42.42A.42.42,0,0,1,34.09,22Zm0,1.44a.42.42,0,1,1-.42.42A.42.42,0,0,1,34.09,23.41Zm0,1.42a.42.42,0,1,1-.42.42A.42.42,0,0,1,34.09,24.83Zm-.11,4a.41.41,0,0,1,.41.41.42.42,0,1,1-.83,0A.41.41,0,0,1,34,28.82Zm-.17,1.4a.42.42,0,0,1,.42.42.42.42,0,0,1-.84,0A.42.42,0,0,1,33.81,30.22ZM33,27.68a.42.42,0,1,1,.42-.42A.42.42,0,0,1,33,27.68Zm0-8.55a.41.41,0,0,1,.42.41A.42.42,0,0,1,33,20a.41.41,0,0,1-.41-.42A.41.41,0,0,1,33,19.13Zm0,1.13a.42.42,0,0,1,0,.84.42.42,0,0,1,0-.84Zm0,1.14a.42.42,0,0,1,0,.84.42.42,0,0,1,0-.84Zm0,1.16a.42.42,0,1,1,0,.83.42.42,0,0,1,0-.83ZM33,24a.42.42,0,0,1,0,.84A.42.42,0,0,1,33,24Zm0,1.4a.42.42,0,0,1,0,.84.42.42,0,0,1,0-.84Zm-.19,4.14a.42.42,0,1,1-.42.41A.41.41,0,0,1,32.76,29.52Zm-.92,2.67a.42.42,0,1,1,.42-.42A.42.42,0,0,1,31.84,32.19Zm-.08,5.25a.41.41,0,0,1-.41-.42.42.42,0,0,1,.83,0A.42.42,0,0,1,31.76,37.44Zm.35.85a.42.42,0,1,1-.42-.42A.42.42,0,0,1,32.11,38.29Zm0-5a.41.41,0,0,1-.41.21.55.55,0,0,1-.17,0,.42.42,0,0,1-.15-.57.43.43,0,0,1,.42-.21.49.49,0,0,1,.16.05A.41.41,0,0,1,32.13,33.27Zm-.31-14.71a.42.42,0,0,1,0,.83.42.42,0,1,1,0-.83Zm0,1.14a.41.41,0,0,1,.41.41.41.41,0,0,1-.41.42.42.42,0,0,1-.42-.42A.41.41,0,0,1,31.82,19.7Zm0,1.13a.42.42,0,0,1,0,.84.42.42,0,0,1,0-.84Zm0,1.14a.42.42,0,0,1,0,.84.42.42,0,0,1,0-.84Zm0,1.14a.41.41,0,0,1,.41.42.41.41,0,0,1-.41.41.41.41,0,0,1-.42-.41A.42.42,0,0,1,31.82,23.11Zm0,1.14a.41.41,0,0,1,.41.41.41.41,0,0,1-.41.42.42.42,0,0,1-.42-.42A.41.41,0,0,1,31.82,24.25Zm0,1.13a.42.42,0,0,1,0,.84.42.42,0,0,1,0-.84Zm0,1.14a.42.42,0,0,1,0,.84.42.42,0,0,1,0-.84Zm0,1.14a.41.41,0,0,1,.41.42.41.41,0,0,1-.41.41.41.41,0,0,1-.42-.41A.42.42,0,0,1,31.82,27.66Zm0,1.14a.42.42,0,0,1,0,.83.42.42,0,1,1,0-.83Zm-.06,1.29a.42.42,0,1,1-.42.42A.42.42,0,0,1,31.76,30.09Zm-.07,3.83a.42.42,0,1,1-.41.41A.41.41,0,0,1,31.69,33.92Zm-.06,1.28a.41.41,0,0,1,.42.41.42.42,0,1,1-.83,0A.41.41,0,0,1,31.63,35.2Zm-.5-1.43a.42.42,0,1,1-.42-.42A.41.41,0,0,1,31.13,33.77Zm-.49,5.65a.42.42,0,1,1,.42-.42A.42.42,0,0,1,30.64,39.42Zm.37.85a.42.42,0,1,1-.42-.42A.41.41,0,0,1,31,40.27Zm-.31-2.13a.41.41,0,0,1-.41-.42.41.41,0,0,1,.41-.41.41.41,0,0,1,.42.41A.42.42,0,0,1,30.7,38.14Zm-.05-2.68a.42.42,0,1,1,.42-.42A.42.42,0,0,1,30.65,35.46Zm-.47-3.31a.43.43,0,0,1,.42-.2.3.3,0,0,1,.16.05.43.43,0,0,1,.16.57.44.44,0,0,1-.42.21.52.52,0,0,1-.16-.06A.42.42,0,0,1,30.18,32.15Zm.5-13a.42.42,0,1,1-.42.42A.42.42,0,0,1,30.68,19.14Zm0,1.14a.42.42,0,1,1-.42.42A.42.42,0,0,1,30.68,20.28Zm0,1.14a.42.42,0,0,1,.42.42.42.42,0,0,1-.84,0A.42.42,0,0,1,30.68,21.42Zm0,1.14a.42.42,0,1,1-.42.42A.42.42,0,0,1,30.68,22.56Zm0,1.13a.42.42,0,1,1-.42.42A.42.42,0,0,1,30.68,23.69Zm0,1.14a.42.42,0,1,1-.42.42A.42.42,0,0,1,30.68,24.83Zm0,1.14a.42.42,0,1,1-.42.42A.42.42,0,0,1,30.68,26Zm0,1.14a.42.42,0,0,1,.42.42.42.42,0,0,1-.84,0A.42.42,0,0,1,30.68,27.11Zm0,1.14a.41.41,0,0,1,.42.41.42.42,0,0,1-.84,0A.41.41,0,0,1,30.68,28.25Zm0,1.13a.42.42,0,1,1-.42.42A.42.42,0,0,1,30.68,29.38Zm-1.14-10.8A.41.41,0,0,1,30,19a.42.42,0,0,1-.84,0A.41.41,0,0,1,29.54,18.58Zm0,1.4a.42.42,0,1,1-.42.42A.42.42,0,0,1,29.54,20Zm0,1.16a.41.41,0,0,1,.42.41.42.42,0,0,1-.84,0A.41.41,0,0,1,29.54,21.14Zm0,1.4a.42.42,0,1,1-.42.42A.42.42,0,0,1,29.54,22.54ZM30,24.12a.41.41,0,0,1-.41.42.42.42,0,0,1,0-.84A.41.41,0,0,1,30,24.12Zm-.42,1a.42.42,0,1,1-.42.42A.42.42,0,0,1,29.54,25.1Zm0,1.16a.41.41,0,0,1,.42.41.42.42,0,0,1-.84,0A.41.41,0,0,1,29.54,26.26Zm0,1.4a.42.42,0,0,1,.42.42.42.42,0,0,1-.84,0A.42.42,0,0,1,29.54,27.66Zm0,1.16a.41.41,0,0,1,.42.41.42.42,0,0,1-.84,0A.41.41,0,0,1,29.54,28.82Zm0,1.4a.42.42,0,0,1,.42.42.42.42,0,0,1-.84,0A.42.42,0,0,1,29.54,30.22Zm-1.08-6a.41.41,0,0,1,.42.41.42.42,0,0,1-.84,0A.41.41,0,0,1,28.46,24.17Zm-.37-.85a.42.42,0,1,1,.42.42A.42.42,0,0,1,28.09,23.32Zm.31,2.12a.42.42,0,0,1,0,.84.42.42,0,1,1,0-.84Zm.05,2.68a.42.42,0,1,1-.42.42A.42.42,0,0,1,28.45,28.12Zm.51,3.1a.42.42,0,1,1-.42-.42A.42.42,0,0,1,29,31.22Zm-.41-3.54a.42.42,0,1,1,.42-.42A.42.42,0,0,1,28.55,27.68Zm0-8.74a.42.42,0,0,1,0,.84.42.42,0,1,1,0-.84Zm-.1,1.28a.42.42,0,1,1-.42.42A.41.41,0,0,1,28.42,20.22Zm-1-.57a.42.42,0,1,1-.42.42A.42.42,0,0,1,27.43,19.65Zm-.06,1.28a.42.42,0,1,1-.42.42A.42.42,0,0,1,27.37,20.93Zm-.08,1.27a.42.42,0,0,1,.42.42.41.41,0,0,1-.42.41.41.41,0,0,1-.41-.41A.41.41,0,0,1,27.29,22.2Zm.12,3.51a.42.42,0,0,1-.42-.42.42.42,0,0,1,.84,0A.42.42,0,0,1,27.41,25.71Zm.34.85a.42.42,0,1,1-.41-.42A.41.41,0,0,1,27.75,26.56Zm-.42,3.54a.42.42,0,1,1-.42.42A.42.42,0,0,1,27.33,30.1Zm-.43-2.7a.42.42,0,1,1-.84,0,.42.42,0,0,1,.84,0Zm-2.59,6.53a.41.41,0,0,1-.42-.41.42.42,0,1,1,.83,0A.41.41,0,0,1,24.31,33.93ZM25,35.34a.42.42,0,0,1,.42.42.42.42,0,0,1-.84,0A.42.42,0,0,1,25,35.34Zm-1.67-.84a.42.42,0,1,1,.42-.41A.41.41,0,0,1,23.32,34.5Zm.53,1.43a.41.41,0,0,1,.42.41.42.42,0,1,1-.84,0A.41.41,0,0,1,23.85,35.93Zm-4.72-3.79a.42.42,0,1,1-.41.42A.42.42,0,0,1,19.13,32.14Zm-.79-4a.41.41,0,0,1-.42-.41.42.42,0,0,1,.42-.42.41.41,0,0,1,.41.42A.41.41,0,0,1,18.34,28.18Zm.9,1.27a.42.42,0,0,1,0,.84.42.42,0,0,1,0-.84Zm-.24-1a.41.41,0,0,1,.41-.42.42.42,0,0,1,0,.84A.41.41,0,0,1,19,28.46Zm.3,3.11a.42.42,0,1,1,.42-.42A.41.41,0,0,1,19.3,31.57Zm.49,1.68a.42.42,0,0,1,.84,0,.42.42,0,0,1-.84,0Zm0,3.11a.42.42,0,1,1-.42-.42A.42.42,0,0,1,19.8,36.36Zm.47-2.25a.42.42,0,1,1-.42.42A.42.42,0,0,1,20.27,34.11Zm.09,1.26a.42.42,0,0,1,0,.84.42.42,0,0,1,0-.84Zm0-3.11a.42.42,0,1,1,.42-.42A.42.42,0,0,1,20.38,32.26Zm0-4.79a.42.42,0,1,1-.42.42A.42.42,0,0,1,20.4,27.47Zm-.14-.79a.42.42,0,1,1,.42.42A.42.42,0,0,1,20.26,26.68Zm.63,2.48a.42.42,0,1,1-.41-.42A.41.41,0,0,1,20.89,29.16Zm-.35,1.7a.42.42,0,0,1,0-.84.42.42,0,0,1,0,.84Zm.72,2.69a.41.41,0,0,1,.42.41.42.42,0,0,1-.84,0A.41.41,0,0,1,21.26,33.55Zm.18-.59a.42.42,0,0,1,0-.84.42.42,0,0,1,0,.84Zm3-5a.42.42,0,0,1-.42-.42.42.42,0,0,1,.84,0A.42.42,0,0,1,24.45,28Zm.66.86a.42.42,0,1,1-.42.42A.42.42,0,0,1,25.11,28.82Zm-1-.57a.41.41,0,0,1,.42.41.42.42,0,0,1-.84,0A.41.41,0,0,1,24.11,28.25Zm.14,1.58a.41.41,0,0,1-.41.41.41.41,0,0,1-.42-.41.42.42,0,0,1,.42-.42A.41.41,0,0,1,24.25,29.83Zm-.79-3.27a.42.42,0,1,1,0,.83.42.42,0,0,1,0-.83Zm-.35-.86a.42.42,0,1,1,.83,0,.42.42,0,0,1-.83,0Zm.2,2.26a.42.42,0,1,1-.42-.42A.42.42,0,0,1,23.31,28Zm-.46,2a.42.42,0,1,1-.42.41A.41.41,0,0,1,22.85,30Zm-.51-.85a.42.42,0,0,1,.84,0,.42.42,0,0,1-.84,0Zm.14-2.31a.41.41,0,0,1-.42-.41.42.42,0,1,1,.84,0A.41.41,0,0,1,22.48,26.82Zm-.17.56a.42.42,0,0,1-.42.42.42.42,0,0,1,0-.84A.42.42,0,0,1,22.31,27.38Zm-.12,2.32a.42.42,0,1,1-.83,0,.42.42,0,0,1,.83,0ZM21.69,28a.42.42,0,0,1,.42.42.42.42,0,0,1-.84,0A.42.42,0,0,1,21.69,28Zm-.08,2.67a.42.42,0,1,1,0,.84.42.42,0,0,1,0-.84ZM22.24,33a.41.41,0,0,1,.42.41.42.42,0,0,1-.42.42.41.41,0,0,1-.41-.42A.41.41,0,0,1,22.24,33Zm.09,1.26a.42.42,0,1,1,0,.83.42.42,0,0,1,0-.83Zm.33-2a.42.42,0,1,1,.42-.42A.42.42,0,0,1,22.66,32.26Zm.57.15a.42.42,0,1,1-.42.41A.41.41,0,0,1,23.23,32.41Zm.27-1.31a.41.41,0,0,1,.41-.42.42.42,0,1,1,0,.83A.41.41,0,0,1,23.5,31.1Zm.71.74a.42.42,0,0,1,.42.42.41.41,0,0,1-.42.41.41.41,0,0,1-.41-.41A.41.41,0,0,1,24.21,31.84Zm.5-1.45a.42.42,0,0,1,.84,0,.42.42,0,1,1-.84,0Zm.49.88a.42.42,0,1,1-.42.42A.42.42,0,0,1,25.2,31.27Zm.23-2.74a.41.41,0,0,1-.41-.42.41.41,0,0,1,.41-.41.41.41,0,0,1,.42.41A.42.42,0,0,1,25.43,28.53Zm.75,2.17a.42.42,0,1,1-.41.42A.42.42,0,0,1,26.18,30.7Zm-.05,3.8a.42.42,0,1,1-.42.42A.42.42,0,0,1,26.13,34.5ZM26.28,32a.42.42,0,1,1-.42.42A.41.41,0,0,1,26.28,32Zm0-1.6a.42.42,0,1,1,.42-.42A.42.42,0,0,1,26.33,30.36Zm.09-1.26a.42.42,0,1,1,.42-.42A.42.42,0,0,1,26.42,29.1Zm-.36-3.67a.42.42,0,0,1,0,.84.42.42,0,0,1,0-.84Zm-.32-.84a.42.42,0,1,1,.42.42A.42.42,0,0,1,25.74,24.59Zm.89-1.28a.41.41,0,0,1-.41.42.42.42,0,1,1,0-.84A.41.41,0,0,1,26.63,23.31Zm-.15-1.4a.42.42,0,0,1-.84,0,.42.42,0,1,1,.84,0Zm-.57-1.82a.41.41,0,0,1,.41.41.41.41,0,0,1-.41.42.42.42,0,0,1-.42-.42A.41.41,0,0,1,25.91,20.09Zm0,6.74a.42.42,0,1,1-.83,0,.42.42,0,0,1,.83,0ZM25,23a.42.42,0,1,1,.42-.42A.41.41,0,0,1,25,23Zm.36.86a.41.41,0,0,1-.42.41.41.41,0,0,1-.41-.41.41.41,0,0,1,.41-.42A.42.42,0,0,1,25.34,23.88Zm-.42-4.36a.42.42,0,1,1-.42.41A.41.41,0,0,1,24.92,19.52Zm-.07,1.27a.41.41,0,0,1,.41.41.42.42,0,1,1-.83,0A.41.41,0,0,1,24.85,20.79Zm0,3.94a.42.42,0,0,1,.42.42.42.42,0,0,1-.84,0A.42.42,0,0,1,24.85,24.73Zm-.34,1.12a.42.42,0,1,1-.42.42A.42.42,0,0,1,24.51,25.85Zm-.68-5.65a.42.42,0,0,1,.42.42.42.42,0,0,1-.84,0A.42.42,0,0,1,23.83,20.2Zm-.08,1.27a.42.42,0,0,1,0,.84.42.42,0,0,1,0-.84Zm-.07,1.27a.41.41,0,0,1,.41.42.41.41,0,0,1-.41.41.41.41,0,0,1-.42-.41A.42.42,0,0,1,23.68,22.74ZM23.62,24a.41.41,0,0,1,.41.42.41.41,0,0,1-.41.41.41.41,0,0,1-.42-.41A.42.42,0,0,1,23.62,24Zm-.85-3.12a.42.42,0,1,1-.42.42A.42.42,0,0,1,22.77,20.9Zm-.08,1.27a.42.42,0,1,1-.42.42A.42.42,0,0,1,22.69,22.17Zm-.08,1.27a.42.42,0,1,1-.41.42A.42.42,0,0,1,22.61,23.44Zm-.07,1.27a.42.42,0,0,1,.42.42.42.42,0,0,1-.84,0A.42.42,0,0,1,22.54,24.71Zm-.83-3.11a.42.42,0,0,1,0,.84.42.42,0,0,1,0-.84Zm-.08,1.27a.42.42,0,1,1-.42.42A.42.42,0,0,1,21.63,22.87Zm-.08,1.27a.42.42,0,0,1,0,.84.42.42,0,0,1,0-.84Zm-.06,1.28a.42.42,0,1,1-.42.42A.42.42,0,0,1,21.49,25.42Zm-.85-3.12a.42.42,0,1,1-.41.42A.42.42,0,0,1,20.64,22.3Zm-.07,1.27a.42.42,0,1,1-.42.42A.42.42,0,0,1,20.57,23.57Zm-.06,1.28a.42.42,0,1,1-.42.42A.42.42,0,0,1,20.51,24.85Zm-.42,1.25a.41.41,0,0,1-.41.42.42.42,0,0,1,0-.84A.41.41,0,0,1,20.09,26.1Zm-.57-1.82a.42.42,0,1,1-.42.42A.42.42,0,0,1,19.52,24.28Zm-.2,2.5a.42.42,0,1,1-.42.42A.42.42,0,0,1,19.32,26.78ZM18.46,25a.42.42,0,1,1-.42.42A.42.42,0,0,1,18.46,25Zm-.19,1.07a.42.42,0,0,1,0,.84.42.42,0,1,1,0-.84ZM17,29.45a.42.42,0,0,1,0,.84.42.42,0,0,1,0-.84Zm0,1.29a.42.42,0,1,1-.42.42A.42.42,0,0,1,17,30.74ZM17.09,32a.42.42,0,1,1-.42.42A.42.42,0,0,1,17.09,32Zm.07,2.11a.42.42,0,0,1,0-.84.42.42,0,1,1,0,.84Zm.37-4.82a.42.42,0,1,1,.42.42A.42.42,0,0,1,17.53,29.3Zm.08,1.27a.42.42,0,0,1,.84,0,.42.42,0,1,1-.84,0Zm.05,1.29a.41.41,0,0,1,.41-.42.42.42,0,1,1,0,.84A.41.41,0,0,1,17.66,31.86Zm.07,1.27a.42.42,0,1,1,.42.42A.42.42,0,0,1,17.73,33.13Zm.08,1.27a.42.42,0,1,1,.42.42A.42.42,0,0,1,17.81,34.4Zm.49.85a.42.42,0,1,1-.42.42A.42.42,0,0,1,18.3,35.25Zm.09,2.1a.42.42,0,0,1,0-.84.42.42,0,0,1,0,.84Zm.4-3.52a.42.42,0,1,1,.42.42A.42.42,0,0,1,18.79,33.83Zm.08,1.27a.42.42,0,0,1,.42-.42.42.42,0,0,1,0,.84A.42.42,0,0,1,18.87,35.1Zm.43,4.22a.42.42,0,0,1-.42-.42.42.42,0,0,1,.84,0A.42.42,0,0,1,19.3,39.32Zm.39-1.41a.42.42,0,1,1,.42-.42A.42.42,0,0,1,19.69,37.91Zm.77,2a.42.42,0,0,1,0-.84.42.42,0,0,1,0,.84Zm0-1.14a.42.42,0,0,1,0-.84.42.42,0,0,1,0,.84Zm.23-1.44a.42.42,0,1,1,.42-.42A.42.42,0,0,1,20.69,37.33Zm.24-2.11a.42.42,0,0,1,.84,0,.42.42,0,0,1-.84,0ZM21.59,41a.42.42,0,1,1,.42-.42A.41.41,0,0,1,21.59,41Zm0-1.69a.41.41,0,0,1-.41-.42.42.42,0,0,1,.83,0A.42.42,0,0,1,21.59,39.32Zm0-1.14a.41.41,0,0,1-.41-.41.42.42,0,1,1,.83,0A.41.41,0,0,1,21.59,38.18Zm.32-1.55a.42.42,0,0,1,0-.84.42.42,0,0,1,0,.84Zm.82,6.12a.42.42,0,1,1,.42-.42A.42.42,0,0,1,22.73,42.75Zm0-1.17a.42.42,0,1,1,.42-.42A.42.42,0,0,1,22.73,41.58Zm0-1.41a.41.41,0,0,1-.42-.41.42.42,0,0,1,.84,0A.41.41,0,0,1,22.73,40.17Zm0-1.42a.42.42,0,1,1,.42-.42A.42.42,0,0,1,22.73,38.75Zm0-1.4a.42.42,0,1,1,.42-.42A.42.42,0,0,1,22.73,37.35Zm.18-1.3a.42.42,0,1,1,.42-.42A.42.42,0,0,1,22.91,36.05Zm.94,1a.42.42,0,1,1-.42.42A.42.42,0,0,1,23.85,37.06Zm0,6.26a.42.42,0,0,1-.42-.42.42.42,0,0,1,.84,0A.42.42,0,0,1,23.87,43.32Zm0-1.14a.41.41,0,0,1-.42-.41.42.42,0,0,1,.84,0A.41.41,0,0,1,23.87,42.18Zm0-1.42a.42.42,0,0,1-.42-.42.42.42,0,0,1,.84,0A.42.42,0,0,1,23.87,40.76Zm0-1.42a.42.42,0,1,1,.42-.42A.42.42,0,0,1,23.87,39.34Zm.25-4a.42.42,0,0,1,0-.84.42.42,0,0,1,0,.84ZM25,36.48a.42.42,0,1,1-.42.41A.41.41,0,0,1,25,36.48Zm0,7.41a.42.42,0,1,1,.42-.42A.42.42,0,0,1,25,43.89Zm0-1.14a.42.42,0,1,1,.42-.42A.42.42,0,0,1,25,42.75Zm0-1.14a.41.41,0,0,1-.42-.41.42.42,0,0,1,.84,0A.41.41,0,0,1,25,41.61Zm0-1.44a.41.41,0,0,1-.42-.41.42.42,0,0,1,.84,0A.41.41,0,0,1,25,40.17Zm0-1.42a.42.42,0,1,1,.42-.42A.42.42,0,0,1,25,38.75Zm.12-4a.42.42,0,1,1,.41-.42A.42.42,0,0,1,25.13,34.77Zm.16-1.4a.42.42,0,1,1,.42-.42A.42.42,0,0,1,25.29,33.37Zm.42,3a.42.42,0,1,1,.84,0,.42.42,0,0,1-.84,0Zm.44,7a.42.42,0,0,1-.42-.42.42.42,0,0,1,.83,0A.41.41,0,0,1,26.15,43.32Zm0-1.14a.41.41,0,0,1-.42-.41.42.42,0,1,1,.83,0A.41.41,0,0,1,26.15,42.18Zm0-1.15a.42.42,0,1,1,.41-.42A.42.42,0,0,1,26.15,41Zm0-1.42a.42.42,0,1,1,.41-.42A.42.42,0,0,1,26.15,39.61Zm0-1.41a.42.42,0,0,1-.42-.42.42.42,0,0,1,.83,0A.41.41,0,0,1,26.15,38.2Zm.19-4.13a.42.42,0,1,1,.42-.42A.42.42,0,0,1,26.34,34.07Zm.5-2.26a.42.42,0,1,1,.42.42A.42.42,0,0,1,26.84,31.81Zm.44,12.08a.42.42,0,0,1,0-.84.42.42,0,1,1,0,.84Zm0-1.14a.42.42,0,0,1,0-.83.42.42,0,1,1,0,.83Zm0-1.14a.41.41,0,0,1-.41-.41.41.41,0,0,1,.41-.42.42.42,0,0,1,.42.42A.41.41,0,0,1,27.28,41.61Zm0-1.13a.42.42,0,0,1,0-.84.42.42,0,1,1,0,.84Zm0-1.14a.42.42,0,0,1,0-.84.42.42,0,1,1,0,.84Zm0-1.14a.41.41,0,0,1-.41-.42.41.41,0,0,1,.41-.41.41.41,0,0,1,.42.41A.42.42,0,0,1,27.28,38.2Zm0-1.14a.42.42,0,0,1,0-.83.42.42,0,1,1,0,.83Zm0-1.13a.42.42,0,0,1,0-.84.42.42,0,1,1,0,.84Zm0-1.14a.42.42,0,0,1,0-.84.42.42,0,1,1,0,.84Zm.06-1.3a.42.42,0,0,1-.42-.42.42.42,0,0,1,.84,0A.42.42,0,0,1,27.34,33.49Zm.06-3.82a.42.42,0,1,1,.42-.42A.41.41,0,0,1,27.4,29.67Zm.07-1.28a.42.42,0,1,1,.41-.42A.42.42,0,0,1,27.47,28.39Zm0-4a.42.42,0,0,1-.42-.42.42.42,0,0,1,.84,0A.42.42,0,0,1,27.47,24.43Zm.88-2.93a.42.42,0,0,1,.42.42.42.42,0,0,1-.83,0A.41.41,0,0,1,28.35,21.5Zm0,7.9a.42.42,0,1,1-.42.42A.42.42,0,0,1,28.39,29.4Zm0,15A.42.42,0,0,1,28,44a.42.42,0,0,1,.84,0A.42.42,0,0,1,28.42,44.44Zm0-1.14a.42.42,0,1,1,.42-.41A.41.41,0,0,1,28.42,43.3Zm0-1.13a.42.42,0,1,1,.42-.42A.42.42,0,0,1,28.42,42.17Zm0-1.14a.42.42,0,1,1,.42-.42A.42.42,0,0,1,28.42,41Zm0-1.14a.42.42,0,1,1,.42-.42A.42.42,0,0,1,28.42,39.89Zm0-1.14a.42.42,0,1,1,.42-.42A.42.42,0,0,1,28.42,38.75Zm0-1.14A.41.41,0,0,1,28,37.2a.42.42,0,0,1,.84,0A.41.41,0,0,1,28.42,37.61Zm0-1.13a.42.42,0,1,1,.42-.42A.42.42,0,0,1,28.42,36.48Zm0-1.14a.42.42,0,1,1,.42-.42A.42.42,0,0,1,28.42,35.34Zm0-1.14a.42.42,0,0,1-.42-.42.42.42,0,0,1,.84,0A.42.42,0,0,1,28.42,34.2Zm.14-1.41a.42.42,0,1,1,.42-.42A.42.42,0,0,1,28.56,32.79Zm.56-1a.42.42,0,1,1,.42.42A.42.42,0,0,1,29.12,31.79Zm.44,11.82a.42.42,0,1,1,.42-.42A.42.42,0,0,1,29.56,43.61Zm0-1.16A.42.42,0,1,1,30,42,.42.42,0,0,1,29.56,42.45Zm0-1.4a.42.42,0,1,1,.42-.42A.42.42,0,0,1,29.56,41.05Zm0-1.16a.42.42,0,1,1,.42-.42A.42.42,0,0,1,29.56,39.89Zm0-1.4a.42.42,0,1,1,.42-.42A.42.42,0,0,1,29.56,38.49Zm0-1.16a.42.42,0,1,1,.42-.42A.42.42,0,0,1,29.56,37.33Zm0-1.4a.42.42,0,1,1,.42-.42A.42.42,0,0,1,29.56,35.93Zm0-1.16a.42.42,0,1,1,.42-.42A.42.42,0,0,1,29.56,34.77Zm0-1.4A.42.42,0,1,1,30,33,.42.42,0,0,1,29.56,33.37Zm1-2.57a.42.42,0,1,1-.42.42A.42.42,0,0,1,30.54,30.8Zm0,5.1a.42.42,0,1,1-.42.42A.42.42,0,0,1,30.55,35.9Zm0,8.74a.41.41,0,0,1-.41-.42.41.41,0,0,1,.41-.41.41.41,0,0,1,.42.41A.42.42,0,0,1,30.58,44.64Zm.1-1.28a.41.41,0,0,1-.41-.41.42.42,0,1,1,.83,0A.41.41,0,0,1,30.68,43.36Zm.07-1.27a.42.42,0,1,1,.41-.42A.42.42,0,0,1,30.75,42.09Zm.88-2.94a.42.42,0,1,1-.42.42A.42.42,0,0,1,31.63,39.15Zm0,4.78a.41.41,0,0,1-.42-.41.42.42,0,1,1,.84,0A.41.41,0,0,1,31.67,43.93Zm.06-1.27a.42.42,0,1,1,.42-.42A.42.42,0,0,1,31.73,42.66Zm.08-1.27a.42.42,0,0,1,0-.84.42.42,0,0,1,0,.84Zm.39-5.21a.42.42,0,1,1,.42.42A.42.42,0,0,1,32.2,36.18Zm.27,4.1a.41.41,0,0,1,.41-.42.42.42,0,0,1,.42.42.41.41,0,0,1-.42.41A.41.41,0,0,1,32.47,40.28Zm.15,1.4a.42.42,0,1,1,.42.42A.42.42,0,0,1,32.62,41.68Zm.57,1.82a.42.42,0,0,1,0-.84.42.42,0,0,1,0,.84Zm.92-2.93a.42.42,0,0,1,.42.42.42.42,0,0,1-.83,0A.41.41,0,0,1,34.11,40.57Zm-.35-.86a.42.42,0,0,1,.42-.42.42.42,0,0,1,0,.84A.42.42,0,0,1,33.76,39.71Zm.42,4.36a.42.42,0,1,1,.42-.42A.42.42,0,0,1,34.18,44.07Zm.07-1.27a.42.42,0,1,1,.42-.42A.41.41,0,0,1,34.25,42.8Zm0-3.94a.42.42,0,1,1,.42-.42A.42.42,0,0,1,34.25,38.86Zm1,4.53a.42.42,0,1,1,.42-.42A.42.42,0,0,1,35.27,43.39Zm.08-1.27a.42.42,0,0,1,0-.84.42.42,0,0,1,0,.84Zm.07-1.27a.42.42,0,0,1,0-.84.42.42,0,0,1,0,.84Zm.06-1.28a.42.42,0,0,1,0-.84.42.42,0,0,1,0,.84Zm.85,3.11a.41.41,0,0,1-.42-.41.42.42,0,1,1,.84,0A.41.41,0,0,1,36.33,42.68Zm.08-1.27A.41.41,0,0,1,36,41a.42.42,0,1,1,.84,0A.41.41,0,0,1,36.41,41.41Zm.07-1.26a.42.42,0,1,1,.42-.42A.41.41,0,0,1,36.48,40.15Zm.08-1.27a.42.42,0,1,1,.42-.42A.42.42,0,0,1,36.56,38.88Zm.83,3.1a.42.42,0,0,1,0-.83.42.42,0,1,1,0,.83Zm.08-1.27a.41.41,0,0,1-.42-.41.42.42,0,0,1,.84,0A.41.41,0,0,1,37.47,40.71Zm.08-1.27a.41.41,0,0,1-.42-.41.42.42,0,0,1,.42-.42A.41.41,0,0,1,38,39,.41.41,0,0,1,37.55,39.44Zm.06-1.27a.42.42,0,0,1,0-.84.42.42,0,0,1,0,.84Zm.85,3.11a.42.42,0,1,1,0-.83.42.42,0,0,1,0,.83ZM38.53,40A.42.42,0,1,1,39,39.6.41.41,0,0,1,38.53,40Zm.06-1.28a.41.41,0,0,1-.42-.41.42.42,0,1,1,.84,0A.41.41,0,0,1,38.59,38.73Zm.46-1.46a.42.42,0,0,1,.42-.2.33.33,0,0,1,.16,0,.42.42,0,0,1-.26.78.58.58,0,0,1-.17-.06A.42.42,0,0,1,39.05,37.27Zm.53,2a.41.41,0,0,1-.42-.41.42.42,0,0,1,.84,0A.41.41,0,0,1,39.58,39.3Zm.2-2.49a.42.42,0,1,1,.42-.42A.42.42,0,0,1,39.78,36.81ZM41,38.39a.42.42,0,0,1-.41.21.48.48,0,0,1-.17-.05.42.42,0,0,1,.26-.78.48.48,0,0,1,.17,0A.41.41,0,0,1,41,38.39Zm-.17-.86a.42.42,0,0,1-.42-.42.42.42,0,0,1,.84,0A.42.42,0,0,1,40.83,37.53Zm.32-2.83a.42.42,0,1,1,.42-.42A.42.42,0,0,1,41.15,34.7Zm.44-3.54a.42.42,0,1,1,.84,0,.42.42,0,0,1-.84,0Zm.08,1.27a.42.42,0,1,1,.84,0,.42.42,0,0,1-.84,0Zm.46,1.7a.41.41,0,0,1-.41-.42.41.41,0,0,1,.41-.41.41.41,0,0,1,.42.41A.42.42,0,0,1,42.13,34.13Z" style="fill:#68370c"/><path d="M39.35,10.79a16.94,16.94,0,0,0-.9-4.15,17.42,17.42,0,0,0-3.88,3.05,19.53,19.53,0,0,1,1,5.65A14.71,14.71,0,0,1,39.35,10.79Z" style="fill:#ffd800"/><path d="M29.69,17.07a14.27,14.27,0,0,1,4.55.74A18.37,18.37,0,0,0,30.9,5.32c-1.36,1.42-5.06,5.95-4.14,12.05A14.93,14.93,0,0,1,29.69,17.07Z" style="fill:#fd0"/><path d="M47.64,28a15.54,15.54,0,0,0-3.7.48h0a14.67,14.67,0,0,1,.36,3.2,14.39,14.39,0,0,1-.4,3.37c2.14-.3,8.68-1.46,10.38-4.58A8.74,8.74,0,0,0,47.64,28Z" style="fill:#fd0"/><path d="M43.42,36.51A14.6,14.6,0,0,1,38.83,43a24.18,24.18,0,0,0,7.82,1.52,11.81,11.81,0,0,0,4.16-.69C50.6,42.73,49.46,39.58,43.42,36.51Z" style="fill:#ffd800"/><path d="M45.25,36.06a20.07,20.07,0,0,1,4.11,3,7,7,0,0,0,4.06-1.59,7.56,7.56,0,0,0-2.68-3A27.78,27.78,0,0,1,45.25,36.06Z" style="fill:#f6c400"/><path d="M47.14,26.7h.5a10.91,10.91,0,0,1,5.92,1.57,8.41,8.41,0,0,0,2.58-2.16,11.16,11.16,0,0,0-5.79-1.63A30.14,30.14,0,0,1,47.14,26.7Z" style="fill:#fd0"/><path d="M29.86,46.2a18.45,18.45,0,0,0,7,9.06c1.05-1.16,3.9-5.16.64-11.36A14.44,14.44,0,0,1,29.86,46.2Z" style="fill:#fd0"/><path d="M16.25,37.25c-1.87.77-7.18,3.55-6.5,10a14.36,14.36,0,0,0,9.93-5.08A14.76,14.76,0,0,1,16.25,37.25Z" style="fill:#f6c400"/><path d="M20.63,43c-.69.88-3.3,5.1,1.23,13.53,1.52-1.18,5.75-4.88,6.73-10.41A14.53,14.53,0,0,1,20.63,43Z" style="fill:#fd0"/><path d="M27.33,52.53a19.86,19.86,0,0,0,2.27,3.66,6.94,6.94,0,0,0,3.08-3,19.48,19.48,0,0,1-3.33-4.89A17.15,17.15,0,0,1,27.33,52.53Z" style="fill:#ffd800"/><path d="M39.2,44.44a12.79,12.79,0,0,1,1,3.78,14.45,14.45,0,0,0,6,1,7.18,7.18,0,0,0-.75-3.56A26.22,26.22,0,0,1,39.2,44.44Z" style="fill:#f6c400"/><path d="M18.31,45.23a16,16,0,0,1-4,2.3A23.56,23.56,0,0,0,14.8,53a21.17,21.17,0,0,0,3.62-1.81A13,13,0,0,1,18.31,45.23Z" style="fill:#ffd800"/></svg>