<svg xmlns="http://www.w3.org/2000/svg" viewBox="0 0 60 60"><title>Artichoke</title><path d="M54.57,37.18c-2.6,5.13-8.46,8.48-17.39,10v8.3a3.33,3.33,0,0,1-3.33,3.32h-8.2a3.33,3.33,0,0,1-3.33-3.32v-8.3c-8.93-1.51-14.78-4.86-17.38-10C1.49,30.4,4.81,22.6,6.4,19.56A1.91,1.91,0,0,1,6.88,19a2,2,0,0,1,2.25-.21L12.22,13a2,2,0,0,1,2.3-1l3.22-4.9a3,3,0,0,1,4.16-.92A3,3,0,0,1,23,7.36l.58,1.12,3.54-5a3,3,0,0,1,4.18-.78,3.14,3.14,0,0,1,.75.75l3.66,5,.58-1.13A3,3,0,0,1,41.51,7l3.37,5a2,2,0,0,1,2.45.91l3.17,5.77a1.76,1.76,0,0,1,.68-.18,2,2,0,0,1,1.92,1.07C54.69,22.6,58,30.39,54.57,37.18Z" style="fill:#05350f"/><path d="M23.45,12.51,19,18.83l.49.5c.58.58,1.15,1.17,1.71,1.76l.67.71c.71.76,1.4,1.54,2.08,2.33l.36.39c1.2-1.9,2.48-3.77,3.83-5.57Z" style="fill:#acf252"/><path d="M31.72,45.93h0a8.28,8.28,0,0,0,4.65-3.28,10.49,10.49,0,0,0,1.91-6.09c0-1.43-.73-4.25-4.18-9.55-1.4-2.13-2.91-4.21-4.5-6.21-1.46,2-2.85,4-4.12,6.11l0,.07h0c-2.52,4.2-3.85,7.51-3.85,9.57,0,4.68,2.91,8.66,6.93,9.45h0A7.35,7.35,0,0,0,31.72,45.93Z" style="fill:#acf252"/><path d="M43.39,13.75,39.67,8.26h0a.8.8,0,0,0-1.39.09v0l-1.1,2.15,4.57,6.35Z" style="fill:#acf252"/><path d="M19.37,36.55c0-2.37,1.26-5.74,3.76-10L23,26.38c-.76-.89-1.53-1.78-2.32-2.64l-.1-.11c-.81-.89-1.65-1.76-2.5-2.61l-.1-.1c0,.09-.08.19-.11.28l-.07.17c-.22.59-.44,1.17-.65,1.77l0,.1c-.45,1.27-.87,2.55-1.25,3.84h0c-1.13,3.92-1.57,7-1.29,9,0,.08,0,.17,0,.24h0a10.22,10.22,0,0,0,2,4.85,7.13,7.13,0,0,0,.53.58c.16.17.34.33.52.49l.05,0a13.73,13.73,0,0,0,4.65,2.44A12.6,12.6,0,0,1,19.37,36.55Z" style="fill:#acf252"/><path d="M44.91,36.36c.34-2-.1-5.19-1.27-9.25-.37-1.23-.76-2.46-1.19-3.69l0-.06c-.29-.82-.61-1.62-.92-2.42a1.89,1.89,0,0,0-.2.2c-.79.79-1.56,1.59-2.32,2.42l-.3.33c-.67.74-1.33,1.49-2,2.25l-.3.34c2.72,4.3,4.09,7.68,4.09,10.07a12.8,12.8,0,0,1-2.31,7.39c-.17.22-.33.44-.51.65h0a16.52,16.52,0,0,0,2.6-1.18h0a10.23,10.23,0,0,0,1-.65l.17-.12c.28-.22.55-.44.8-.68l.06-.06.27-.29.34-.38c.16-.2.31-.4.44-.6s.2-.32.3-.48a.64.64,0,0,1,.08-.14c.09-.18.18-.35.26-.53a.47.47,0,0,1,.05-.1q.12-.27.21-.54a.36.36,0,0,0,0-.09l.18-.55,0-.08c.06-.19.11-.37.15-.55v0c.1-.39.17-.78.24-1.15Z" style="fill:#acf252"/><path d="M43.12,19c.38.9,1.22,3,2.05,5.59l.34-.39,3.35-3.88-3.27-5.95Z" style="fill:#acf252"/><path d="M34.49,10.59,30.25,4.75v0a1,1,0,0,0-.21-.2.8.8,0,0,0-1.1.21v0L24.8,10.6l4.78,6.5Z" style="fill:#acf252"/><path d="M35.85,12.48,31,18.94c1.46,1.81,2.86,3.69,4.17,5.61l.25-.29c.74-.85,1.49-1.7,2.26-2.53l.33-.34c.68-.74,1.38-1.45,2.09-2.16l.36-.37Z" style="fill:#acf252"/><path d="M32.51,48l-.29.05a9.63,9.63,0,0,1-4.14.1l-.38,0-1-.14-.53-.08c-.56-.09-1.08-.19-1.59-.29v7.84a1.11,1.11,0,0,0,1.11,1.11h8.2A1.11,1.11,0,0,0,35,55.47V47.63l-.27,0C34,47.81,33.28,47.93,32.51,48Z" style="fill:#acf252"/><path d="M47.22,25.59l-1.29,1.48c.14.49.27,1,.39,1.48l0,.12c.1.43.2.85.29,1.27,0,.09,0,.18,0,.27.07.31.12.62.18.93,0,.14.05.27.07.41l.12.85c0,.12,0,.24,0,.35,0,.31.07.62.09.92,0,.09,0,.18,0,.27,0,.3,0,.6,0,.9v0c0,.32,0,.62,0,.92a.41.41,0,0,1,0,.11,7.42,7.42,0,0,1-.1.84c-.07.42-.16.84-.26,1.26,0,.14-.07.28-.11.42s-.06.22-.1.33-.11.38-.18.57l-.09.25c-.08.21-.16.42-.25.63a2,2,0,0,1-.1.21c-.1.22-.21.45-.33.67l-.09.17c-.14.23-.28.46-.44.69l-.08.13c-.18.24-.37.49-.57.73l-.06.07-.07.09c4-1.61,6.76-3.88,8.23-6.79,1-1.93,2.79-7.26-1.3-15.28Z" style="fill:#acf252"/><path d="M22.14,10.52,21,8.38v0A.89.89,0,0,0,20.72,8a.81.81,0,0,0-.61-.1.78.78,0,0,0-.5.35h0l-3.52,5.36,1.65,3.18Z" style="fill:#acf252"/><path d="M14.33,24.56c.81-2.54,1.65-4.63,2-5.55L14,14.39l-3.23,6,3.55,4.09Z" style="fill:#acf252"/><path d="M14.74,42.46c-.16-.2-.3-.4-.43-.6l-.12-.17a9.62,9.62,0,0,1-.68-1.26l-.06-.11c-.1-.24-.2-.48-.29-.72,0-.07-.05-.14-.08-.2l-.18-.56c0-.12-.07-.23-.1-.35s-.06-.2-.08-.3-.1-.39-.14-.59a1.06,1.06,0,0,1,0-.19c0-.22-.09-.45-.13-.67s-.07-.51-.1-.78a1.94,1.94,0,0,0,0-.24c0-.25,0-.5,0-.76v-.31c0-.2,0-.41,0-.63s0-.27,0-.41,0-.53.08-.8l.06-.5.09-.59c0-.23.07-.46.12-.71s.08-.46.13-.69.06-.33.1-.5c.07-.35.16-.71.24-1.07l.06-.24c.12-.48.25-1,.38-1.44l-.89-1L8.21,20.89c-4.09,8-2.28,13.36-1.3,15.29,1.48,2.9,4.23,5.17,8.23,6.78L15,42.72Z" style="fill:#acf252"/></svg>
