<svg xmlns="http://www.w3.org/2000/svg" viewBox="0 0 60 60"><title>Basil</title><path d="M57,17.34a18.3,18.3,0,0,1-8.51,10,16.26,16.26,0,0,1-6,1.72c2.78,1.53,5.51,3.64,6.91,6.43a22.55,22.55,0,0,1,2.09,10,32.15,32.15,0,0,1-.8,7.22,1.06,1.06,0,0,1-1,.79h-.15a28.21,28.21,0,0,1-6.92-2.15c-4.16-1.92-7.16-4.64-8.77-7.93a1,1,0,0,1-.75.32,1.09,1.09,0,0,1-.68-.24,15,15,0,0,1-1.13-1.12,22.68,22.68,0,0,1-9,4c-6.33,1-8.41,4.38-8.49,4.53a1.08,1.08,0,0,1-.9.53h0A1.06,1.06,0,0,1,12,51,19.81,19.81,0,0,1,9.77,44,20.46,20.46,0,0,1,14,28.65a19,19,0,0,1,1.52-1.77c-.51-.66-1-1.31-1.42-1.92a23.86,23.86,0,0,0-1.77-2.27,22.83,22.83,0,0,0-8-5A1,1,0,0,1,3.73,17a1,1,0,0,1,.12-.92A17,17,0,0,1,8.76,11.6a15.86,15.86,0,0,1,14.1-1.22l.11,0c.42-1.25.79-2.06.83-2.16A1.06,1.06,0,0,1,25,7.68a18.12,18.12,0,0,1,9.67,6.45,9,9,0,0,1,2.19-1.8,12.69,12.69,0,0,1,6.55-1.78,17.12,17.12,0,0,1,7.08,1.66,25.54,25.54,0,0,1,6.26,4.06A1,1,0,0,1,57,17.34Z" style="fill:#05350f"/><path d="M35,20.51l0,0-.09.11a3.47,3.47,0,0,0-.44.64,3.65,3.65,0,0,0-.25.53,3.65,3.65,0,0,0-.14.35,6.34,6.34,0,0,0-.23,1,4.46,4.46,0,0,0-.06.54c0,.17,0,.34,0,.52v.09c0,.17,0,.33,0,.51l0,.34a4.1,4.1,0,0,0,.06.49.77.77,0,0,0,0,.15l.59.15h0a5.43,5.43,0,0,0,3.6-.75c1.8-1.16,2.92-3.54,3.35-7.08a10.7,10.7,0,0,0-5.43,1.47A5.64,5.64,0,0,0,35,20.51Z" style="fill:#acf252"/><path d="M24.49,12.67c-.1.39-.2.79-.28,1.21-.05.21-.09.43-.12.65,0,0,0,0,0,0a15,15,0,0,0-.17,4.08h0c0,.15,0,.3.07.45h0c.2,0,.4,0,.6,0s.41,0,.61,0,.54,0,.81,0h.07a6.2,6.2,0,0,1,.62.06l.26,0a3.55,3.55,0,0,1,.47.09l.24,0a3.8,3.8,0,0,1,.51.14l.11,0a6.42,6.42,0,0,1,.66.24,6,6,0,0,1,.62.31,2,2,0,0,1,.3.14,47.26,47.26,0,0,0-3.45-6.25,1,1,0,1,1,1.72-1.18,46.11,46.11,0,0,1,4.26,8l0-.07a2.12,2.12,0,0,1,.11-.21s0,0,0-.06l.15-.28a4.55,4.55,0,0,1,.28-.43,1.77,1.77,0,0,1,.16-.22,3.65,3.65,0,0,1,.29-.37l0,0a4.59,4.59,0,0,1,.37-.39l.16-.15.24-.21.22-.18.09-.07c0-.1-.09-.2-.14-.3l-.12-.24c-.1-.21-.21-.42-.32-.62l-.11-.18A16,16,0,0,0,25.36,10c-.2.52-.47,1.27-.72,2.15Z" style="fill:#1d9a46"/><path d="M18.34,24.56l.24-.16-.1-.17c-.08-.13-.16-.27-.23-.41-.26-.47-.46-.88-.6-1.19-.07-.14-.13-.28-.19-.42a1.67,1.67,0,0,0-.08-.2,1,1,0,0,1,0-.81,1.12,1.12,0,0,1,.19-.29l.08-.08a1,1,0,0,1,.31-.19,25.73,25.73,0,0,1,3.75-1.17h0a30.5,30.5,0,0,0-6-2.35,15.6,15.6,0,0,0-2.62-.5,1,1,0,0,1,.14-2.09,25.68,25.68,0,0,1,8.48,2.62h0c0-.17,0-.33,0-.49A18.37,18.37,0,0,1,22,14.14c0-.2.07-.39.11-.59l.12-.56c0-.17.08-.33.11-.48s0,0,0-.07l-.24-.09a13.7,13.7,0,0,0-12.29,1,16.06,16.06,0,0,0-3.44,2.86,23.93,23.93,0,0,1,7.44,5,25.39,25.39,0,0,1,2,2.5q.6.86,1.26,1.71l.28-.21c.18-.15.37-.28.56-.41Z" style="fill:#1d9a46"/><path d="M29.21,39.77h0c-.17-.28-.34-.55-.49-.83s-.29-.56-.42-.84-.23-.54-.34-.8a.08.08,0,0,1,0,0q-.15-.42-.27-.84a0,0,0,0,1,0,0c-.07-.26-.13-.53-.18-.79a8.11,8.11,0,0,1-.12-.82,6.79,6.79,0,0,1,0-.78v0c0-.16,0-.32,0-.48a5.61,5.61,0,0,1,.06-.59c0-.2.06-.39.11-.59s.05-.24.08-.36l0-.09A77.29,77.29,0,0,0,16.4,43.68a1.05,1.05,0,0,1-.84.42,1.09,1.09,0,0,1-.62-.2,1.05,1.05,0,0,1-.22-1.46A77.82,77.82,0,0,1,26.37,30.16l-.51-.06h-.05a7.35,7.35,0,0,1-1.63-.46l-.38-.16c-.28-.13-.55-.28-.83-.44l-.35-.22-.38-.26-.37-.28-.36-.3c-.25-.21-.48-.44-.72-.67a14.74,14.74,0,0,1-1-1.17,5.93,5.93,0,0,0-.62.4l-.42.3c-.16.11-.31.23-.46.35s-.38.32-.56.49l0,0h0a16.94,16.94,0,0,0-2,2.19,18.22,18.22,0,0,0-3.85,13.84,18.8,18.8,0,0,0,1.27,4.72A15.2,15.2,0,0,1,22,44.33a20.72,20.72,0,0,0,8-3.5l-.16-.22Q29.48,40.19,29.21,39.77Z" style="fill:#1d9a46"/><path d="M26.15,28l.44.05.44,0a5.59,5.59,0,0,0,.57,0l.32,0a2,2,0,0,0,.34-.06,3.41,3.41,0,0,0,.53-.13l.4-.12c.17-.06.34-.12.52-.2l.3-.13c.59-.41,1.19-.8,1.8-1.18a7.62,7.62,0,0,0-1.06-2.41,6.28,6.28,0,0,0-.87-1,4,4,0,0,0-.38-.32,3.47,3.47,0,0,0-.44-.31c-.15-.09-.3-.18-.46-.26h0a6.85,6.85,0,0,0-1-.4,7.92,7.92,0,0,0-1.14-.24,9.71,9.71,0,0,0-2.17,0c-.32,0-.64.06-1,.11h-.07l-.06,0-.68.12h0c-.56.12-1.15.27-1.75.45l-.93.31c.2.39.41.78.65,1.16.1.18.22.36.35.55a1.14,1.14,0,0,0,.15.23s0,0,0,0a3.55,3.55,0,0,0,.23.31,9,9,0,0,0,.7.88,8.08,8.08,0,0,0,.57.6,6.2,6.2,0,0,0,.6.55c.23.18.46.36.71.52l.34.22.07,0a6.17,6.17,0,0,0,1.11.5l.07,0,.38.11a1.86,1.86,0,0,0,.41.08Z" style="fill:#acf252"/><path d="M37.91,14.13A7.15,7.15,0,0,0,35.84,16c.17.31.33.62.48.94a1.11,1.11,0,0,1,.07.16,12.16,12.16,0,0,1,2.77-.8,15.72,15.72,0,0,1,3.49-.2h.06a1.07,1.07,0,0,1,.39.1,1,1,0,0,1,.59,1v0h0a29.56,29.56,0,0,1,5.2-1,1,1,0,1,1,.21,2.08,25.94,25.94,0,0,0-5.7,1.26c-.61,3.58-2,6.1-4.14,7.46l-.06,0a15.33,15.33,0,0,0,8.32-1.51,16.36,16.36,0,0,0,7.26-8.17,24.42,24.42,0,0,0-5.23-3.26C45.19,12.13,41.28,12.15,37.91,14.13Z" style="fill:#1d9a46"/><path d="M37.14,29c.14.2.26.42.39.64l.13.26a6.74,6.74,0,0,1,.35.82,0,0,0,0,1,0,0h0c4.14,5.83,8.3,13.29,8.34,13.36A1.05,1.05,0,0,1,46,45.51a1,1,0,0,1-.5.13,1.06,1.06,0,0,1-.92-.54C44.5,45,41.68,40,38.4,35c-.06.3-.12.62-.2.93a10.26,10.26,0,0,1-.3,1c-.06.16-.12.33-.19.5l-.21.51-.24.51c-.08.18-.17.35-.26.52a17.24,17.24,0,0,1-.88,1.51c-.25.38-.52.76-.8,1.15,2.55,6.69,10.74,9,13.56,9.66.46-2.51,1.37-9.43-1.33-14.82a11.6,11.6,0,0,0-3.59-4,24.93,24.93,0,0,0-4.57-2.6C38.6,29.54,37.84,29.24,37.14,29Z" style="fill:#1d9a46"/><path d="M33.32,40.8a20.46,20.46,0,0,0,1.89-2.92l.23-.46a12.58,12.58,0,0,0,.68-1.8c0-.15.07-.29.11-.43a7.1,7.1,0,0,0,.16-2.27,2.65,2.65,0,0,0-.07-.48.34.34,0,0,0,0-.1v0c0-.15-.07-.3-.11-.44a.19.19,0,0,0,0-.08,3.59,3.59,0,0,0-.12-.35,3,3,0,0,0-.14-.36A5.86,5.86,0,0,0,35.27,30a2.34,2.34,0,0,0-.24-.31,3.47,3.47,0,0,0-.25-.29,2.09,2.09,0,0,0-.25-.26,5.12,5.12,0,0,0-.5-.46c-.16-.14-.32-.26-.46-.36a3.35,3.35,0,0,0-.41-.28l0,0-.26.19-.3.23a12.65,12.65,0,0,0-1.07,1q-.29.3-.54.6A7.08,7.08,0,0,0,30.23,31l0,0a6.35,6.35,0,0,0-.41.88,2.8,2.8,0,0,0-.16.46,5.71,5.71,0,0,0-.18.82,6.37,6.37,0,0,0,.06,2,4.54,4.54,0,0,0,.12.53,5,5,0,0,0,.16.55c0,.13.08.25.13.38a10.71,10.71,0,0,0,1.2,2.27,5,5,0,0,0,.33.47c.11.17.24.33.36.48l.1.13.3.36s0,0,0,.05c.28.32.54.6.76.83l.29-.37A.08.08,0,0,1,33.32,40.8Z" style="fill:#acf252"/></svg>