<svg xmlns="http://www.w3.org/2000/svg" viewBox="0 0 60 60"><title>Broad Beans</title><path d="M53.73,21.59a2.47,2.47,0,0,0-3.64-2.68L45.65,21.5a3.85,3.85,0,0,1-.46,3.08,8.8,8.8,0,0,1-3,2.92h0l-5.95,3.41c3-.58,5.36-.93,7.31-1.19a5.12,5.12,0,0,1,.56,0,4.26,4.26,0,0,1,4.18,2.87l2.55-.33a2.44,2.44,0,0,0,1.62-.94,2.37,2.37,0,0,0,.48-1.8,2.62,2.62,0,0,0-1-1.7,2.51,2.51,0,0,0-1.85-.54,1,1,0,0,1-.26-2,4.54,4.54,0,0,1,3.35,1,4.68,4.68,0,0,1,1.74,3,4.44,4.44,0,0,1-3.83,5l-3.21.42a10.91,10.91,0,0,1-1.36.22c-2.41.31-8.06,1-14.84,2.57-2.46.56-4.73,1.17-6.78,1.83A27.42,27.42,0,0,0,24.59,50c.08.44.14.8.17,1.11A5.75,5.75,0,0,0,26.88,55a1.1,1.1,0,0,1,.28.29,1.12,1.12,0,0,1,0,1.16,1.7,1.7,0,0,1-1.47.59,4.62,4.62,0,0,1-.81-.08c-1-.17-4.35-1.12-5.62-6a23,23,0,0,1-.67-7.78l-4,4c-3.72,3.72-2.83,6.76-2.79,6.89a1,1,0,0,1-.44,1.15A1,1,0,0,1,10.15,55a8.68,8.68,0,0,1-2.77-5,4.15,4.15,0,0,0-.15,1,1,1,0,0,1-.71,1,1.55,1.55,0,0,1-.29,0,1,1,0,0,1-.86-.49c-2-3.45-1.57-5.95-.84-7.44a6,6,0,0,1,2.19-2.47L20.5,33.69c.52-1.76,1.13-3.69,1.86-5.84,2-5.93,3.54-9.57,4.76-12.35h0a5.49,5.49,0,0,1,1.32-1.73A4,4,0,0,1,32,12.94l1-2.35a2.45,2.45,0,0,0,0-1.86,2.41,2.41,0,0,0-1.29-1.35A3,3,0,0,0,28.34,9,1,1,0,0,1,27,9.49a1,1,0,0,1-.51-1.32,4.92,4.92,0,0,1,6.14-2.62,4.45,4.45,0,0,1,2.25,5.86l-1.32,2.95a10.05,10.05,0,0,1-.53,1.28c-.73,1.64-2.19,4.9-3.8,9.13L42.38,11.65,46.63,7.4a4.54,4.54,0,0,1,7.66,2.9,4,4,0,0,1-1.23,3,1,1,0,0,1-1.41,0,1,1,0,0,1,0-1.41,2,2,0,0,0,.64-1.49,2.53,2.53,0,0,0-4.24-1.59l-3.64,3.64c1.4,2.35-.39,5.23-1.83,6.69l-4.31,4.31,5.62-3.24,5.2-3a4.47,4.47,0,0,1,6.58,4.88,4.23,4.23,0,0,1-2,2.66,1,1,0,0,1-1-1.73A2.21,2.21,0,0,0,53.73,21.59Z" style="fill:#05350f"/><path d="M12,44.86l-1.63,1.63a4.13,4.13,0,0,0-.47,4.85,11.4,11.4,0,0,1,3.32-5.65l3.62-3.63Z" style="fill:#1d9a46"/><path d="M10.68,43.3l.18-.1h0l.88-.51,7.56-4.38c0-.2.1-.42.15-.63s.12-.54.19-.82.07-.28.11-.43l-12,6.93A4.13,4.13,0,0,0,6,47.93,11.43,11.43,0,0,1,10.68,43.3Z" style="fill:#1d9a46"/><path d="M27.49,29.66l4.09-2.36,9.58-9.57s2-2.08,1.71-3.74L27.65,29.2l-.15.43Z" style="fill:#1d9a46"/><path d="M22.62,50.38c-.33-2-.92-5.42.41-12,0,0,0,0,0-.06s.06-.31.1-.46.09-.44.14-.67.13-.56.2-.84v0c0-.1.05-.21.08-.31h0c0-.18.09-.36.13-.54l.06-.25a0,0,0,0,1,0,0c.06-.21.12-.42.17-.63s.13-.5.2-.75c.16-.56.33-1.16.52-1.76,0-.16.09-.32.14-.48h0v0c0-.14.09-.29.14-.44.21-.67.43-1.35.67-2.06,2.26-6.66,4.61-11.92,5.62-14.16A2.4,2.4,0,0,0,29,16.31c-1.21,2.74-2.71,6.33-4.69,12.19A85.11,85.11,0,0,0,21,40l-.06.31a22.41,22.41,0,0,0,.22,10.09,6.23,6.23,0,0,0,2.64,4,7.15,7.15,0,0,1-1-3.13A9,9,0,0,0,22.62,50.38Z" style="fill:#1d9a46"/><path d="M30.57,34.16l-4.73,2.71c1.67-.49,3.48-1,5.38-1.39,6.86-1.55,12.57-2.29,15-2.6a2.4,2.4,0,0,0-2.45-1.17c-3,.4-6.82,1-12.85,2.36Z" style="fill:#1d9a46"/><path d="M32.7,29l-6.11,3.52c-.08.26-.16.52-.23.78s-.2.66-.29,1c0,.07,0,.14-.05.21l15.15-8.68c.08-.05,2.51-1.52,2.61-3.2L32.7,29Z" style="fill:#1d9a46"/></svg>