<svg xmlns="http://www.w3.org/2000/svg" viewBox="0 0 60 60"><title>Carrots</title><path d="M55.61,21.69a3.36,3.36,0,0,1-1.19,2.94,7.25,7.25,0,0,1-4.6,1.23,21.17,21.17,0,0,1-3.37-.3c0,2.48-1.17,5-3.66,7.47-1.39,1.39-4.67,4.19-8.7,7.34a0,0,0,0,1,0,0,1.39,1.39,0,0,1-.19.15C25.4,47.15,13.67,55.27,9,55.27a2.72,2.72,0,0,1-2-.73c-1.22-1.22-.93-3.48.94-7.34a86.13,86.13,0,0,1,6.44-10.55c5-7.29,11.38-15.15,14.14-17.9a11.27,11.27,0,0,1,6.39-3.6c.17-2.06.81-6.61,3.16-8.34a3.66,3.66,0,0,1,3.22-.55c1.87.52,2.69,2.23,3,4,1.76-1.76,4.51-4,7.12-4.16a4.18,4.18,0,0,1,3.29,1.26,3.17,3.17,0,0,1,.93,2.41C55.51,12.17,53,15,51.51,16.59,53.12,17.49,55.46,19.22,55.61,21.69Z" style="fill:#05350f"/><path d="M49.27,17.86a1.06,1.06,0,0,1-.66-.8,1.09,1.09,0,0,1,.35-1c1.71-1.51,4.44-4.58,4.49-6.4a1,1,0,0,0-.3-.84,2.07,2.07,0,0,0-1.66-.64c-2.65.15-6.26,4-7.43,5.42a1.07,1.07,0,0,1-1.89-.81c.13-1,.14-4-1.46-4.48a1.5,1.5,0,0,0-1.39.21C38,9.53,37.25,12.8,37,15.19a10.86,10.86,0,0,1,5.9,3.4,12.16,12.16,0,0,1,3.12,4.73c2.27.46,5.75.72,7-.32a1.26,1.26,0,0,0,.43-1.18C53.37,19.93,50.33,18.29,49.27,17.86Z" style="fill:#acf252"/><path d="M35.85,17.22c-1.85,0-3.82,1-5.83,3-.75.74-1.88,2-3.25,3.64L30,27.14a1.08,1.08,0,0,1,0,1.51,1.12,1.12,0,0,1-.76.31,1.08,1.08,0,0,1-.75-.31l-3.1-3.1c-1.39,1.7-2.94,3.66-4.55,5.79a1.1,1.1,0,0,1,.43.25L24.63,35a1.07,1.07,0,0,1-.75,1.82,1.07,1.07,0,0,1-.76-.31L19.77,33.1a.93.93,0,0,1-.13-.15c-1.17,1.59-2.36,3.24-3.52,4.92C8.48,48.92,8,52.56,8.5,53a.94.94,0,0,0,.51.1c1.46,0,4-1.13,7.07-2.89l-2.64-2.64A1.07,1.07,0,0,1,15,46.1l3,3c1.94-1.19,4-2.57,6.13-4l-2.86-2.85a1.07,1.07,0,0,1,1.51-1.51l3.12,3.11c2-1.42,4-2.89,5.84-4.32l-2.66-2.65a1.08,1.08,0,0,1,0-1.51,1.06,1.06,0,0,1,1.51,0l2.84,2.84c2.16-1.7,4.08-3.28,5.59-4.59l-2.12-2.12a1.06,1.06,0,0,1,0-1.51,1.08,1.08,0,0,1,1.51,0l2.2,2.21.69-.67c4-4,4-7.52.15-11.42C39.49,18.16,37.67,17.22,35.85,17.22Z" style="fill:#f47e41"/><path d="M44.25,25c.32,2.14-.68,4.28-3,6.58-.2.2-.43.43-.69.66L38.38,30a1.07,1.07,0,1,0-1.51,1.51L39,33.62c-1.5,1.31-3.42,2.89-5.58,4.59l-2.84-2.84a1.06,1.06,0,0,0-1.51,0,1.05,1.05,0,0,0,0,1.5l2.65,2.66c-1.86,1.42-3.84,2.9-5.84,4.32l-3.11-3.11a1.07,1.07,0,0,0-1.51,1.51L24.1,45.1C22,46.57,19.92,48,18,49.14l-3-3a1.06,1.06,0,0,0-1.51,0,1.08,1.08,0,0,0,0,1.51l2.65,2.64C13,52,10.46,53.15,9,53.15A.77.77,0,0,1,8.5,53c-.48-.47,0-4.11,7.62-15.17,1.16-1.67,2.34-3.32,3.52-4.91l.12.15,3.36,3.36A1.07,1.07,0,1,0,24.63,35L21.27,31.6a1.07,1.07,0,0,0-.42-.25c1.6-2.13,3.15-4.09,4.54-5.79l3.1,3.09A1.07,1.07,0,0,0,30,27.14l-3.24-3.23c1.37-1.63,2.51-2.9,3.25-3.64a9.45,9.45,0,0,1,5.12-3l-.24-2.12a11.39,11.39,0,0,0-6.39,3.61c-2.76,2.75-9.1,10.61-14.14,17.9A85.85,85.85,0,0,0,7.93,47.21C6.05,51.07,5.76,53.33,7,54.55a2.7,2.7,0,0,0,2,.73c2.34,0,6.44-2,11-4.89s9.63-6.54,13.88-9.85c.06,0,.13-.09.19-.15h0c4-3.16,7.32-6,8.7-7.34a11.21,11.21,0,0,0,3.6-6.41v0l.06-1Z" style="fill:#3c2c1f"/><path d="M15,46.11l3,3-1.89,1.12-2.65-2.64a1.08,1.08,0,0,1,0-1.51A1.06,1.06,0,0,1,15,46.11Z" style="fill:#c1272d"/><path d="M23.13,36.47l-3.36-3.36,1.51-1.51L24.64,35a1.07,1.07,0,0,1-1.51,1.51Z" style="fill:#c1272d"/><path d="M22.77,40.74l3.11,3.11L24.11,45.1l-2.85-2.85a1.07,1.07,0,0,1,1.51-1.51Z" style="fill:#c1272d"/><path d="M29.26,29a1.07,1.07,0,0,1-.76-.32l-3.1-3.09,1.37-1.65L30,27.14A1.08,1.08,0,0,1,29.26,29Z" style="fill:#c1272d"/><path d="M30.58,35.37l2.84,2.84-1.7,1.32-2.65-2.66a1.05,1.05,0,0,1,0-1.5A1.06,1.06,0,0,1,30.58,35.37Z" style="fill:#c1272d"/><path d="M40.59,32.19,39,33.62,36.88,31.5A1.07,1.07,0,0,1,38.39,30Z" style="fill:#c1272d"/><path d="M38.39,30a1.07,1.07,0,0,0-1.51,1.51L39,33.62l1.59-1.43Zm-9.32,5.38a1.05,1.05,0,0,0,0,1.5l2.65,2.66,1.7-1.32-2.84-2.84A1.06,1.06,0,0,0,29.07,35.37ZM30,28.65a1.06,1.06,0,0,0,0-1.51l-3.24-3.23L25.4,25.56l3.1,3.09a1.05,1.05,0,0,0,1.51,0ZM21.26,40.74a1.06,1.06,0,0,0,0,1.51l2.85,2.85,1.77-1.25-3.11-3.11A1.06,1.06,0,0,0,21.26,40.74Zm2.62-4A1.07,1.07,0,0,0,24.64,35l-3.72-3.72L19.64,33l3.49,3.5A1.05,1.05,0,0,0,23.88,36.78ZM13.44,46.11a1.08,1.08,0,0,0,0,1.51l2.65,2.64L18,49.14l-3-3A1.06,1.06,0,0,0,13.44,46.11Z" style="fill:#3c2c1f"/></svg>