<svg xmlns="http://www.w3.org/2000/svg" viewBox="0 0 60 60"><title>Chamomile</title><path d="M42.45,24.77a6.12,6.12,0,0,1,.44,1.83,6,6,0,0,1-6,6,5.88,5.88,0,0,1-1.84-.43,6,6,0,0,1-4.59,3.38c-.25.37-.67,1-1.09,1.73a11.89,11.89,0,0,0-1.47,3.44,7,7,0,0,0,.66,3.21,3.41,3.41,0,0,1,.49-.59c1.31-1.27,3.3-1.47,5-1.84a12.74,12.74,0,0,0,2.15-.62c.52-.23.68-.42.71-.56a1,1,0,0,1,1-.73h0a1,1,0,0,1,1,1,24.58,24.58,0,0,1-.42,3.55A8.9,8.9,0,0,1,36.27,49a1,1,0,0,1-.36.49,6.18,6.18,0,0,1-3.14,1.11,4.68,4.68,0,0,1-2.9-.72,9.5,9.5,0,0,1-1.75,3.51c-.74,1-1.44,1.86-1.44,1.86a1,1,0,1,1-1.51-1.31s.64-.74,1.31-1.7a9.15,9.15,0,0,0,1.44-2.79A7.73,7.73,0,0,0,27,45.46a9.93,9.93,0,0,1-1.1-5,12.08,12.08,0,0,1,1.72-4.2c.21-.34.4-.67.59-.95a6.21,6.21,0,0,1-3.49-3.16,6.13,6.13,0,0,1-1.82.44h0a6,6,0,0,1-6-6,5.88,5.88,0,0,1,.43-1.84,5.85,5.85,0,0,1-3.43-5.14,5.85,5.85,0,0,1,3.43-5.16,5.82,5.82,0,0,1-.43-1.83,6,6,0,0,1,6-6,5.89,5.89,0,0,1,1.84.44,5.85,5.85,0,0,1,5.15-3.43h0a5.86,5.86,0,0,1,5.16,3.43,5.82,5.82,0,0,1,1.82-.43h0a6,6,0,0,1,6,6,5.9,5.9,0,0,1-.44,1.83,5.85,5.85,0,0,1,3.43,5.15A5.86,5.86,0,0,1,42.45,24.77Z" style="fill:#05350f"/><circle cx="29.91" cy="19.62" r="3.99" style="fill:#ffef57"/><path d="M34.54,46.34a11.77,11.77,0,0,1-2.66,1.5L31,48.2a2.64,2.64,0,0,0,1.61.36,4.52,4.52,0,0,0,2.11-.75c.66-.47,1.34-2.09,1.69-3.7A11.14,11.14,0,0,1,34.54,46.34Z" style="fill:#1d9a46"/><path d="M31.07,46a11.36,11.36,0,0,0,2.19-1.21,8.75,8.75,0,0,0,1.19-1.35c-1.75.39-3.51.84-4,1.32A2,2,0,0,0,30,46.48C30.24,46.37,30.63,46.21,31.07,46Z" style="fill:#1d9a46"/><path d="M41.07,15.81l-.15-.06a1,1,0,0,1-.45-1.34,3.92,3.92,0,0,0,.42-1.78,4,4,0,0,0-4-4,4.05,4.05,0,0,0-1.78.42.47.47,0,0,1-.15.06,1,1,0,0,1-1.25-.65,4,4,0,0,0-3.81-2.82,4,4,0,0,0-2.37.78,3.93,3.93,0,0,0-1.43,2,.69.69,0,0,1-.07.15,1,1,0,0,1-1.33.45,4.13,4.13,0,0,0-1.79-.42,4,4,0,0,0-4,4,4.05,4.05,0,0,0,.42,1.78.47.47,0,0,1,.06.15,1,1,0,0,1-.66,1.25,4,4,0,0,0,0,7.61l.15.06a1,1,0,0,1,.45,1.34,4,4,0,0,0,5.35,5.35l.15-.06a1,1,0,0,1,1.25.66,4,4,0,0,0,7.62,0,.44.44,0,0,1,.06-.16,1,1,0,0,1,1.34-.44,4,4,0,0,0,1.78.41,4,4,0,0,0,4-4,4.05,4.05,0,0,0-.42-1.78.47.47,0,0,1-.06-.15,1,1,0,0,1,.66-1.25,4,4,0,0,0,0-7.62Zm-11.16,9.8a6,6,0,1,1,6-6A6,6,0,0,1,29.91,25.61Z" style="fill:#efefe8"/></svg>