<svg xmlns="http://www.w3.org/2000/svg" viewBox="0 0 60 60"><title>Cherry</title><path d="M29.23,39.75l-.43-.44a8.52,8.52,0,1,0-.09,11.44,10.5,10.5,0,0,1,.52-11Zm-6.57,0a5.27,5.27,0,0,0-5.07,5,1,1,0,0,1-1,.94h-.06a1,1,0,0,1-.93-1.05,7.23,7.23,0,0,1,7-6.86,1,1,0,1,1,.08,2Z" style="fill:#f13d43"/><path d="M35.06,14.41h0c.51,0,1.88-1.66,2.55-4.7a11.18,11.18,0,0,0,.19-4c-.16-1-.48-1.31-.57-1.33h0c-.54,0-1.9,1.66-2.57,4.7a11.2,11.2,0,0,0-.2,4C34.65,14,35,14.39,35.06,14.41Z" style="fill:#acf252"/><path d="M32.21,14.47A11.14,11.14,0,0,0,28.48,13a13.48,13.48,0,0,0-2.67-.3c-1.92,0-2.64.53-2.67.68-.09.38,1.4,1.85,4.7,2.56a12.66,12.66,0,0,0,2.67.31c1.92,0,2.64-.53,2.67-.68S33,15,32.21,14.47Z" style="fill:#acf252"/><path d="M37.9,37.15a8.52,8.52,0,1,0,8.52,8.52A8.52,8.52,0,0,0,37.9,37.15Zm.47,3.23a5.27,5.27,0,0,0-5.07,5,1,1,0,0,1-1,.94h-.06a1,1,0,0,1-.94-1.05,7.25,7.25,0,0,1,7-6.86,1,1,0,0,1,1,1A1,1,0,0,1,38.37,40.38Z" style="fill:#f13d43"/><path d="M41.51,35.81c3.67-10.61-2-17.22-5-19.88,1.47-1,2.6-3.47,3.11-5.8a12.93,12.93,0,0,0,.21-4.78c-.39-2.23-1.49-2.79-2.11-2.93a2.12,2.12,0,0,0-.44,0c-2.15,0-3.83,3.25-4.49,6.26a13.7,13.7,0,0,0-.33,3.63A14.49,14.49,0,0,0,28.9,11a14.81,14.81,0,0,0-3.1-.35c-2.62,0-4.3.82-4.61,2.25-.49,2.24,2.76,4.17,6.22,4.92a14.79,14.79,0,0,0,3.09.35,7.47,7.47,0,0,0,3-.54c.4,3.68.11,11.65-8.5,17.15a10.78,10.78,0,0,0-2.6-.34,10.51,10.51,0,1,0,7.41,17.93,10.5,10.5,0,1,0,11.65-16.6ZM34.68,9.07c.66-3.05,2-4.71,2.56-4.71h0c.09,0,.41.38.57,1.34a11,11,0,0,1-.2,4c-.66,3-2,4.7-2.55,4.7h0c-.1,0-.41-.38-.58-1.33A11.19,11.19,0,0,1,34.68,9.07ZM30.5,16.22a12.61,12.61,0,0,1-2.66-.3c-3.3-.72-4.79-2.19-4.71-2.56,0-.15.76-.68,2.67-.68a12.63,12.63,0,0,1,2.67.3,11.32,11.32,0,0,1,3.74,1.48c.8.55,1,1,1,1.08S32.42,16.22,30.5,16.22Zm5,1.46c2.79,2.47,7.39,8.23,4.07,17.63a10.34,10.34,0,0,0-9.09,2.9l-.26-.27a10.47,10.47,0,0,0-2.93-2.25A19.56,19.56,0,0,0,35.52,17.68ZM22.45,53.5a8.52,8.52,0,1,1,6.34-14.2l.44.45a10.37,10.37,0,0,0-1.83,5.91,10.52,10.52,0,0,0,1.31,5.08A8.52,8.52,0,0,1,22.45,53.5Zm15.45.68a8.52,8.52,0,1,1,8.52-8.52A8.53,8.53,0,0,1,37.9,54.18Z" style="fill:#6d0910"/><path d="M39.83,5.39c-.39-2.23-1.49-2.79-2.11-2.93a2.18,2.18,0,0,0-.44,0c-2.15,0-3.84,3.25-4.49,6.27a14.05,14.05,0,0,0-.34,3.62,14.19,14.19,0,0,0-3.51-1.23,14.64,14.64,0,0,0-3.09-.35c-2.62,0-4.3.82-4.61,2.25-.49,2.24,2.76,4.17,6.22,4.92a14.15,14.15,0,0,0,3.09.35,7.69,7.69,0,0,0,3.05-.53L36.51,16c1.47-1,2.6-3.47,3.1-5.8A12.94,12.94,0,0,0,39.83,5.39ZM30.55,16.26a12.78,12.78,0,0,1-2.67-.3c-3.29-.72-4.78-2.18-4.7-2.56,0-.15.75-.68,2.67-.68a12.7,12.7,0,0,1,2.67.3,11,11,0,0,1,3.73,1.49c.8.54,1,1,1,1.07S32.47,16.26,30.55,16.26Zm7.12-6.51c-.66,3-2,4.7-2.55,4.7h0c-.1,0-.41-.37-.58-1.33a11,11,0,0,1,.2-4c.66-3,2-4.7,2.56-4.7.1,0,.41.37.58,1.33A11,11,0,0,1,37.67,9.75Z" style="fill:#05350f"/><path d="M38.29,38.4a7.26,7.26,0,0,0-7,6.87,1,1,0,0,0,.94,1h.06a1,1,0,0,0,1-.94,5.26,5.26,0,0,1,5.07-5,1,1,0,0,0,1-1A1,1,0,0,0,38.29,38.4Z" style="fill:#ffa6b1"/><path d="M22.58,37.72a7.24,7.24,0,0,0-7,6.87,1,1,0,0,0,.93,1h.06a1,1,0,0,0,1-.94,5.26,5.26,0,0,1,5.07-5,1,1,0,0,0,.95-1A1,1,0,0,0,22.58,37.72Z" style="fill:#ffa6b1"/></svg>