<svg xmlns="http://www.w3.org/2000/svg" viewBox="0 0 60 60"><title>Climbing Beans</title><path d="M54.4,54.56a.62.62,0,0,1-.62.62H5.56a.62.62,0,0,1,0-1.24H17V42a8.37,8.37,0,0,1-1,0,6.51,6.51,0,0,1-4.58-1.54C9.36,38.47,10,34.66,10,34.5a.6.6,0,0,1,.51-.5c.16,0,4-.64,6,1.43A5.37,5.37,0,0,1,17,36V29.9c-.25,0-.58,0-1,0a6.51,6.51,0,0,1-4.57-1.53c-2.07-2.07-1.46-5.87-1.44-6a.63.63,0,0,1,.51-.51c.16,0,4-.63,6,1.43a4.51,4.51,0,0,1,.44.54V17.77a8.37,8.37,0,0,1-1,.05,6.47,6.47,0,0,1-4.57-1.54c-2.07-2.07-1.46-5.87-1.44-6a.64.64,0,0,1,.51-.51c.16,0,4-.63,6,1.44a3.75,3.75,0,0,1,.44.53V6.34a.62.62,0,0,1,1.24,0V18.41a4.06,4.06,0,0,1,.42-.51c2.07-2.07,5.87-1.46,6-1.44a.63.63,0,0,1,.51.51c0,.16.63,4-1.43,6a6.51,6.51,0,0,1-4.58,1.54,8.12,8.12,0,0,1-.95-.05v6a4.93,4.93,0,0,1,.42-.51c2.07-2.06,5.87-1.46,6-1.43a.62.62,0,0,1,.51.51c0,.16.63,4-1.43,6a6.51,6.51,0,0,1-4.58,1.54c-.38,0-.7,0-.95,0v6a4.06,4.06,0,0,1,.42-.51c2.07-2.07,5.87-1.46,6-1.44a.63.63,0,0,1,.51.51c0,.16.63,4-1.43,6a6.56,6.56,0,0,1-4.58,1.54c-.38,0-.7,0-.95,0v5.2h23V42a8.37,8.37,0,0,1-1,0,6.47,6.47,0,0,1-4.57-1.54c-2.07-2.06-1.46-5.87-1.44-6a.62.62,0,0,1,.51-.5c.16,0,4-.64,6,1.43a5.37,5.37,0,0,1,.44.53V29.9c-.25,0-.58,0-1,0a6.52,6.52,0,0,1-4.58-1.53c-2.07-2.07-1.46-5.87-1.44-6a.63.63,0,0,1,.51-.51c.16,0,4-.63,6,1.43a3.71,3.71,0,0,1,.44.54V17.77a8.31,8.31,0,0,1-1,.05,6.48,6.48,0,0,1-4.58-1.54c-2.07-2.07-1.46-5.87-1.44-6a.64.64,0,0,1,.51-.51c.16,0,4-.63,6,1.44a3.18,3.18,0,0,1,.44.53V6.34a.62.62,0,0,1,1.24,0V18.41a4.15,4.15,0,0,1,.43-.51c2.06-2.07,5.86-1.46,6-1.44a.62.62,0,0,1,.51.51c0,.16.63,4-1.43,6a6.53,6.53,0,0,1-4.58,1.53c-.38,0-.7,0-.95,0v6a4.15,4.15,0,0,1,.43-.51c2.06-2.06,5.86-1.46,6-1.43a.6.6,0,0,1,.51.51c0,.16.63,4-1.43,6a6.5,6.5,0,0,1-4.58,1.54c-.38,0-.7,0-.95,0v6a4.15,4.15,0,0,1,.43-.51c2.06-2.07,5.86-1.46,6-1.44a.62.62,0,0,1,.51.51c0,.16.63,4-1.43,6a6.53,6.53,0,0,1-4.58,1.53,8.42,8.42,0,0,1-.95,0v5.2H53.78A.62.62,0,0,1,54.4,54.56Z" style="fill:#05350f"/><path d="M35.37,23c-.08,1-.11,3.24,1.14,4.49S40,28.75,41,28.67c.08-1,.11-3.24-1.14-4.49S36.34,23,35.37,23Z" style="fill:#1d9a46"/><path d="M35.37,35.16c-.08,1-.11,3.24,1.14,4.49S40,40.87,41,40.79c.08-1,.11-3.24-1.14-4.49S36.34,35.08,35.37,35.16Z" style="fill:#1d9a46"/><path d="M35.37,10.91c-.08,1-.11,3.24,1.14,4.5S40,16.62,41,16.55c.08-1,.11-3.25-1.14-4.5S36.34,10.83,35.37,10.91Z" style="fill:#1d9a46"/><path d="M47.08,46.37c1.25-1.25,1.22-3.52,1.14-4.49-1-.08-3.25-.11-4.5,1.14s-1.22,3.53-1.14,4.49C43.55,47.59,45.82,47.63,47.08,46.37Z" style="fill:#1d9a46"/><path d="M22.86,46.37c1.26-1.25,1.22-3.52,1.14-4.49-1-.08-3.24-.11-4.49,1.14s-1.22,3.53-1.14,4.49C19.34,47.59,21.61,47.63,22.86,46.37Z" style="fill:#1d9a46"/><path d="M47.08,22.12c1.25-1.25,1.22-3.52,1.14-4.49-1-.08-3.25-.11-4.5,1.14s-1.22,3.53-1.14,4.49C43.55,23.34,45.82,23.38,47.08,22.12Z" style="fill:#1d9a46"/><path d="M47.08,34.25c1.25-1.26,1.22-3.53,1.14-4.49-1-.08-3.25-.12-4.5,1.14s-1.22,3.52-1.14,4.49C43.55,35.47,45.82,35.5,47.08,34.25Z" style="fill:#1d9a46"/><path d="M22.86,34.25C24.12,33,24.08,30.72,24,29.76c-1-.08-3.24-.12-4.49,1.14s-1.22,3.52-1.14,4.49C19.34,35.47,21.61,35.5,22.86,34.25Z" style="fill:#1d9a46"/><path d="M11.16,23c-.08,1-.11,3.24,1.14,4.49s3.52,1.22,4.49,1.14c.08-1,.12-3.24-1.14-4.49S12.13,23,11.16,23Z" style="fill:#1d9a46"/><path d="M11.16,35.16c-.08,1-.11,3.24,1.14,4.49s3.53,1.23,4.49,1.15c.08-1,.12-3.25-1.14-4.5S12.13,35.08,11.16,35.16Z" style="fill:#1d9a46"/><path d="M11.16,10.91c-.08,1-.11,3.24,1.14,4.5s3.53,1.22,4.49,1.14c.08-1,.12-3.25-1.14-4.5S12.13,10.83,11.16,10.91Z" style="fill:#1d9a46"/><path d="M22.86,22.12c1.26-1.25,1.22-3.52,1.14-4.49-1-.08-3.24-.11-4.49,1.14s-1.22,3.53-1.14,4.49C19.34,23.34,21.61,23.38,22.86,22.12Z" style="fill:#1d9a46"/></svg>