<svg xmlns="http://www.w3.org/2000/svg" viewBox="0 0 60 60"><title>Corn</title><path d="M47.06,38.44A187.19,187.19,0,0,1,32.48,50.68c-7,4.79-14.13,6.71-19.71,5.31a10.38,10.38,0,0,1-4.95,1.54A5.13,5.13,0,0,1,4.05,56c-3-3-.83-7.33,0-8.74-1.69-8,2.56-15.72,5.29-19.69A185.61,185.61,0,0,1,21.6,13C31.39,2.23,32.44,2.43,33.21,2.59a1.32,1.32,0,0,1,1,1c.36,1.7-.71,5.24-1.85,8.28C37.64,8,42,6,45.54,6a8.24,8.24,0,0,1,6,2.46c5.37,5.38,1.46,12.9-3.31,19.09,3-1.12,6.5-2.17,8.18-1.81a1.32,1.32,0,0,1,1,1C57.6,27.6,57.81,28.65,47.06,38.44Z" style="fill:#05350f"/><path d="M49.86,10.17A5.82,5.82,0,0,0,45.54,8.4c-2.19,0-4.86,1-8,2.85A.93.93,0,0,1,38,12.31a1,1,0,0,1-1.18.62c-.42-.13-.82-.24-1.24-.35a66.47,66.47,0,0,0-6.14,4.87h0a.94.94,0,0,1-.25,1.84,1.15,1.15,0,0,1-.26,0c-.4-.11-.81-.22-1.2-.31-1.24,1.14-2.52,2.36-3.84,3.68-.37.37-.74.76-1.1,1.14l.35.09A.94.94,0,0,1,23.78,25a1,1,0,0,1-.91.68,1.07,1.07,0,0,1-.25,0c-.48-.13-.94-.25-1.41-.36a40.53,40.53,0,0,0-4.43,5.34l.52.15A.94.94,0,0,1,17.93,32a1,1,0,0,1-.9.67,1.26,1.26,0,0,1-.27,0l-1.06-.3a26.75,26.75,0,0,0-2.61,5.62l.89.32a.94.94,0,0,1-.34,1.82,1,1,0,0,1-.33-.06c-.24-.1-.47-.17-.71-.26a14.14,14.14,0,0,0-.13,6.42c1.77-1.34,3.75-2.66,5.82-4-.41-.21-.82-.42-1.21-.6a.94.94,0,0,1,.8-1.7c.62.29,1.25.6,1.9.94a.88.88,0,0,1,.31.26c2.33-1.39,4.74-2.72,7.1-4l-1-.56a.94.94,0,0,1,.89-1.66c.6.33,1.22.67,1.85,1a.88.88,0,0,1,.21.18c2.91-1.49,5.67-2.82,8-3.9a.93.93,0,0,1,0-.95,1,1,0,0,1,1.3-.28l.56.37c2.36-1.07,4.08-1.8,4.73-2.07.6-.7,1.16-1.38,1.69-2q-.86-.59-1.68-1.11a.94.94,0,0,1,1-1.59q.87.56,1.77,1.17s0,0,.06,0C52.14,18.5,53.17,13.48,49.86,10.17ZM23.74,34.31a1,1,0,0,1-.86.56.88.88,0,0,1-.38-.09c-.65-.29-1.28-.56-1.89-.8a.94.94,0,0,1,.71-1.75c.62.26,1.27.53,1.95.84A.94.94,0,0,1,23.74,34.31Zm5.89-7a.92.92,0,0,1-1.23.49L26.5,27a.94.94,0,0,1,.67-1.75c.63.24,1.29.51,2,.8A.94.94,0,0,1,29.63,27.26Zm5.57,2.87a.94.94,0,0,1-.82.48.93.93,0,0,1-.46-.12c-.62-.35-1.22-.67-1.81-1a.93.93,0,0,1-.4-1.26A.94.94,0,0,1,33,27.84c.61.32,1.23.65,1.87,1A1,1,0,0,1,35.2,30.13Zm.74-9.3a.94.94,0,0,1-.87.57,1,1,0,0,1-.37-.07c-.65-.29-1.29-.54-1.9-.77a.94.94,0,0,1,.68-1.76c.63.24,1.28.51,2,.8A1,1,0,0,1,35.94,20.83Zm5.57,2.87a.94.94,0,0,1-1.28.36c-.62-.34-1.22-.67-1.81-1A1,1,0,0,1,38,21.82a.94.94,0,0,1,1.27-.4c.61.31,1.23.65,1.87,1A1,1,0,0,1,41.51,23.7Zm2.24-9a.94.94,0,0,1-.86.55,1.09,1.09,0,0,1-.39-.08c-.65-.3-1.27-.57-1.88-.82a.94.94,0,1,1,.72-1.74c.62.26,1.27.54,1.95.85A.93.93,0,0,1,43.75,14.67Zm5.51,3a.94.94,0,0,1-.81.47A.9.9,0,0,1,48,18c-.61-.35-1.21-.69-1.8-1a.94.94,0,1,1,.9-1.65c.6.33,1.22.67,1.84,1A.94.94,0,0,1,49.26,17.64Z" style="fill:#fcee21"/><path d="M44.57,31.55c-2.76,1.17-21.77,9.38-31.79,17.37a1.16,1.16,0,0,1-.73.26,1.18,1.18,0,0,1-.84-.35C9.42,47.05,7.08,36.09,20,23.18a1.08,1.08,0,0,1,.24-.18c.65-.68,1.31-1.37,2-2,2.26-2.26,4.39-4.24,6.41-6a52.76,52.76,0,0,0,3.18-9.06c-4.46,4-16.94,17.82-20.48,23C8.75,32.63,4.72,40,6.48,47.18a1.17,1.17,0,0,1-.18,1s-2.74,4-.58,6.18,6.14-.56,6.18-.58a1.17,1.17,0,0,1,1-.17c5,1.46,11.62-.3,18.23-4.84,5.15-3.54,19-16,23-20.47A54.13,54.13,0,0,0,45,31.45,1.23,1.23,0,0,1,44.57,31.55Z" style="fill:#1d9a46"/><path d="M23.74,34.32a1,1,0,0,1-.86.56.88.88,0,0,1-.38-.09c-.65-.29-1.28-.56-1.89-.8a.94.94,0,1,1,.71-1.75c.62.26,1.27.53,1.95.84A.94.94,0,0,1,23.74,34.32Z" style="fill:#6a4e28"/><path d="M29.63,27.27a.92.92,0,0,1-1.23.49L26.5,27a.94.94,0,0,1,.67-1.75c.63.24,1.29.51,2,.8A.94.94,0,0,1,29.63,27.27Z" style="fill:#6a4e28"/><path d="M35.2,30.14a.94.94,0,0,1-.82.48.93.93,0,0,1-.46-.12c-.62-.35-1.22-.67-1.81-1a.93.93,0,0,1-.4-1.26A.94.94,0,0,1,33,27.85c.61.32,1.23.65,1.87,1A1,1,0,0,1,35.2,30.14Z" style="fill:#6a4e28"/><path d="M35.94,20.84a.94.94,0,0,1-.87.57,1,1,0,0,1-.37-.07c-.65-.29-1.29-.54-1.9-.77a.94.94,0,0,1,.68-1.76c.63.24,1.28.51,2,.8A1,1,0,0,1,35.94,20.84Z" style="fill:#6a4e28"/><path d="M41.51,23.71a.94.94,0,0,1-1.28.36c-.62-.34-1.22-.67-1.81-1A1,1,0,0,1,38,21.83a.94.94,0,0,1,1.27-.4c.61.31,1.23.65,1.87,1A1,1,0,0,1,41.51,23.71Z" style="fill:#6a4e28"/><path d="M43.75,14.68a.94.94,0,0,1-.86.55,1.09,1.09,0,0,1-.39-.08c-.65-.3-1.27-.57-1.88-.82a.94.94,0,1,1,.72-1.74c.62.26,1.27.54,1.95.85A.93.93,0,0,1,43.75,14.68Z" style="fill:#6a4e28"/><path d="M49.26,17.65a.94.94,0,0,1-.81.47A.9.9,0,0,1,48,18c-.61-.35-1.21-.69-1.8-1a.94.94,0,1,1,.9-1.65c.6.33,1.22.67,1.84,1A.94.94,0,0,1,49.26,17.65Z" style="fill:#6a4e28"/></svg>