<svg xmlns="http://www.w3.org/2000/svg" viewBox="0 0 60 60"><title>Eggplant</title><path d="M55.27,21.92c0,.11-.07.21-.1.32l-.06.2a1.05,1.05,0,0,1-.78.72,1,1,0,0,1-.24,0,1.08,1.08,0,0,1-.78-.34l-.44-.46c-3.33,10.33-7.92,18.2-14,24-5.43,5.22-11.18,8-16.6,10.36A13.14,13.14,0,0,1,6.07,52,13.38,13.38,0,0,1,4.76,39.81a12.11,12.11,0,0,1,8.4-7.53c15.78-4,19.72-10.3,23.33-17l-.65,0a1.09,1.09,0,0,1-.89-.55,1,1,0,0,1,0-1l0-.05A11.05,11.05,0,0,1,47.35,8.07a8.86,8.86,0,0,0,1.2-2.42,2.86,2.86,0,0,1,1.26-1.79A2.92,2.92,0,0,1,52,3.48a2.89,2.89,0,0,1,2.18,3.44,13.84,13.84,0,0,1-1.76,3.94A11,11,0,0,1,55.27,21.92Z" style="fill:#243529"/><path d="M45.26,20.06a1.49,1.49,0,0,1-.21,0,1,1,0,0,1-.52-.07.75.75,0,0,1-.15-.09,1.53,1.53,0,0,1-.16-.11.93.93,0,0,1-.22-.3l-2-4-3.17-.14C37,18.94,35,22.64,31.32,25.94c-4.13,3.73-9.74,6.4-17.64,8.4a10.05,10.05,0,0,0-6.93,6.24,11.23,11.23,0,0,0,1.1,10.24,11,11,0,0,0,13.58,4c5.24-2.3,10.79-5,16-9.93,6-5.79,10.54-13.73,13.79-24.27l-1.71-1.83Z" style="fill:#5e1cd3"/><path d="M49.75,9h0c.33.17.64.35,1,.55h0a11.19,11.19,0,0,0,1.35-3.06.74.74,0,0,0-.56-.89.72.72,0,0,0-.56.09.75.75,0,0,0-.33.47,10.3,10.3,0,0,1-1.21,2.66l.33.17Z" style="fill:#619d34"/><path d="M50.14,11.73l-.33-.24a8.71,8.71,0,0,0-1-.63h0a7.54,7.54,0,0,0-1.18-.49,8.88,8.88,0,0,0-9.8,2.81l5,.22h.09a1.06,1.06,0,0,1,.66.34,1,1,0,0,1,.16.24l1.85,3.76,4-1.21h.1a1.52,1.52,0,0,1,.21,0h0a.9.9,0,0,1,.36.08l.08,0a1.23,1.23,0,0,1,.33.23l2.58,2.75h0l.34.36A8.81,8.81,0,0,0,50.14,11.73Z" style="fill:#619d34"/><path d="M10.84,40.51h0A.81.81,0,0,0,9.72,41l-.24.67a10.24,10.24,0,0,0,0,6.29.79.79,0,0,0,.8.53h0a.79.79,0,0,0,.72-1,8.62,8.62,0,0,1,0-5.27c.06-.19.14-.39.21-.57A.82.82,0,0,0,10.84,40.51Zm3.38-4.39c-1.25.61-2.73,1.38-2.77,2.14,0,.43,1.33.44,1.33.44a1.39,1.39,0,0,0,.87-.32,7.2,7.2,0,0,1,1.24-.78.82.82,0,0,0,.46-.77v0A.8.8,0,0,0,14.22,36.12Z" style="fill:#ab91e5"/></svg>