<svg xmlns="http://www.w3.org/2000/svg" viewBox="0 0 60 60"><title>Fennel</title><path d="M51.62,8.73A4.86,4.86,0,0,1,53.07,8a1.06,1.06,0,1,0-.56-2,6.86,6.86,0,0,0-2.66,1.56,10.48,10.48,0,0,0-1.21-.6A12.44,12.44,0,0,0,45.54,6a4.89,4.89,0,0,1,1.05-1.43A1.06,1.06,0,1,0,45.19,3a6.67,6.67,0,0,0-1.86,2.89,9.16,9.16,0,0,0-3.42.75A2.86,2.86,0,0,1,40,5.78a4.13,4.13,0,0,1,.44-1.15,1.06,1.06,0,0,0-1.83-1.08A5.42,5.42,0,0,0,38,7.87a8.61,8.61,0,0,0-1.71,2.23,7,7,0,0,1-.6-2.3A1.06,1.06,0,1,0,33.61,8c0,.37.3,3.08,1.78,4.4a18.69,18.69,0,0,0-.66,3.28A8.78,8.78,0,0,1,33.25,14V3.63a1.07,1.07,0,0,0-1.06-1.07H27.56a1.07,1.07,0,0,0-1.07,1.07v16a8.47,8.47,0,0,0-1.73,1.08,8.92,8.92,0,0,0-1.19,1.19Q21.85,24,20.4,26V12A1.07,1.07,0,0,0,19.34,11H14.71A1.07,1.07,0,0,0,13.64,12V40.48a16.34,16.34,0,0,0,32.44,2.84h0a15.76,15.76,0,0,0,.25-2.83V25.82h0V12A1.07,1.07,0,0,0,45.27,11H43.51a.72.72,0,0,0,.15-.27A1.06,1.06,0,0,0,43,9.32a8.21,8.21,0,0,1-1.75-.93A7.18,7.18,0,0,1,43.33,8a7,7,0,0,0,2.75,3.11,1,1,0,0,0,.56.16,1.07,1.07,0,0,0,.56-2,6.66,6.66,0,0,1-1.26-1.06,11,11,0,0,1,1.88.58c.29.12.57.26.84.4a5.7,5.7,0,0,0-.28,3,1.07,1.07,0,0,0,1,.83l.23,0a1.06,1.06,0,0,0,.81-1.26,3.42,3.42,0,0,1,0-1.23,4.42,4.42,0,0,1,1.28,2.37,1.06,1.06,0,0,0,2.1-.34A6.68,6.68,0,0,0,51.62,8.73Zm-14.23,4.4c.4,0,.81.06,1.21.06l1,0v2.5a7.28,7.28,0,0,1-2.77.73A16.82,16.82,0,0,1,37.39,13.13ZM39.57,18V26c-.78-1.08-1.64-2.19-2.55-3.34a29,29,0,0,1-.31-4.15A8.65,8.65,0,0,0,39.57,18Zm-6.32-.79a6.13,6.13,0,0,0,1.34.89c0,.8,0,1.54,0,2.21a8.06,8.06,0,0,0-1.38-.76ZM41.44,11h-.8l-.07,0h-.06a16,16,0,0,1-2.26.1,6.2,6.2,0,0,1,1.1-1.48A9.6,9.6,0,0,0,41.44,11Z" style="fill:#05350f"/><path d="M20.42,29.73l.68.51.32.23c.22.16.45.32.69.47l.41.27c.23.16.48.31.72.46l.47.28.77.44.5.26c.28.14.55.29.83.42l.42.19c.57.26,1.16.5,1.76.72l.61.22.84.25.56.16c.24-.06.47-.14.71-.21s.73-.22,1.09-.35.71-.25,1.05-.39l.66-.29.75-.34c.22-.11.44-.22.65-.34l.68-.35.62-.36c.21-.12.42-.24.62-.37l.57-.36.59-.39.51-.35.56-.41.42-.31.09-.07c-1.32-2-2.94-4.16-4.82-6.48a6.11,6.11,0,0,0-2.9-2,6.22,6.22,0,0,0-.93-.21h-.06a6.16,6.16,0,0,0-4.76,1.31,6.1,6.1,0,0,0-.88.88c-1.86,2.29-3.48,4.46-4.82,6.48Z" style="fill:#f6f2d6"/><path d="M41.67,30.78h0l-.33.26,0,0h0l-.81.62-.32.24-1,.73-.72.47-.36.23A31.34,31.34,0,0,1,35,35l-.1,0-.89.39-.31.14,1.43.46.17.06c.64.22,1.26.46,1.86.7l.53.22c.49.22,1,.43,1.44.66l.33.16c.55.27,1.07.56,1.58.86l.41.25c.4.25.79.5,1.17.77L43,40c.42.3.83.61,1.22.93V28.51l-.63.6-.17.16-.61.55-.24.21c-.28.24-.57.49-.88.74Z" style="fill:#f6f2d6"/><path d="M30.83,18.89l.28.05h0V4.69h-2.5V19A8.57,8.57,0,0,1,30.83,18.89Z" style="fill:#acf252"/><path d="M15.79,25.44l.3.34.07.07q.21.24.51.54c0,.06.12.12.18.18s.3.31.47.47l.28.27.51.48.16.15V13.08h-2.5V25.42Z" style="fill:#acf252"/><path d="M41.7,27.94l.14-.13c.21-.19.41-.37.59-.55l.2-.19.63-.63,0,0c.41-.43.73-.77.92-1V13.08H41.7Z" style="fill:#acf252"/><path d="M43.39,43.05c-.19-.16-.38-.34-.58-.5L42,42c-.2-.15-.4-.31-.62-.46l-.86-.56c-.23-.14-.44-.28-.67-.41s-.65-.36-1-.53l-.69-.37-1.12-.5-.7-.31-1.33-.5-.64-.24c-.57-.19-1.17-.37-1.78-.55l-.35-.11c-.75-.21-1.53-.41-2.33-.6h0l-.21,0h0l-.36-.11c-.46-.12-.91-.25-1.36-.39l-.32-.12c-.47-.16-.94-.33-1.39-.52l-.17-.07a32.4,32.4,0,0,1-7.4-4.44l0,0L18.56,31l-.25-.2h0c-.31-.25-.6-.5-.88-.74l-.23-.21-.61-.54-.18-.17-.63-.6v12A14.24,14.24,0,0,0,30,54.7h0A14.19,14.19,0,0,0,43.88,43.51Z" style="fill:#f6f2d6"/></svg>