<svg xmlns="http://www.w3.org/2000/svg" viewBox="0 0 60 60"><title>Garlic</title><path d="M56.29,38.26a10.14,10.14,0,0,1-5.22,4.43,11.4,11.4,0,0,1-7.81,6.83,19.85,19.85,0,0,1-5.42.78l.3.35a1.05,1.05,0,0,1-.8,1.74,1,1,0,0,1-.8-.37L35.62,51c-.34.2-.69.38-1,.55l1,2A1.07,1.07,0,0,1,35,54.86a1.09,1.09,0,0,1-.46.1,1,1,0,0,1-1-.59l-1.08-2.2c-.31.07-.62.12-.94.16v2.55a1.06,1.06,0,1,1-2.11,0V52.33c-.32,0-.63-.09-.94-.16l-1.08,2.2a1,1,0,0,1-.95.59,1.09,1.09,0,0,1-.46-.1,1.05,1.05,0,0,1-.48-1.41l.94-2c-.35-.17-.71-.35-1.05-.55L24.56,52A1.06,1.06,0,1,1,23,50.65l.3-.35a19.85,19.85,0,0,1-5.42-.78A11.4,11.4,0,0,1,10,42.69a10.09,10.09,0,0,1-5.21-4.43c-1.41-2.55-1.56-5.69-.45-9.35a19.67,19.67,0,0,1,6.22-9.67,30.66,30.66,0,0,1,8.35-4.73l.3-.12c3.33-1.36,6-2.44,7.13-5.67a4.26,4.26,0,0,1,8.37,0C35.89,12,38.52,13,41.84,14.38l.32.13a30.59,30.59,0,0,1,8.36,4.73,19.81,19.81,0,0,1,6.22,9.67C57.84,32.57,57.69,35.71,56.29,38.26Z" style="fill:#33322d"/><path d="M54.72,29.53c-2.43-8-8.17-10.94-13.36-13.06l-.31-.13c-3.54-1.45-6.88-2.81-8.34-7,0-.05,0-.11,0-.16a2.87,2.87,0,0,0-.43-1,1.93,1.93,0,0,0-1.69-.83,2.15,2.15,0,0,0-2.13,1.8l0,.16c-1.46,4.19-4.81,5.56-8.35,7l-.3.13C14.54,18.59,8.8,21.52,6.38,29.53c-.94,3.08-.84,5.68.28,7.72A7.52,7.52,0,0,0,9.29,40a2,2,0,0,0,0-.24A15,15,0,0,1,10.41,32a24.79,24.79,0,0,1,4.64-7.15,1.05,1.05,0,1,1,1.56,1.42c-3.86,4.23-5.83,9.15-5.27,13.19s2.95,6.81,7.09,8a17.63,17.63,0,0,0,4,.67,12.81,12.81,0,0,1-2.56-7.78,31.5,31.5,0,0,1,1.74-8.23,83.17,83.17,0,0,1,3.64-9.31,1.05,1.05,0,1,1,1.91.89C24.61,29.22,22,37,22,40.39c0,5.45,3.84,9.89,8.57,9.89s8.56-4.44,8.56-9.89c0-3.44-2.63-11.17-5.18-16.65a1.05,1.05,0,1,1,1.91-.89,83.78,83.78,0,0,1,3.64,9.3,31.68,31.68,0,0,1,1.75,8.24,12.82,12.82,0,0,1-2.56,7.77,17,17,0,0,0,4-.68,9.25,9.25,0,0,0,7-8c.4-2.92-.46-6.21-2.5-9.52a25.7,25.7,0,0,0-8.09-8.12A1.06,1.06,0,0,1,40.3,20a28,28,0,0,1,8.76,8.81c2.29,3.73,3.26,7.5,2.79,10.91a1.89,1.89,0,0,0-.05.23,7.47,7.47,0,0,0,2.65-2.75C55.56,35.19,55.65,32.6,54.72,29.53ZM21.92,21.8a24.91,24.91,0,0,0-2.37,1.7,1.08,1.08,0,0,1-.66.23,1,1,0,0,1-.82-.39,1.05,1.05,0,0,1,.16-1.49A27.59,27.59,0,0,1,20.79,20a1.05,1.05,0,0,1,1.13,1.78Z" style="fill:#f4eadc"/></svg>
