<svg xmlns="http://www.w3.org/2000/svg" viewBox="0 0 60 60"><title>Grape Vine</title><path d="M40.05,47.32a7.18,7.18,0,0,1,.06.81,6.33,6.33,0,0,1-12.27,2.2,6.37,6.37,0,0,1-4.32-4.12c-.16,0-.31,0-.47,0a6.34,6.34,0,0,1-5.28-9.83,6.3,6.3,0,0,1-.19-9.36,6.19,6.19,0,0,1-.86-3.17,6.32,6.32,0,0,1,11.76-3.24c.27-2.85-2.67-8-4.44-9.87a11.7,11.7,0,0,1-3.86,2.32h-.07a1,1,0,0,1-.38-1.91c1.66-.4,5.71-4.06,5.93-5.12a1,1,0,0,1,1.16-.75,1,1,0,0,1,.75,1.16,7.51,7.51,0,0,1-2.09,3A21.41,21.41,0,0,1,30.35,19a6.32,6.32,0,0,1,10.27,7.36,6.33,6.33,0,0,1,1,9.77,6.31,6.31,0,0,1-1.56,11.19Z" style="fill:#05350f"/><path d="M29.53,31.58A4.39,4.39,0,1,0,33.92,36,4.39,4.39,0,0,0,29.53,31.58Z" style="fill:#9971e2"/><path d="M23.22,35.53h-.17a4.39,4.39,0,0,0,0,8.77h.15v-.05a6.27,6.27,0,0,1,1.55-4.12A6.27,6.27,0,0,1,23.2,36C23.2,35.82,23.21,35.68,23.22,35.53Z" style="fill:#9971e2"/><path d="M35.48,25.54a6.05,6.05,0,0,1,1.66-.23,6.25,6.25,0,0,1,1.68.23,4.38,4.38,0,1,0-7.67-3.95A6.35,6.35,0,0,1,35.48,25.54Z" style="fill:#9971e2"/><path d="M25.15,27.71a4.35,4.35,0,0,0,1.08,2.86,6.26,6.26,0,0,1,6.6,0,4.34,4.34,0,0,0,1.09-2.86,4.39,4.39,0,1,0-8.77,0Z" style="fill:#9971e2"/><path d="M23.21,27.46a4.51,4.51,0,0,0-1.28-.2A4.38,4.38,0,0,0,19.09,35a6.26,6.26,0,0,1,4-1.4,6.08,6.08,0,0,1,.61,0,6.31,6.31,0,0,1,1.09-1.77,6.27,6.27,0,0,1-1.55-4.12C23.2,27.62,23.21,27.54,23.21,27.46Z" style="fill:#9971e2"/><path d="M35.86,27.46c0,.08,0,.16,0,.25a6.27,6.27,0,0,1-1.55,4.12,6.25,6.25,0,0,1,1.54,4,4.18,4.18,0,0,0,1.28.2,4.39,4.39,0,0,0,0-8.77A4.45,4.45,0,0,0,35.86,27.46Z" style="fill:#9971e2"/><path d="M23.05,19.5a4.39,4.39,0,0,0-4.38,4.38,4.31,4.31,0,0,0,.52,2.06,6.3,6.3,0,0,1,2.74-.63,6.1,6.1,0,0,1,1.66.23A6.38,6.38,0,0,1,27,21.92,4.38,4.38,0,0,0,23.05,19.5Z" style="fill:#9971e2"/><path d="M39.86,37.36a6.38,6.38,0,0,1-2.72.62,6,6,0,0,1-1.54-.2,6.2,6.2,0,0,1-1.28,2.32,6.29,6.29,0,0,1,1.55,4.13,6.4,6.4,0,0,1-.07.88,4.38,4.38,0,1,0,4.06-7.75Z" style="fill:#9971e2"/><path d="M38,47.66A6.23,6.23,0,0,1,35.22,47a6.36,6.36,0,0,1-5.1,3.54,4.38,4.38,0,0,0,8-2.41,3.59,3.59,0,0,0,0-.47Z" style="fill:#9971e2"/><path d="M33.92,44.23a4.36,4.36,0,0,0-1.08-2.87,6.21,6.21,0,0,1-3.31.94,6.28,6.28,0,0,1-3.3-.93,4.31,4.31,0,0,0-1.08,2.86,4.39,4.39,0,0,0,8.77,0Z" style="fill:#9971e2"/></svg>