<svg xmlns="http://www.w3.org/2000/svg" viewBox="0 0 60 60"><title>Grass</title><path d="M53,39.58v7.67h1.3a.65.65,0,0,1,.68.69v5.83a.64.64,0,0,1-.68.68H5.16a.64.64,0,0,1-.68-.68V47.94a.65.65,0,0,1,.68-.69H6.54V39.44H5.16a.65.65,0,0,1-.68-.69V32.93a.65.65,0,0,1,.68-.69H7.5c-.76-3.08-3.57-15.7.06-22.9A.7.7,0,0,1,8.32,9a.73.73,0,0,1,.55.62c0,.07.27,3.49.75,7.06.07-2.81.14-5.9.14-9.26a.64.64,0,0,1,.41-.61.62.62,0,0,1,.75.13c.21.21,1.58,1.92,2.2,8.78a27.63,27.63,0,0,1,1.64-5.49.63.63,0,0,1,.76-.41.67.67,0,0,1,.54.69c0,.07.07,2.88.28,6.79.55-8.16,2.06-10.08,2.33-10.36a.62.62,0,0,1,.75-.13.6.6,0,0,1,.42.61c0,4.46.06,8.44.2,11.86.48-4.59.69-9.53.69-9.59a.72.72,0,0,1,.55-.62.69.69,0,0,1,.75.34,16.8,16.8,0,0,1,1.37,3.84,14.26,14.26,0,0,1,1.3-3.84.7.7,0,0,1,.76-.34.73.73,0,0,1,.55.62c0,.06.27,3.49.75,7.06.07-2.81.14-5.9.14-9.26A.63.63,0,0,1,28,7c.21.21,1.58,1.92,2.2,8.78a27.63,27.63,0,0,1,1.64-5.49.63.63,0,0,1,.76-.41.67.67,0,0,1,.55.69c0,.07.06,2.88.27,6.78C34,9.21,35.47,7.29,35.74,7a.62.62,0,0,1,.75-.13.59.59,0,0,1,.42.61c0,4.46.06,8.43.2,11.86.48-4.59.69-9.53.69-9.6a.72.72,0,0,1,.55-.61.69.69,0,0,1,.75.34,11.86,11.86,0,0,1,1,2.33V7.49a.65.65,0,0,1,.41-.61.62.62,0,0,1,.75.13c.21.21,1.58,1.92,2.2,8.78a27.63,27.63,0,0,1,1.64-5.49.63.63,0,0,1,.76-.41.67.67,0,0,1,.55.69c0,.07.07,2.88.27,6.78C47.19,9.21,48.7,7.29,49,7a.64.64,0,0,1,.76-.13.59.59,0,0,1,.41.61c0,4.46.07,8.43.2,11.86.48-4.59.69-9.53.69-9.6a.72.72,0,0,1,.55-.61.69.69,0,0,1,.75.34c3.63,7.27,1.51,19.88,1,22.9h1a.64.64,0,0,1,.68.68v5.83a.65.65,0,0,1-.68.69Z" style="fill:#05350f"/><path d="M11.2,11.33c-.14,11.11-.83,18.85-1,21h1.58C12.5,20.86,11.88,14.62,11.2,11.33Z" style="fill:#1d9a46"/><path d="M16.48,32.31A171.71,171.71,0,0,1,14.9,14.48C13.32,21,13.6,29.77,13.73,32.31Z" style="fill:#1d9a46"/><path d="M41.43,11.4c0,3.22-.07,6.24-.21,8.84s-.2,5.08-.41,7.2c-.13,2.4-.27,4-.34,4.94h1.58C42.73,21,42.12,14.69,41.43,11.4Z" style="fill:#1d9a46"/><path d="M19.49,32.31c-.07-1-.27-3.22-.48-6.44-.2-3.64-.41-8.64-.48-14.54-.68,3.36-1.3,9.6-.55,21Z" style="fill:#1d9a46"/><path d="M9.48,22.64a59.94,59.94,0,0,1-1.64-9.73c-1.65,6.65.34,15.9,1,18.85C9,30.25,9.28,27.1,9.48,22.64Z" style="fill:#1d9a46"/><path d="M33.55,32.31A171.71,171.71,0,0,1,32,14.48C30.39,21,30.67,29.77,30.8,32.31Z" style="fill:#1d9a46"/><path d="M28.2,11.33a203.24,203.24,0,0,1-1,21h1.58C29.5,20.86,28.88,14.62,28.2,11.33Z" style="fill:#1d9a46"/><path d="M21.62,32.31c.41-2,2.12-11.93.34-19.13-.2,3.77-.68,9.67-1.58,12.69.21,3.29.42,5.55.48,6.44Z" style="fill:#1d9a46"/><path d="M36.56,32.31c-.07-1-.27-3.22-.48-6.44-.2-3.64-.41-8.64-.48-14.54-.68,3.36-1.3,9.6-.61,21Z" style="fill:#1d9a46"/><path d="M23.74,27.92c-.27,2-.55,3.57-.68,4.39h1.57C24.43,31.49,24.09,29.91,23.74,27.92Z" style="fill:#1d9a46"/><path d="M26.55,22.64a59.94,59.94,0,0,1-1.64-9.73c-1.65,6.65.27,15.9,1,18.85C26.07,30.25,26.35,27.1,26.55,22.64Z" style="fill:#1d9a46"/><path d="M48.08,33.75a.07.07,0,0,1-.07.07h-.14c-.13,0-.2-.07-.27-.07H43.9a.42.42,0,0,1-.28.07.51.51,0,0,1-.34-.07h-.14c-.06.07-.13.07-.27.07H42.8c-.14,0-.2,0-.27-.07H34.78a.07.07,0,0,1-.07.07h-.13c-.14,0-.21-.07-.28-.07H30.6a.42.42,0,0,1-.28.07.51.51,0,0,1-.34-.07h-.14c-.06.07-.13.07-.27.07H29.5c-.14,0-.2,0-.27-.07H17.64a.07.07,0,0,1-.07.07h-.13c-.14,0-.21-.07-.28-.07h-3.7a.41.41,0,0,1-.27.07.52.52,0,0,1-.35-.07h-.13c-.07.07-.14.07-.28.07h-.07c-.13,0-.2,0-.27-.07H5.92v4.46H53.63V33.75Zm-39.14,3a.83.83,0,1,1,.82-.83A.83.83,0,0,1,8.94,36.77Zm41.54,0a.83.83,0,1,1,.82-.83A.83.83,0,0,1,50.48,36.77Z" style="fill:#1d9a46"/><path d="M46.71,32.31a171.71,171.71,0,0,1-1.58-17.83C43.56,21,43.9,29.77,44,32.31Z" style="fill:#1d9a46"/><path d="M49.79,32.31c-.06-1-.27-3.22-.48-6.44-.2-3.71-.41-8.64-.48-14.54-.75,3.36-1.37,9.6-.61,21Z" style="fill:#1d9a46"/><path d="M38.69,32.31a44.9,44.9,0,0,0,.82-5.42c.14-1.78.28-4,.34-6.44A35,35,0,0,0,39,13.18c-.2,3.77-.68,9.67-1.58,12.69.21,3.29.42,5.55.48,6.44Z" style="fill:#1d9a46"/><path d="M51.92,32.31c.41-2,2.12-11.93.34-19.13C52,17,51.51,22.85,50.69,25.87c.2,3.29.41,5.55.48,6.44Z" style="fill:#1d9a46"/><polygon points="51.71 39.58 48.7 39.58 51.71 41.22 51.71 39.58" style="fill:#1d9a46"/><polygon points="7.97 41.77 11.81 39.51 7.97 39.51 7.97 41.77" style="fill:#1d9a46"/><polygon points="7.91 47.26 11.4 47.26 7.91 45.34 7.91 47.26" style="fill:#1d9a46"/><path d="M7.91,43.76l6.3,3.49H45.54l6.11-3.49v-1l-5.83-3.22H14.49L7.91,43.42Z" style="fill:#1d9a46"/><polygon points="51.65 45.34 48.22 47.26 51.65 47.26 51.65 45.34" style="fill:#1d9a46"/><path d="M5.92,48.63v4.45H53.63V48.63Zm3,3.08a.82.82,0,1,1,0-1.64.82.82,0,1,1,0,1.64Zm41.54,0a.82.82,0,1,1,.82-.82A.82.82,0,0,1,50.48,51.71Z" style="fill:#1d9a46"/></svg>