<svg xmlns="http://www.w3.org/2000/svg" viewBox="0 0 60 60"><title>Horseradish</title><path d="M12.25,46C10.84,47,9,47.91,7.3,46.89a3.44,3.44,0,0,1-1.4-4.58,11.72,11.72,0,0,1,3.64-4A33.3,33.3,0,0,0,14,33.75c1.39-1.66,3.1-3,4.51-4.63.76-.89,1.39-1.88,2.07-2.82S22,24.8,22.49,24c1-1.56,1-3.5,2-5.09A3.48,3.48,0,0,1,27.36,17a19.65,19.65,0,0,1,.78-1.88c.3-.74.61-1.82,1.42-2.18s1.52.23,2,.71l0,0c0-.8.64-1.05,1.21-1.46.74-.54.51-1.58.72-2.41.14-.6.31-1.2.48-1.79.26-.87.85-2.8,2.11-2.1s1.42,2.62,1.19,4c.27-.17.53-.35.81-.5.83-.46,1.55-.13,1.51.86-.09,1.84-1.68,3.51-3.09,4.56a2.84,2.84,0,0,1,.42.08c.74.21,1.6,1,1,1.8s-1.47.83-1.85,1.55a13.53,13.53,0,0,1-2.49,3.06,3.32,3.32,0,0,1,.08,3.32,6.66,6.66,0,0,1-1.8,1.54,8,8,0,0,0-1.79,1.65c-.68.85-1.24,1.79-1.92,2.64S26.73,32,26,32.75s-1.51,1.79-2.23,2.71a17.89,17.89,0,0,1-1.91,2.34c-1.43,1.32-3.23,2.16-4.65,3.52A59.07,59.07,0,0,1,12.25,46Z" style="fill:#05350f"/><path d="M53.87,16.66c-.15,1.51-1.52,2.59-2.64,3.55a3.08,3.08,0,0,1,.12.78,6.88,6.88,0,0,1-.51,2.84c-.31.65-1,1-1.54,1.43a8.94,8.94,0,0,0-1.45,1.62,1,1,0,0,1-1.15.33,2.68,2.68,0,0,1-.49,2.05c-1.42,2.11-4,3.13-5.39,5.24-1.09,1.68-2.73,2.89-4.09,4.33-.63.67-1.11,1.47-1.76,2.11a12.72,12.72,0,0,1-2.11,1.62c-.82.52-1.67,1-2.46,1.59s-1.43,1.2-2.21,1.73a37.85,37.85,0,0,0-5.05,3.36,21.18,21.18,0,0,1-7.85,4.44c-1,.34-2.43.71-3.4,0s-1-2.51-.58-3.61c1-2.81,4.15-4.5,6.56-6a16,16,0,0,0,3.61-2.73,25.25,25.25,0,0,1,1.94-2.06,9.2,9.2,0,0,1,2.15-1.23,15.94,15.94,0,0,0,4.24-3.91,11.18,11.18,0,0,0,1.55-2.07,8.74,8.74,0,0,1,1.25-2c.68-.7,1.64-1.11,2.35-1.79a5.15,5.15,0,0,0,1.26-2c.52-1.47.8-3.2,2.32-4A3.61,3.61,0,0,1,41.23,22a1.21,1.21,0,0,1,0-1c.21-.42.76-.62,1.08-1a2.94,2.94,0,0,0,.54-1.66,1.24,1.24,0,0,1,2.26-.72,2.85,2.85,0,0,1,.31.46c.25-.36.54-.7.76-1s.73-.83,1.1-1.25c1-1.07,1-2.66,1.33-4,.15-.65.12-1.43.78-1.79a1.28,1.28,0,0,1,1.46.19c.75.65.79,1.85.88,2.76,0,.39.17.8.22,1.2A1.58,1.58,0,0,1,53,13.74C54,13.83,53.93,16,53.87,16.66Z" style="fill:#05350f"/><path d="M29.86,19.55c-.26-.12-.52-.28-.79-.41a3,3,0,0,0-1.78-.31c-1.6.34-1.86,2.54-2.22,3.81a7.74,7.74,0,0,1-1.42,3c-.65.78-1.37,1.46-1.94,2.3a65.48,65.48,0,0,1-4.57,5.46l.16.12a8.07,8.07,0,0,1,1.48,1.61c.15.26.58.83.22,1.11s-.86-.23-1.13-.43a10.07,10.07,0,0,1-1.52-1.54,32.22,32.22,0,0,1-3.2,3.2c-1,.79-1.92,1.54-2.83,2.37-1.12,1-4.32,4.12-2,5.58.79.5,1.83,0,2.53-.44a16.29,16.29,0,0,0,3-2.48c.86-.85,1.67-1.74,2.48-2.61,1-1.08,2.18-2,3.28-3,.2-.16.37-.34.56-.51a3.89,3.89,0,0,1,0-.91c-.05-.72.69-.78,1.06-.3a.47.47,0,0,1,.06.09c.22-.24.45-.47.67-.7a.88.88,0,0,1,0-.15,3.84,3.84,0,0,1-.05-1.31c-.05-.71.69-.78,1.07-.3a1.13,1.13,0,0,1,.2.45l.71-.81c0-.35,0-.71-.08-1.07s-.16-.73.19-.91.94.69,1,.73c.39-.47.78-.94,1.16-1.43l-.29-.15A7.86,7.86,0,0,1,24,28.16c-.25-.25-1-1.06-.16-1.05a2.55,2.55,0,0,1,1,.3,5.53,5.53,0,0,1,1.71,1.37,1.55,1.55,0,0,0,.13.17L28.26,27c.61-.74,1.36-1.41,2-2.15a9.92,9.92,0,0,0-1.14-1.58,12,12,0,0,1-1.25-1.13c-.26-.21-1-.4-1.1-.74-.23-.64,1.14-.43,1.37-.35a4.79,4.79,0,0,1,2.73,2.59c0,.05.07.15.12.26a4.83,4.83,0,0,0,.26-.45C32.05,21.91,31.05,20.55,29.86,19.55ZM12.31,42a10.9,10.9,0,0,1-1.41-1.39c-.32-.36-.08-.73.37-.7a2,2,0,0,1,1.07.4,3.25,3.25,0,0,1,.92,1.1C13.52,42.24,13,42.58,12.31,42Z" style="fill:#f4eadc"/><path d="M30.73,16A2.8,2.8,0,0,0,30,14.78a1.68,1.68,0,0,1-.09.27c-.2.48-.38,1-.57,1.45-.1.26-.19.53-.29.77a11.88,11.88,0,0,1,1.31.57A2.91,2.91,0,0,0,30.73,16Z" style="fill:#1d9a46"/><path d="M42.51,22.72c.35-.81,1.54-1.13,1.73-2a3.37,3.37,0,0,0,0-1.37.53.53,0,0,1,0,.12,7.28,7.28,0,0,1-.41,1.1A7,7,0,0,1,42,22.3s.24.16.34.25S42.45,22.67,42.51,22.72Z" style="fill:#1d9a46"/><path d="M33.42,19.44a9.65,9.65,0,0,0,1.5-2.15,2.15,2.15,0,0,1,.81-.78,2.48,2.48,0,0,0-1.77.41A19.66,19.66,0,0,1,32,19c.22.23.74.86.82,1C33.07,19.76,33.28,19.59,33.42,19.44Z" style="fill:#1d9a46"/><path d="M32.49,16.29A4.17,4.17,0,0,1,34,15.05a4.6,4.6,0,0,1,1-.27c-.16-.72.24-1.12.8-1.49a5.25,5.25,0,0,0,1.63-1.51c-.68.44-1.35.79-1.75-.12-.48-1.12.71-2.59,0-3.63.15.2-.26,1-.34,1.23a5.41,5.41,0,0,0-.4,1.63,2.92,2.92,0,0,1-.54,2.17,9.15,9.15,0,0,1-1.68,1.29c.2-.14-.3.15-.43.14A3.12,3.12,0,0,1,32.49,16.29Z" style="fill:#1d9a46"/><path d="M52,16c-.47.68-.86,1.59-1.68,1.85-.41.14-1,0-1-.56a4.29,4.29,0,0,1,.61-1.41A3.93,3.93,0,0,0,50,13.76a8.75,8.75,0,0,1-.47,1.39,6.25,6.25,0,0,1-1.27,1.7,14.82,14.82,0,0,0-1.44,1.9c-.25.38-.52.91-1,1.1a5.32,5.32,0,0,1,0,.9C45.6,22,44.52,23,43.6,23.84c.33.36.66.71,1,1a7.28,7.28,0,0,1,.23-.79,2.33,2.33,0,0,1,1.48-1.64,3.65,3.65,0,0,0,1.62-.81c.62-.69,1-1.92,1.93-2.25h.05a10.53,10.53,0,0,1,.93-.8A3.16,3.16,0,0,0,52,17.1C52,16.9,51.92,16.33,52,16Z" style="fill:#1d9a46"/><path d="M48,23.41c-.62.31-1.42.22-1.58,1-.11.48-.09.92-.56,1.21a1,1,0,0,1-.21.1,3.29,3.29,0,0,1,.63.66l.06.1c.12-.65.94-1.38,1.3-1.75s1.44-.94,1.64-1.63a3.93,3.93,0,0,0,.13-.92A4.61,4.61,0,0,1,48,23.41Z" style="fill:#1d9a46"/><path d="M43.5,26.26c-.77-.77-2-3.36-3.41-2.74a1.76,1.76,0,0,0-.71.62c.24.25.45.57.55.66.69.7,1.45,1.3,2.13,2,.2.22,1.71,2,1.11,2.12-.42.08-1.09-.56-1.38-.78A11,11,0,0,1,39,25.47l-.15-.29c-.2.54-.36,1.1-.54,1.5a9.22,9.22,0,0,1-1.73,2.51,26.08,26.08,0,0,0-2.06,2,30.07,30.07,0,0,1-1.83,2.49c-.58.62-1.12,1.28-1.67,1.93h0a3.18,3.18,0,0,1,.26.26,12.25,12.25,0,0,1,1.5,1.94c.25.41.88,1.64-.15,1.17a4.28,4.28,0,0,1-1.14-.83,7.16,7.16,0,0,1-1.21-1.69,11.43,11.43,0,0,1-3.39,2.85,8.88,8.88,0,0,0-2.23,1.34c-.67.6-1.26,1.28-1.87,1.93a22.52,22.52,0,0,1-2.16,1.86,9.62,9.62,0,0,1-2.49,1.6,4.45,4.45,0,0,0-.75.39c0,.07,1,1.42,1.52,2,.3.37.82,1.15-.1,1a3,3,0,0,1-1.24-.62,3.2,3.2,0,0,1-1.09-1.7l-.71.66a6.1,6.1,0,0,0-1.48,1.52c-.35.71-.59,2.59.59,2.72a5.62,5.62,0,0,0,2.19-.76,14.06,14.06,0,0,0,2.39-1.12,16.54,16.54,0,0,0,2.1-1.92.27.27,0,0,1,.08-.07c-.18-.3-.4-.71-.43-.78-.4-.59.21-1,.77-.79a1.19,1.19,0,0,1,.67.75c.3-.24.62-.45.95-.67a6.92,6.92,0,0,1-.44-.79c-.4-.59.21-1,.77-.79a1.24,1.24,0,0,1,.71.89c.84-.54,1.67-1.07,2.48-1.63l-.26-.17a4.86,4.86,0,0,1-1.68-2.4c-.16-.33-.36-.9-.07-1.14s.86.27,1.07.6c.43.54.69,1.18,1.1,1.73a9.17,9.17,0,0,1,.61.84c.3-.22.59-.44.88-.68C30.45,41.8,32.6,40.9,34,39.3c.64-.72,1.17-1.54,1.78-2.28a5.54,5.54,0,0,1,.61-.66,7.31,7.31,0,0,1-.43-.7c-.49-.64.13-1.08.75-.82a1.33,1.33,0,0,1,.66.66c.14-.11.27-.23.4-.35s.31-.31.46-.47l-.5-.55a8.16,8.16,0,0,0-1.6-1.39c-.29-.23-.77-.39-.87-.78s1.63-.13,2,.06A4.13,4.13,0,0,1,39,33.88a16,16,0,0,1,1.93-2c.85-.69,5-3.69,3.3-5C44.21,26.82,43.71,26.47,43.5,26.26Z" style="fill:#f4eadc"/></svg>