<svg xmlns="http://www.w3.org/2000/svg" viewBox="0 0 60 60"><title>Lettuce</title><path d="M54.46,39.24a5.64,5.64,0,0,1-.34,4c-2.38,5.91-10.87,12.26-23.89,12.26a33.14,33.14,0,0,1-13.46-2.66.82.82,0,0,1-.19-.09c-5.32-2.4-8.84-6-10.24-9.51a5.6,5.6,0,0,1-.35-4,8.39,8.39,0,0,1-3-6.63,5.23,5.23,0,0,1,2.1-4.07,13.15,13.15,0,0,1,1-9.2,6.73,6.73,0,0,1,4.53-3.47c.72-4.31,3.18-6.2,4.64-6.95a6.58,6.58,0,0,1,4.57-.63A8.34,8.34,0,0,1,29,4.74a7,7,0,0,1,1.15.51,7.21,7.21,0,0,1,1.13-.51,8.34,8.34,0,0,1,9.22,3.54,6.66,6.66,0,0,1,4.78.58c1.41.73,3.79,2.58,4.44,6.89l.57.1a6.7,6.7,0,0,1,4.5,3.43c1.48,2.75,1.35,6.55.56,9.27a5.2,5.2,0,0,1,2.09,4.06A8.33,8.33,0,0,1,54.46,39.24Z" style="fill:#05350f"/><path d="M32.63,16.4a6.67,6.67,0,0,1,2.88,2.76,7.23,7.23,0,0,1,.76,4.05,6.32,6.32,0,0,1,4.32.27c.29-.74.6-1.41.91-2a22.12,22.12,0,0,0-5.25-7,.83.83,0,0,1-.13-1.17.82.82,0,0,1,1.16-.13,18.56,18.56,0,0,1,3.34,3.6,6.51,6.51,0,0,0,1.17-2.37.83.83,0,0,1,1-.66.81.81,0,0,1,.66,1,8.18,8.18,0,0,1-1.83,3.51c.34.55.64,1.05.88,1.5,1.66-2.54,3.47-3.63,5.16-4a6.7,6.7,0,0,0-3.29-5.06,4.24,4.24,0,0,0-3.77-.22,1,1,0,0,1-.82.09,1,1,0,0,1-.62-.53A6.29,6.29,0,0,0,32,6.72a7.18,7.18,0,0,1,1.55,4.59A18.53,18.53,0,0,1,32.63,16.4Z" style="fill:#a2f748"/><path d="M19.88,23.48l.68-.24a36.39,36.39,0,0,1,.9-4.29,16.24,16.24,0,0,1-2.94-3.48.83.83,0,1,1,1.41-.88A15.14,15.14,0,0,0,22,17.19,27,27,0,0,1,25.56,10a.83.83,0,0,1,1.34,1,29.64,29.64,0,0,0-4.61,11.94,5.22,5.22,0,0,1,2,.29A10.51,10.51,0,0,0,28.41,22a.83.83,0,1,1,.87,1.41,10,10,0,0,1-3,1.17,11.29,11.29,0,0,1,2.56,4.57,5.46,5.46,0,0,1,1.35-.07,8,8,0,0,1,1.78.38,11.26,11.26,0,0,1,1.81-4.29,6.49,6.49,0,0,0-.09-5A4.79,4.79,0,0,0,31.11,18a1,1,0,0,1-.73-1.28l.19-.69a17.83,17.83,0,0,0,.87-4.71,4.53,4.53,0,0,0-3.09-4.61,6.29,6.29,0,0,0-7.15,3.34,1.06,1.06,0,0,1-1.45.45,4,4,0,0,0-3.56.27,6.9,6.9,0,0,0-3.45,5C16.81,16.12,18.75,20.39,19.88,23.48Z" style="fill:#a2f748"/><path d="M23.22,47.54a31.1,31.1,0,0,1-4.2-4,9.62,9.62,0,0,1-3.35.55,13.1,13.1,0,0,1-2.7-.29.84.84,0,0,1-.64-1,.83.83,0,0,1,1-.63,9.8,9.8,0,0,0,4.58,0,37,37,0,0,1-6.69-14.48.83.83,0,0,1,1.64-.3,33.17,33.17,0,0,0,2.25,6.74,8.52,8.52,0,0,0,1.45-3.18.83.83,0,0,1,1.62.37,10.17,10.17,0,0,1-2.28,4.48,31.44,31.44,0,0,0,7.93,10.13,22.79,22.79,0,0,0,.27-8.11,9,9,0,0,1,2-7.16,5,5,0,0,1,.8-.67c-.33-1.17-1.19-3.49-2.9-4.53s-4.12.39-4.14.4a1,1,0,0,1-1.53-.54c-1.78-5.08-3.61-8.09-7.21-7.37a4.64,4.64,0,0,0-3.21,2.46,11,11,0,0,0-.56,8.29A1,1,0,0,1,6.79,30a3,3,0,0,0-1.71,2.75,6.26,6.26,0,0,0,2.86,5.36,1,1,0,0,1,.5.77,1.07,1.07,0,0,1-.32.87c-.34.33-.43,1.32.15,2.77.94,2.32,3.78,5.92,9,8.35a5.93,5.93,0,0,0,4.85-1.67A6.08,6.08,0,0,0,23.22,47.54Z" style="fill:#a2f748"/><path d="M53.67,30a1,1,0,0,1-.53-1.31c.88-2.37,1.11-6-.17-8.38a4.57,4.57,0,0,0-3.13-2.38c-3.9-.89-6.33,3.52-7.68,7.38a1.07,1.07,0,0,1-.64.64,1,1,0,0,1-.89-.1s-2.42-1.45-4.14-.4a3.57,3.57,0,0,0-.92.82l0,.05a10.12,10.12,0,0,0-1.73,4.78,1,1,0,0,1-.56.84,1.06,1.06,0,0,1-1,0A5.83,5.83,0,0,0,30,31.16a2.92,2.92,0,0,0-2.42.9,7,7,0,0,0-1.41,5.48c.7,6.16-.14,10.55-2.5,13.05A7.35,7.35,0,0,1,21.83,52a28,28,0,0,0,12.57-4.5,15.67,15.67,0,0,1-2.89-7.63.82.82,0,0,1,.74-.9.83.83,0,0,1,.91.75,14.06,14.06,0,0,0,2.6,6.82,31.43,31.43,0,0,0,8.79-10.8,10.27,10.27,0,0,1-2.26-4.46.83.83,0,0,1,1.62-.37,8.62,8.62,0,0,0,1.44,3.17,32.8,32.8,0,0,0,2.26-6.73.83.83,0,1,1,1.63.3,35.68,35.68,0,0,1-2.85,8.11.82.82,0,0,1-.18.39l0,0A36.64,36.64,0,0,1,42.5,42.1a9.86,9.86,0,0,0,4.64,0,.83.83,0,0,1,.34,1.63,13.17,13.17,0,0,1-2.7.29,9.46,9.46,0,0,1-3.4-.57,29.86,29.86,0,0,1-5.14,4.77l-.05.07a.81.81,0,0,1-.28.17,28.83,28.83,0,0,1-10.62,4.62,36.4,36.4,0,0,0,4.94.32c13.87,0,20.42-7.16,22-11,.59-1.45.5-2.44.16-2.77a1,1,0,0,1-.32-.87,1,1,0,0,1,.5-.77,6.26,6.26,0,0,0,2.86-5.36A3.06,3.06,0,0,0,53.67,30Z" style="fill:#a2f748"/></svg>