<svg xmlns="http://www.w3.org/2000/svg" viewBox="0 0 60 60"><title>Mulberry</title><path d="M42.06,35.41a4.67,4.67,0,0,1-1.28,3.21,4.67,4.67,0,0,1,1.28,3.21A4.73,4.73,0,0,1,39.7,45.9V46a4.68,4.68,0,0,1-4.19,4.67,4.66,4.66,0,0,1-6.87,2A4.66,4.66,0,0,1,21.51,50a4.69,4.69,0,0,1-4.14-4.65A4.44,4.44,0,0,1,17.58,44,4.67,4.67,0,0,1,17,37.8a4.68,4.68,0,0,1,.22-7.48,4.64,4.64,0,0,1,1.34-6.27,3.78,3.78,0,0,1-.07-.74,4.7,4.7,0,0,1,4.69-4.7,4.39,4.39,0,0,1,1.39.22,4.73,4.73,0,0,1,3-2.78,28.19,28.19,0,0,0-1.85-6.6,1.9,1.9,0,0,1-1.26.05,1.44,1.44,0,0,1-.86-.75.69.69,0,0,1-.05-.24l-.1,0,.09,0a.83.83,0,0,1,.1-.34.77.77,0,0,1,.54-.35c1-.12,2.52-1.51,3.19-2.22a.72.72,0,0,1,1.23.28A52.76,52.76,0,0,1,30.4,16.09a4.6,4.6,0,0,1,1.72,1,4.53,4.53,0,0,1,3.52.5,4.7,4.7,0,0,1,2.16,2.91A4.69,4.69,0,0,1,41,25a4.07,4.07,0,0,1-.1.9,4.67,4.67,0,0,1-.16,6.31A4.64,4.64,0,0,1,42.06,35.41Z" style="fill:#9971e2"/><path d="M40.6,35.41a3.25,3.25,0,0,0-1.37-2.65.69.69,0,0,1-.31-.59.73.73,0,0,1,.3-.59,3.25,3.25,0,0,0,1.38-2.65,3.2,3.2,0,0,0-1-2.34.73.73,0,0,1-.19-.73,3.13,3.13,0,0,0,.15-.9A3.25,3.25,0,0,0,37,21.8a.74.74,0,0,1-.56-.61,3.2,3.2,0,0,0-4.31-2.58.73.73,0,0,1-.8-.22A3.22,3.22,0,0,0,25.75,20a.74.74,0,0,1-.41.53.71.71,0,0,1-.65,0,3.21,3.21,0,0,0-4.76,2.85,3.47,3.47,0,0,0,.14.89.71.71,0,0,1-.36.84,3.21,3.21,0,0,0-.89,5,.74.74,0,0,1-.25,1.16,3.22,3.22,0,0,0-.14,5.8.72.72,0,0,1,.38.54.71.71,0,0,1-.23.63,3.22,3.22,0,0,0,.29,5,.72.72,0,0,1,.23.87,3.24,3.24,0,0,0,3,4.54.77.77,0,0,1,.77.63,3.22,3.22,0,0,0,5.33,2,.69.69,0,0,1,.47-.18.74.74,0,0,1,.48.17,3.2,3.2,0,0,0,5.19-1.43.73.73,0,0,1,.69-.5A3.25,3.25,0,0,0,38.25,46a2.33,2.33,0,0,0,0-.38.76.76,0,0,1,.42-.85,3.23,3.23,0,0,0,.62-5.6.76.76,0,0,1-.3-.59.73.73,0,0,1,.3-.59A3.23,3.23,0,0,0,40.6,35.41Zm-7.52-7.18.08,0a3.36,3.36,0,0,0,1.48.09,3.14,3.14,0,0,0,.78-.22,2.49,2.49,0,0,0,.63-.33,5.16,5.16,0,0,0,.66-.51.46.46,0,0,1,.52-.1.47.47,0,0,1,.29.44,2.41,2.41,0,0,1-.42,1.17,3.09,3.09,0,0,1-.87.88,3.23,3.23,0,0,1-1.29.51,4.21,4.21,0,0,1-.5,0,3.24,3.24,0,0,1-2-.72,2.51,2.51,0,0,1-.74-1,.48.48,0,0,1,.66-.58A5.08,5.08,0,0,0,33.08,28.23ZM27.79,35.5l.08,0a.52.52,0,0,1,.14-.22.5.5,0,0,1,.57,0,5.15,5.15,0,0,0,1,.47,4.45,4.45,0,0,0,2.17.22,4.37,4.37,0,0,0,1.11-.33,4.1,4.1,0,0,0,.89-.52h0a6.56,6.56,0,0,0,.82-.75.46.46,0,0,1,.55-.13.43.43,0,0,1,.22.2l0,0,0,0a.41.41,0,0,1,0,.27,3.18,3.18,0,0,1-.6,1.39A4.14,4.14,0,0,1,32,37.79a3.34,3.34,0,0,1-.65.06A4.23,4.23,0,0,1,28.88,37a3.3,3.3,0,0,1-1-1.14.48.48,0,0,1,0-.31ZM26.9,21.72a.51.51,0,0,1,.51-.11,4.27,4.27,0,0,0,.72.22,3.47,3.47,0,0,0,1.4,0,3.15,3.15,0,0,0,.69-.24,2.73,2.73,0,0,0,.56-.32,6,6,0,0,0,.59-.51.49.49,0,0,1,.5-.12.5.5,0,0,1,.32.42,2.23,2.23,0,0,1-.3,1.13,3,3,0,0,1-.76.9,3.18,3.18,0,0,1-1.2.55,2.53,2.53,0,0,1-.63.08,3.07,3.07,0,0,1-1.77-.58,2.19,2.19,0,0,1-.74-.9A.48.48,0,0,1,26.9,21.72Zm-.29,9.81a4.25,4.25,0,0,0,.88-.52,5.43,5.43,0,0,0,.83-.76.45.45,0,0,1,.56-.12.47.47,0,0,1,.28.48A3.35,3.35,0,0,1,28.55,32a4.11,4.11,0,0,1-1.12,1.07,4.28,4.28,0,0,1-1.64.62,3.66,3.66,0,0,1-.65.06,4.26,4.26,0,0,1-2.52-.84,3.19,3.19,0,0,1-1-1.15.47.47,0,0,1,.12-.55.5.5,0,0,1,.57,0,5.15,5.15,0,0,0,1,.47,4.36,4.36,0,0,0,1.53.27,4.48,4.48,0,0,0,.64-.05A3.93,3.93,0,0,0,26.61,31.53Zm-5.54-7.82a.47.47,0,0,1,.52.05,5.82,5.82,0,0,0,.63.39l.08,0a3.37,3.37,0,0,0,1.27.34,3,3,0,0,0,.73,0,3.29,3.29,0,0,0,.62-.16,4.62,4.62,0,0,0,.71-.33.47.47,0,0,1,.52,0,.48.48,0,0,1,.19.48,2.17,2.17,0,0,1-.6,1,2.93,2.93,0,0,1-1,.65,2.86,2.86,0,0,1-1.16.22h-.14a3,3,0,0,1-2.17-1.14,2.26,2.26,0,0,1-.47-1.07A.47.47,0,0,1,21.07,23.71Zm2.49,18.74a4.76,4.76,0,0,1-1.22-.16,4.24,4.24,0,0,1-2.54-2,3.26,3.26,0,0,1-.42-1.45.44.44,0,0,1,.11-.3l0,0,0,0a.46.46,0,0,1,.23-.15.49.49,0,0,1,.52.2,6.27,6.27,0,0,0,.71.85,4.46,4.46,0,0,0,1.88,1.11,4.22,4.22,0,0,0,1.16.17,4.12,4.12,0,0,0,1-.1,6,6,0,0,0,1.06-.34.47.47,0,0,1,.56.11.47.47,0,0,1,.05.56h0a3.34,3.34,0,0,1-1.13,1,4.12,4.12,0,0,1-1.46.49A3,3,0,0,1,23.56,42.45Zm7.56,5A4.58,4.58,0,0,1,30,48.55a4.33,4.33,0,0,1-1.65.62,3.49,3.49,0,0,1-.65,0,4.36,4.36,0,0,1-2.52-.83,3.1,3.1,0,0,1-1-1.15.42.42,0,0,1,0-.29l0,0,.05,0a.44.44,0,0,1,.15-.25.48.48,0,0,1,.56,0,6,6,0,0,0,1,.48,4.35,4.35,0,0,0,2.17.21A4,4,0,0,0,29.17,47a3.64,3.64,0,0,0,.88-.52,5.59,5.59,0,0,0,.83-.75.45.45,0,0,1,.56-.13.46.46,0,0,1,.21.18h0v0a.48.48,0,0,1,.06.29A3.27,3.27,0,0,1,31.12,47.48Zm7-5.72,0,0A4.5,4.5,0,0,1,37,42.85a4.43,4.43,0,0,1-1.65.62,3.63,3.63,0,0,1-.65.05,4.32,4.32,0,0,1-2.51-.83,3.19,3.19,0,0,1-1-1.15.47.47,0,0,1,.69-.59,6.44,6.44,0,0,0,1,.47,4.44,4.44,0,0,0,2.17.21,4.42,4.42,0,0,0,2-.84,6.31,6.31,0,0,0,.82-.76.46.46,0,0,1,.56-.13.46.46,0,0,1,.28.48A3.07,3.07,0,0,1,38.13,41.76Z" style="fill:#1a2556"/><path d="M28.88,15.23A51.93,51.93,0,0,0,27.5,7.39c-.25.22-.54.46-.84.69l.06.09h0A30.62,30.62,0,0,1,28.88,15.23Z" style="fill:#1d9a46"/></svg>