<svg xmlns="http://www.w3.org/2000/svg" viewBox="0 0 60 60"><title>Mustard</title><path d="M43.19,53.14a2.74,2.74,0,0,1-2.74,2.73H19.62a2.74,2.74,0,0,1-2.74-2.73s0-.08,0-.12l3.37-27.76a2.73,2.73,0,0,1-1.64-2.5V18.42a2.74,2.74,0,0,1,2.74-2.73H23.3L27.91,4.94a2.32,2.32,0,0,1,4.26,0l4.6,10.75h1.94a2.74,2.74,0,0,1,2.74,2.73v4.34a2.72,2.72,0,0,1-1.64,2.5L43.18,53S43.19,53.1,43.19,53.14Z" style="fill:#4c4500"/><path d="M38.71,17.69H21.36a.74.74,0,0,0-.74.73v4.34a.74.74,0,0,0,.74.74H38.71a.74.74,0,0,0,.74-.74V18.42A.74.74,0,0,0,38.71,17.69ZM24.09,21a1,1,0,0,1-2,0v-.87a1,1,0,0,1,2,0Zm3.47,0a1,1,0,0,1-2,0v-.87a1,1,0,0,1,2,0ZM31,21a1,1,0,0,1-2,0v-.87a1,1,0,0,1,2,0Zm3.47,0a1,1,0,0,1-2,0v-.87a1,1,0,0,1,2,0ZM38,21a1,1,0,0,1-2,0v-.87a1,1,0,0,1,2,0Z" style="fill:#e9db39"/><polygon points="22.24 25.5 21.54 31.31 38.53 31.31 37.83 25.5 22.24 25.5" style="fill:#e9db39"/><path d="M38.77,33.31H21.3L19.86,45.19H40.22ZM35.24,43.72H24.83a1,1,0,0,1,0-2H35.24a1,1,0,1,1,0,2Zm0-3.47H24.83a1,1,0,0,1,0-2H35.24a1,1,0,1,1,0,2Zm0-3.47H24.83a1,1,0,0,1,0-2H35.24a1,1,0,1,1,0,2Z" style="fill:#e9db39"/><path d="M30.33,5.73a.34.34,0,0,0-.59,0l-4.26,10h9.11Z" style="fill:#e9db39"/><path d="M19.61,47.19l-.72,6a.73.73,0,0,0,.73.68H40.45a.73.73,0,0,0,.73-.68l-.72-6Z" style="fill:#e9db39"/></svg>