<svg xmlns="http://www.w3.org/2000/svg" viewBox="0 0 60 60"><title>Onions</title><path d="M37.16,52.86l.54,1.37a1,1,0,0,1-.6,1.35,1,1,0,0,1-.37.07,1,1,0,0,1-1-.66l-.62-1.61c-.61.13-1.24.23-1.87.31l.19,1.82a1,1,0,0,1-.93,1.14h-.11a1,1,0,0,1-1-.93l-.19-1.86-1,0-1,0-.19,1.86a1,1,0,0,1-1,.93h-.11a1,1,0,0,1-.92-1.14L27,53.69c-.63-.08-1.25-.18-1.86-.31L24.56,55a1,1,0,0,1-1,.66,1,1,0,0,1-.38-.07,1,1,0,0,1-.59-1.35l.53-1.37C14.73,50.28,9,43.08,9,34.13A19.31,19.31,0,0,1,10.77,26c1.87-3.91,4.81-6.85,7.65-9.69,3-3,5.91-5.91,7.64-9.91l.11-.26c.57-1.34,1.52-3.59,4-3.59s3.42,2.25,4,3.59l.11.26c1.73,4,4.6,6.87,7.64,9.91,2.84,2.84,5.77,5.78,7.64,9.69a19.31,19.31,0,0,1,1.8,8.15C51.34,43.08,45.59,50.28,37.16,52.86Z" style="fill:#05350f"/><path d="M37.16,52.86l.54,1.37a1,1,0,0,1-.6,1.35,1,1,0,0,1-.37.07,1,1,0,0,1-1-.66l-.62-1.61c-.61.13-1.24.23-1.87.31l.19,1.82a1,1,0,0,1-.93,1.14h-.11a1,1,0,0,1-1-.93l-.19-1.86-1,0-1,0-.19,1.86a1,1,0,0,1-1,.93h-.11a1,1,0,0,1-.92-1.14L27,53.69c-.63-.08-1.25-.18-1.86-.31L24.56,55a1,1,0,0,1-1,.66,1,1,0,0,1-.38-.07,1,1,0,0,1-.59-1.35l.53-1.37C14.73,50.28,9,43.08,9,34.13A19.31,19.31,0,0,1,10.77,26c1.87-3.91,4.81-6.85,7.65-9.69,3-3,5.91-5.91,7.64-9.91l.11-.26c.57-1.34,1.52-3.59,4-3.59s3.42,2.25,4,3.59l.11.26c1.73,4,4.6,6.87,7.64,9.91,2.84,2.84,5.77,5.78,7.64,9.69a19.31,19.31,0,0,1,1.8,8.15C51.34,43.08,45.59,50.28,37.16,52.86Z" style="fill:#f6f2d6"/><path d="M51.34,34.13A19.31,19.31,0,0,0,49.54,26c-1.87-3.91-4.8-6.85-7.64-9.69-3-3-5.91-5.91-7.64-9.91l-.11-.26c-.57-1.34-1.52-3.59-4-3.59s-3.42,2.25-4,3.59l-.11.26c-1.73,4-4.6,6.87-7.64,9.91-2.84,2.84-5.78,5.78-7.65,9.69A19.31,19.31,0,0,0,9,34.13c0,8.95,5.76,16.15,14.18,18.73l-.53,1.37a1,1,0,0,0,.59,1.35,1,1,0,0,0,.38.07,1,1,0,0,0,1-.66l.62-1.61c.61.13,1.23.23,1.86.31l-.18,1.82a1,1,0,0,0,.92,1.14h.11a1,1,0,0,0,1-.93l.19-1.86,1,0,1,0,.19,1.86a1,1,0,0,0,1,.93h.11a1,1,0,0,0,.93-1.14l-.19-1.82c.63-.08,1.26-.18,1.87-.31L35.76,55a1,1,0,0,0,1,.66,1,1,0,0,0,.37-.07,1,1,0,0,0,.6-1.35l-.54-1.37C45.59,50.28,51.34,43.08,51.34,34.13ZM30.16,51.53c-10.91,0-18.83-7.32-18.83-17.4A17.09,17.09,0,0,1,12.9,27c1.7-3.55,4.36-6.22,7.19-9,3.06-3.06,6.22-6.23,8.13-10.64L28.34,7c.63-1.49,1-2.15,1.82-2.15S31.35,5.55,32,7l.12.28C34,11.73,37.17,14.9,40.23,18c2.82,2.82,5.49,5.49,7.19,9A17.24,17.24,0,0,1,49,34.13C49,44.21,41.07,51.53,30.16,51.53Z" style="fill:#302c06"/><path d="M26.12,16.5a.93.93,0,0,0-1.28.34c-3.91,6.75-7.58,14.81-5.19,23.39a23.7,23.7,0,0,0,3.41,7.4,1,1,0,0,0,.76.39.88.88,0,0,0,.55-.19.93.93,0,0,0,.21-1.3,21.72,21.72,0,0,1-3.12-6.8c-2.21-7.92,1.29-15.54,5-21.95A.94.94,0,0,0,26.12,16.5Z" style="fill:#302c06"/><path d="M34.2,16.5a.93.93,0,0,0-.34,1.28c3.71,6.41,7.2,14,5,21.95a21.72,21.72,0,0,1-3.12,6.8.94.94,0,0,0,.2,1.3.9.9,0,0,0,.56.19.94.94,0,0,0,.75-.39,23.48,23.48,0,0,0,3.41-7.4c2.39-8.58-1.28-16.64-5.18-23.39A.93.93,0,0,0,34.2,16.5Z" style="fill:#302c06"/></svg>