<svg xmlns="http://www.w3.org/2000/svg" viewBox="0 0 60 60"><title>Orange</title><path d="M28.46,9.14a.68.68,0,0,1,0,.14A5.44,5.44,0,0,1,26.51,9a5.27,5.27,0,0,1-2.38-1.57A4.93,4.93,0,0,1,23,3.08a5.43,5.43,0,0,1,4.31,1.85A4.86,4.86,0,0,1,28.46,9.14Z" style="fill:#acf252"/><path d="M30.1,9.37s0,0,0,0h0Z" style="fill:#1d9a46"/><path d="M54.33,33.76c0,12.77-9.15,23.16-20.39,23.16S13.56,46.53,13.56,33.76A26.22,26.22,0,0,1,14.44,27a.8.8,0,1,0-1.55-.41A27.6,27.6,0,0,0,12,33.76c0,10.57,5.91,19.62,14.21,23.16h-.1c-11.24,0-20.39-10.39-20.39-23.16s9.15-23.17,20.39-23.17h.15a18.66,18.66,0,0,1,2.69.23l.13,0h.14a.9.9,0,0,0,.22-.06l0,0a.72.72,0,0,0,.25-.18.57.57,0,0,1-.24.19.9.9,0,0,0,.4.23h0L30,11h0l.16,0h0a18.33,18.33,0,0,1,3.76-.4C45.18,10.59,54.33,21,54.33,33.76Z" style="fill:#e8863d"/><path d="M29.66,10.57a.57.57,0,0,1-.24.19h0A.72.72,0,0,0,29.66,10.57Z" style="fill:#876510"/><path d="M33.94,9a19.09,19.09,0,0,0-3.84.38s0,0,0,0h0C31.21,6,33.36,4.6,36.8,5a.82.82,0,0,0,.9-.71A.81.81,0,0,0,37,3.41C33.86,3,31.45,4,29.87,6.25a6.63,6.63,0,0,0-1.32-2.37,7,7,0,0,0-6.26-2.35.82.82,0,0,0-.66.54,6.52,6.52,0,0,0,1.28,6.41,4.77,4.77,0,0,0,.68.67C12.62,10.53,4.07,21,4.07,33.76c0,13.66,9.86,24.77,22,24.77a18.79,18.79,0,0,0,4-.41,19,19,0,0,0,3.93.41c12.13,0,22-11.11,22-24.77S46.07,9,33.94,9ZM23,3.08a5.43,5.43,0,0,1,4.31,1.85,4.86,4.86,0,0,1,1.13,4.21.68.68,0,0,1,0,.14A5.44,5.44,0,0,1,26.51,9a5.27,5.27,0,0,1-2.38-1.57A4.93,4.93,0,0,1,23,3.08ZM33.94,56.92c-11.24,0-20.38-10.39-20.38-23.16A26.22,26.22,0,0,1,14.44,27a.8.8,0,1,0-1.55-.41A27.6,27.6,0,0,0,12,33.76c0,10.57,5.91,19.62,14.21,23.16h-.1c-11.24,0-20.39-10.39-20.39-23.16s9.15-23.17,20.39-23.17h.15a18.66,18.66,0,0,1,2.69.23l.13,0h.14a.9.9,0,0,0,.22-.06l0,0a.72.72,0,0,0,.25-.18.57.57,0,0,1-.24.19.9.9,0,0,0,.4.23h0L30,11h0l.16,0h0a18.33,18.33,0,0,1,3.76-.4c11.24,0,20.39,10.39,20.39,23.17S45.18,56.92,33.94,56.92Z" style="fill:#896109"/><path d="M30.1,9.37s0,0,0,0h0Z" style="fill:#876510"/><path d="M28.46,9.14a.68.68,0,0,1,0,.14A5.44,5.44,0,0,1,26.51,9,18.26,18.26,0,0,1,28.46,9.14Z" style="fill:#876510"/><path d="M29.82,11l-.75-.15h.1a.9.9,0,0,0,.22-.06l0,0a.72.72,0,0,0,.25-.18.57.57,0,0,1-.24.19A.9.9,0,0,0,29.82,11Z" style="fill:#876510"/><path d="M29.66,10.57a.57.57,0,0,1-.24.19h0l0,0A.72.72,0,0,0,29.66,10.57Z" style="fill:#876510"/><path d="M30.1,9.37s0,0,0,0h0Z" style="fill:#876510"/><path d="M48,45.33a.87.87,0,0,1-.41-.11.8.8,0,0,1-.28-1.1A20.13,20.13,0,0,0,50.1,33.76,20.74,20.74,0,0,0,49,27.11a.8.8,0,1,1,1.52-.52,22.27,22.27,0,0,1,1.18,7.17,21.69,21.69,0,0,1-3,11.18A.81.81,0,0,1,48,45.33Z" style="fill:#feca57"/><path d="M30,9.39h.05v0Zm-1.1,1.43a18.66,18.66,0,0,0-2.69-.23,6.8,6.8,0,0,0,2,.3,5.51,5.51,0,0,0,.81-.05Z" style="fill:#876510"/><path d="M15.23,23.32a.83.83,0,0,1-.34-.07.81.81,0,0,1-.39-1.07,24.72,24.72,0,0,1,1.55-2.82.8.8,0,0,1,1.11-.25.82.82,0,0,1,.25,1.11A23.27,23.27,0,0,0,16,22.86.81.81,0,0,1,15.23,23.32Z" style="fill:#876510"/></svg>