<svg xmlns="http://www.w3.org/2000/svg" viewBox="0 0 60 60"><title>Parsely</title><path d="M56.46,30.87a2.26,2.26,0,0,1,.29.32A2,2,0,0,1,57,33a2.74,2.74,0,0,1-2,1.83,1.27,1.27,0,0,1,.12.23A2,2,0,0,1,55,36.74c-.64,1.19-1.94,1.84-3.89,1.93a2.1,2.1,0,0,1,.22,2c-.31.72-1.06,1.52-2.89,1.47a1.75,1.75,0,0,1,0,.51,2.32,2.32,0,0,1-1.41,1.92,3.9,3.9,0,0,1-1.82.4c-2.49,0-6-1.69-9.28-4.58a7.8,7.8,0,0,0-3.62,4.57V55.56a1,1,0,0,1-2.08,0V44.92a7.8,7.8,0,0,0-3.62-4.57c-3.32,2.89-6.79,4.57-9.27,4.57a3.88,3.88,0,0,1-1.82-.4,2.34,2.34,0,0,1-1.42-1.91,2.12,2.12,0,0,1,0-.51c-1.84,0-2.59-.76-2.89-1.48a2,2,0,0,1,0-1.63,2.68,2.68,0,0,1,.18-.33c-1.95-.09-3.25-.73-3.89-1.93A1.91,1.91,0,0,1,7.52,35a2.25,2.25,0,0,1,.12-.21A2.85,2.85,0,0,1,5.6,33a2,2,0,0,1,.27-1.78,2.35,2.35,0,0,1,.3-.33,3.59,3.59,0,0,1-1.29-1.6A2.76,2.76,0,0,1,5.06,27,2.8,2.8,0,0,1,7,25.63a3.52,3.52,0,0,1,2,.29,2.25,2.25,0,0,1,.13-.42,2,2,0,0,1,1.41-1.14,2.8,2.8,0,0,1,2.62.83,1.59,1.59,0,0,1,.13-.22,1.93,1.93,0,0,1,1.52-.8c1.37-.06,2.59.74,3.65,2.37a2.63,2.63,0,0,1,.2-.33,2,2,0,0,1,1.4-.86,2.79,2.79,0,0,1,2.74,1.74,2.16,2.16,0,0,1,.43-.29,2.33,2.33,0,0,1,2.37.24c2.26,1.37,3.06,6,2,11.49a9.37,9.37,0,0,1,2.61,2.14v-12c-5.3-1.82-9-4.82-9.06-7.45a2.34,2.34,0,0,1,.95-2.16,2.27,2.27,0,0,1,.47-.23,2.74,2.74,0,0,1-.15-3.21,2,2,0,0,1,1.44-.78h.37q-1.32-2.58-.23-4.3a1.91,1.91,0,0,1,1.44-.91h.25A2.74,2.74,0,0,1,26.34,7,2,2,0,0,1,28,6.33a1.57,1.57,0,0,1,.43.09,3.44,3.44,0,0,1,.76-1.89,2.8,2.8,0,0,1,2.09-1h0a2.8,2.8,0,0,1,2.1,1,3.51,3.51,0,0,1,.75,1.89,1.57,1.57,0,0,1,.43-.09A2,2,0,0,1,36.28,7a2.75,2.75,0,0,1,.59,2.66,1,1,0,0,1,.25,0,1.89,1.89,0,0,1,1.44.91c.73,1.14.65,2.58-.23,4.29a2.29,2.29,0,0,1,.37,0,2,2,0,0,1,1.44.77A2.74,2.74,0,0,1,40,18.83a2.21,2.21,0,0,1,1.42,2.4c-.08,2.62-3.77,5.62-9.06,7.44v12A9.37,9.37,0,0,1,35,38.53c-1-5.46-.23-10.12,2-11.49a2.35,2.35,0,0,1,2.38-.24,2.16,2.16,0,0,1,.43.29,2.77,2.77,0,0,1,2.74-1.74,2,2,0,0,1,1.4.86c.07.11.14.22.2.33l.3-.43a4,4,0,0,1,3.35-1.94,1.93,1.93,0,0,1,1.52.8,1.59,1.59,0,0,1,.13.22,2.8,2.8,0,0,1,2.62-.83,2,2,0,0,1,1.41,1.14,2.25,2.25,0,0,1,.13.42,3.53,3.53,0,0,1,2-.29,2.7,2.7,0,0,1,2.1,3.63A3.66,3.66,0,0,1,56.46,30.87Z" style="fill:#05350f"/><path d="M55.74,28a.7.7,0,0,0-.49-.29c-.27,0-1,0-2.42,1.24a1,1,0,0,1-1.62-1.27,2.74,2.74,0,0,0,.35-1.26h0c-.4-.1-1.44.92-2.12,2.34A1,1,0,0,1,47.48,28a4,4,0,0,0,.15-1.71c-1.11,0-2.4,2-3.4,5.21a1,1,0,0,1-2-.53,6.55,6.55,0,0,0,0-3.52c-.31,0-1,1.12-1.29,2.54a1,1,0,0,1-2.06-.1,2.27,2.27,0,0,0-.44-1.19.9.9,0,0,0-.37.15c-1.13.69-2.07,4.44-1,9.75a20.58,20.58,0,0,0,5.54,3.64c1.8.74,3,.73,3.46.47a.77.77,0,0,0,.31-.23,2.34,2.34,0,0,0-.81-1,1,1,0,0,1,.95-1.83,9,9,0,0,0,1.64.34c.78.08,1.14-.05,1.23-.15-.18-.44-1.67-1.3-3.08-1.76a1,1,0,0,1,.57-2c3.9.91,5.77.47,6.24-.26a4.25,4.25,0,0,0-1.57-.74,1,1,0,0,1,.34-2c1.44.12,3-.19,3.11-.63h0A2.86,2.86,0,0,0,53.74,32a1,1,0,0,1-.27-2c1.77-.56,2.2-1.19,2.3-1.44a.68.68,0,0,0,0-.55S55.76,28,55.74,28Z" style="fill:#1d9a46"/><path d="M25.88,32c-.26-1.9-.86-2.89-1.33-3.18a.9.9,0,0,0-.37-.15,2.32,2.32,0,0,0-.44,1.19,1,1,0,0,1-2.06.1c-.3-1.42-1-2.53-1.29-2.54a6.42,6.42,0,0,0,0,3.52,1,1,0,0,1-2,.53c-1-3.21-2.29-5.19-3.4-5.21A4.19,4.19,0,0,0,15.14,28a1,1,0,0,1-1.94.75c-.62-1.29-1.67-2.45-2.12-2.34h0a2.83,2.83,0,0,0,.35,1.26A1,1,0,0,1,9.8,28.92c-1.41-1.26-2.19-1.28-2.46-1.24a.76.76,0,0,0-.45.28l0,.05a.68.68,0,0,0,0,.55c.1.24.53.88,2.3,1.43a1.06,1.06,0,0,1,.73,1.14,1,1,0,0,1-1,.9,2.86,2.86,0,0,0-1.29.35h0c.14.47,1.83.74,3.11.63a1,1,0,0,1,1.12.86,1,1,0,0,1-.78,1.19,4.18,4.18,0,0,0-1.57.73c.48.74,2.35,1.18,6.25.26A1.05,1.05,0,0,1,17,36.8a1,1,0,0,1-.67,1.27c-1.42.47-2.91,1.33-3.08,1.77.19.25,1.51.26,2.86-.2a1,1,0,0,1,1,1.84,2.15,2.15,0,0,0-.8,1,.91.91,0,0,0,.3.23c1.18.62,4.92-.48,9-4.11A20,20,0,0,0,25.88,32Z" style="fill:#1d9a46"/><path d="M37.22,23.88c1.53-1.17,2.09-2.17,2.11-2.72a.86.86,0,0,0,0-.37A2.4,2.4,0,0,0,38,21a1,1,0,0,1-1.1-1.74c1.06-.93,1.7-2.07,1.58-2.34a6.59,6.59,0,0,0-3.07,1.76A1,1,0,0,1,34,17.19c2.73-2.89,3.27-4.71,2.86-5.47a4.14,4.14,0,0,0-1.43,1,1,1,0,0,1-1.6-1.33c.81-1.17,1.3-2.63,1-3l0,0a2.89,2.89,0,0,0-.93.93,1,1,0,0,1-1.9-.78c.39-1.78,0-2.46-.11-2.67a.77.77,0,0,0-.5-.28h0a.72.72,0,0,0-.5.28c-.16.21-.5.89-.11,2.67a1,1,0,0,1-1.9.78,2.79,2.79,0,0,0-.93-.93h0c-.34.35.26,1.92,1,3a1,1,0,0,1-1.6,1.32,4.13,4.13,0,0,0-1.43-1c-.41.76.13,2.57,2.86,5.46a1,1,0,0,1-1.46,1.5,6.54,6.54,0,0,0-3.07-1.76c0,.11,0,.49.49,1.13a9.75,9.75,0,0,0,1.09,1.21A1,1,0,0,1,24.6,21a2.28,2.28,0,0,0-1.26-.21.82.82,0,0,0-.05.37c0,1.31,2.84,4,8,5.67A20.77,20.77,0,0,0,37.22,23.88Z" style="fill:#1d9a46"/></svg>