<svg xmlns="http://www.w3.org/2000/svg" viewBox="0 0 60 60"><title>Parsnip</title><path d="M55.56,8.35a6.65,6.65,0,0,1-1.65,3.84,4,4,0,0,1,.46,4.22,4.21,4.21,0,0,1-2.2,2A3.62,3.62,0,0,1,51.64,22c-1.08,1.59-3.16,2.1-5.4,2.1a28.32,28.32,0,0,1-8.11-1.51l-2,2c2.94,3.21,3.85,6.6,2.69,10.09a14.43,14.43,0,0,1-4.48,6.42c-3.43,2.93-7.76,4.4-11.93,5.83l-.11,0a45.3,45.3,0,0,0-11.41,5.62c-.08,0-.21.16-.39.3C8.89,54.2,7.22,55.4,5.93,55.4a1.61,1.61,0,0,1-1.21-.49l-.19-.19c-1.34-1.33.25-3.6,2-5.81a4.72,4.72,0,0,0,.3-.39,45.3,45.3,0,0,0,5.62-11.41l0-.11c1.43-4.18,2.91-8.5,5.84-11.93a14.41,14.41,0,0,1,6.42-4.48c3.4-1.13,6.7-.29,9.84,2.48l2-2c-.85-2.58-3.2-10.89.61-13.49a3.6,3.6,0,0,1,3.64-.53,4.21,4.21,0,0,1,2-2.2A4,4,0,0,1,47,5.31a6.54,6.54,0,0,1,3.83-1.66A4.41,4.41,0,0,1,54.16,5,4.46,4.46,0,0,1,55.56,8.35Z" style="fill:#05350f"/><path d="M53.36,8.28a2.26,2.26,0,0,0-.75-1.68,2.22,2.22,0,0,0-1.68-.75,5.14,5.14,0,0,0-3,1.67,1.11,1.11,0,0,1-1.6,0,2.13,2.13,0,0,0-2.48-.74,2,2,0,0,0-1.05,2,1.1,1.1,0,0,1-1.87.94c-1.28-1.28-2.2-.53-2.3-.44l-.13.1c-2.19,1.43-.85,7.81.25,11.12,3.32,1.11,9.7,2.45,11.13.26a1.13,1.13,0,0,1,.1-.13c.19-.23.75-1.11-.44-2.3a1.1,1.1,0,0,1,.94-1.87,2,2,0,0,0,2-1.05c.38-.74.11-1.62-.74-2.48a1.06,1.06,0,0,1-.32-.81,1.1,1.1,0,0,1,.36-.79A5.17,5.17,0,0,0,53.36,8.28Z" style="fill:#acf252"/><path d="M34,25.59,34,25.48a.28.28,0,0,1-.1-.09c-2.07-2.06-4.11-3.08-6.21-3.08a6.92,6.92,0,0,0-2.21.37,11.08,11.08,0,0,0-2.31,1.09,19.78,19.78,0,0,1,4.78,3.61.87.87,0,0,1,0,1.23.91.91,0,0,1-.62.26.87.87,0,0,1-.62-.26A16.76,16.76,0,0,0,21.53,25,15,15,0,0,0,20,26.5a28.18,28.18,0,0,0-4.62,8.91,15.48,15.48,0,0,1,3.91,2.84.87.87,0,0,1-.62,1.49.86.86,0,0,1-.62-.25,13.7,13.7,0,0,0-3.25-2.41c-.08.21-.15.42-.22.63l0,.12a47.57,47.57,0,0,1-5.9,12c-.06.1-.2.27-.38.5a15.9,15.9,0,0,0-1.9,2.8,14.36,14.36,0,0,0,2.81-1.9l.49-.38a47.73,47.73,0,0,1,12-5.89l.11,0c4-1.36,8.11-2.77,11.22-5.43A12.07,12.07,0,0,0,36.75,34C37.71,31.12,36.82,28.37,34,25.59ZM29,39a.88.88,0,0,1-1.21-.25,19.42,19.42,0,0,0-3.78-4.15.89.89,0,0,1-.11-1.24.87.87,0,0,1,1.23-.11,22,22,0,0,1,4.13,4.54A.88.88,0,0,1,29,39Z" style="fill:#f2ebb8"/></svg>