<svg xmlns="http://www.w3.org/2000/svg" viewBox="0 0 60 60"><title>Pumpkin</title><path d="M16.61,5.19a2.65,2.65,0,0,1,.52-2.08A2.66,2.66,0,0,1,19,2a3.83,3.83,0,0,1,2.2.51,2.43,2.43,0,0,1,2.26-.42A2.75,2.75,0,0,1,24.71,3a2.35,2.35,0,0,1,2,.18c2.65,1.34,1.83,6.63,1.64,7.69a1,1,0,0,1-.53.71,13.57,13.57,0,0,1-5.35,1.56,3.3,3.3,0,0,1-2.48-.9,2.4,2.4,0,0,1-.76-1.86,2.74,2.74,0,0,1-1.24-1,2.43,2.43,0,0,1-.25-2.28A3.75,3.75,0,0,1,16.61,5.19Z" style="fill:#05350f"/><path d="M53.23,35.77c0,12.86-9,20.85-23.48,20.85s-23.49-8-23.49-20.85c0-11.28,6.92-19.16,16.81-19.16a20.46,20.46,0,0,1,5.7.85c.09-1.84.5-5.05,2.22-6.85a4.26,4.26,0,0,1,3.19-1.36,1,1,0,1,1,0,2,2.36,2.36,0,0,0-1.77.75c-1.18,1.24-1.57,3.75-1.66,5.46a20.6,20.6,0,0,1,5.85-.9C46.39,16.53,53.23,24.44,53.23,35.77Z" style="fill:#3c2c1f"/><path d="M21.58,18.66c-7.93.75-13.34,7.58-13.34,17.11,0,8.25,3.92,14.18,10.86,17-2.52-2.64-5.21-7.37-5.21-15.56C13.89,26.38,17.74,21,21.58,18.66Z" style="fill:#f47e41"/><path d="M27.29,19.11c-.55-.13-1.09-.25-1.64-.33-4,.55-10.2,4.86-10.2,18.44C15.45,49,21.25,53,23.28,54a29,29,0,0,0,3.22.48c-2-2.46-4-7.62-4-17.36C22.54,26.24,25,21.12,27.29,19.11Z" style="fill:#f47e41"/><path d="M29.74,19.59c-1.19,0-5.63,3-5.63,17.55,0,12.59,3.26,16.6,4.94,17.5h1.39c1.68-.9,4.94-4.91,4.94-17.5C35.38,22.57,30.94,19.59,29.74,19.59Z" style="fill:#f47e41"/><path d="M19.53,6.07a1,1,0,0,1,.42.66,1,1,0,0,1-.18.75c-.25.34-.3.61-.16.82a.72.72,0,0,0,.7.29.84.84,0,0,1,.27,0,1,1,0,0,1,.79,1.58c-.15.21-.28.45-.05.67a.6.6,0,0,1,.08.08c.66.73,3.23,0,5.08-.83.28-2,.22-4.68-.68-5.1l-.12-.07c-.25-.14-.45,0-.6.26a1,1,0,0,1-1.78-.57A.72.72,0,0,0,22.82,4c-.24-.08-.49.05-.74.39a1,1,0,0,1-.67.39.94.94,0,0,1-.75-.22A2.49,2.49,0,0,0,19.2,4a.71.71,0,0,0-.49.32.7.7,0,0,0-.16.55A2.41,2.41,0,0,0,19.53,6.07Z" style="fill:#acf252"/><path d="M37.73,18.55c3.9,2.27,7.87,7.66,7.87,18.67,0,8.2-2.9,13-5.49,15.67,7.12-2.78,11.14-8.76,11.14-17.12C51.25,26.05,45.75,19.14,37.73,18.55Z" style="fill:#f47e41"/><path d="M33.7,18.76q-.77.14-1.53.33c2.31,2,4.78,7.11,4.78,18.05C37,46.88,35,52,33,54.5a29.63,29.63,0,0,0,3.1-.45C38,53,44,48.74,44,37.22,44,23.48,37.65,19.23,33.7,18.76Z" style="fill:#f47e41"/></svg>