<svg xmlns="http://www.w3.org/2000/svg" viewBox="0 0 60 60"><title>Raspberry</title><path d="M50.89,30v1.15c0,.27-.07.53-.13.8a6.71,6.71,0,0,1-2.44,4,.32.32,0,0,0-.13.32,7.79,7.79,0,0,1,0,1.6,6.76,6.76,0,0,1-2.7,4.48.33.33,0,0,0-.15.3,3.94,3.94,0,0,1,0,.91A6.73,6.73,0,0,1,41,49a.42.42,0,0,0-.29.35,6.71,6.71,0,0,1-4.07,5,6.87,6.87,0,0,1-1.93.5H33.35l0,0a6.7,6.7,0,0,1-3.07-1.13.21.21,0,0,0-.27,0,5.79,5.79,0,0,1-1,.58,7.75,7.75,0,0,1-2.06.55H25.53l-.37-.06a6.8,6.8,0,0,1-5.62-5.38.46.46,0,0,0-.32-.39A6.7,6.7,0,0,1,15,43.73a.58.58,0,0,0-.39-.53,6.73,6.73,0,0,1-4.39-6.33.43.43,0,0,0-.24-.43,6.76,6.76,0,0,1-2.78-3.13,7.55,7.55,0,0,1-.54-2V29.86a.36.36,0,0,0,0-.1,6.71,6.71,0,0,1,1.68-3.69.21.21,0,0,0,0-.31,6.78,6.78,0,0,1-1.06-4A6.28,6.28,0,0,1,8,19.22a6.75,6.75,0,0,1,5.27-3.87,7.45,7.45,0,0,1,1.06-.07c0-.07-.07-.08-.1-.1a13.87,13.87,0,0,1-1.42-1A12.16,12.16,0,0,1,9.5,10.33a1,1,0,0,1-.15-.66,1,1,0,0,1,1.34-.79c1.07.4,2.15.78,3.25,1.11a25,25,0,0,0,2.55.64c.24,0,.25,0,.26-.2s0-.66.07-1a16.6,16.6,0,0,1,.93-3.86,1,1,0,0,1,1.59-.39c.17.14.32.3.48.45L27.66,13c.05,0,.09.14.17.1s0-.13,0-.2v-.14c0-1.51,0-3,0-4.52a10.42,10.42,0,0,1,.31-2.49A5.91,5.91,0,0,1,29.43,3.3a4.15,4.15,0,0,1,1.85-1.18h.56l.16.07a1,1,0,0,1,.56.9,1,1,0,0,1-.64.9A2.41,2.41,0,0,0,30.35,5.5a6.82,6.82,0,0,0-.51,2.67c0,1.67,0,3.33,0,5a.29.29,0,0,0,0,.2c.07,0,.11-.08.16-.12l4.9-4.61,3.64-3.42a1,1,0,0,1,1.6.32,15.44,15.44,0,0,1,1,4.83c0,.31,0,.3.31.25a27.88,27.88,0,0,0,3.14-.83c.87-.28,1.73-.58,2.59-.9a1,1,0,0,1,1.16.29,1,1,0,0,1,0,1.17,12.36,12.36,0,0,1-3.65,4.13c-.36.27-.75.53-1.14.79a9.08,9.08,0,0,1,1.17.09,6.79,6.79,0,0,1,5.85,6.15A6.62,6.62,0,0,1,49.43,26a.25.25,0,0,0,0,.38,6.9,6.9,0,0,1,1.07,1.91A7.78,7.78,0,0,1,50.89,30Z" style="fill:#651010"/><path d="M40.71,28.22c-.13-.23-.15-.23-.37-.12a6.71,6.71,0,0,1-6.28,0,.21.21,0,0,0-.18,0l.07.21A6.69,6.69,0,0,1,33.42,34a.24.24,0,0,0,.07.38,4.73,4.73,0,0,0,4,.94A4.84,4.84,0,0,0,40.71,28.22Z" style="fill:#a71c1b"/><path d="M38.62,37.29c0-.24,0-.24-.21-.17a6.88,6.88,0,0,1-3,.19,6.68,6.68,0,0,1-3.28-1.48c-.09-.08-.16-.11-.27,0a5.64,5.64,0,0,1-.63.46,7.16,7.16,0,0,1-.66.39,6.62,6.62,0,0,1-1.45.53c-.14,0-.17.11-.15.25a4.79,4.79,0,0,0,4.79,4.22,5.42,5.42,0,0,0,.57,0A4.82,4.82,0,0,0,38.62,37.29Z" style="fill:#a71c1b"/><path d="M23.39,22.12a4,4,0,0,0,.05.67,4.84,4.84,0,0,0,7.8,3.08c.15-.12.15-.21.05-.36A6.72,6.72,0,0,1,30.37,22a6.48,6.48,0,0,1,.94-3.34.22.22,0,0,0-.06-.33,4.73,4.73,0,0,0-3.74-1A4.81,4.81,0,0,0,23.39,22.12Z" style="fill:#a71c1b"/><path d="M30.75,47.51a4.86,4.86,0,0,0,4.42-3.76c0-.22,0-.23-.18-.2l-.31.05-.16,0h-.16a8.22,8.22,0,0,1-1.11,0l-.58-.07a7.53,7.53,0,0,1-.85-.2l-.24-.08-.32-.12a7,7,0,0,1-1.72-1,.26.26,0,0,0-.41,0,7.3,7.3,0,0,1-.72.52,6.74,6.74,0,0,1-1.18.57,6.6,6.6,0,0,1-.63.2c-.21,0-.43.1-.65.13a.49.49,0,0,0-.17,0c-.06,0-.05.09,0,.24A4.93,4.93,0,0,0,30.75,47.51Z" style="fill:#a71c1b"/><path d="M19.45,14.8c.15.36.34.58.75.53h.08a6.53,6.53,0,0,1,.77.14A8.23,8.23,0,0,1,19.82,13a1,1,0,1,1,1.87-.55,9.41,9.41,0,0,0,2.82,3.93l.19-.12a6,6,0,0,1,.56-.3,6.86,6.86,0,0,1,1.17-.44,6.21,6.21,0,0,1,.62-.14c.05,0,.13,0,.16-.05s-.05-.09-.08-.13l-.1-.09L23.19,11.5,19.33,7.87c-.17-.16-.2-.15-.25.07a14.24,14.24,0,0,0-.4,3.12c0,.14,0,.35,0,.57A9.11,9.11,0,0,0,19.45,14.8Z" style="fill:#1d9a46"/><path d="M24.76,41.68a4.71,4.71,0,0,0,2.45-.6,5.17,5.17,0,0,0,.69-.46c.13-.1.14-.18.05-.33a6.44,6.44,0,0,1-.88-2.66.3.3,0,0,0-.1-.22l-.09,0-.13,0-.47-.06-.46-.1a6.62,6.62,0,0,1-2.47-1.24.25.25,0,0,0-.16-.07.29.29,0,0,0-.16.06,7,7,0,0,1-1.29.81,6.19,6.19,0,0,1-1.43.49c-.25.06-.27.1-.23.36A4.79,4.79,0,0,0,24.76,41.68Z" style="fill:#a71c1b"/><path d="M37.14,17.25A4.84,4.84,0,1,0,42,22.08,4.85,4.85,0,0,0,37.14,17.25ZM39.83,23a1,1,0,0,1-1-1,1.63,1.63,0,0,0-1.62-1.63,1,1,0,0,1,0-2A3.59,3.59,0,0,1,40.81,22,1,1,0,0,1,39.83,23Z" style="fill:#a71c1b"/><path d="M42.94,13.36c.34-.23.68-.47,1-.73a12.54,12.54,0,0,0,1-.84H44.8a24.54,24.54,0,0,1-3.58.86c-.12,0-.15.09-.16.19a11,11,0,0,1-.34,1.51c0,.05,0,.1,0,.16A14,14,0,0,0,42.94,13.36Z" style="fill:#1d9a46"/><path d="M42.5,17.45l-.17.06c-.09,0,0,.09.08.26a6.91,6.91,0,0,1,1.07,1.78,6.45,6.45,0,0,1,.31,1,7.24,7.24,0,0,1,.15,1,6.62,6.62,0,0,1-1.58,4.91c-.11.13-.12.18.06.23a5,5,0,0,0,2.11.18,4.82,4.82,0,0,0,4.17-4.81v-.18a3.63,3.63,0,0,0-.05-.65,4.13,4.13,0,0,0-.24-.85,4.8,4.8,0,0,0-.86-1.45,4.11,4.11,0,0,0-.29-.3,4.87,4.87,0,0,0-4.07-1.34A4.26,4.26,0,0,0,42.5,17.45Z" style="fill:#a71c1b"/><path d="M20.76,28.77A6.79,6.79,0,0,1,17,28.42a.56.56,0,0,0-.44,0,6.71,6.71,0,0,1-2.13.46c-.14,0-.19.07-.23.19a4.86,4.86,0,0,0,4.62,6.37l.39,0a4.75,4.75,0,0,0,2.48-.94c.13-.09.13-.16.05-.29A6.76,6.76,0,0,1,21,29C21,28.73,21,28.72,20.76,28.77Z" style="fill:#a71c1b"/><path d="M28.29,35.37a4.85,4.85,0,0,0,3.46-7.18c-.09-.16-.17-.2-.34-.1a6.38,6.38,0,0,1-2.68.78,6.67,6.67,0,0,1-4.6-1.36c-.11-.09-.19-.1-.26,0a.38.38,0,0,0-.09.09,4.78,4.78,0,0,0-1.06,3,3.82,3.82,0,0,0,.06.83A4.85,4.85,0,0,0,28.29,35.37Z" style="fill:#a71c1b"/><path d="M15.69,19.12a4.81,4.81,0,0,0-1,3.3c0,.11,0,.22,0,.33l.06.33c0,.11.05.22.08.33a4.57,4.57,0,0,0,.22.62,4.85,4.85,0,0,0,7.28,2c.16-.12.18-.2.08-.38a6.66,6.66,0,0,1,0-7.06c.1-.18.08-.27-.08-.38a4.82,4.82,0,0,0-6.21.44A3.5,3.5,0,0,0,15.69,19.12Z" style="fill:#a71c1b"/><path d="M32.2,16.59a18.68,18.68,0,0,0,3.28-4.52,1,1,0,1,1,1.81.72,12.06,12.06,0,0,1-1.59,2.66,7.06,7.06,0,0,1,2.21-.11.36.36,0,0,0,.42-.24A9.28,9.28,0,0,0,39.25,11a14,14,0,0,0-.39-3c-.07-.27-.08-.28-.28-.09l-8.07,7.6c-.15.14-.15.14,0,.22A6.33,6.33,0,0,1,32.2,16.59Z" style="fill:#1d9a46"/><path d="M46,37.12a6.86,6.86,0,0,1-3.76,0,7.71,7.71,0,0,1-1.63-.7c0,.32,0,.6,0,.88a6.7,6.7,0,0,1-1.32,3.6c-.15.2-.15.2.08.32a4.83,4.83,0,0,0,5.38-.86,4.67,4.67,0,0,0,1.5-3.06C46.26,37.06,46.24,37.06,46,37.12Z" style="fill:#a71c1b"/><path d="M38.43,49.47c-.26,0-.52,0-.77,0a6.64,6.64,0,0,1-3-1.17.24.24,0,0,0-.32,0,5.82,5.82,0,0,1-1.17.65L33,49,33,49a.36.36,0,0,0-.07.19A6.56,6.56,0,0,1,31.72,52l0,.08a.11.11,0,0,0,0,.16.26.26,0,0,0,.1.07,4.68,4.68,0,0,0,2.27.55,3.71,3.71,0,0,0,.93-.09,4.78,4.78,0,0,0,3.59-3.09C38.66,49.49,38.64,49.48,38.43,49.47Z" style="fill:#a71c1b"/><path d="M43.06,43.45a6.75,6.75,0,0,1-5.27-.85.35.35,0,0,0-.54.28A6.76,6.76,0,0,1,36,46.59l0,.07s0,0,0,.05v0a0,0,0,0,0,0,0l0,0a.24.24,0,0,0,.08.06,4.75,4.75,0,0,0,2.43.66c.19,0,.39,0,.59,0a4.85,4.85,0,0,0,4.15-3.83C43.3,43.41,43.28,43.4,43.06,43.45Z" style="fill:#a71c1b"/><path d="M48,27.72s0,0-.05,0-.11-.05-.27.06a6.79,6.79,0,0,1-4.42,1.13c-.13,0-.17,0-.14.15a7.14,7.14,0,0,1,.17,1A6.79,6.79,0,0,1,42,34.65c-.07.08-.1.13-.1.17s.06.08.18.14a4.82,4.82,0,0,0,6.91-4.35,4.77,4.77,0,0,0-.89-2.81A.18.18,0,0,0,48,27.72Z" style="fill:#a71c1b"/><path d="M11.32,26a3.87,3.87,0,0,0,.61.38,4.75,4.75,0,0,0,1,.39l.29.05a5,5,0,0,0,1.22.07s.12,0,.14-.05,0-.08-.07-.11a.63.63,0,0,0-.11-.12,6.79,6.79,0,0,1,0-9.1.91.91,0,0,0,.18-.21.14.14,0,0,0-.13-.05,4.34,4.34,0,0,0-1.08,0A4.83,4.83,0,0,0,11.32,26Z" style="fill:#a71c1b"/><path d="M12.26,28.82c0-.09,0-.14,0-.18a.2.2,0,0,0-.12-.06A6.69,6.69,0,0,1,10,27.48l-.1-.07c-.1,0-.13.08-.18.13A5.16,5.16,0,0,0,8.9,29a2.78,2.78,0,0,0-.12.38,4.54,4.54,0,0,0-.15,1.57,4.78,4.78,0,0,0,1.84,3.49c.13.11.19.09.25-.07a6.43,6.43,0,0,1,.93-1.63,4.81,4.81,0,0,1,.42-.48.41.41,0,0,0,.07-.11.3.3,0,0,0,0-.21A6.69,6.69,0,0,1,12.26,28.82Z" style="fill:#a71c1b"/><path d="M16.08,14c.37.19.75.37,1.14.53,0-.06,0-.08,0-.11a12.32,12.32,0,0,1-.35-1.6.18.18,0,0,0-.19-.16,24.19,24.19,0,0,1-3-.7l-.58-.17c.15.15.3.3.46.44A11.56,11.56,0,0,0,15,13.36C15.35,13.59,15.71,13.79,16.08,14Z" style="fill:#1d9a46"/><path d="M22.35,47.49a3.64,3.64,0,0,0,.61-.12,4.38,4.38,0,0,0,.66-.24,4.76,4.76,0,0,0,1-.57c.13-.09.16-.17.07-.31a6.51,6.51,0,0,1-.93-2.47.29.29,0,0,0-.25-.27,6.4,6.4,0,0,1-2.35-1,.3.3,0,0,0-.4,0,6.55,6.55,0,0,1-3.45,1.1c-.31,0-.31,0-.24.3a5,5,0,0,0,5,3.57Z" style="fill:#a71c1b"/><path d="M19.35,40.82a6.65,6.65,0,0,1-1.25-3.31.17.17,0,0,0-.13-.17l-.08,0-.55-.1a6.74,6.74,0,0,1-1.53-.53c-.21-.1-.41-.22-.61-.34a6.53,6.53,0,0,1-1.1-.88,7.52,7.52,0,0,1-.94-1.13c-.14-.19-.14-.19-.26,0a4.69,4.69,0,0,0-.65,3.16A4.79,4.79,0,0,0,17,41.68a4.62,4.62,0,0,0,2.25-.54C19.49,41,19.49,41,19.35,40.82Z" style="fill:#a71c1b"/><path d="M30.51,49.47A6.66,6.66,0,0,1,26.29,48l-.1-.06A.21.21,0,0,0,26,48l-.11.07a6.64,6.64,0,0,1-4.06,1.43c-.24,0-.25,0-.16.23a4.78,4.78,0,0,0,4.53,3.16h.45l.24,0a4.8,4.8,0,0,0,3.87-3.17c.06-.15,0-.21-.14-.19Z" style="fill:#a71c1b"/></svg>