<svg xmlns="http://www.w3.org/2000/svg" viewBox="0 0 60 60"><title>Sage</title><path d="M55,15.67a14.63,14.63,0,0,1-3.24,5.94c-2.31,2.64-6.67,5.79-14.33,6-1.94,1.34-6.23,4.38-9.79,6.92a26.41,26.41,0,0,1,9.63-2,31.79,31.79,0,0,1,12.83,2.64,1,1,0,0,1,.61.77,1,1,0,0,1-.32.93A35.89,35.89,0,0,1,40.59,43,25.41,25.41,0,0,1,30.86,45h-.19a20.17,20.17,0,0,1-10.92-3.35c-.47.62-1,1.26-1.51,1.92l0,0c-.47.58-1,1.18-1.5,1.78a16.23,16.23,0,0,1,14.69,1.43,1,1,0,0,1,.48.69,1,1,0,0,1-.21.82,14.69,14.69,0,0,1-5.52,3.91,16.37,16.37,0,0,1-6.37,1.26,21.73,21.73,0,0,1-8.76-2C9.81,52.74,8.54,54,7.17,55.2a1,1,0,0,1-1.38-1.52A105.58,105.58,0,0,0,16,43.1,29,29,0,0,1,8.17,31.41,26,26,0,0,1,7,19.9,30.42,30.42,0,0,1,10.92,8.17a1,1,0,0,1,.75-.47,1,1,0,0,1,.84.29,30.7,30.7,0,0,1,7.84,12.45,28.85,28.85,0,0,1,1.24,11.45,33.53,33.53,0,0,1-.81,4.88c.69-1,1.28-2,1.78-2.83A34.25,34.25,0,0,0,26,26.53c-.57-1.41-2.43-6.73-.52-12C27.62,8.73,34,3.69,34.24,3.48a1,1,0,0,1,.93-.17,1,1,0,0,1,.68.67,31.71,31.71,0,0,1,1,4.69,19.76,19.76,0,0,1-.67,9.24,16.76,16.76,0,0,1-4.26,6.23,22.23,22.23,0,0,1-3.92,3,33.65,33.65,0,0,1-3,6.74c3.75-2.67,9-6.41,11.24-7.95a20.47,20.47,0,0,1,3.74-6,16.31,16.31,0,0,1,14.11-5.46,1,1,0,0,1,.73.42A1,1,0,0,1,55,15.67Z" style="fill:#05350f"/><path d="M13.25,22.67a1,1,0,0,1,2-.31l2.61,17a30.94,30.94,0,0,0,1.67-7.69A26.7,26.7,0,0,0,18.39,21,28.35,28.35,0,0,0,12,10.42a29.75,29.75,0,0,0-3,9.8A24.06,24.06,0,0,0,10.12,30.8a26,26,0,0,0,5.81,9.36Z" style="fill:#1d9a46"/><path d="M20.59,48.44a1,1,0,0,1,1.11.93,1,1,0,0,1-.93,1.11L15.49,51a15.34,15.34,0,0,0,9.86-.54A14.11,14.11,0,0,0,29.2,48a13.93,13.93,0,0,0-12-.53,17.31,17.31,0,0,0-3,1.55Z" style="fill:#1d9a46"/><path d="M29.9,16.32a1,1,0,0,1,1.91.74l-2.57,6.66a15.72,15.72,0,0,0,5-6.52h0c1.39-3.79.61-8.63.06-11.07-1.89,1.71-5.48,5.31-6.88,9.15a14.31,14.31,0,0,0-.23,8.11Z" style="fill:#1d9a46"/><path d="M41.51,21.21a19.1,19.1,0,0,0-2.88,4.28c4.94-.37,8.82-2.12,11.54-5.23a13.79,13.79,0,0,0,2.4-3.86h-.33A13.94,13.94,0,0,0,41.51,21.21Z" style="fill:#1d9a46"/><path d="M35.91,37.77a1,1,0,1,1,.24,2L23.24,41.3A17.89,17.89,0,0,0,30.66,43a23.33,23.33,0,0,0,9.1-1.9,35.55,35.55,0,0,0,7.9-4.63,29,29,0,0,0-10.35-1.87,24.49,24.49,0,0,0-14.07,4.65Z" style="fill:#1d9a46"/></svg>