<svg xmlns="http://www.w3.org/2000/svg" viewBox="0 0 60 60"><title>Savory</title><path d="M51.86,40.15a1.43,1.43,0,0,1-1.32.62c-2.37-.19-5.19-2-7.52-.94a19.17,19.17,0,0,1-5.61,1.85c-3.78.35-11.5-.94-11.53-1l-.56.36a33,33,0,0,0-4.71,3.44A24.93,24.93,0,0,1,26,44.12c4.73.11,8.67,3.16,11.38,6.92a.92.92,0,0,1,.18.25c.5.71-.38,1.59-1.19,1.69A5.87,5.87,0,0,1,32,51.6c-3-2.44-6.19-2.33-9.86-1.74-.58.09-6,1.23-7.65.23a41,41,0,0,1-5.79,3.39c-1.44.75-1.76-1.18-.53-1.82a37.86,37.86,0,0,0,5.21-3.06.78.78,0,0,1-.05-.18c-.55-2.34-.86-4.6.11-6.89,1.6-3.82.81-6.18-.83-9.65a1.53,1.53,0,0,1,.13-1.49c2.27-2.88,6.17,2,6.55,4.22A19.53,19.53,0,0,1,19.16,43a23.78,23.78,0,0,1,3.26-2.46l.95-.58c-1.75-1.84-1.25-3.11-1.38-5.66a17.53,17.53,0,0,0-3.53-9.56,27.21,27.21,0,0,1-3.28-4.66,1.7,1.7,0,0,1,.05-1.31,1.48,1.48,0,0,1,1.71-.92c2.23.63,4.15,2.6,5.81,4.13s4.16,3.42,5,5.68A18.43,18.43,0,0,1,27.63,37a12.94,12.94,0,0,0,2.68-3.15c.45-.73.85-1.49,1.23-2.25-2.49-1.36-2.77-5.8-2.38-8.14A11.62,11.62,0,0,0,28.05,16c-.74-1.58-2.74-3.2-2.89-4.95-.05-.49.48-.9.88-1,3.48-1.23,7.64,3.78,8.67,6.5.87,2.29,1,7.42,1,7.55a22.3,22.3,0,0,0,2.16-6.21,15.67,15.67,0,0,1,1.9-5.9c1.58-2.42,1.4-5.1,2.5-7.6.25-.56,1.18-1.12,1.78-.76,1.68,1,1.32,4.82,1.38,6.45a22.05,22.05,0,0,1-.85,8.28,25.8,25.8,0,0,1-4.91,8.56,14.31,14.31,0,0,0,2.79-2,20,20,0,0,0,5-6.23c.52-1.08.84-2.22,2-2.64a1.46,1.46,0,0,1,1.61.57c1.15,1.66-.06,4.91-.81,6.55a18.82,18.82,0,0,1-4.77,6.12c-3.06,2.7-7.91,3.17-11.91,2.69l-.09,0a26.67,26.67,0,0,1-2.66,4.23h.06c4-.66,7.61.29,11.41-1.31C45.06,33.71,54.44,36.1,51.86,40.15Z" style="fill:#05350f"/><path d="M32.18,27.89a10.94,10.94,0,0,0,1.24-6,17.59,17.59,0,0,0-1.81-5.6,16.39,16.39,0,0,0-3.19-3.87,13.94,13.94,0,0,1,1.94,2.75,45.38,45.38,0,0,1,1.52,4.33,6.81,6.81,0,0,1-.23,3.11c-.2,1.17-.5,4.27.26,6.1A3.49,3.49,0,0,1,32.18,27.89Z" style="fill:#1d9a46"/><path d="M18,39.79a20.83,20.83,0,0,0-.5-4.25s-1.52-3-2.63-3.67a16.58,16.58,0,0,1,1.54,6.53c.05,1.55-.87,2.69-1.34,4.09a7.92,7.92,0,0,0,0,4.72,10.05,10.05,0,0,0,1.23-1.65C17.11,43.73,18.08,41.89,18,39.79Z" style="fill:#1d9a46"/><path d="M47.58,23.24l.47-1c-.2.29-.39.57-.6.86a22.53,22.53,0,0,1-3.81,3.75,13,13,0,0,1-4.39,2.64c-.92.27-2.35.36-3.52.73l-.1.06c3.1.07,6.4-.62,8.51-2.78A16.38,16.38,0,0,0,47.58,23.24Z" style="fill:#1d9a46"/><path d="M42,19.32l-.36-.16c-.8-.25-.55-1,.13-1.19a1.26,1.26,0,0,1,.67,0c.09-.29.17-.58.23-.86L42,16.74a.59.59,0,0,1,.1-1.15,1.66,1.66,0,0,1,.86.07q.07-.42.12-.84c-.23,0-.45-.06-.68-.11-.9-.06-.83-.87-.13-1.19a1.52,1.52,0,0,1,.91-.11c0-.85,0-1.73,0-2.66,0-.15,0-.45,0-.83a8.09,8.09,0,0,1-.75,1.72,19.21,19.21,0,0,0-2.34,7,17.16,17.16,0,0,1-1.93,5.38A38.53,38.53,0,0,0,36,27.73,19.38,19.38,0,0,0,42,19.32Z" style="fill:#1d9a46"/><path d="M18.67,21.2c1.37,2,3.11,3.76,4.07,6,.32.75.66,1.51.94,2.3l.08,0c.65-.33,1,.44.71,1a.93.93,0,0,1-.41.4c.05.22.09.45.12.68.21,1.82-.22,3.88.17,5.65.47,2.12,1.15-2.89,1.23-3.5.28-2.27.68-4.53-1-6.44A41.51,41.51,0,0,0,18.67,21.2Z" style="fill:#1d9a46"/><path d="M45.64,36.3a5.82,5.82,0,0,0-3.51.71,13.62,13.62,0,0,1-3.72,1.11c-1.71.24-3.43-.6-5.18-.4-1.1.12-3.71.34-5,1.22l-.16.14c1.67.19,3.34.47,5,.63a1.56,1.56,0,0,1,.07-.34c0-.62.82-.67,1.14-.24a.9.9,0,0,1,.19.67l.88,0c.07-.3.14-.57.16-.64.1-.83.9-.72,1.19-.08a1.25,1.25,0,0,1,.11.65,12.08,12.08,0,0,0,3.2-.74c1.57-.61,3.15-1.46,4.89-1.33a34.67,34.67,0,0,1,4.67,1C49,37.56,46.19,36.39,45.64,36.3Z" style="fill:#1d9a46"/><path d="M19.86,48.19l.95-.14a2.83,2.83,0,0,1,.08-.48c0-.63.84-.65,1.15-.23a1,1,0,0,1,.18.45,15.49,15.49,0,0,1,6.32-.33,14.19,14.19,0,0,1,3.22,1.14,9.45,9.45,0,0,0-5.48-2.41c-2.35-.06-4.85-.19-7.06.75C16,48.31,18.08,48.44,19.86,48.19Z" style="fill:#1d9a46"/></svg>