<svg xmlns="http://www.w3.org/2000/svg" viewBox="0 0 60 60"><title>Strawberries</title><path d="M49.66,32.33c.06,4.9-2.64,11-7.4,16.62-3.48,4.13-8.39,8.32-11.53,8.35h0c-3.14,0-8.13-4-11.69-8.08-4.89-5.54-7.73-11.53-7.78-16.44-.07-5.32,1.87-9.64,5.6-12.5a1.07,1.07,0,0,1,.44-.19A6.63,6.63,0,0,1,18,18.38,17,17,0,0,1,22,14a13.74,13.74,0,0,1,7.58-2.64l.09-7.07a1.1,1.1,0,0,1,1.08-1.07A1.08,1.08,0,0,1,31.85,4.3l-.09,7.08a13.62,13.62,0,0,1,7.48,2.77A14,14,0,0,1,43.82,20l.06,0C47.6,22.82,49.6,27.06,49.66,32.33Z" style="fill:#05350f"/><path d="M43.65,22.67a2.1,2.1,0,0,1-.15.22,2.73,2.73,0,0,1-2.23.93c-1.78,0-4.29-1.11-6.66-2.92-.28,3.94-1.69,7.6-4.11,7.6h0c-2.43,0-3.77-3.7-4-7.66-2.36,1.73-4.84,2.79-6.61,2.79a2.78,2.78,0,0,1-2.29-1,1.3,1.3,0,0,0-.1-.15c-2.79,2.44-4.2,5.87-4.14,10.24s2.69,9.88,7.25,15c4.07,4.61,8.3,7.35,10.06,7.35h0c1.75,0,5.94-2.86,9.91-7.59,4.44-5.26,7-10.81,6.89-15.21C47.46,28.26,46.16,25,43.65,22.67ZM19.78,39a1.82,1.82,0,1,1,1.82-1.82A1.83,1.83,0,0,1,19.78,39Zm.79-7.76a1.82,1.82,0,1,1,1.82-1.82A1.82,1.82,0,0,1,20.57,31.2Zm5.54,12.5a1.82,1.82,0,1,1,1.82-1.82A1.82,1.82,0,0,1,26.11,43.7Zm1.11-7.43A1.82,1.82,0,1,1,29,34.45,1.83,1.83,0,0,1,27.22,36.27Zm3.32,14.24a1.82,1.82,0,1,1,1.82-1.82A1.83,1.83,0,0,1,30.54,50.51Zm1.29-16.07a1.82,1.82,0,1,1,1.82,1.82A1.83,1.83,0,0,1,31.83,34.44Zm2.93,9.26a1.82,1.82,0,1,1,1.82-1.82A1.82,1.82,0,0,1,34.76,43.7Zm3.72-14.32A1.82,1.82,0,1,1,40.3,31.2,1.83,1.83,0,0,1,38.48,29.38ZM41.09,39a1.82,1.82,0,1,1,1.82-1.82A1.83,1.83,0,0,1,41.09,39Z" style="fill:#f13d43"/><path d="M30.5,26.34c.56,0,2-2.33,2-6.65a9.93,9.93,0,0,0-.07-1.15,1.07,1.07,0,0,1,.63-1.12,1.08,1.08,0,0,1,1.25.29,8.83,8.83,0,0,0,1.11,1.1c2.42,2,4.68,2.85,5.84,2.85.31,0,.51-.06.56-.13a.56.56,0,0,0,.05-.38c-.11-1.09-1.41-3.22-4-5.34A12,12,0,0,0,31,13.49a1.11,1.11,0,0,1-.36-.08,1.16,1.16,0,0,1-.37.07,12.06,12.06,0,0,0-6.92,2.2,15,15,0,0,0-3.51,3.79c-.65,1.11-.65,1.74-.55,1.86s.22.15.6.15c1.17,0,3.43-.86,5.85-2.76a9.14,9.14,0,0,0,1.12-1.06,1.08,1.08,0,0,1,1.26-.26,1.09,1.09,0,0,1,.61,1.13,7.86,7.86,0,0,0-.1,1.11c-.05,4.34,1.3,6.7,1.86,6.7" style="fill:#acf252"/><path d="M43.65,22.67c2.5,2.35,3.8,5.6,3.85,9.69,0,4.4-2.46,9.94-6.89,15.21-4,4.72-8.16,7.57-9.91,7.59h0c-1.76,0-6-2.74-10.07-7.36-4.56-5.16-7.2-10.64-7.25-15S14.72,25,17.51,22.52l-.26-2.43a1,1,0,0,0-.43.19c-3.73,2.86-5.67,7.18-5.61,12.5.06,4.91,2.9,10.9,7.79,16.44,3.56,4,8.54,8.09,11.68,8.09h0c3.14,0,8.05-4.23,11.53-8.36,4.76-5.65,7.46-11.71,7.4-16.62-.06-5.26-2.06-9.51-5.78-12.28Z" style="fill:#60111a"/><circle cx="20.55" cy="29.37" r="1.82" style="fill:#2d060c"/><circle cx="27.2" cy="34.43" r="1.82" style="fill:#2d060c"/><circle cx="19.76" cy="37.12" r="1.82" style="fill:#2d060c"/><circle cx="26.09" cy="41.87" r="1.82" style="fill:#2d060c"/><circle cx="30.52" cy="48.68" r="1.82" style="fill:#2d060c"/><circle cx="40.28" cy="29.37" r="1.82" style="fill:#2d060c"/><circle cx="33.63" cy="34.43" r="1.82" style="fill:#2d060c"/><circle cx="41.07" cy="37.12" r="1.82" style="fill:#2d060c"/><circle cx="34.74" cy="41.87" r="1.82" style="fill:#2d060c"/></svg>