<svg xmlns="http://www.w3.org/2000/svg" viewBox="0 0 60 60"><title>Thyme</title><path d="M42.52,34.09a13.19,13.19,0,0,0,3,.36,9,9,0,0,0,4-.86c3.76-1.86,5.15-6.47,5.21-6.67a1.07,1.07,0,0,0-.64-1.29c-.19-.07-4.69-1.78-8.46.08a9,9,0,0,0-3.16,2.71,76,76,0,0,0-1-9.17A9.25,9.25,0,0,0,47,16.86c2.59-2.6,2.43-6.81,2.42-7a1.06,1.06,0,0,0-1-1,10.87,10.87,0,0,0-6.21,1.82,8.14,8.14,0,0,0-.37-1.33c-1.59-4.07-6.25-5.92-6.45-6A1.07,1.07,0,0,0,34,3.87c-.09.19-2.27,4.72-.68,8.78h0c.09.21.18.4.28.6a11,11,0,0,0-5.73,2,11,11,0,0,0-6,.73c0-.22,0-.43,0-.65h0C21.4,11,17.43,8,17.26,7.82A1.06,1.06,0,0,0,15.83,8c-.14.16-3.48,3.9-3.09,8.25A9.18,9.18,0,0,0,13,17.55a10.77,10.77,0,0,0-6.36,1.16,1,1,0,0,0-.46,1.35c.07.17,1.8,4,5.28,5.18a7.46,7.46,0,0,0,2.35.36,10.64,10.64,0,0,0,3.61-.68,73.54,73.54,0,0,0,3.21,8.65,9.07,9.07,0,0,0-4-1h0c-4.2,0-7.46,3.57-7.6,3.72a1,1,0,0,0,0,1.43c.13.15,3.42,3.64,7.6,3.64h0a10.73,10.73,0,0,0,6.49-2.68c.95,1.76,2,3.5,3.06,5.2.49.75,1,1.47,1.51,2.2A8.91,8.91,0,0,0,24,45.68c-4.17.5-7,4.4-7.13,4.57A1.06,1.06,0,0,0,17,51.67a12.27,12.27,0,0,0,7.08,2.79,7.5,7.5,0,0,0,.93-.06,10.87,10.87,0,0,0,6.24-3.52,74.74,74.74,0,0,0,5.46,6h0a1,1,0,0,0,.17.12,1.14,1.14,0,0,0,.19.1l0,0a1,1,0,0,0,.34,0,.94.94,0,0,0,.37-.07l.1,0a1.14,1.14,0,0,0,.23-.15l.06,0s0,0,0,0a1.14,1.14,0,0,0,.15-.23.47.47,0,0,0,0-.1l0,0a76.31,76.31,0,0,0,2.19-7.84,12.47,12.47,0,0,0,4.31.83A8.37,8.37,0,0,0,47.84,49c3.95-1.41,5.86-5.83,5.94-6a1.05,1.05,0,0,0-.48-1.35c-.18-.09-4.46-2.32-8.41-.91a9,9,0,0,0-3.14,2c.12-.87.26-1.75.36-2.63C42.33,38.11,42.46,36.1,42.52,34.09ZM22.34,32.18a71.42,71.42,0,0,1-2.81-7.6H20A9,9,0,0,0,25.35,23,9.24,9.24,0,0,0,28.48,18a9.19,9.19,0,0,0,5.06,3.14,7.28,7.28,0,0,0,1.22.11,10.22,10.22,0,0,0,4.69-1.32,74.66,74.66,0,0,1,.88,8.06,8.89,8.89,0,0,0-2.71-2.44,10.42,10.42,0,0,0-6.49-.93.48.48,0,0,0-.12,0c-.2,0-5,.75-7.33,4.22A8.85,8.85,0,0,0,22.34,32.18ZM40,39.89a74.93,74.93,0,0,1-3,14.24c-1.36-1.42-2.69-2.89-3.95-4.43a10.72,10.72,0,0,0,5.32-4.5h0c1.95-3.71.35-8.26.28-8.45a1.06,1.06,0,0,0-1.27-.67c-.2,0-4.85,1.33-6.8,5a9,9,0,0,0-.95,4c-.57-.81-1.13-1.61-1.66-2.43-1.07-1.66-2.06-3.35-3-5.08a13.43,13.43,0,0,0,3-1.25,8.85,8.85,0,0,0,3-2.66,7.85,7.85,0,0,0,.86-1.68,8.56,8.56,0,0,0,1.53,1.12,9.37,9.37,0,0,0,4.57,1.08A14.22,14.22,0,0,0,40.4,34Q40.31,36.94,40,39.89Z" style="fill:#05350f"/><path d="M30.35,27.87a1.48,1.48,0,0,0,0-.21c0-.25,0-.51-.05-.76A8.79,8.79,0,0,0,25.43,30a8.78,8.78,0,0,0-1.1,5.65,8.85,8.85,0,0,0,4.86-3.09h0a7,7,0,0,0,1.06-2.9A11.81,11.81,0,0,0,30.35,27.87Z" style="fill:#1d9a46"/><path d="M33.91,19h0a7.29,7.29,0,0,0,4.57-1l-.15-.17-.28-.29-.18-.19c-.17-.16-.35-.33-.56-.5l-.11-.09a6.94,6.94,0,0,0-.68-.49l-.11-.07a5.87,5.87,0,0,0-.83-.42,4.56,4.56,0,0,0-1-.32,7.24,7.24,0,0,0-4.56,1A7.22,7.22,0,0,0,33.91,19Z" style="fill:#1d9a46"/><path d="M34.37,31.33a8.77,8.77,0,0,0,5.72.59,8.85,8.85,0,0,0-3.51-4.57h0a7.72,7.72,0,0,0-4.19-.79v.05c0,.4.07.86.08,1.38v.15a11.92,11.92,0,0,1-.08,1.42v0A6.76,6.76,0,0,0,34.37,31.33Z" style="fill:#1d9a46"/><path d="M47.13,47h0a8.79,8.79,0,0,0,4.22-3.92,8.82,8.82,0,0,0-5.75-.37,8.75,8.75,0,0,0-4.22,3.92A8.82,8.82,0,0,0,47.13,47Z" style="fill:#1d9a46"/><path d="M16.6,34.68A8.79,8.79,0,0,0,11.33,37a8.79,8.79,0,0,0,5.27,2.25h0a8.81,8.81,0,0,0,5.27-2.3,8.79,8.79,0,0,0-5.27-2.25Z" style="fill:#1d9a46"/><path d="M21.14,19.18a5.58,5.58,0,0,0-.51.69l-.11.19c-.11.18-.2.36-.29.54a3.18,3.18,0,0,0-.16.32c-.08.19-.15.37-.22.55s-.1.3-.14.44l-.06.21c0,.11-.07.23-.1.34a7.23,7.23,0,0,0,4.53-1.14,7.27,7.27,0,0,0,2.37-4,7.29,7.29,0,0,0-4.53,1.13A5,5,0,0,0,21.14,19.18Z" style="fill:#1d9a46"/><path d="M36.49,13.84l.14.07.48.24.24.13.57.36a3.15,3.15,0,0,1,.29.22,2.69,2.69,0,0,1,.27.2l.3.24.21.19.22.19c0-.2.09-.4.14-.61,0-.05,0-.1,0-.16s.09-.32.15-.49a1.46,1.46,0,0,1,.07-.19,5.38,5.38,0,0,1,.2-.51l.06-.16q.15-.33.33-.66v0a6.94,6.94,0,0,0-.43-2.76A9.29,9.29,0,0,0,35.5,5.78a9.29,9.29,0,0,0-.23,6.1A6.65,6.65,0,0,0,36.49,13.84Z" style="fill:#1d9a46"/><path d="M42,14.09l-.13.26-.12.29a2.49,2.49,0,0,0-.11.29,2.5,2.5,0,0,0-.09.25c0,.11-.07.22-.1.33a1.6,1.6,0,0,0,0,.21l-.09.36,0,.16c0,.13,0,.26-.06.38a.5.5,0,0,0,0,.12c0,.13,0,.25,0,.36v0a7.28,7.28,0,0,0,4.32-1.78h0A7.33,7.33,0,0,0,47.2,11a7.23,7.23,0,0,0-4.32,1.78,5.37,5.37,0,0,0-.74,1Z" style="fill:#1d9a46"/><path d="M46.58,27.61A8.77,8.77,0,0,0,42.84,32a8.91,8.91,0,0,0,5.75-.3,8.77,8.77,0,0,0,3.74-4.38A8.78,8.78,0,0,0,46.58,27.61Z" style="fill:#1d9a46"/><path d="M24.24,47.78a8.8,8.8,0,0,0-5,2.9,8.8,8.8,0,0,0,5.52,1.62,8.76,8.76,0,0,0,5-2.9A8.8,8.8,0,0,0,24.24,47.78Z" style="fill:#1d9a46"/><path d="M15.71,18.67h0c.21.14.4.29.59.44l.13.12a3.42,3.42,0,0,1,.4.36l.16.15.34.36.12.13c.14.15.26.3.38.45l0,0a.41.41,0,0,1,0-.08c.06-.17.13-.34.21-.52l.09-.21.24-.49.09-.17c.12-.22.25-.43.39-.64,0-.06.07-.1.1-.15l.37-.5.08-.1a6.91,6.91,0,0,0,.22-2.31,9.29,9.29,0,0,0-2.93-5.34A9.34,9.34,0,0,0,14.85,16,6.94,6.94,0,0,0,15.71,18.67Z" style="fill:#1d9a46"/><path d="M16.78,22.86c-.06-.1-.13-.21-.21-.32l-.06-.09-.24-.32L16.18,22l-.24-.29-.14-.16-.24-.25c-.06-.06-.12-.13-.19-.19l-.23-.21-.24-.2-.22-.17-.29-.2a5,5,0,0,0-1.09-.54,7.36,7.36,0,0,0-4.66.34,7.29,7.29,0,0,0,3.5,3.09h0a7.22,7.22,0,0,0,4.66-.34Z" style="fill:#1d9a46"/><path d="M36.5,44.21a8.81,8.81,0,0,0,.44-5.74,8.77,8.77,0,0,0-4.47,3.63A8.81,8.81,0,0,0,32,47.84,8.82,8.82,0,0,0,36.5,44.21Z" style="fill:#1d9a46"/></svg>