<svg xmlns="http://www.w3.org/2000/svg" viewBox="0 0 60 60"><title>Tomato</title><path d="M57.43,32.71a20.94,20.94,0,0,1-2.19,9.54,21.22,21.22,0,0,1-6,7.19c-5,3.89-11.85,6-19.36,6s-14.38-2.14-19.36-6a21.22,21.22,0,0,1-6-7.19,20.94,20.94,0,0,1-2.19-9.54c0-7,3.07-12.1,9.11-15.15a17.39,17.39,0,0,1-3-2.72,1.07,1.07,0,0,1,1.1-1.74,49.16,49.16,0,0,0,10.46,1.35,21.92,21.92,0,0,1-1.83-6,1.08,1.08,0,0,1,1.69-1,47.6,47.6,0,0,0,7.14,4.09A24.61,24.61,0,0,1,28.65,5s0-.07,0-.11a3.1,3.1,0,0,1,1.7-1.64,3.08,3.08,0,0,1,4,4.09,18,18,0,0,0-1.06,4A38.75,38.75,0,0,1,44.07,9.91,1.08,1.08,0,0,1,44.5,12a20.66,20.66,0,0,0-4.79,3,24.82,24.82,0,0,0,8.3-.36,1.1,1.1,0,0,1,.94.18,1.08,1.08,0,0,1,.29,1.38,8.76,8.76,0,0,1-1,1.39C54.36,20.59,57.44,25.69,57.43,32.71Z" style="fill:#05350f"/><path d="M15.48,17.39l.48.22,1,.41.37.15c.36.14.73.27,1.1.39l.32.1c.38.13.76.24,1.14.34l.4.11c.39.1.78.2,1.16.28s.94.2,1.44.28l.4.07c.58.1,1.18.19,1.8.26a1.12,1.12,0,0,1,.77.45,1.14,1.14,0,0,1,.16.88,17.33,17.33,0,0,1-.79,2.37,20.88,20.88,0,0,1-1,2.05,15.05,15.05,0,0,0,8-4.76l.09-.1h0l.07-.07.1-.1a1.07,1.07,0,0,1,.69-.22H35a23.48,23.48,0,0,0,6.42-1l.26-.09c.29-.1.56-.21.83-.32a6.86,6.86,0,0,0,.66-.29l.23-.11c.32-.16.62-.32.88-.48l.22-.13c.2-.13.39-.25.55-.37a7.16,7.16,0,0,0,.61-.48l.06-.05-.6.06A28.49,28.49,0,0,1,37,16.67a1.09,1.09,0,0,1-.82-.8,1.06,1.06,0,0,1,.36-1.08l.85-.72c.76-.64,1.45-1.22,2.26-1.8a29,29,0,0,0-6.59,1.36s0,.1,0,.15c0,.44,0,.88,0,1.32h0v0s0,.07,0,.11a3.08,3.08,0,0,1-3.07,2.93h0a3.08,3.08,0,0,1-3.07-2.94s0-.08,0-.12v0h0c0-.36,0-.74,0-1.13v-.14a51.91,51.91,0,0,1-5.94-3.15,13.66,13.66,0,0,0,1.91,4.22A1.08,1.08,0,0,1,22,16.62,54.56,54.56,0,0,1,13,16c.5.33,1.06.66,1.65,1Z" style="fill:#acf252"/><path d="M29,15.06v0a.91.91,0,0,0,.9.89.92.92,0,0,0,1-.89h0c0-.64,0-1.38.09-2.17v-.13s0,0,0,0A21.17,21.17,0,0,1,32.36,6.5v0a.89.89,0,0,0,0-.7.88.88,0,0,0-.49-.51.8.8,0,0,0-.37-.08,1,1,0,0,0-.34.06.94.94,0,0,0-.51.49V5.8a23.81,23.81,0,0,0-1.6,7.55C29,13.93,29,14.51,29,15.06Z" style="fill:#acf252"/><path d="M46.66,19.14l0,0-.5.36-.36.24-.48.3-.47.27-.44.22c-.24.12-.47.23-.71.33l-.28.12c-.35.15-.7.27-1,.39l-.1,0-.3.09-.61.19-.54.14-.41.1a24.11,24.11,0,0,1-3.21.53h0c-.66.07-1.31.11-1.91.13l-.56,0h-1a17.83,17.83,0,0,1-11.35,5.65H22l-.15,0-.12,0a.65.65,0,0,1-.24-.12l-.15-.1L21.33,28s-.09-.09-.13-.15a1.1,1.1,0,0,1,0-1.17s.36-.53.8-1.33a22.12,22.12,0,0,0,1.28-2.69c.09-.22.17-.43.25-.65-.41-.06-.84-.14-1.28-.22l-.77-.15-.38-.08-1.05-.24H20c-.89-.22-1.72-.47-2.5-.73h0c-.41-.14-.8-.28-1.17-.43L16.13,20c-.32-.13-.64-.26-.94-.4l-.35-.16c-.28-.13-.55-.26-.81-.4l-.33-.16c-6.15,2.63-9.14,7.15-9.14,13.8a18.48,18.48,0,0,0,7.33,15c4.6,3.59,11,5.57,18,5.57s13.43-2,18-5.57a18.48,18.48,0,0,0,7.33-15C55.28,26.25,52.46,21.8,46.66,19.14Z" style="fill:#f13d43"/></svg>